<svg width="24" height="24" viewBox="0 0 24 24" fill="none" xmlns="http://www.w3.org/2000/svg">
<path fill-rule="evenodd" clip-rule="evenodd" d="M11.25 15.75C11.25 16.9926 10.2426 18 8.99997 18H8.92497C8.53994 16.1138 6.78919 14.8255 4.87382 15.019C2.95845 15.2125 1.50073 16.8249 1.50073 18.75C1.50073 20.6751 2.95845 22.2875 4.87382 22.481C6.78919 22.6745 8.53994 21.3862 8.92497 19.5H8.99997C9.99453 19.5 10.9484 19.1049 11.6516 18.4017C12.3549 17.6984 12.75 16.7446 12.75 15.75H11.25ZM5.24997 21C4.00733 21 2.99997 19.9926 2.99997 18.75C2.99997 17.5074 4.00733 16.5 5.24997 16.5C6.49261 16.5 7.49997 17.5074 7.49997 18.75C7.49997 19.9926 6.49261 21 5.24997 21ZM11.25 9.75H12.75V14.25H11.25V9.75ZM18.75 1.5C16.9677 1.49964 15.4314 2.75375 15.075 4.5H15C12.9289 4.5 11.25 6.17893 11.25 8.25H12.75C12.75 7.00736 13.7573 6 15 6H15.075C15.4696 7.93348 17.2952 9.23027 19.2508 8.9663C21.2064 8.70233 22.6229 6.96792 22.4908 4.999C22.3587 3.03008 20.7233 1.5004 18.75 1.5ZM18.75 7.5C17.5073 7.5 16.5 6.49264 16.5 5.25C16.5 4.00736 17.5073 3 18.75 3C19.9926 3 21 4.00736 21 5.25C21 6.49264 19.9926 7.5 18.75 7.5Z" fill="black"/>
</svg>
