<svg width="24" height="24" viewBox="0 0 24 24" fill="none" xmlns="http://www.w3.org/2000/svg">
<path fill-rule="evenodd" clip-rule="evenodd" d="M12.75 8.25C12.75 7.00736 13.7573 6 15 6H15.075C15.46 7.88622 17.2107 9.1745 19.1261 8.98101C21.0415 8.78752 22.4992 7.17512 22.4992 5.25C22.4992 3.32488 21.0415 1.71248 19.1261 1.51899C17.2107 1.3255 15.46 2.61378 15.075 4.5H15C12.9289 4.5 11.25 6.17893 11.25 8.25V9H9.74997C8.50733 9 7.49997 7.99264 7.49997 6.75V5.25C7.49997 3.17893 5.82103 1.5 3.74997 1.5H2.99997V3H3.74997C4.99261 3 5.99997 4.00736 5.99997 5.25V6.75C5.99997 8.82107 7.6789 10.5 9.74997 10.5H11.25V15.75C11.25 16.9926 10.2426 18 8.99997 18H8.92497C8.53994 16.1138 6.78919 14.8255 4.87382 15.019C2.95845 15.2125 1.50073 16.8249 1.50073 18.75C1.50073 20.6751 2.95845 22.2875 4.87382 22.481C6.78919 22.6745 8.53994 21.3862 8.92497 19.5H8.99997C9.99453 19.5 10.9484 19.1049 11.6516 18.4017C12.3549 17.6984 12.75 16.7446 12.75 15.75H14.625C15.6605 15.75 16.5 16.5895 16.5 17.625C16.5041 19.4872 18.0127 20.9959 19.875 21H21V19.5H19.875C18.8394 19.5 18 18.6605 18 17.625C17.9958 15.7628 16.4872 14.2541 14.625 14.25H12.75V8.25ZM18.75 3C19.9926 3 21 4.00736 21 5.25C21 6.49264 19.9926 7.5 18.75 7.5C17.5073 7.5 16.5 6.49264 16.5 5.25C16.5 4.00736 17.5073 3 18.75 3ZM5.24997 21C4.00733 21 2.99997 19.9926 2.99997 18.75C2.99997 17.5074 4.00733 16.5 5.24997 16.5C6.49261 16.5 7.49997 17.5074 7.49997 18.75C7.49997 19.9926 6.49261 21 5.24997 21Z" fill="black"/>
</svg>
