<svg width="24" height="24" viewBox="0 0 24 24" fill="none" xmlns="http://www.w3.org/2000/svg">
<path fill-rule="evenodd" clip-rule="evenodd" d="M7.12497 6H15.075C15.46 7.88622 17.2107 9.1745 19.1261 8.98101C21.0415 8.78752 22.4992 7.17512 22.4992 5.25C22.4992 3.32488 21.0415 1.71248 19.1261 1.51899C17.2107 1.3255 15.46 2.61378 15.075 4.5H7.12497C4.84679 4.5 2.99997 6.34683 2.99997 8.625C2.99997 10.9032 4.84679 12.75 7.12497 12.75H15.375C16.8247 12.75 18 13.9253 18 15.375C18 16.8247 16.8247 18 15.375 18H8.92497C8.53994 16.1138 6.78919 14.8255 4.87382 15.019C2.95845 15.2125 1.50073 16.8249 1.50073 18.75C1.50073 20.6751 2.95845 22.2875 4.87382 22.481C6.78919 22.6745 8.53994 21.3862 8.92497 19.5H15.375C17.6531 19.5 19.5 17.6532 19.5 15.375C19.5 13.0968 17.6531 11.25 15.375 11.25H7.12497C5.67522 11.25 4.49997 10.0747 4.49997 8.625C4.49997 7.17525 5.67522 6 7.12497 6ZM18.75 3C19.9926 3 21 4.00736 21 5.25C21 6.49264 19.9926 7.5 18.75 7.5C17.5073 7.5 16.5 6.49264 16.5 5.25C16.5 4.00736 17.5073 3 18.75 3ZM5.24997 21C4.00733 21 2.99997 19.9926 2.99997 18.75C2.99997 17.5074 4.00733 16.5 5.24997 16.5C6.49261 16.5 7.49997 17.5074 7.49997 18.75C7.49997 19.9926 6.49261 21 5.24997 21Z" fill="black"/>
</svg>
