<svg width="24" height="24" viewBox="0 0 24 24" fill="none" xmlns="http://www.w3.org/2000/svg">
<path fill-rule="evenodd" clip-rule="evenodd" d="M8.25 1.5H1.5V8.25H3V3H8.25V1.5ZM1.5 15.75V22.5H8.25V21H3V15.75H1.5ZM22.5 8.25V1.5H15.75V3H21V8.25H22.5ZM15.75 22.5H22.5V15.75H21V21H15.75V22.5ZM19.1175 7.5975L12.3675 3.8475C12.1354 3.71353 11.8496 3.71353 11.6175 3.8475L4.8675 7.5975C4.63741 7.7339 4.49738 7.98253 4.5 8.25V15.75C4.50047 16.0206 4.64663 16.2699 4.8825 16.4025L11.6325 20.1525C11.8646 20.2865 12.1504 20.2865 12.3825 20.1525L19.1325 16.4025C19.3626 16.2661 19.5026 16.0175 19.5 15.75V8.25C19.4995 7.97943 19.3534 7.73008 19.1175 7.5975ZM12 5.355L17.205 8.25L12 11.145L6.795 8.25L12 5.355ZM6 9.525L11.25 12.4425V18.225L6 15.3075V9.525ZM12.75 18.225V12.4425L18 9.525V15.3075L12.75 18.225Z" fill="black"/>
</svg>
