<svg width="24" height="24" viewBox="0 0 24 24" fill="none" xmlns="http://www.w3.org/2000/svg">
<path fill-rule="evenodd" clip-rule="evenodd" d="M16.1174 9.83625L9.36741 6.08625C9.13536 5.95228 8.84946 5.95228 8.61741 6.08625L1.86741 9.83625C1.63472 9.97557 1.49448 10.2288 1.49991 10.5V17.9963C1.50189 18.2684 1.65115 18.5181 1.88991 18.6488L8.63991 22.3988C8.74948 22.4622 8.8733 22.4971 8.99991 22.5C9.12882 22.4967 9.25498 22.4619 9.36741 22.3988L16.1174 18.6488C16.353 18.5178 16.4994 18.2696 16.4999 18V10.5C16.5022 10.2257 16.3559 9.97174 16.1174 9.83625ZM8.24991 20.4713L2.99991 17.5537V11.7638L8.24991 14.6812V20.4713ZM8.99991 13.3837L3.79491 10.5L8.99991 7.60125L14.2049 10.4963L8.99991 13.3837ZM14.9999 17.5537L9.74991 20.4713V14.6812L14.9999 11.7638V17.5537ZM22.4999 4.5H19.4999V1.5H17.9999V4.5H14.9999V6H17.9999V9H19.4999V6H22.4999V4.5Z" fill="black"/>
</svg>
