<svg width="24" height="24" viewBox="0 0 24 24" fill="none" xmlns="http://www.w3.org/2000/svg">
<path fill-rule="evenodd" clip-rule="evenodd" d="M19.5 16.5C18.9703 16.5026 18.4515 16.6505 18 16.9275L15.6825 14.6025C16.7877 13.0435 16.7877 10.9565 15.6825 9.3975L18 7.0725C18.4515 7.34955 18.9703 7.49741 19.5 7.5C21.1569 7.5 22.5 6.15685 22.5 4.5C22.5 2.84315 21.1569 1.5 19.5 1.5C17.8431 1.5 16.5 2.84315 16.5 4.5C16.5026 5.02969 16.6505 5.54853 16.9275 6L14.6025 8.3175C13.0435 7.2123 10.9565 7.2123 9.3975 8.3175L7.0725 6C7.34955 5.54853 7.49741 5.02969 7.5 4.5C7.5 2.84315 6.15685 1.5 4.5 1.5C2.84315 1.5 1.5 2.84315 1.5 4.5C1.5 6.15685 2.84315 7.5 4.5 7.5C5.02969 7.49741 5.54853 7.34955 6 7.0725L8.3175 9.3975C7.2123 10.9565 7.2123 13.0435 8.3175 14.6025L6 16.9275C5.54853 16.6505 5.02969 16.5026 4.5 16.5C2.84315 16.5 1.5 17.8431 1.5 19.5C1.5 21.1569 2.84315 22.5 4.5 22.5C6.15685 22.5 7.5 21.1569 7.5 19.5C7.49741 18.9703 7.34955 18.4515 7.0725 18L9.3975 15.6825C10.9565 16.7877 13.0435 16.7877 14.6025 15.6825L16.9275 18C16.6505 18.4515 16.5026 18.9703 16.5 19.5C16.5 21.1569 17.8431 22.5 19.5 22.5C21.1569 22.5 22.5 21.1569 22.5 19.5C22.5 17.8431 21.1569 16.5 19.5 16.5ZM12 15C10.3431 15 9 13.6569 9 12C9 10.3431 10.3431 9 12 9C13.6569 9 15 10.3431 15 12C15 12.7956 14.6839 13.5587 14.1213 14.1213C13.5587 14.6839 12.7956 15 12 15Z" fill="black"/>
</svg>
