<svg width="24" height="24" viewBox="0 0 24 24" fill="none" xmlns="http://www.w3.org/2000/svg">
<path fill-rule="evenodd" clip-rule="evenodd" d="M9 8.2725V11.2725H7.5V8.2725H6V12.7725H9V15.7725H10.5V8.2725H9ZM18.1425 8.2725H16.5L14.25 11.565V8.2725H12.75V15.7725H14.25V13.725L14.9325 12.7275L16.5 15.7725H18.1425L15.9 11.5575L18.1425 8.2725ZM21 19.5H3C2.17157 19.5 1.5 18.8284 1.5 18V6C1.5 5.17157 2.17157 4.5 3 4.5H21C21.8284 4.5 22.5 5.17157 22.5 6V18C22.5 18.8284 21.8284 19.5 21 19.5ZM3 6V18H21V6H3Z" fill="black"/>
</svg>
