<svg width="24" height="24" viewBox="0 0 24 24" fill="none" xmlns="http://www.w3.org/2000/svg">
<path fill-rule="evenodd" clip-rule="evenodd" d="M22.1626 18.7992L19.8751 19.8936L17.7451 15.12H11.2501C10.4216 15.12 9.75007 14.4753 9.75007 13.68V9.35997C9.75007 8.56468 10.4216 7.91997 11.2501 7.91997C12.0785 7.91997 12.7501 8.56468 12.7501 9.35997V12.24H18.0001V10.8H14.2501V9.35997C14.2501 7.76939 12.9069 6.47997 11.2501 6.47997C9.59322 6.47997 8.25007 7.76939 8.25007 9.35997V10.08C4.71709 10.0781 1.78032 12.6919 1.51536 16.074C1.2504 19.4561 3.74692 22.4622 7.24045 22.9676C10.734 23.473 14.0425 21.3068 14.8276 18H13.2826C12.5102 20.4869 9.89702 22.0043 7.24403 21.5063C4.59103 21.0084 2.76558 18.6578 3.0258 16.0748C3.28602 13.4918 5.54685 11.5206 8.25007 11.52V13.68C8.25007 15.2706 9.59322 16.56 11.2501 16.56H16.7551L19.1251 21.8664L22.8376 20.0808L22.1626 18.7992ZM11.6251 5.75997C10.1753 5.75997 9.00007 4.63173 9.00007 3.23997C9.00007 1.84821 10.1753 0.719971 11.6251 0.719971C13.0748 0.719971 14.2501 1.84821 14.2501 3.23997C14.2501 4.63173 13.0748 5.75997 11.6251 5.75997ZM11.6251 2.15997C11.0038 2.15997 10.5001 2.6435 10.5001 3.23997C10.5001 3.83644 11.0038 4.31997 11.6251 4.31997C12.2464 4.31997 12.7501 3.83644 12.7501 3.23997C12.7501 2.95354 12.6315 2.67883 12.4206 2.4763C12.2096 2.27376 11.9234 2.15997 11.6251 2.15997Z" fill="black"/>
</svg>
