<svg width="24" height="24" viewBox="0 0 24 24" fill="none" xmlns="http://www.w3.org/2000/svg">
<path fill-rule="evenodd" clip-rule="evenodd" d="M12 21C7.44365 21 3.75 17.3064 3.75 12.75C3.75 8.19368 7.44365 4.50003 12 4.50003C16.5563 4.50003 20.25 8.19368 20.25 12.75C20.25 14.9381 19.3808 17.0365 17.8336 18.5837C16.2865 20.1308 14.188 21 12 21ZM12 6.00003C8.27208 6.00003 5.25 9.0221 5.25 12.75C5.25 16.4779 8.27208 19.5 12 19.5C15.7279 19.5 18.75 16.4779 18.75 12.75C18.75 9.0221 15.7279 6.00003 12 6.00003ZM3 5.69403L5.6865 3.00228L6.7485 4.06203L4.062 6.75378L3 5.69403ZM17.25 4.05603L18.3112 2.99628L20.997 5.68803L19.9357 6.74778L17.25 4.05603ZM15.75 12H12.75V9.00003H11.25V12H8.25V13.5H11.25V16.5H12.75V13.5H15.75V12Z" fill="black"/>
</svg>
