<svg width="24" height="24" viewBox="0 0 24 24" fill="none" xmlns="http://www.w3.org/2000/svg">
<path fill-rule="evenodd" clip-rule="evenodd" d="M6.74991 18C6.67421 17.4795 6.44433 16.9936 6.08991 16.605L13.2374 4.17L11.9399 3.42L4.76241 15.84C4.55519 15.7802 4.34058 15.7499 4.12491 15.75C2.82314 15.7454 1.71468 16.6956 1.52017 17.9828C1.32567 19.2699 2.10389 20.5052 3.34888 20.8855C4.59387 21.2658 5.9295 20.6762 6.48741 19.5H20.9999V18H6.74991ZM4.12491 19.5C3.50359 19.5 2.99991 18.9963 2.99991 18.375C2.99991 17.7537 3.50359 17.25 4.12491 17.25C4.74623 17.25 5.24991 17.7537 5.24991 18.375C5.24991 18.9963 4.74623 19.5 4.12491 19.5ZM16.4999 15.75H17.9999C17.9996 12.6094 16.4864 9.66122 13.9349 7.83L13.0649 9.045C15.2231 10.5962 16.5018 13.0922 16.4999 15.75Z" fill="black"/>
</svg>
