<svg width="24" height="24" viewBox="0 0 24 24" fill="none" xmlns="http://www.w3.org/2000/svg">
<path fill-rule="evenodd" clip-rule="evenodd" d="M21 3H3C2.17157 3 1.5 3.67157 1.5 4.5V19.5C1.5 20.3284 2.17157 21 3 21H21C21.8284 21 22.5 20.3284 22.5 19.5V4.5C22.5 3.67157 21.8284 3 21 3ZM21 19.5H3V4.5H21V19.5ZM15.75 15H9.75C9.6743 14.4795 9.44442 13.9936 9.09 13.605L11.94 8.625L10.635 7.875L7.8 12.84C7.58013 12.7795 7.35304 12.7492 7.125 12.75C5.82323 12.7454 4.71477 13.6956 4.52027 14.9828C4.32576 16.2699 5.10398 17.5052 6.34897 17.8855C7.59397 18.2658 8.92959 17.6762 9.4875 16.5H15.75V15ZM7.125 16.5C6.50368 16.5 6 15.9963 6 15.375C6 14.7537 6.50368 14.25 7.125 14.25C7.74632 14.25 8.25 14.7537 8.25 15.375C8.25 15.9963 7.74632 16.5 7.125 16.5ZM14.25 6H19.5V7.5H14.25V6ZM14.25 9H17.25V10.5H14.25V9Z" fill="black"/>
</svg>
