<svg width="24" height="24" viewBox="0 0 24 24" fill="none" xmlns="http://www.w3.org/2000/svg">
<path fill-rule="evenodd" clip-rule="evenodd" d="M12 1.5C6.20101 1.5 1.5 6.20101 1.5 12C1.5 17.799 6.20101 22.5 12 22.5C17.799 22.5 22.5 17.799 22.5 12C22.5 9.21523 21.3938 6.54451 19.4246 4.57538C17.4555 2.60625 14.7848 1.5 12 1.5ZM20.88 10.605L16.5 13.14V4.215C18.8489 5.57549 20.4583 7.92347 20.88 10.605ZM9 14.01V9.99L12 8.25L15 9.9825V14.0025L12 15.75L9 14.01ZM15 3.51V8.25L7.755 4.065C9.98415 2.86575 12.6177 2.66946 15 3.525V3.51ZM6.36 5.01L10.5 7.3875L3 11.715C3.08675 9.09228 4.31387 6.63804 6.36 4.995V5.01ZM3.12 13.3875L7.5 10.8525V19.785C5.14921 18.4229 3.53953 16.0718 3.12 13.3875ZM9 20.475V15.75L16.2525 19.935C14.9454 20.6374 13.4839 21.0034 12 21C10.9775 20.996 9.9631 20.8185 9 20.475ZM17.64 18.975L13.5 16.605L21 12.2775C20.9154 14.9029 19.6881 17.3603 17.64 19.005V18.975Z" fill="black"/>
</svg>
