<svg width="24" height="24" viewBox="0 0 24 24" fill="none" xmlns="http://www.w3.org/2000/svg">
<path fill-rule="evenodd" clip-rule="evenodd" d="M1.5 21H22.5V22.5H1.5V21ZM12.9075 3.92253L13.95 4.20753L14.7 12.675L19.1025 13.8525C19.8356 14.0256 20.3267 14.7156 20.25 15.465C20.1624 16.0145 19.7599 16.461 19.2225 16.605C18.9765 16.6685 18.7185 16.6685 18.4725 16.605L4.4475 12.855C3.69876 12.6502 3.25408 11.8812 3.45 11.13L4.7625 6.25503L5.8425 6.54003L6.3 10.425L10.8 11.64L12.9075 3.92253ZM12.1575 2.27253C11.9097 2.34567 11.717 2.5412 11.6475 2.79003L9.75 9.80253L7.6425 9.24003L7.2675 5.84253C7.22073 5.56315 7.02055 5.33395 6.75 5.25003L4.4025 4.60503C4.27979 4.57117 4.15021 4.57117 4.0275 4.60503C3.78155 4.67676 3.58923 4.86908 3.5175 5.11503L2.0175 10.7325C1.8183 11.4765 1.92293 12.2691 2.30836 12.9358C2.69379 13.6026 3.32842 14.0889 4.0725 14.2875L18.105 18.0375C18.8941 18.2598 19.7404 18.138 20.4349 17.7022C21.1293 17.2664 21.607 16.5573 21.75 15.75C21.9559 14.2328 20.9861 12.8039 19.5 12.435L16.11 11.5275L15.3975 3.53253C15.3635 3.23016 15.1502 2.97832 14.8575 2.89503L12.5475 2.25003C12.4243 2.22012 12.2957 2.22012 12.1725 2.25003L12.1575 2.27253Z" fill="black"/>
</svg>
