<svg width="24" height="24" viewBox="0 0 24 24" fill="none" xmlns="http://www.w3.org/2000/svg">
<path fill-rule="evenodd" clip-rule="evenodd" d="M11.2501 2.25H11.1001C6.10439 3.07781 2.55788 7.56949 2.91149 12.621C3.26509 17.6725 7.40278 21.6263 12.4651 21.75H12.8326C16.0296 21.7519 19.0271 20.1958 20.8651 17.58C21.0199 17.3511 21.0362 17.0556 20.9076 16.811C20.7791 16.5664 20.5264 16.4123 20.2501 16.41C17.2169 16.1372 14.4823 14.4711 12.849 11.9007C11.2156 9.3302 10.8687 6.14693 11.9101 3.285C12.0032 3.0591 11.9804 2.80201 11.8491 2.596C11.7177 2.39 11.4942 2.26089 11.2501 2.25Z" fill="black"/>
</svg>
