<svg width="24" height="24" viewBox="0 0 24 24" fill="none" xmlns="http://www.w3.org/2000/svg">
<path fill-rule="evenodd" clip-rule="evenodd" d="M10.1176 4.0575C9.42286 7.02421 9.95452 10.1457 11.5922 12.7152C13.2299 15.2846 15.835 17.0846 18.8176 17.7075C17.2467 19.3358 15.0802 20.2539 12.8176 20.25H12.5026C8.49451 20.1028 5.16114 17.1186 4.57309 13.1512C3.98505 9.18371 6.30952 5.36096 10.1026 4.0575H10.1176ZM11.2501 2.25H11.1001C6.10439 3.07781 2.55788 7.56949 2.91149 12.621C3.26509 17.6725 7.40278 21.6263 12.4651 21.75H12.8326C16.0296 21.7519 19.0271 20.1958 20.8651 17.58C21.0199 17.3511 21.0362 17.0556 20.9076 16.811C20.7791 16.5664 20.5264 16.4123 20.2501 16.41C17.2169 16.1372 14.4823 14.4711 12.849 11.9007C11.2156 9.3302 10.8687 6.14693 11.9101 3.285C12.0032 3.0591 11.9804 2.80201 11.8491 2.596C11.7177 2.39 11.4942 2.26089 11.2501 2.25Z" fill="black"/>
</svg>
