<svg width="24" height="24" viewBox="0 0 24 24" fill="none" xmlns="http://www.w3.org/2000/svg">
<path fill-rule="evenodd" clip-rule="evenodd" d="M9.05613 18C7.39928 18 6.05613 16.6569 6.05613 15C6.05613 13.3431 7.39928 12 9.05613 12C10.713 12 12.0561 13.3431 12.0561 15C12.0545 16.6562 10.7123 17.9983 9.05613 18ZM9.05613 13.5C8.2277 13.5 7.55613 14.1716 7.55613 15C7.55613 15.8284 8.2277 16.5 9.05613 16.5C9.88456 16.5 10.5561 15.8284 10.5561 15C10.5553 14.1719 9.88421 13.5008 9.05613 13.5ZM22.4999 4.5C22.4982 2.84383 21.156 1.50165 19.4999 1.5C19.0141 1.5034 18.5365 1.62626 18.1094 1.85775L5.81763 8.21775C2.81685 9.6225 1.09471 12.8311 1.58255 16.1083C2.0704 19.3855 4.65243 21.9533 7.93226 22.4232C11.2121 22.893 14.4112 21.1532 15.7994 18.1448L22.1669 5.84475C22.3826 5.42912 22.4967 4.96827 22.4999 4.5ZM19.4999 3C20.3283 3 20.9999 3.67157 20.9999 4.5C20.9999 5.32843 20.3283 6 19.4999 6C18.6715 6 17.9999 5.32843 17.9999 4.5C18.0007 3.67192 18.6718 3.00083 19.4999 3ZM16.5149 4.356C16.5119 4.40475 16.4999 4.4505 16.4999 4.5C16.5015 6.15617 17.8437 7.49835 19.4999 7.5C19.5486 7.5 19.5929 7.488 19.6409 7.48575L16.3919 13.7572C15.855 10.6062 13.3829 8.13987 10.2306 7.61025L16.5149 4.356ZM8.99988 21C5.68617 21 2.99988 18.3137 2.99988 15C2.99988 11.6863 5.68617 9 8.99988 9C12.3136 9 14.9999 11.6863 14.9999 15C14.9957 18.312 12.3119 20.9959 8.99988 21Z" fill="black"/>
</svg>
