<svg width="24" height="24" viewBox="0 0 24 24" fill="none" xmlns="http://www.w3.org/2000/svg">
<path fill-rule="evenodd" clip-rule="evenodd" d="M11.9999 2.25005C9.40918 2.23396 6.91987 3.25602 5.08789 5.088C3.25591 6.91998 2.23385 9.40929 2.24994 12V12.75C2.24994 18.1348 6.61517 22.5 11.9999 22.5H17.2499V21H11.9999C9.81191 21 7.71349 20.1309 6.16631 18.5837C4.61914 17.0365 3.74994 14.9381 3.74994 12.75V12C3.73789 9.80834 4.60321 7.70291 6.15301 6.15311C7.7028 4.60332 9.80823 3.73799 11.9999 3.75005C14.2104 3.6739 16.3534 4.51862 17.9174 6.08261C19.4814 7.64659 20.3261 9.78955 20.2499 12C20.2499 14.6925 19.1999 15.75 17.5049 15.75C16.3199 15.75 15.7499 14.7825 15.7499 13.5V7.50005H14.2499V8.95505C13.7168 8.01642 12.7035 7.45477 11.6249 7.50005C9.36087 7.49172 7.51645 9.31602 7.49994 11.58V13.17C7.51645 15.4341 9.36087 17.2584 11.6249 17.25C12.9032 17.2875 14.0817 16.5627 14.6249 15.405C15.1682 16.5311 16.3072 17.2478 17.5574 17.25C19.8599 17.25 21.7499 15.75 21.7499 12C21.8079 9.39685 20.7993 6.88308 18.9581 5.04189C17.1169 3.20069 14.6031 2.19209 11.9999 2.25005ZM14.2499 13.17C14.2499 14.6198 13.0747 15.795 11.6249 15.795C10.1752 15.795 8.99994 14.6198 8.99994 13.17V11.58C8.99994 10.1303 10.1752 8.95505 11.6249 8.95505C13.0747 8.95505 14.2499 10.1303 14.2499 11.58V13.17Z" fill="black"/>
</svg>
