<svg width="24" height="24" viewBox="0 0 24 24" fill="none" xmlns="http://www.w3.org/2000/svg">
<path fill-rule="evenodd" clip-rule="evenodd" d="M20.3251 13.425L10.5751 3.67499C8.65032 1.89006 5.65876 1.94641 3.80261 3.80255C1.94647 5.6587 1.89012 8.65026 3.67505 10.575L5.92505 12.825L6.98255 11.7675L4.73255 9.51749C3.82961 8.67612 3.45793 7.40899 3.76332 6.21319C4.0687 5.01739 5.00245 4.08364 6.19825 3.77826C7.39405 3.47287 8.66118 3.84455 9.50255 4.74749L19.2526 14.4975C20.1555 15.3389 20.5272 16.606 20.2218 17.8018C19.9164 18.9976 18.9827 19.9313 17.7869 20.2367C16.5911 20.5421 15.3239 20.1704 14.4826 19.2675L9.88505 14.67C9.4081 14.1957 9.2204 13.503 9.39266 12.8528C9.56491 12.2027 10.071 11.6938 10.7202 11.5178C11.3694 11.3419 12.0631 11.5257 12.5401 12L14.9176 14.3775L15.9751 13.32C15.9751 13.32 13.5601 10.8975 13.5376 10.89C12.2087 9.66281 10.1478 9.70458 8.8698 10.9846C7.59179 12.2646 7.55327 14.3256 8.78255 15.6525L13.4251 20.325C15.3498 22.1099 18.3413 22.0536 20.1975 20.1974C22.0536 18.3413 22.11 15.3497 20.3251 13.425Z" fill="black"/>
</svg>
