<svg width="24" height="24" viewBox="0 0 24 24" fill="none" xmlns="http://www.w3.org/2000/svg">
<path fill-rule="evenodd" clip-rule="evenodd" d="M22.5 15.0038H21.75V1.50378H20.25V15.0038H19.5C18.6721 15.005 18.0012 15.6759 18 16.5038V18.0038C18.0012 18.8317 18.6721 19.5025 19.5 19.5038H20.25V22.5038H21.75V19.5038H22.5C23.3279 19.5025 23.9988 18.8317 24 18.0038V16.5038C23.9988 15.6759 23.3279 15.005 22.5 15.0038ZM22.5 18.0038H19.5V16.5038H22.5V18.0038ZM16.5 10.5038H15.75V1.50378H14.25V10.5038H13.5C12.6719 10.5046 12.0008 11.1757 12 12.0038V13.5038C12.0008 14.3319 12.6719 15.003 13.5 15.0038H14.25V22.5038H15.75V15.0038H16.5C17.3279 15.0025 17.9988 14.3317 18 13.5038V12.0038C17.9992 11.1757 17.3281 10.5046 16.5 10.5038ZM16.5 13.5038H13.5V12.0038H16.5V13.5038ZM10.5 5.25378H9.75V1.50378H8.25V5.25378H7.5C6.67192 5.25461 6.00083 5.9257 6 6.75378V8.25378C6.00083 9.08187 6.67192 9.75296 7.5 9.75378H8.25V22.5038H9.75V9.75378H10.5C11.3281 9.75296 11.9992 9.08187 12 8.25378V6.75378C11.9992 5.9257 11.3281 5.25461 10.5 5.25378ZM10.5 8.25378H7.5V6.75378H10.5V8.25378ZM4.5 15.7538H3.75V1.50378H2.25V15.7538H1.5C0.671916 15.7546 0.000826845 16.4257 0 17.2538V18.7538C0.000826845 19.5819 0.671916 20.253 1.5 20.2538H2.25V22.5038H3.75V20.2538H4.5C5.32808 20.253 5.99917 19.5819 6 18.7538V17.2538C5.99917 16.4257 5.32808 15.7546 4.5 15.7538ZM4.5 18.7538H1.5V17.2538L4.5 17.253V18.7538Z" fill="black"/>
</svg>
