<svg width="24" height="24" viewBox="0 0 24 24" fill="none" xmlns="http://www.w3.org/2000/svg">
<path fill-rule="evenodd" clip-rule="evenodd" d="M20.5853 6.82875L16.0852 4.57875C15.8742 4.47328 15.6258 4.47328 15.4148 4.57875L10.9148 6.82875C10.6605 6.95582 10.4999 7.21573 10.5 7.5V12.75C10.5002 13.034 10.6607 13.2936 10.9148 13.4205L15.4148 15.6705C15.6258 15.7758 15.8742 15.7758 16.0852 15.6705L20.5853 13.4205C20.8393 13.2936 20.9998 13.034 21 12.75V7.5C21.0001 7.21573 20.8395 6.95582 20.5853 6.82875ZM15.75 6.0885L18.573 7.5L15.75 8.9115L12.927 7.5L15.75 6.0885ZM12 8.7135L15 10.2135V13.7865L12 12.2865V8.7135ZM16.5 13.7865V10.2135L19.5 8.7135V12.2865L16.5 13.7865ZM10.125 19.5C10.7463 19.5 11.25 18.9963 11.25 18.375C11.25 17.7537 10.7463 17.25 10.125 17.25C9.50368 17.25 9 17.7537 9 18.375C9 18.9963 9.50368 19.5 10.125 19.5ZM15 22.5H5.25C4.42192 22.4992 3.75083 21.8281 3.75 21V3C3.75083 2.17192 4.42192 1.50083 5.25 1.5H15V3H5.25V21H15V18H16.5V21C16.4992 21.8281 15.8281 22.4992 15 22.5Z" fill="black"/>
</svg>
