<svg width="24" height="24" viewBox="0 0 24 24" fill="none" xmlns="http://www.w3.org/2000/svg">
<path fill-rule="evenodd" clip-rule="evenodd" d="M9 12C9 13.6569 10.3431 15 12 15C13.6569 15 15 13.6569 15 12C15 10.3431 13.6569 9 12 9C10.3431 9 9 10.3431 9 12ZM13.5 12C13.5 12.8284 12.8284 13.5 12 13.5C11.1716 13.5 10.5 12.8284 10.5 12C10.5 11.1716 11.1716 10.5 12 10.5C12.8284 10.5 13.5 11.1716 13.5 12ZM12 20.3775L7.8 16.185L6.75 17.25L12 22.5L17.25 17.25L16.1925 16.1925L12 20.3775ZM12 3.6225L16.185 7.8L17.25 6.75L12 1.5L6.75 6.75L7.8075 7.8075L12 3.6225Z" fill="black"/>
</svg>
