<svg width="24" height="24" viewBox="0 0 24 24" fill="none" xmlns="http://www.w3.org/2000/svg">
<path fill-rule="evenodd" clip-rule="evenodd" d="M5.55473 3.66795C5.83293 3.25065 6.30128 3 6.80281 3H22.5015C22.8989 3 23.2801 3.15788 23.5611 3.4389C23.8421 3.71992 24 4.10107 24 4.4985V19.5015C24 19.8989 23.8421 20.2801 23.5611 20.5611C23.2801 20.8421 22.8989 21 22.5015 21H6.80281C6.30128 21 5.83293 20.7493 5.55473 20.3321L3.05176e-05 12L5.55473 3.66795ZM15 13.2L19.05 17.25L20.25 16.05L16.2 12L20.25 7.95L19.05 6.75L15 10.8L10.95 6.75L9.75003 7.95L13.8 12L9.75003 16.05L10.95 17.25L15 13.2Z" fill="black"/>
</svg>
