<svg width="24" height="24" viewBox="0 0 24 24" fill="none" xmlns="http://www.w3.org/2000/svg">
<path d="M19.05 17.25L15 13.2L10.95 17.25L9.75 16.05L13.8 12L9.75 7.95L10.95 6.75L15 10.8L19.05 6.75L20.25 7.95L16.2 12L20.25 16.05L19.05 17.25Z" fill="black"/>
<path fill-rule="evenodd" clip-rule="evenodd" d="M5.5547 20.3321L0 12L5.5547 3.66795C5.8329 3.25065 6.30125 3 6.80278 3H22.5015C22.8989 3 23.2801 3.15788 23.5611 3.4389C23.8421 3.71992 24 4.10107 24 4.4985V19.5015C24 19.8989 23.8421 20.2801 23.5611 20.5611C23.2801 20.8421 22.8989 21 22.5015 21H6.80278C6.30125 21 5.8329 20.7493 5.5547 20.3321ZM6.80278 4.5H22.5V19.5H6.80278L1.80278 12L6.80278 4.5Z" fill="black"/>
</svg>
