<svg width="24" height="24" viewBox="0 0 24 24" fill="none" xmlns="http://www.w3.org/2000/svg">
<path fill-rule="evenodd" clip-rule="evenodd" d="M18.7499 8.25H11.2499C10.8357 8.25 10.4999 8.58579 10.4999 9V12C10.5037 14.1936 12.0873 16.0654 14.2499 16.4325V21H11.9999V22.5H17.9999V21H15.7499V16.4325C17.9126 16.0654 19.4962 14.1936 19.4999 12V9C19.4999 8.58579 19.1641 8.25 18.7499 8.25ZM17.9999 12C17.9999 13.6569 16.6568 15 14.9999 15C13.3431 15 11.9999 13.6569 11.9999 12V9.75H17.9999V12ZM11.2499 0.75H7.49993C7.08571 0.75 6.74993 1.08579 6.74993 1.5V7.0275C5.26376 7.89817 4.39377 9.53085 4.49993 11.25V21.75C4.49993 22.1642 4.83571 22.5 5.24993 22.5H8.99993V21H5.99993V11.25C5.99993 8.859 7.67318 8.235 7.73693 8.21175L8.24993 8.04V2.25H10.4999V6H11.9999V1.5C11.9999 1.08579 11.6641 0.75 11.2499 0.75Z" fill="black"/>
</svg>
