<svg width="24" height="24" viewBox="0 0 24 24" fill="none" xmlns="http://www.w3.org/2000/svg">
<path fill-rule="evenodd" clip-rule="evenodd" d="M20.25 8.25H19.5V7.5C19.5 6.67157 18.8284 6 18 6H15V7.5H18V9.75H20.25V14.25H18V16.5H14.25V18H18C18.8284 18 19.5 17.3284 19.5 16.5V15.75H20.25C21.0784 15.75 21.75 15.0784 21.75 14.25V9.75C21.75 8.92157 21.0784 8.25 20.25 8.25ZM8.25 16.5H4.5V7.5H9V6H4.5C3.67157 6 3 6.67157 3 7.5V16.5C3 17.3284 3.67157 18 4.5 18H8.25V16.5ZM11.1075 17.685L9.8925 16.815L12.795 12.75H7.0275L12.165 6.285L13.335 7.215L10.1325 11.25H15.705L11.1075 17.685Z" fill="black"/>
</svg>
