<svg width="24" height="24" viewBox="0 0 24 24" fill="none" xmlns="http://www.w3.org/2000/svg">
<path fill-rule="evenodd" clip-rule="evenodd" d="M12 7.5C9.51472 7.5 7.5 9.51472 7.5 12V18C7.5 20.4853 9.51472 22.5 12 22.5C14.4853 22.5 16.5 20.4853 16.5 18V12C16.5 9.51472 14.4853 7.5 12 7.5ZM8.8125 13.4025H15.1875V16.59H8.8125V13.4025ZM12 21.1875C10.243 21.1793 8.82071 19.757 8.8125 18V17.9025H15.1875V18C15.1793 19.757 13.757 21.1793 12 21.1875ZM15.1875 12.09H8.8125V12C8.8125 10.2396 10.2396 8.8125 12 8.8125C13.7604 8.8125 15.1875 10.2396 15.1875 12V12.09ZM22.995 14.4075L18 9.75V16.575C18 18.2319 19.3431 19.575 21 19.575C22.6569 19.575 24 18.2319 24 16.575C23.9956 15.7408 23.6288 14.9498 22.995 14.4075ZM21 18.2625C20.068 18.2625 19.3125 17.507 19.3125 16.575V12.75L22.1025 15.3525C22.442 15.6381 22.6416 16.0564 22.65 16.5C22.6703 16.954 22.5067 17.3969 22.1961 17.7287C21.8855 18.0604 21.4543 18.2529 21 18.2625ZM0 16.575C0 18.2319 1.34315 19.575 3 19.575C4.65685 19.575 6 18.2319 6 16.575V9.75L1.005 14.4075C0.375178 14.9528 0.00928907 15.7419 0 16.575ZM1.86 15.405L4.6875 12.75V16.575C4.6875 17.507 3.93198 18.2625 3 18.2625C2.06802 18.2625 1.3125 17.507 1.3125 16.575C1.31437 16.1235 1.51457 15.6957 1.86 15.405ZM11.25 4.125C11.25 2.67525 10.0747 1.5 8.625 1.5C7.17525 1.5 6 2.67525 6 4.125C6 5.57475 7.17525 6.75 8.625 6.75C10.0747 6.75 11.25 5.57475 11.25 4.125ZM7.3125 4.125C7.3125 3.40013 7.90013 2.8125 8.625 2.8125C9.34987 2.8125 9.9375 3.40013 9.9375 4.125C9.9375 4.84987 9.34987 5.4375 8.625 5.4375C7.90351 5.42939 7.32061 4.84649 7.3125 4.125ZM15.375 1.5C13.9253 1.5 12.75 2.67525 12.75 4.125C12.75 5.57475 13.9253 6.75 15.375 6.75C16.8247 6.75 18 5.57475 18 4.125C18 2.67525 16.8247 1.5 15.375 1.5ZM15.375 5.4375C14.6501 5.4375 14.0625 4.84987 14.0625 4.125C14.0625 3.40013 14.6501 2.8125 15.375 2.8125C16.0999 2.8125 16.6875 3.40013 16.6875 4.125C16.6794 4.84649 16.0965 5.42939 15.375 5.4375Z" fill="black"/>
</svg>
