<svg width="24" height="24" viewBox="0 0 24 24" fill="none" xmlns="http://www.w3.org/2000/svg">
<path fill-rule="evenodd" clip-rule="evenodd" d="M21 19.9425L4.0575 3.00004L3 4.05754L10.9425 12L5.25 17.6925L6.3075 18.75L11.25 13.8075V21.75C11.2493 22.043 11.4192 22.3095 11.685 22.4325C11.7843 22.4763 11.8915 22.4993 12 22.5C12.1788 22.5001 12.3516 22.4362 12.4875 22.32L17.2125 18.27L19.9425 21L21 19.9425ZM12.75 20.1225V13.8075L16.1475 17.205L12.75 20.1225ZM12.75 9.56254V3.87754L16.1475 6.79504L13.065 9.87754L14.1225 10.935L17.7825 7.28254C17.9229 7.141 18.0012 6.9494 18 6.75004C17.9915 6.54134 17.8964 6.34564 17.7375 6.21004L12.4875 1.71004C12.265 1.51882 11.9515 1.47487 11.685 1.59754C11.4288 1.71588 11.2607 1.96802 11.25 2.25004V8.06254L12.75 9.56254Z" fill="black"/>
</svg>
