<svg width="24" height="24" viewBox="0 0 24 24" fill="none" xmlns="http://www.w3.org/2000/svg">
<path fill-rule="evenodd" clip-rule="evenodd" d="M15 15.75H9C8.17157 15.75 7.5 15.0784 7.5 14.25V12.75C7.5 11.9216 8.17157 11.25 9 11.25H15C15.8284 11.25 16.5 11.9216 16.5 12.75V14.25C16.5 15.0784 15.8284 15.75 15 15.75ZM9 12.75V14.25H15V12.75H9ZM21 3H3C2.17157 3 1.5 3.67157 1.5 4.5V7.5C1.5 8.32843 2.17157 9 3 9V21C3 21.8284 3.67157 22.5 4.5 22.5H19.5C20.3284 22.5 21 21.8284 21 21V9C21.8284 9 22.5 8.32843 22.5 7.5V4.5C22.5 3.67157 21.8284 3 21 3ZM19.5 21H4.5V9H19.5V21ZM21 7.5H3V4.5H21V7.5Z" fill="black"/>
</svg>
