<svg width="24" height="24" viewBox="0 0 24 24" fill="none" xmlns="http://www.w3.org/2000/svg">
<path fill-rule="evenodd" clip-rule="evenodd" d="M19.5 13.5C18.1357 13.5038 16.9463 14.4287 16.6065 15.75H13.5C12.2579 15.7487 11.2512 14.7421 11.25 13.5V10.5C11.2471 9.6859 10.9767 8.89535 10.4805 8.24998H16.6065C16.9842 9.71271 18.3906 10.6664 19.8893 10.4761C21.3879 10.2857 22.5112 9.01068 22.5112 7.49998C22.5112 5.98928 21.3879 4.71424 19.8893 4.52389C18.3906 4.33353 16.9842 5.28725 16.6065 6.74998H7.39351C7.01583 5.28725 5.60942 4.33353 4.11076 4.52389C2.6121 4.71424 1.48877 5.98928 1.48877 7.49998C1.48877 9.01068 2.6121 10.2857 4.11076 10.4761C5.60942 10.6664 7.01583 9.71271 7.39351 8.24998H7.50001C8.74213 8.25122 9.74877 9.25785 9.75001 10.5V13.5C9.75249 15.57 11.43 17.2475 13.5 17.25H16.6065C16.9986 18.7564 18.4792 19.7115 20.0133 19.4476C21.5473 19.1837 22.6237 17.7888 22.4898 16.2379C22.356 14.6871 21.0566 13.4972 19.5 13.5ZM19.5 5.99998C20.3284 5.99998 21 6.67155 21 7.49998C21 8.3284 20.3284 8.99998 19.5 8.99998C18.6716 8.99998 18 8.3284 18 7.49998C18.0008 6.67189 18.6719 6.0008 19.5 5.99998ZM4.50001 8.99998C3.67158 8.99998 3.00001 8.3284 3.00001 7.49998C3.00001 6.67155 3.67158 5.99998 4.50001 5.99998C5.32843 5.99998 6.00001 6.67155 6.00001 7.49998C5.99918 8.32806 5.32809 8.99915 4.50001 8.99998ZM19.5 18C18.6716 18 18 17.3284 18 16.5C18 15.6716 18.6716 15 19.5 15C20.3284 15 21 15.6716 21 16.5C20.9988 17.3279 20.3279 17.9987 19.5 18Z" fill="black"/>
</svg>
