<svg width="24" height="24" viewBox="0 0 24 24" fill="none" xmlns="http://www.w3.org/2000/svg">
<path fill-rule="evenodd" clip-rule="evenodd" d="M11.25 1.5H12.75V3.75H11.25V1.5ZM20.25 11.25H22.5V12.75H20.25V11.25ZM11.25 20.25H12.75V22.5H11.25V20.25ZM1.5 11.25H3.75V12.75H1.5V11.25ZM4.0875 5.16225L5.148 4.1025L6.7395 5.6925L5.6775 6.753L4.0875 5.16225ZM17.25 5.68575L18.84 4.095L19.9005 5.1555L18.3097 6.747L17.25 5.68575ZM17.2515 18.312L18.312 17.2515L19.9035 18.843L18.843 19.9035L17.2515 18.312ZM4.1025 18.8475L5.6925 17.25L6.75 18.315L5.16 19.905L4.1025 18.8475ZM12 6C8.68629 6 6 8.68629 6 12C6 15.3137 8.68629 18 12 18C15.3137 18 18 15.3137 18 12C18 8.68629 15.3137 6 12 6ZM12 16.5C9.51472 16.5 7.5 14.4853 7.5 12C7.5 9.51472 9.51472 7.5 12 7.5V16.5Z" fill="black"/>
</svg>
