<svg width="24" height="24" viewBox="0 0 24 24" fill="none" xmlns="http://www.w3.org/2000/svg">
<path fill-rule="evenodd" clip-rule="evenodd" d="M21 1.5H12C11.1719 1.50083 10.5008 2.17192 10.5 3V10.5H3C2.17192 10.5008 1.50083 11.1719 1.5 12V22.5H22.5V3C22.4992 2.17192 21.8281 1.50083 21 1.5ZM6.75 21V15.75H9.75V21H6.75ZM21 21H11.25V15C11.25 14.5858 10.9142 14.25 10.5 14.25H6C5.58579 14.25 5.25 14.5858 5.25 15V21H3V12H12V3H21V21ZM13.5 6H15V7.5H13.5V6ZM18 6H19.5V7.5H18V6ZM13.5 10.5H15V12H13.5V10.5ZM18 10.5H19.5V12H18V10.5ZM13.5 15H15V16.5H13.5V15ZM18 15H19.5V16.5H18V15ZM6.75 9H5.25C5.25248 6.92996 6.92996 5.25248 9 5.25V6.75C7.75787 6.75124 6.75124 7.75787 6.75 9ZM3 9H1.5C1.50455 4.85975 4.85975 1.50455 9 1.5V3C5.688 3.00413 3.00413 5.688 3 9Z" fill="black"/>
</svg>
