<svg width="24" height="24" viewBox="0 0 24 24" fill="none" xmlns="http://www.w3.org/2000/svg">
<path fill-rule="evenodd" clip-rule="evenodd" d="M2.25 6H3.75V10.5H2.25V6ZM20.25 6H21.75V10.5H20.25V6ZM7.5 14.25H9V15.75H7.5V14.25ZM15 14.25H16.5V15.75H15V14.25ZM15.75 1.5H8.25C6.17893 1.5 4.5 3.17893 4.5 5.25V17.25C4.5 18.0784 5.17157 18.75 6 18.75V21H7.5V18.75H16.5V21H18V18.75C18.8284 18.75 19.5 18.0784 19.5 17.25V5.25C19.5 3.17893 17.8211 1.5 15.75 1.5ZM18 6V11.25H6V6H18ZM8.25 3H15.75C16.7012 3.00267 17.5479 3.6032 17.865 4.5H6.135C6.45206 3.6032 7.29881 3.00267 8.25 3ZM6 17.25V12.75H18V17.25H6Z" fill="black"/>
</svg>
