<svg width="24" height="24" viewBox="0 0 24 24" fill="none" xmlns="http://www.w3.org/2000/svg">
<path fill-rule="evenodd" clip-rule="evenodd" d="M19.5 3V21H4.5V3H19.5ZM19.5 1.5H4.5C3.67157 1.5 3 2.17157 3 3V21C3 21.8284 3.67157 22.5 4.5 22.5H19.5C20.3284 22.5 21 21.8284 21 21V3C21 2.17157 20.3284 1.5 19.5 1.5ZM6.75 17.25H8.25V18.75H6.75V17.25ZM15.75 17.25H17.25V18.75H15.75V17.25ZM6.75 13.5H8.25V15H6.75V13.5ZM15.75 13.5H17.25V15H15.75V13.5ZM6.75 9.75H8.25V11.25H6.75V9.75ZM11.25 17.25H12.75V18.75H11.25V17.25ZM11.25 13.5H12.75V15H11.25V13.5ZM11.25 9.75H12.75V11.25H11.25V9.75ZM15.75 9.75H17.25V11.25H15.75V9.75ZM6.75 5.25H17.25V7.5H6.75V5.25Z" fill="black"/>
</svg>
