<svg width="24" height="24" viewBox="0 0 24 24" fill="none" xmlns="http://www.w3.org/2000/svg">
<path fill-rule="evenodd" clip-rule="evenodd" d="M18 19.9425L16.0575 18L15 19.0575L18 22.0575L23.25 16.8075L22.1925 15.75L18 19.9425ZM11.25 17.25H12.75V18.75H11.25V17.25ZM6.75 17.25H8.25V18.75H6.75V17.25ZM15.75 13.5H17.25V15H15.75V13.5ZM11.25 13.5H12.75V15H11.25V13.5ZM6.75 13.5H8.25V15H6.75V13.5ZM15.75 9.75H17.25V11.25H15.75V9.75ZM11.25 9.75H12.75V11.25H11.25V9.75ZM6.75 9.75H8.25V11.25H6.75V9.75ZM6.75 5.25H17.25V7.5H6.75V5.25ZM12.75 22.5H4.50375C3.67359 22.4992 3.00083 21.8264 3 20.9963V2.997C3.00083 2.17057 3.67057 1.50083 4.497 1.5H19.503C20.3294 1.50083 20.9992 2.17057 21 2.997V13.5H19.5V3H4.5V21H12.75V22.5Z" fill="black"/>
</svg>
