<svg width="24" height="24" viewBox="0 0 24 24" fill="none" xmlns="http://www.w3.org/2000/svg">
<path fill-rule="evenodd" clip-rule="evenodd" d="M21.6225 15.8775L18.75 13.0275L19.2525 12.525C19.5433 12.2325 19.5433 11.76 19.2525 11.4675L14.7525 6.96748C14.46 6.67669 13.9875 6.67669 13.695 6.96748L13.1025 7.55998L8.03248 2.46748C7.73995 2.17669 7.26751 2.17669 6.97498 2.46748L3.97498 5.46748L3.88498 5.57998L0.884979 10.08C0.686453 10.3763 0.724086 10.7715 0.974979 11.025L3.22498 13.275C3.3658 13.417 3.5575 13.4968 3.75748 13.4968C3.95746 13.4968 4.14915 13.417 4.28998 13.275L7.49998 10.0575L9.06748 11.625L5.46748 15.2175C5.17669 15.51 5.17669 15.9825 5.46748 16.275L6.96748 17.775C7.10778 17.9181 7.29954 17.9992 7.49998 18C7.63785 17.999 7.77279 17.9601 7.88998 17.8875L11.1375 15.9375L12.9675 17.775C13.26 18.0658 13.7325 18.0658 14.025 17.775L14.5275 17.25L17.37 20.1225C18.5422 21.2947 20.4428 21.2947 21.615 20.1225C22.7872 18.9503 22.7872 17.0497 21.615 15.8775H21.6225ZM7.49998 7.93498L3.74998 11.685L2.46748 10.4025L5.08498 6.47248L7.49998 4.05748L12.0675 8.62498L10.125 10.56L7.49998 7.93498ZM13.5 16.185L11.37 14.055L7.61998 16.305L7.06498 15.75L14.25 8.55748L17.6925 12L13.5 16.185ZM20.565 19.0575C20.2836 19.3391 19.9018 19.4974 19.5037 19.4974C19.1056 19.4974 18.7238 19.3391 18.4425 19.0575L15.5925 16.215L17.715 14.0925L20.565 16.935C20.8466 17.2163 21.0049 17.5981 21.0049 17.9962C21.0049 18.3943 20.8466 18.7761 20.565 19.0575Z" fill="black"/>
</svg>
