<svg width="24" height="24" viewBox="0 0 24 24" fill="none" xmlns="http://www.w3.org/2000/svg">
<path fill-rule="evenodd" clip-rule="evenodd" d="M21.75 19.5H2.25C1.83579 19.5 1.5 19.1642 1.5 18.75V6C1.5 5.58579 1.83579 5.25 2.25 5.25H7.095L8.3775 3.3375C8.51549 3.12796 8.74911 3.0013 9 3H15C15.2509 3.0013 15.4845 3.12796 15.6225 3.3375L16.905 5.25H21.75C22.1642 5.25 22.5 5.58579 22.5 6V18.75C22.5 19.1642 22.1642 19.5 21.75 19.5ZM3 18H21V6.75H16.5C16.2491 6.7487 16.0155 6.62204 15.8775 6.4125L14.595 4.5H9.405L8.1225 6.4125C7.98451 6.62204 7.75089 6.7487 7.5 6.75H3V18ZM12 16.5C9.51472 16.5 7.5 14.4853 7.5 12C7.5 9.51472 9.51472 7.5 12 7.5C14.4853 7.5 16.5 9.51472 16.5 12C16.5 14.4853 14.4853 16.5 12 16.5ZM12 9C10.3431 9 9 10.3431 9 12C9 13.6569 10.3431 15 12 15C13.6569 15 15 13.6569 15 12C15 10.3431 13.6569 9 12 9Z" fill="black"/>
</svg>
