<svg width="24" height="24" viewBox="0 0 24 24" fill="none" xmlns="http://www.w3.org/2000/svg">
<path fill-rule="evenodd" clip-rule="evenodd" d="M9 17.25C6.51472 17.25 4.5 15.2353 4.5 12.75C4.5 10.2647 6.51472 8.25 9 8.25C11.4853 8.25 13.5 10.2647 13.5 12.75C13.5 15.2353 11.4853 17.25 9 17.25ZM9 9.75C7.34315 9.75 6 11.0931 6 12.75C6 14.4069 7.34315 15.75 9 15.75C10.6569 15.75 12 14.4069 12 12.75C12 11.0931 10.6569 9.75 9 9.75ZM21.75 20.25H2.25C1.83579 20.25 1.5 19.9142 1.5 19.5V4.5C1.5 4.08579 1.83579 3.75 2.25 3.75H21.75C22.1642 3.75 22.5 4.08579 22.5 4.5V19.5C22.5 19.9142 22.1642 20.25 21.75 20.25ZM3 18.75H21V5.25H3V18.75ZM14.25 6.75H19.5V8.25H14.25V6.75ZM9 13.5C9.41421 13.5 9.75 13.1642 9.75 12.75C9.75 12.3358 9.41421 12 9 12C8.58579 12 8.25 12.3358 8.25 12.75C8.25 13.1642 8.58579 13.5 9 13.5Z" fill="black"/>
</svg>
