<svg width="24" height="24" viewBox="0 0 24 24" fill="none" xmlns="http://www.w3.org/2000/svg">
<path fill-rule="evenodd" clip-rule="evenodd" d="M22.005 11.955L16.2075 9.87L13.7775 6.825C13.3504 6.30316 12.7118 6.00037 12.0375 6H6.0375C5.2944 6.00384 4.60113 6.37434 4.185 6.99L2.1525 9.99C1.73146 10.607 1.50425 11.3356 1.5 12.0825V18C1.5 18.4142 1.83579 18.75 2.25 18.75H3.855C4.21005 20.0565 5.39614 20.9633 6.75 20.9633C8.10386 20.9633 9.28995 20.0565 9.645 18.75H14.355C14.71 20.0565 15.8961 20.9633 17.25 20.9633C18.6039 20.9633 19.79 20.0565 20.145 18.75H21.75C22.1642 18.75 22.5 18.4142 22.5 18V12.66C22.4999 12.3442 22.302 12.0624 22.005 11.955ZM6.75 19.5C5.92157 19.5 5.25 18.8284 5.25 18C5.25 17.1716 5.92157 16.5 6.75 16.5C7.57843 16.5 8.25 17.1716 8.25 18C8.25 18.8284 7.57843 19.5 6.75 19.5ZM17.25 19.5C16.4216 19.5 15.75 18.8284 15.75 18C15.75 17.1716 16.4216 16.5 17.25 16.5C18.0784 16.5 18.75 17.1716 18.75 18C18.75 18.8284 18.0784 19.5 17.25 19.5ZM21 17.25H20.145C19.79 15.9435 18.6039 15.0367 17.25 15.0367C15.8961 15.0367 14.71 15.9435 14.355 17.25H9.645C9.28995 15.9435 8.10386 15.0367 6.75 15.0367C5.39614 15.0367 4.21005 15.9435 3.855 17.25H3V12.0825C2.99971 11.6304 3.13561 11.1887 3.39 10.815L5.4225 7.815C5.56556 7.61401 5.79832 7.49623 6.045 7.5H12.045C12.2681 7.49964 12.4797 7.59859 12.6225 7.77L15.1725 10.9725C15.2604 11.0791 15.374 11.1617 15.5025 11.2125L21 13.185V17.25Z" fill="black"/>
</svg>
