<svg width="24" height="24" viewBox="0 0 24 24" fill="none" xmlns="http://www.w3.org/2000/svg">
<path fill-rule="evenodd" clip-rule="evenodd" d="M10.125 23.1112C9.9954 23.1112 9.86802 23.0776 9.75525 23.0137L3.38025 19.4025C3.14525 19.2693 3.00001 19.0201 3 18.75V11.25C3.00001 10.9799 3.14525 10.7306 3.38025 10.5975L9.75525 6.98622C9.98466 6.8564 10.2653 6.8564 10.4948 6.98622L16.8698 10.5975C17.1047 10.7306 17.25 10.9799 17.25 11.25V18.75C17.25 19.0201 17.1047 19.2693 16.8698 19.4025L10.4948 23.0137C10.382 23.0776 10.2546 23.1112 10.125 23.1112ZM4.5 18.3127L10.125 21.4987L15.75 18.3127V11.6872L10.125 8.50122L4.5 11.6865V18.3127ZM21 12.75H19.5V5.68722L13.875 2.50122L7.86975 5.90247L7.13025 4.59747L13.5052 0.986221C13.7347 0.8564 14.0153 0.8564 14.2448 0.986221L20.6198 4.59747C20.8547 4.73063 21 4.97987 21 5.24997V12.75Z" fill="black"/>
</svg>
