<svg width="24" height="24" viewBox="0 0 24 24" fill="none" xmlns="http://www.w3.org/2000/svg">
<path fill-rule="evenodd" clip-rule="evenodd" d="M19.5 7.5V16.5C19.5 17.3284 18.8284 18 18 18H6C5.17157 18 4.5 17.3284 4.5 16.5V7.5C4.5 6.67157 5.17157 6 6 6H18C18.8284 6 19.5 6.67157 19.5 7.5ZM6 16.5H18V7.5H6V16.5ZM18 21V24H16.5V21H7.5V24H6V21C6 20.1716 6.67157 19.5 7.5 19.5H16.5C17.3284 19.5 18 20.1716 18 21ZM18 0V3C18 3.82843 17.3284 4.5 16.5 4.5H7.5C6.67157 4.5 6 3.82843 6 3V0H7.5V3H16.5V0H18Z" fill="black"/>
</svg>
