<svg width="24" height="24" viewBox="0 0 24 24" fill="none" xmlns="http://www.w3.org/2000/svg">
<path fill-rule="evenodd" clip-rule="evenodd" d="M16.5 19.5H7.5C6.67157 19.5 6 18.8284 6 18V6C6 5.17157 6.67157 4.5 7.5 4.5H16.5C17.3284 4.5 18 5.17157 18 6V18C18 18.8284 17.3284 19.5 16.5 19.5ZM7.5 6V18H16.5V6H7.5ZM3 18H0V16.5H3V7.5H0V6H3C3.82843 6 4.5 6.67157 4.5 7.5V16.5C4.5 17.3284 3.82843 18 3 18ZM24 18H21C20.1716 18 19.5 17.3284 19.5 16.5V7.5C19.5 6.67157 20.1716 6 21 6H24V7.5H21V16.5H24V18Z" fill="black"/>
</svg>
