<svg width="24" height="24" viewBox="0 0 24 24" fill="none" xmlns="http://www.w3.org/2000/svg">
<path fill-rule="evenodd" clip-rule="evenodd" d="M12 16.5C14.4853 16.5 16.5 14.4853 16.5 12C16.5 9.51472 14.4853 7.5 12 7.5C9.51472 7.5 7.5 9.51472 7.5 12C7.5 14.4853 9.51472 16.5 12 16.5ZM12 15C13.6569 15 15 13.6569 15 12C15 10.3431 13.6569 9 12 9C10.3431 9 9 10.3431 9 12C9 13.6569 10.3431 15 12 15Z" fill="black"/>
<path fill-rule="evenodd" clip-rule="evenodd" d="M21.5 4.5H2.5C1.67157 4.5 1 5.17157 1 6V18C1 18.8284 1.67157 19.5 2.5 19.5H21.5C22.3284 19.5 23 18.8284 23 18V6C23 5.17157 22.3284 4.5 21.5 4.5ZM2.5 8.5V6H5C5 7.38071 3.88071 8.5 2.5 8.5ZM2.5 10V14C4.70914 14 6.5 15.7909 6.5 18H17.5C17.5 15.7909 19.2909 14 21.5 14V10C19.2909 10 17.5 8.20914 17.5 6H6.5C6.5 8.20914 4.70914 10 2.5 10ZM19 6C19 7.38071 20.1193 8.5 21.5 8.5V6H19ZM21.5 15.5C20.1193 15.5 19 16.6193 19 18H21.5V15.5ZM5 18C5 16.6193 3.88071 15.5 2.5 15.5V18H5Z" fill="black"/>
</svg>
