<svg width="24" height="24" viewBox="0 0 24 24" fill="none" xmlns="http://www.w3.org/2000/svg">
<path fill-rule="evenodd" clip-rule="evenodd" d="M19.5 1.5H6C5.17157 1.5 4.5 2.17157 4.5 3V6H3V7.5H4.5V11.25H3V12.75H4.5V16.5H3V18H4.5V21C4.5 21.8284 5.17157 22.5 6 22.5H19.5C20.3284 22.5 21 21.8284 21 21V3C21 2.17157 20.3284 1.5 19.5 1.5ZM19.5 21H6V18H7.5V16.5H6V12.75H7.5V11.25H6V7.5H7.5V6H6V3H19.5V21ZM10.5 6H16.5V7.5H10.5V6ZM10.5 11.25H16.5V12.75H10.5V11.25ZM10.5 16.5H16.5V18H10.5V16.5Z" fill="black"/>
</svg>
