<svg width="24" height="24" viewBox="0 0 24 24" fill="none" xmlns="http://www.w3.org/2000/svg">
<path fill-rule="evenodd" clip-rule="evenodd" d="M3 22.5V19.5H11.25V22.5H12.75V19.5H21V22.5H22.5V19.5C22.5 18.6716 21.8284 18 21 18H12.75V14.25H11.25V18H3C2.17157 18 1.5 18.6716 1.5 19.5V22.5H3ZM15.5212 10.4895C16.0393 9.56945 16.3589 8.55108 16.4595 7.49999H17.25V5.99999H15V6.74999C14.9838 7.5909 14.8151 8.42188 14.502 9.20249L12.4875 6.66224C13.1992 6.25624 13.7626 5.63346 14.0955 4.88474C14.3452 4.22077 14.2935 3.48099 13.9538 2.85824C13.6067 2.20786 12.9937 1.74079 12.2745 1.57874C10.9656 1.19699 9.58405 1.8904 9.108 3.16799C8.72925 4.33199 9.438 5.50499 10.0538 6.24899C8.77219 6.97348 8.07187 8.41472 8.29425 9.86999C8.52197 11.509 9.91556 12.7341 11.5702 12.75H11.5747C12.6665 12.7818 13.73 12.4007 14.553 11.6827L15.399 12.75H17.313L15.5212 10.4895ZM10.5352 3.62999C10.6959 3.21291 11.1158 2.9549 11.5605 2.99999C11.6919 3.00024 11.823 3.01483 11.9513 3.04349C12.2441 3.11301 12.4931 3.30469 12.6353 3.56999C12.7682 3.80935 12.7898 4.09484 12.6945 4.35149C12.4133 4.87494 11.9709 5.29387 11.433 5.54624C10.938 5.01149 10.3567 4.17899 10.5352 3.62999ZM11.574 11.25H11.571C10.6536 11.2375 9.88695 10.5483 9.777 9.63749C9.6442 8.65685 10.2077 7.71482 11.1345 7.36799L13.6185 10.5022C13.0592 11.0063 12.3265 11.2743 11.574 11.25Z" fill="black"/>
</svg>
