<svg width="24" height="24" viewBox="0 0 24 24" fill="none" xmlns="http://www.w3.org/2000/svg">
<path fill-rule="evenodd" clip-rule="evenodd" d="M5.07 4.49999L5.4075 5.16749L5.82 5.99999H9V9.74999H3V4.49999H5.07ZM5.535 2.99999H2.25C1.83579 2.99999 1.5 3.33577 1.5 3.74999V10.5C1.5 10.9142 1.83579 11.25 2.25 11.25H9.75C10.1642 11.25 10.5 10.9142 10.5 10.5V5.24999C10.5 4.83577 10.1642 4.49999 9.75 4.49999H6.75L6.21 3.41249C6.0817 3.15786 5.82012 2.998 5.535 2.99999ZM17.07 4.49999L17.4075 5.16749L17.82 5.99999H21V9.74999H15V4.49999H17.07ZM17.535 2.99999H14.25C13.8358 2.99999 13.5 3.33577 13.5 3.74999V10.5C13.5 10.9142 13.8358 11.25 14.25 11.25H21.75C22.1642 11.25 22.5 10.9142 22.5 10.5V5.24999C22.5 4.83577 22.1642 4.49999 21.75 4.49999H18.75L18.21 3.41249C18.0817 3.15786 17.8201 2.998 17.535 2.99999ZM5.07 14.25L5.4075 14.9175L5.82 15.75H9V19.5H3V14.25H5.07ZM5.535 12.75H2.25C1.83579 12.75 1.5 13.0858 1.5 13.5V20.25C1.5 20.6642 1.83579 21 2.25 21H9.75C10.1642 21 10.5 20.6642 10.5 20.25V15C10.5 14.5858 10.1642 14.25 9.75 14.25H6.75L6.21 13.1625C6.0817 12.9079 5.82012 12.748 5.535 12.75ZM17.07 14.25L17.4075 14.9175L17.82 15.75H21V19.5H15V14.25H17.07ZM17.535 12.75H14.25C13.8358 12.75 13.5 13.0858 13.5 13.5V20.25C13.5 20.6642 13.8358 21 14.25 21H21.75C22.1642 21 22.5 20.6642 22.5 20.25V15C22.5 14.5858 22.1642 14.25 21.75 14.25H18.75L18.21 13.1625C18.0817 12.9079 17.8201 12.748 17.535 12.75Z" fill="black"/>
</svg>
