<svg width="24" height="24" viewBox="0 0 24 24" fill="none" xmlns="http://www.w3.org/2000/svg">
<path fill-rule="evenodd" clip-rule="evenodd" d="M11.25 4.5L10.1925 5.5575L12.8775 8.25L10.1925 10.9425L11.25 12L15 8.25L11.25 4.5ZM21 18H12.75V15H17.25C18.0779 14.9988 18.7488 14.3279 18.75 13.5V3C18.7492 2.17192 18.0781 1.50083 17.25 1.5H6.75C5.92192 1.50083 5.25083 2.17192 5.25 3V13.5C5.25083 14.3281 5.92192 14.9992 6.75 15H11.25V18H3C2.17157 18 1.5 18.6716 1.5 19.5V22.5H3V19.5H11.25V22.5H12.75V19.5H21V22.5H22.5V19.5C22.5 18.6716 21.8284 18 21 18ZM6.75 3H17.25L17.2515 13.5H6.75V3Z" fill="black"/>
</svg>
