<svg width="24" height="24" viewBox="0 0 24 24" fill="none" xmlns="http://www.w3.org/2000/svg">
<path fill-rule="evenodd" clip-rule="evenodd" d="M21.75 7.5H18V9H21.75V13.5H16.5V15H18.75V16.6065C17.2873 16.9842 16.3336 18.3906 16.5239 19.8893C16.7143 21.3879 17.9893 22.5112 19.5 22.5112C21.0107 22.5112 22.2857 21.3879 22.4761 19.8893C22.6664 18.3906 21.7127 16.9842 20.25 16.6065V15H21.75C22.5779 14.9988 23.2488 14.3279 23.25 13.5V9C23.2492 8.17192 22.5781 7.50083 21.75 7.5ZM21 19.5C21 20.3284 20.3284 21 19.5 21C18.6716 21 18 20.3284 18 19.5C18 18.6716 18.6716 18 19.5 18C20.3279 18.0012 20.9988 18.6721 21 19.5ZM14.25 4.5H10.5V6H14.25V10.5H9V12H11.25V16.6065C9.78727 16.9842 8.83356 18.3906 9.02391 19.8893C9.21427 21.3879 10.4893 22.5112 12 22.5112C13.5107 22.5112 14.7857 21.3879 14.9761 19.8893C15.1664 18.3906 14.2127 16.9842 12.75 16.6065V12H14.25C15.0781 11.9992 15.7492 11.3281 15.75 10.5V6C15.7492 5.17192 15.0781 4.50083 14.25 4.5ZM13.5 19.5C13.5 20.3284 12.8284 21 12 21C11.1716 21 10.5 20.3284 10.5 19.5C10.5 18.6716 11.1716 18 12 18C12.8279 18.0012 13.4988 18.6721 13.5 19.5ZM6.75 1.5H2.25C1.42192 1.50083 0.750827 2.17192 0.75 3V7.5C0.750827 8.32808 1.42192 8.99917 2.25 9H3.75V16.6065C2.28727 16.9842 1.33356 18.3906 1.52391 19.8892C1.71427 21.3879 2.9893 22.5112 4.5 22.5112C6.0107 22.5112 7.28573 21.3879 7.47609 19.8892C7.66644 18.3906 6.71273 16.9842 5.25 16.6065V9H6.75C7.57808 8.99917 8.24917 8.32808 8.25 7.5V3C8.24917 2.17192 7.57808 1.50083 6.75 1.5ZM6 19.5C6 20.3284 5.32843 21 4.5 21C3.67157 21 3 20.3284 3 19.5C3 18.6716 3.67157 18 4.5 18C5.32808 18.0008 5.99917 18.6719 6 19.5ZM2.25 7.5V3H6.75L6.7515 7.5H2.25Z" fill="black"/>
</svg>
