<svg width="24" height="24" viewBox="0 0 24 24" fill="none" xmlns="http://www.w3.org/2000/svg">
<path fill-rule="evenodd" clip-rule="evenodd" d="M7.5 17.25H3.75C2.92157 17.25 2.25 16.5784 2.25 15.75V11.25C2.25 10.4216 2.92157 9.75 3.75 9.75H7.5V11.25H3.75V15.75H7.5V17.25ZM14.25 17.25H10.5C9.67157 17.25 9 16.5784 9 15.75V11.25C9 10.4216 9.67157 9.75 10.5 9.75H14.25V11.25H10.5V15.75H14.25V17.25ZM21.75 6.75H20.25L18.75 11.25L17.25 6.75H15.75L17.8125 12L15.75 17.25H17.25L18.75 12.75L20.25 17.25H21.75L19.6875 12L21.75 6.75Z" fill="black"/>
</svg>
