<svg width="24" height="24" viewBox="0 0 24 24" fill="none" xmlns="http://www.w3.org/2000/svg">
<path fill-rule="evenodd" clip-rule="evenodd" d="M10.5 15C8.01472 15 6 12.9853 6 10.5C6 8.01472 8.01472 6 10.5 6C12.9853 6 15 8.01472 15 10.5C15 12.9853 12.9853 15 10.5 15ZM10.5 7.5C8.84315 7.5 7.5 8.84315 7.5 10.5C7.5 12.1569 8.84315 13.5 10.5 13.5C12.1569 13.5 13.5 12.1569 13.5 10.5C13.5 8.84315 12.1569 7.5 10.5 7.5ZM10.5 12C11.3284 12 12 11.3284 12 10.5C12 9.67157 11.3284 9 10.5 9C9.67157 9 9 9.67157 9 10.5C9 11.3284 9.67157 12 10.5 12ZM12.75 17.655C9.65674 18.6278 6.28862 17.5025 4.40129 14.8657C2.51396 12.229 2.53489 8.67792 4.45317 6.06358C6.37145 3.44924 9.7526 2.36375 12.8342 3.37293C15.9158 4.38211 17.9998 7.25739 18 10.5C18 10.755 18 11.0025 17.9625 11.25H19.4625C19.4625 11.0025 19.5 10.755 19.5 10.5C19.5 5.52944 15.4706 1.5 10.5 1.5C5.52944 1.5 1.5 5.52944 1.5 10.5C1.5 15.4706 5.52944 19.5 10.5 19.5C11.2592 19.4952 12.0148 19.397 12.75 19.2075V17.655ZM18.75 22.5L17.145 21.75C15.8324 21.1284 14.9968 19.8048 15 18.3525V13.5H22.5V18.3525C22.5032 19.8048 21.6676 21.1284 20.355 21.75L18.75 22.5ZM16.5 15V18.3525C16.5009 19.2224 17.0032 20.0138 17.79 20.385L18.75 20.8425L19.71 20.385C20.4968 20.0138 20.9991 19.2224 21 18.3525V15H16.5Z" fill="black"/>
</svg>
