<svg width="24" height="24" viewBox="0 0 24 24" fill="none" xmlns="http://www.w3.org/2000/svg">
<path fill-rule="evenodd" clip-rule="evenodd" d="M10.5 12C11.3284 12 12 11.3284 12 10.5C12 9.67157 11.3284 9 10.5 9C9.67157 9 9 9.67157 9 10.5C9 11.3284 9.67157 12 10.5 12ZM10.5 1.5C5.52944 1.5 1.5 5.52944 1.5 10.5C1.5 15.4706 5.52944 19.5 10.5 19.5V18C6.35786 18 3 14.6421 3 10.5C3 6.35787 6.35786 3 10.5 3C14.6421 3 18 6.35787 18 10.5C18.0151 10.7498 18.0151 11.0002 18 11.25H19.5C19.5 11.0025 19.5375 10.755 19.5375 10.5C19.5375 8.10654 18.5842 5.81166 16.8882 4.12275C15.1923 2.43384 12.8934 1.49003 10.5 1.5ZM12.75 18H19.6275L17.685 19.9425L18.75 21L22.5 17.25L18.75 13.5L17.685 14.565L19.6275 16.5H12.75V18ZM10.5 15C8.01472 15 6 12.9853 6 10.5C6 8.01472 8.01472 6 10.5 6C12.9853 6 15 8.01472 15 10.5C15 12.9853 12.9853 15 10.5 15ZM10.5 7.5C8.84315 7.5 7.5 8.84315 7.5 10.5C7.5 12.1569 8.84315 13.5 10.5 13.5C12.1569 13.5 13.5 12.1569 13.5 10.5C13.5 8.84315 12.1569 7.5 10.5 7.5Z" fill="black"/>
</svg>
