<svg width="24" height="24" viewBox="0 0 24 24" fill="none" xmlns="http://www.w3.org/2000/svg">
<path fill-rule="evenodd" clip-rule="evenodd" d="M2.5575 1.5L22.5 21.4425L21.4425 22.5L19.891 20.9485C19.7664 20.9821 19.6353 21 19.5 21H4.5C3.67157 21 3 20.3284 3 19.5V4.5C3 4.36473 3.01791 4.23364 3.05148 4.10898L1.5 2.5575L2.5575 1.5ZM4.5 5.5575V16.8048L7.9675 10.25C8.11272 9.98922 8.33041 9.78097 8.58957 9.64707L4.5 5.5575ZM14.9417 15.9992C14.8818 15.9597 14.8244 15.9158 14.77 15.8675L9.295 11L4.76875 19.5H18.4425L14.9417 15.9992Z" fill="black"/>
<path d="M21 4.5V17.8292L19.5 16.3292V10.6591L17.6043 14.4335L16.4844 13.3136L19.5 7.2714V4.5H7.67078L6.17078 3H19.5C20.3284 3 21 3.67157 21 4.5Z" fill="black"/>
</svg>
