<svg width="24" height="24" viewBox="0 0 24 24" fill="none" xmlns="http://www.w3.org/2000/svg">
<path fill-rule="evenodd" clip-rule="evenodd" d="M19.5 10.5C20.3284 10.5 21 9.82843 21 9V4.5C21 3.67157 20.3284 3 19.5 3H15C14.1715 3 13.5 3.67157 13.5 4.5V9C13.5 9.82843 14.1715 10.5 15 10.5H16.5V13.575C15.0268 13.8755 13.8754 15.0268 13.575 16.5H10.5V15C10.5 14.1716 9.8284 13.5 8.99997 13.5H7.49997V10.425C9.38619 10.04 10.6745 8.28923 10.481 6.37386C10.2875 4.45849 8.67509 3.00077 6.74997 3.00077C4.82485 3.00077 3.21245 4.45849 3.01896 6.37386C2.82547 8.28923 4.11375 10.04 5.99997 10.425V13.5H4.49997C3.67154 13.5 2.99997 14.1716 2.99997 15V19.5C2.99997 20.3284 3.67154 21 4.49997 21H8.99997C9.8284 21 10.5 20.3284 10.5 19.5V18H13.575C13.9508 19.8388 15.6282 21.1166 17.5008 20.9906C19.3735 20.8645 20.8645 19.3735 20.9905 17.5009C21.1166 15.6283 19.8388 13.9509 18 13.575V10.5H19.5ZM4.49997 6.75C4.49997 5.50736 5.50733 4.5 6.74997 4.5C7.99261 4.5 8.99997 5.50736 8.99997 6.75C8.99997 7.99264 7.99261 9 6.74997 9C5.50733 9 4.49997 7.99264 4.49997 6.75ZM8.99997 19.5H4.49997V15H8.99997V19.5ZM19.5 17.25C19.5 18.4926 18.4926 19.5 17.25 19.5C16.0073 19.5 15 18.4926 15 17.25C15 16.0074 16.0073 15 17.25 15C18.4926 15 19.5 16.0074 19.5 17.25ZM15 4.5H19.5V9H15V4.5Z" fill="black"/>
</svg>
