<svg width="24" height="24" viewBox="0 0 24 24" fill="none" xmlns="http://www.w3.org/2000/svg">
<path fill-rule="evenodd" clip-rule="evenodd" d="M12 3C7.02944 3 3 7.02944 3 12C3 16.9706 7.02944 21 12 21C16.9706 21 21 16.9706 21 12C21 7.02944 16.9706 3 12 3ZM19.5 11.25H12.75V4.5375C16.3136 4.87736 19.1403 7.68833 19.5 11.25ZM11.565 19.5C7.62355 19.3167 4.49815 16.1108 4.4151 12.166C4.33206 8.22112 7.31975 4.88653 11.25 4.5375V11.2875C11.25 12.1159 11.9216 12.7875 12.75 12.7875H19.5C19.0854 16.7921 15.5829 19.7549 11.565 19.5Z" fill="black"/>
</svg>
