<svg width="24" height="24" viewBox="0 0 24 24" fill="none" xmlns="http://www.w3.org/2000/svg">
<path fill-rule="evenodd" clip-rule="evenodd" d="M7.545 13.41C7.77591 13.4662 8.01238 13.4964 8.25 13.5C8.84577 13.4998 9.42801 13.3223 9.9225 12.99L12.3375 15.1425C11.9505 15.8773 11.896 16.7424 12.1875 17.52C12.6025 18.714 13.7214 19.5198 14.9854 19.5349C16.2493 19.55 17.3872 18.7712 17.8306 17.5875C18.274 16.4037 17.9278 15.069 16.965 14.25L18.87 10.4325C19.6213 10.602 20.4092 10.4585 21.0525 10.035C22.1617 9.35809 22.709 8.04405 22.4082 6.77991C22.1075 5.51578 21.0271 4.58895 19.732 4.48401C18.4368 4.37908 17.2213 5.11988 16.721 6.31911C16.2207 7.51835 16.5493 8.90335 17.535 9.75L15.63 13.5675C15.4231 13.522 15.2118 13.4994 15 13.5C14.4042 13.5002 13.822 13.6777 13.3275 14.01L10.9125 11.8575C11.2995 11.1227 11.354 10.2576 11.0625 9.48C10.6507 8.29515 9.5453 7.49155 8.29121 7.46543C7.03713 7.43931 5.89918 8.19618 5.43844 9.36286C4.9777 10.5295 5.29146 11.8597 6.225 12.6975L3 18.75V1.5H1.5V21C1.5 21.8284 2.17157 22.5 3 22.5H22.5V21H3.5025L7.545 13.41ZM19.5 6C20.3284 6 21 6.67157 21 7.5C21 8.32843 20.3284 9 19.5 9C18.6716 9 18 8.32843 18 7.5C18 6.67157 18.6716 6 19.5 6ZM16.5 16.5C16.5 17.3284 15.8284 18 15 18C14.1716 18 13.5 17.3284 13.5 16.5C13.5 15.6716 14.1716 15 15 15C15.8284 15 16.5 15.6716 16.5 16.5ZM8.25 9C9.07843 9 9.75 9.67157 9.75 10.5C9.75 11.3284 9.07843 12 8.25 12C7.42157 12 6.75 11.3284 6.75 10.5C6.75 9.67157 7.42157 9 8.25 9Z" fill="black"/>
</svg>
