<svg width="24" height="24" viewBox="0 0 24 24" fill="none" xmlns="http://www.w3.org/2000/svg">
<path fill-rule="evenodd" clip-rule="evenodd" d="M4.5 3H19.5C20.3284 3 21 3.67157 21 4.5V19.5C21 20.3284 20.3284 21 19.5 21H4.5C3.67157 21 3 20.3284 3 19.5V4.5C3 3.67157 3.67157 3 4.5 3ZM4.5 16.8048L7.9675 10.25C8.18976 9.85086 8.58181 9.57477 9.0325 9.5C9.48901 9.42648 9.9539 9.56761 10.2925 9.8825L15.7675 14.75L19.5 7.2714V4.5H4.5V16.8048ZM19.5 10.6591L17.11 15.4175C16.9 15.8368 16.5059 16.1337 16.045 16.22C15.5883 16.3064 15.1174 16.1762 14.77 15.8675L9.295 11L4.76875 19.5H19.5V10.6591Z" fill="black"/>
</svg>
