<svg width="24" height="24" viewBox="0 0 24 24" fill="none" xmlns="http://www.w3.org/2000/svg">
<path fill-rule="evenodd" clip-rule="evenodd" d="M15 4.5C13.9671 4.49948 12.9454 4.71403 12 5.13C11.0546 4.71403 10.0329 4.49948 9 4.5C4.85786 4.5 1.5 7.85787 1.5 12C1.5 16.1421 4.85786 19.5 9 19.5C10.0329 19.5005 11.0546 19.286 12 18.87C12.9454 19.286 13.9671 19.5005 15 19.5C19.1421 19.5 22.5 16.1421 22.5 12C22.5 7.85787 19.1421 4.5 15 4.5ZM9 18C5.68629 18 3 15.3137 3 12C3 8.68629 5.68629 6 9 6C9.44423 6.00042 9.887 6.05074 10.32 6.15C8.54571 7.57348 7.51335 9.72528 7.51335 12C7.51335 14.2747 8.54571 16.4265 10.32 17.85C9.887 17.9493 9.44423 17.9996 9 18ZM15 12C14.9978 14.1414 13.8545 16.1193 12 17.19C10.1496 16.1166 9.01063 14.1392 9.01063 12C9.01063 9.8608 10.1496 7.88339 12 6.81C13.8545 7.8807 14.9978 9.85861 15 12ZM15 18C14.5558 17.9996 14.113 17.9493 13.68 17.85C15.4543 16.4265 16.4867 14.2747 16.4867 12C16.4867 9.72528 15.4543 7.57348 13.68 6.15C14.113 6.05074 14.5558 6.00042 15 6C18.3137 6 21 8.68629 21 12C21 15.3137 18.3137 18 15 18Z" fill="black"/>
</svg>
