<svg width="24" height="24" viewBox="0 0 24 24" fill="none" xmlns="http://www.w3.org/2000/svg">
<path fill-rule="evenodd" clip-rule="evenodd" d="M20.4233 17.7135L15 10.2563V3H16.5V1.5H7.50003V3H9.00003V10.2563L3.57678 17.7135C2.90976 18.6302 2.81369 19.8437 3.32816 20.854C3.84263 21.8643 4.88057 22.5003 6.01428 22.5H17.985C19.1187 22.5003 20.1567 21.8643 20.6712 20.854C21.1856 19.8437 21.0903 18.6302 20.4233 17.7135ZM10.5 10.7437V3H13.5V10.7437L15.5048 13.5H8.49528L10.5 10.7437ZM17.9858 21H6.01503C5.44585 20.9994 4.92504 20.6798 4.6667 20.1726C4.40836 19.6654 4.4561 19.0563 4.79028 18.5955L7.40478 15H16.5953L19.2105 18.5955C19.5447 19.0563 19.5925 19.6654 19.3341 20.1726C19.0758 20.6798 18.555 20.9994 17.9858 21Z" fill="black"/>
</svg>
