<svg width="24" height="24" viewBox="0 0 24 24" fill="none" xmlns="http://www.w3.org/2000/svg">
<path fill-rule="evenodd" clip-rule="evenodd" d="M8.25 8.25V15.75H15.75V8.25H8.25ZM14.25 14.25H9.75V9.75H14.25V14.25ZM22.5 9.75V8.25H19.5V6C19.5 5.17157 18.8284 4.5 18 4.5H15.75V1.5H14.25V4.5H9.75V1.5H8.25V4.5H6C5.17157 4.5 4.5 5.17157 4.5 6V8.25H1.5V9.75H4.5V14.25H1.5V15.75H4.5V18C4.5 18.8284 5.17157 19.5 6 19.5H8.25V22.5H9.75V19.5H14.25V22.5H15.75V19.5H18C18.8284 19.5 19.5 18.8284 19.5 18V15.75H22.5V14.25H19.5V9.75H22.5ZM18 18H6V6H18V18Z" fill="black"/>
</svg>
