<svg width="24" height="24" viewBox="0 0 24 24" fill="none" xmlns="http://www.w3.org/2000/svg">
<path fill-rule="evenodd" clip-rule="evenodd" d="M5.7749 3.52502C4.91464 4.18515 4.15648 4.96859 3.5249 5.85002L4.7249 6.75002C5.27573 5.98609 5.93229 5.30428 6.6749 4.72502L5.7749 3.52502ZM3.4499 9.22502L2.0249 8.77502C1.66262 9.81104 1.48492 10.9026 1.4999 12H2.9999C2.99685 11.0566 3.14888 10.1191 3.4499 9.22502ZM2.0249 15.3C2.37272 16.3458 2.87858 17.3323 3.5249 18.225L4.7249 17.325C4.18271 16.5659 3.75325 15.7322 3.4499 14.85L2.0249 15.3ZM5.8499 20.475C6.74265 21.1213 7.72907 21.6272 8.7749 21.975L9.2249 20.55C8.3427 20.2467 7.50906 19.8172 6.7499 19.275L5.8499 20.475ZM8.7749 2.02502L9.2249 3.45002C10.119 3.149 11.0565 2.99697 11.9999 3.00002V1.50002C10.9025 1.48505 9.81092 1.66274 8.7749 2.02502ZM18.1499 20.475C19.0333 19.8166 19.8165 19.0334 20.4749 18.15L19.2749 17.25C18.7171 18.0329 18.0328 18.7173 17.2499 19.275L18.1499 20.475ZM20.5499 14.775L21.9749 15.225C22.3011 14.1802 22.4779 13.0944 22.4999 12H20.9999C21.0029 12.9434 20.8509 13.8809 20.5499 14.775ZM21.8999 8.70002C21.5521 7.65419 21.0462 6.66777 20.3999 5.77502L19.1999 6.67502C19.7421 7.43418 20.1715 8.26782 20.4749 9.15002L21.8999 8.70002ZM18.0749 3.45002C17.1821 2.8037 16.1957 2.29784 15.1499 1.95002L14.6999 3.37502C15.5821 3.67838 16.4157 4.10783 17.1749 4.65002L18.0749 3.45002ZM15.2249 21.975L14.7749 20.55C13.8808 20.851 12.9433 21.0031 11.9999 21V22.5C13.0899 22.4351 14.1705 22.2592 15.2249 21.975Z" fill="black"/>
</svg>
