<svg width="24" height="24" viewBox="0 0 24 24" fill="none" xmlns="http://www.w3.org/2000/svg">
<path fill-rule="evenodd" clip-rule="evenodd" d="M22.5 7.5V1.5H16.5V7.5H18.75V10.5H17.25V12H22.5V10.5H20.25V7.5H22.5ZM18 3H21V6H18V3ZM15 17.5575L13.9425 16.5L12 18.4425L10.0575 16.5L8.99998 17.5575L10.9425 19.5L8.99998 21.4425L10.0575 22.5L12 20.5575L13.9425 22.5L15 21.4425L13.0575 19.5L15 17.5575ZM15 10.5H8.99998V12H11.25V15.75H12.75V12H15V10.5ZM5.24998 7.395C6.71271 7.01733 7.66642 5.61091 7.47607 4.11225C7.28571 2.61359 6.01068 1.49026 4.49998 1.49026C2.98928 1.49026 1.71424 2.61359 1.52389 4.11225C1.33353 5.61091 2.28725 7.01733 3.74998 7.395V10.5H1.49998V12H6.74998V10.5H5.24998V7.395ZM2.99998 4.5C2.99998 3.67158 3.67155 3 4.49998 3C5.3284 3 5.99998 3.67158 5.99998 4.5C5.99998 5.32843 5.3284 6 4.49998 6C3.67155 6 2.99998 5.32843 2.99998 4.5Z" fill="black"/>
</svg>
