<svg width="24" height="24" viewBox="0 0 24 24" fill="none" xmlns="http://www.w3.org/2000/svg">
<path fill-rule="evenodd" clip-rule="evenodd" d="M21 4.5H3C2.17157 4.5 1.5 5.17157 1.5 6V18C1.5 18.8284 2.17157 19.5 3 19.5H21C21.8284 19.5 22.5 18.8284 22.5 18V6C22.5 5.17157 21.8284 4.5 21 4.5ZM11.25 9.75H7.5V14.25H11.25V15.75H7.5C6.67157 15.75 6 15.0784 6 14.25V9.75C6 8.92157 6.67157 8.25 7.5 8.25H11.25V9.75ZM18.75 9.75H15V14.25H18.75V15.75H15C14.1716 15.75 13.5 15.0784 13.5 14.25V9.75C13.5 8.92157 14.1716 8.25 15 8.25H18.75V9.75Z" fill="black"/>
</svg>
