<svg width="24" height="24" viewBox="0 0 24 24" fill="none" xmlns="http://www.w3.org/2000/svg">
<path fill-rule="evenodd" clip-rule="evenodd" d="M14.25 12.75H18.75V14.25H14.25V12.75ZM8.25 12.75H12.75V14.25H8.25V12.75ZM4.5 12.75H6.75V14.25H4.5V12.75ZM16.5 9.75H19.5V11.25H16.5V9.75ZM9.75 9.75H15V11.25H9.75V9.75ZM4.5 9.75H8.25V11.25H4.5V9.75ZM13.302 22.5L12 21.75L15 16.5H19.5C19.898 16.5006 20.2799 16.3428 20.5613 16.0613C20.8428 15.7799 21.0006 15.398 21 15V6C21.0006 5.60199 20.8428 5.22011 20.5613 4.93868C20.2799 4.65724 19.898 4.4994 19.5 4.5H4.5C4.10199 4.4994 3.72011 4.65724 3.43868 4.93868C3.15724 5.22011 2.9994 5.60199 3 6V15C2.9994 15.398 3.15724 15.7799 3.43868 16.0613C3.72011 16.3428 4.10199 16.5006 4.5 16.5H11.25V18H4.5C2.84315 18 1.5 16.6569 1.5 15V6C1.4998 5.20429 1.81581 4.44111 2.37846 3.87846C2.94111 3.31581 3.70429 2.9998 4.5 3H19.5C20.2957 2.9998 21.0589 3.31581 21.6215 3.87846C22.1842 4.44111 22.5002 5.20429 22.5 6V15C22.5 16.6569 21.1569 18 19.5 18H15.8737L13.302 22.5Z" fill="black"/>
</svg>
