<svg width="24" height="24" viewBox="0 0 24 24" fill="none" xmlns="http://www.w3.org/2000/svg">
<path fill-rule="evenodd" clip-rule="evenodd" d="M12 5.25C12.3803 5.24993 12.7597 5.28761 13.1325 5.3625C15.5432 5.82419 17.4296 7.70759 17.895 10.1175L18.09 11.13L19.1025 11.31C21.2233 11.6748 22.7074 13.6085 22.5112 15.7515C22.3149 17.8945 20.5043 19.5265 18.3525 19.5H5.62504C3.47327 19.5265 1.66265 17.8945 1.46641 15.7515C1.27017 13.6085 2.75425 11.6748 4.87504 11.31L5.88004 11.13L6.07504 10.1175C6.62037 7.28 9.11065 5.23419 12 5.25ZM12 3.75C8.39925 3.74701 5.30449 6.30342 4.62754 9.84C1.76476 10.3583 -0.230409 12.9741 0.0266663 15.8721C0.283742 18.77 2.70822 20.9937 5.61754 21H18.3675C21.2769 20.9937 23.7013 18.77 23.9584 15.8721C24.2155 12.9741 22.2203 10.3583 19.3575 9.84C18.7795 6.8227 16.4198 4.46301 13.4025 3.885C12.9401 3.79725 12.4707 3.75206 12 3.75ZM10.5 18H8.25004C7.42161 18 6.75004 17.3284 6.75004 16.5V14.25C6.75004 13.4216 7.42161 12.75 8.25004 12.75H10.5V14.25H8.25004V16.5H10.5V18ZM15.75 11.25V9.75H14.25C13.4216 9.75 12.75 10.4216 12.75 11.25V12.75H12V14.25H12.75V18H14.25V14.25H15.75V12.75H14.25V11.25H15.75Z" fill="black"/>
</svg>
