<svg width="24" height="24" viewBox="0 0 24 24" fill="none" xmlns="http://www.w3.org/2000/svg">
<path fill-rule="evenodd" clip-rule="evenodd" d="M17.6249 16.5H17.2499V15H17.6249C19.4889 15.0746 21.0604 13.624 21.1349 11.76C21.2095 9.89608 19.7589 8.3246 17.8949 8.25004H17.2499L17.1749 7.63504C16.8307 5.02326 14.6043 3.07096 11.9699 3.07096C9.33555 3.07096 7.10909 5.02326 6.76491 7.63504L6.74991 8.25004H6.10491C4.24095 8.3246 2.79035 9.89608 2.86491 11.76C2.93947 13.624 4.51095 15.0746 6.37491 15H6.74991V16.5H6.37491C3.88425 16.4843 1.80602 14.5935 1.55551 12.1155C1.305 9.63736 2.96279 7.36896 5.39991 6.85504C6.06712 3.74319 8.81733 1.52014 11.9999 1.52014C15.1825 1.52014 17.9327 3.74319 18.5999 6.85504C21.037 7.36896 22.6948 9.63736 22.4443 12.1155C22.1938 14.5935 20.1156 16.4843 17.6249 16.5ZM11.9024 22.875L10.5974 22.125L12.9599 18H8.45991L12.0974 11.625L13.4024 12.375L11.0399 16.5H15.5399L11.9024 22.875Z" fill="black"/>
</svg>
