<svg width="24" height="24" viewBox="0 0 24 24" fill="none" xmlns="http://www.w3.org/2000/svg">
<path fill-rule="evenodd" clip-rule="evenodd" d="M17.625 16.5H17.25V15H17.625C19.489 15.0746 21.0605 13.624 21.135 11.76C21.2096 9.89608 19.759 8.3246 17.895 8.25004H17.25L17.175 7.63504C16.8309 5.02326 14.6044 3.07096 11.97 3.07096C9.33567 3.07096 7.10921 5.02326 6.76503 7.63504L6.75003 8.25004H6.10503C4.24107 8.3246 2.79048 9.89608 2.86503 11.76C2.93959 13.624 4.51107 15.0746 6.37503 15H6.75003V16.5H6.37503C3.88437 16.4843 1.80614 14.5935 1.55563 12.1155C1.30513 9.63736 2.96291 7.36896 5.40003 6.85504C6.06724 3.74319 8.81745 1.52014 12 1.52014C15.1826 1.52014 17.9328 3.74319 18.6 6.85504C21.0372 7.36896 22.6949 9.63736 22.4444 12.1155C22.1939 14.5935 20.1157 16.4843 17.625 16.5ZM12.75 19.6275V10.5H11.25V19.6275L9.30753 17.6925L8.25003 18.75L12 22.5L15.75 18.75L14.6925 17.6925L12.75 19.6275Z" fill="black"/>
</svg>
