<svg width="24" height="24" viewBox="0 0 24 24" fill="none" xmlns="http://www.w3.org/2000/svg">
<path fill-rule="evenodd" clip-rule="evenodd" d="M17.6249 16.5H6.37491C3.88425 16.4843 1.80602 14.5935 1.55551 12.1155C1.305 9.63736 2.96279 7.36896 5.39991 6.85504C6.06712 3.74319 8.81733 1.52014 11.9999 1.52014C15.1825 1.52014 17.9327 3.74319 18.5999 6.85504C21.037 7.36896 22.6948 9.63736 22.4443 12.1155C22.1938 14.5935 20.1156 16.4843 17.6249 16.5ZM11.9999 3.00004C9.35183 3.00268 7.12025 4.97703 6.79491 7.60504L6.74991 8.25004H6.10491C4.24095 8.3246 2.79035 9.89608 2.86491 11.76C2.93947 13.624 4.51095 15.0746 6.37491 15H17.6249C19.4889 15.0746 21.0604 13.624 21.1349 11.76C21.2095 9.89608 19.7589 8.3246 17.8949 8.25004H17.2499L17.1749 7.63504C16.8649 5.00643 14.6467 3.01964 11.9999 3.00004ZM8.99991 18.7875L8.21241 18L7.12491 19.0875L6.03741 18L5.24991 18.7875L6.33741 19.875L5.24991 20.9625L6.03741 21.75L7.12491 20.6625L8.21241 21.75L8.99991 20.9625L7.91241 19.875L8.99991 18.7875ZM19.4999 18.7875L18.7124 18L17.6249 19.0875L16.5374 18L15.7499 18.7875L16.8374 19.875L15.7499 20.9625L16.5374 21.75L17.6249 20.6625L18.7124 21.75L19.4999 20.9625L18.4124 19.875L19.4999 18.7875ZM14.2499 20.2875L13.4624 19.5L12.3749 20.5875L11.2874 19.5L10.4999 20.2875L11.5874 21.375L10.4999 22.4625L11.2874 23.25L12.3749 22.1625L13.4624 23.25L14.2499 22.4625L13.1624 21.375L14.2499 20.2875Z" fill="black"/>
</svg>
