<svg width="24" height="24" viewBox="0 0 24 24" fill="none" xmlns="http://www.w3.org/2000/svg">
<path fill-rule="evenodd" clip-rule="evenodd" d="M17.6249 16.5H6.37491C3.88425 16.4843 1.80602 14.5935 1.55551 12.1155C1.305 9.63736 2.96279 7.36896 5.39991 6.85504C6.06712 3.74319 8.81733 1.52014 11.9999 1.52014C15.1825 1.52014 17.9327 3.74319 18.5999 6.85504C21.037 7.36896 22.6948 9.63736 22.4443 12.1155C22.1938 14.5935 20.1156 16.4843 17.6249 16.5ZM11.9999 3.00004C9.35183 3.00268 7.12025 4.97703 6.79491 7.60504L6.74991 8.25004H6.10491C4.24095 8.3246 2.79035 9.89608 2.86491 11.76C2.93947 13.624 4.51095 15.0746 6.37491 15H17.6249C19.4889 15.0746 21.0604 13.624 21.1349 11.76C21.2095 9.89608 19.7589 8.3246 17.8949 8.25004H17.2499L17.1749 7.63504C16.8649 5.00643 14.6467 3.01964 11.9999 3.00004ZM10.4999 22.5C10.3823 22.5015 10.2662 22.4731 10.1624 22.4175C9.79468 22.2304 9.64722 21.7813 9.83241 21.4125L11.3324 18.4125C11.4405 18.153 11.6846 17.9757 11.9649 17.9533C12.2451 17.9308 12.5144 18.0669 12.6624 18.3059C12.8104 18.5449 12.8124 18.8467 12.6674 19.0875L11.1674 22.0875C11.0403 22.3398 10.7823 22.4992 10.4999 22.5ZM14.9999 22.5C14.8823 22.5015 14.7662 22.4731 14.6624 22.4175C14.2947 22.2304 14.1472 21.7813 14.3324 21.4125L15.8324 18.4125C15.9405 18.153 16.1846 17.9757 16.4649 17.9533C16.7451 17.9308 17.0144 18.0669 17.1624 18.3059C17.3104 18.5449 17.3124 18.8467 17.1674 19.0875L15.6674 22.0875C15.5403 22.3398 15.2823 22.4992 14.9999 22.5ZM5.99991 22.5C5.88225 22.5015 5.76615 22.4731 5.66241 22.4175C5.29468 22.2304 5.14722 21.7813 5.33241 21.4125L6.83241 18.4125C6.94049 18.153 7.18462 17.9757 7.46486 17.9533C7.74509 17.9308 8.01435 18.0669 8.16238 18.3059C8.31042 18.5449 8.31236 18.8467 8.16741 19.0875L6.66741 22.0875C6.54032 22.3398 6.28233 22.4992 5.99991 22.5Z" fill="black"/>
</svg>
