<svg width="24" height="24" viewBox="0 0 24 24" fill="none" xmlns="http://www.w3.org/2000/svg">
<path fill-rule="evenodd" clip-rule="evenodd" d="M15 12.75V11.25C15 10.4216 14.3284 9.75 13.5 9.75H7.5C6.67157 9.75 6 10.4216 6 11.25V12.75C6 13.5784 6.67157 14.25 7.5 14.25H13.5C14.3284 14.25 15 13.5784 15 12.75ZM7.5 11.25H13.5V12.75H7.5V11.25ZM17.565 18.36C17.3523 17.569 16.5443 17.0949 15.75 17.295L9.9525 18.8475C9.15408 19.0601 8.67791 19.8783 8.8875 20.6775L9.2775 22.125C9.44586 22.7775 10.0287 23.2377 10.7025 23.25C10.8338 23.2439 10.9643 23.2264 11.0925 23.1975L16.89 21.645C17.6891 21.4292 18.1624 20.6069 17.9475 19.8075L17.565 18.36ZM10.7025 21.75L10.32 20.295L16.11 18.75L16.5 20.19L10.7025 21.75ZM9.93 5.145L15.75 6.6975C15.8751 6.72964 16.0034 6.74726 16.1325 6.75C16.8132 6.75299 17.4105 6.29727 17.5875 5.64L18 4.185C18.2149 3.38564 17.7416 2.56331 16.9425 2.3475L11.0925 0.795001C10.2931 0.580132 9.47081 1.05339 9.255 1.8525L8.865 3.3C8.65541 4.09921 9.13158 4.91742 9.93 5.13V5.145ZM10.68 2.25L16.5 3.8025L16.11 5.25L10.32 3.6975L10.68 2.25ZM10.5 15.75H12V17.25H10.5V15.75ZM10.5 6.75H12V8.25H10.5V6.75Z" fill="black"/>
</svg>
