<svg width="24" height="24" viewBox="0 0 24 24" fill="none" xmlns="http://www.w3.org/2000/svg">
<path fill-rule="evenodd" clip-rule="evenodd" d="M4.5 15.75V15H3V15.75C3 18.6495 5.35051 21 8.25 21H10.5V19.5H8.25C6.17893 19.5 4.5 17.8211 4.5 15.75ZM18 8.25V9H19.5V8.25C19.5 5.35051 17.1495 3 14.25 3H12V4.5H14.25C15.2446 4.5 16.1984 4.89509 16.9017 5.59835C17.6049 6.30161 18 7.25544 18 8.25ZM8.25 8.25H3.75C2.50736 8.25 1.5 9.25736 1.5 10.5V12H3V10.5C3 10.0858 3.33579 9.75 3.75 9.75H8.25C8.66421 9.75 9 10.0858 9 10.5V12H10.5V10.5C10.5 9.25736 9.49264 8.25 8.25 8.25ZM6 7.5C7.65685 7.5 9 6.15685 9 4.5C9 2.84315 7.65685 1.5 6 1.5C4.34315 1.5 3 2.84315 3 4.5C3 6.15685 4.34315 7.5 6 7.5ZM6 3C6.82843 3 7.5 3.67157 7.5 4.5C7.5 5.32843 6.82843 6 6 6C5.17157 6 4.5 5.32843 4.5 4.5C4.5 3.67157 5.17157 3 6 3ZM20.25 18.75H15.75C14.5074 18.75 13.5 19.7574 13.5 21V22.5H15V21C15 20.5858 15.3358 20.25 15.75 20.25H20.25C20.6642 20.25 21 20.5858 21 21V22.5H22.5V21C22.5 19.7574 21.4926 18.75 20.25 18.75ZM15 15C15 16.6569 16.3431 18 18 18C19.6569 18 21 16.6569 21 15C21 13.3431 19.6569 12 18 12C16.3431 12 15 13.3431 15 15ZM19.5 15C19.5 15.8284 18.8284 16.5 18 16.5C17.1716 16.5 16.5 15.8284 16.5 15C16.5 14.1716 17.1716 13.5 18 13.5C18.8284 13.5 19.5 14.1716 19.5 15Z" fill="black"/>
</svg>
