<svg width="24" height="24" viewBox="0 0 24 24" fill="none" xmlns="http://www.w3.org/2000/svg">
<path fill-rule="evenodd" clip-rule="evenodd" d="M7.5 10.5C8.32843 10.5 9 9.82844 9 9.00001C9 8.17158 8.32843 7.50001 7.5 7.50001C6.67158 7.50001 6 8.17158 6 9.00001C6 9.82844 6.67158 10.5 7.5 10.5ZM12 8.25001C12.8284 8.25001 13.5 7.57844 13.5 6.75001C13.5 5.92158 12.8284 5.25001 12 5.25001C11.1716 5.25001 10.5 5.92158 10.5 6.75001C10.5 7.57844 11.1716 8.25001 12 8.25001ZM16.5 10.5C17.3284 10.5 18 9.82844 18 9.00001C18 8.17158 17.3284 7.50001 16.5 7.50001C15.6716 7.50001 15 8.17158 15 9.00001C15 9.82844 15.6716 10.5 16.5 10.5ZM17.25 15C18.0784 15 18.75 14.3284 18.75 13.5C18.75 12.6716 18.0784 12 17.25 12C16.4216 12 15.75 12.6716 15.75 13.5C15.75 14.3284 16.4216 15 17.25 15ZM14.25 18.75C15.0784 18.75 15.75 18.0784 15.75 17.25C15.75 16.4216 15.0784 15.75 14.25 15.75C13.4216 15.75 12.75 16.4216 12.75 17.25C12.75 18.0784 13.4216 18.75 14.25 18.75ZM12.405 1.50001C9.55074 1.38983 6.77478 2.44725 4.71716 4.42845C2.65954 6.40965 1.49788 9.14363 1.5 12C1.49993 13.127 2.02545 14.1895 2.92117 14.8735C3.8169 15.5574 4.98035 15.7845 6.0675 15.4875L6.9075 15.255C7.58485 15.0701 8.30968 15.212 8.86729 15.6387C9.42491 16.0654 9.75138 16.7279 9.75 17.43V20.25C9.75 21.4927 10.7574 22.5 12 22.5C14.8564 22.5021 17.5904 21.3405 19.5716 19.2829C21.5528 17.2252 22.6102 14.4493 22.5 11.595C22.2744 6.11588 17.8841 1.72565 12.405 1.50001ZM18.4875 18.2325C16.7952 20.0044 14.4502 21.0047 12 21C11.5858 21 11.25 20.6642 11.25 20.25V17.43C11.25 15.3589 9.57107 13.68 7.5 13.68C7.16299 13.6806 6.82755 13.726 6.5025 13.815L5.6625 14.0475C5.02659 14.2179 4.34757 14.0825 3.82569 13.6812C3.3038 13.2798 2.99857 12.6584 3 12C2.99812 9.55071 3.99457 7.20644 5.75942 5.50811C7.52428 3.80977 9.90508 2.90408 12.3525 3.00001C17.0239 3.24331 20.7567 6.97612 21 11.6475C21.1043 14.097 20.1956 16.4813 18.4875 18.24V18.2325Z" fill="black"/>
</svg>
