<svg width="24" height="24" viewBox="0 0 24 24" fill="none" xmlns="http://www.w3.org/2000/svg">
<path fill-rule="evenodd" clip-rule="evenodd" d="M19.365 7.5H22.5V6H19.365C19.042 5.11016 18.1966 4.51764 17.25 4.51764C16.3034 4.51764 15.458 5.11016 15.135 6H9.75V3.75H3.75V6H1.5V7.5H3.75V9.75H9.75V7.5H15.135C15.3618 8.13699 15.863 8.63821 16.5 8.865V14.355C15.4496 14.6292 14.6292 15.4496 14.355 16.5H1.5V18H14.355C14.71 19.3065 15.8961 20.2133 17.25 20.2133C18.6039 20.2133 19.79 19.3065 20.145 18H22.5V16.5H20.145C19.8708 15.4496 19.0504 14.6292 18 14.355V8.865C18.637 8.63821 19.1382 8.13699 19.365 7.5ZM8.25 8.25H5.25V5.25H8.25V8.25ZM18.75 17.25C18.75 18.0784 18.0784 18.75 17.25 18.75C16.4216 18.75 15.75 18.0784 15.75 17.25C15.75 16.4216 16.4216 15.75 17.25 15.75C18.0784 15.75 18.75 16.4216 18.75 17.25Z" fill="black"/>
</svg>
