<svg width="24" height="24" viewBox="0 0 24 24" fill="none" xmlns="http://www.w3.org/2000/svg">
<path fill-rule="evenodd" clip-rule="evenodd" d="M15.6637 14.6032C16.7788 13.0468 16.7788 10.9532 15.6637 9.39675L17.25 7.8105L18.2197 8.78025C18.5126 9.07304 18.9874 9.07304 19.2803 8.78025L22.2803 5.78025C22.573 5.48738 22.573 5.01262 22.2803 4.71975L19.2803 1.71975C18.9874 1.42696 18.5126 1.42696 18.2197 1.71975L15.2198 4.71975C14.927 5.01262 14.927 5.48738 15.2198 5.78025L16.1895 6.75L14.6032 8.33625C13.0468 7.22122 10.9532 7.22122 9.39675 8.33625L7.5 6.43875V1.5H1.5V7.5H6.4395L8.33625 9.39675C7.22122 10.9532 7.22122 13.0468 8.33625 14.6032L6.75 16.1895L5.78025 15.2198C5.48738 14.927 5.01262 14.927 4.71975 15.2198L1.71975 18.2197C1.42696 18.5126 1.42696 18.9874 1.71975 19.2803L4.71975 22.2803C5.01262 22.573 5.48738 22.573 5.78025 22.2803L8.78025 19.2803C9.07304 18.9874 9.07304 18.5126 8.78025 18.2197L7.8105 17.25L9.39675 15.6637C10.9532 16.7788 13.0468 16.7788 14.6032 15.6637L16.5 17.5613V22.5H22.5V16.5H17.5605L15.6637 14.6032ZM18.75 3.3105L20.6895 5.25L18.75 7.1895L16.8105 5.25L18.75 3.3105ZM5.25 20.6895L3.3105 18.75L5.25 16.8105L7.1895 18.75L5.25 20.6895ZM6 6H3V3H6V6ZM9 12C9 10.3431 10.3431 9 12 9C13.6569 9 15 10.3431 15 12C15 13.6569 13.6569 15 12 15C10.344 14.9979 9.00207 13.656 9 12ZM18 18H21V21H18V18Z" fill="black"/>
</svg>
