<svg width="24" height="24" viewBox="0 0 24 24" fill="none" xmlns="http://www.w3.org/2000/svg">
<path fill-rule="evenodd" clip-rule="evenodd" d="M17.25 12.0075C16.1201 12.0086 15.0206 12.3742 14.115 13.05L10.95 9.88498C11.6338 8.98599 12.0028 7.88697 12 6.75748C12.0061 4.32231 10.3368 2.2026 7.96811 1.63761C5.59938 1.07262 3.15306 2.21066 2.05935 4.38642C0.965634 6.56217 1.51166 9.20442 3.3782 10.7684C5.24475 12.3324 7.94177 12.4076 9.89253 10.95L13.05 14.115C11.5928 16.0652 11.6675 18.7613 13.2304 20.6279C14.7932 22.4944 17.4343 23.0417 19.6102 21.9499C21.7861 20.858 22.926 18.4135 22.3637 16.0449C21.8014 13.6762 19.6845 12.0049 17.25 12.0075ZM3.00003 6.75748C3.00003 4.68641 4.67896 3.00748 6.75003 3.00748C8.8211 3.00748 10.5 4.68641 10.5 6.75748C10.5 8.82855 8.8211 10.5075 6.75003 10.5075C4.67896 10.5075 3.00003 8.82855 3.00003 6.75748Z" fill="black"/>
</svg>
