<svg width="24" height="24" viewBox="0 0 24 24" fill="none" xmlns="http://www.w3.org/2000/svg">
<path fill-rule="evenodd" clip-rule="evenodd" d="M11.25 9.00002H12.75V22.5H11.25V9.00002ZM8.4975 13.665C7.3827 12.669 6.7454 11.245 6.7454 9.75002C6.7454 8.25509 7.3827 6.83105 8.4975 5.83502L9.5025 6.95252C8.70549 7.664 8.2498 8.68165 8.2498 9.75002C8.2498 10.8184 8.70549 11.836 9.5025 12.5475L8.4975 13.665ZM15.5025 13.665L14.4975 12.5475C15.2945 11.836 15.7502 10.8184 15.7502 9.75002C15.7502 8.68165 15.2945 7.664 14.4975 6.95252L15.5025 5.83502C16.6173 6.83105 17.2546 8.25509 17.2546 9.75002C17.2546 11.245 16.6173 12.669 15.5025 13.665ZM6.3 16.35C4.2226 14.792 3 12.3468 3 9.75002C3 7.15328 4.2226 4.70807 6.3 3.15002L7.2 4.35002C5.50031 5.62479 4.5 7.62541 4.5 9.75002C4.5 11.8746 5.50031 13.8753 7.2 15.15L6.3 16.35ZM17.7 16.35L16.8 15.15C18.4997 13.8753 19.5 11.8746 19.5 9.75002C19.5 7.62541 18.4997 5.62479 16.8 4.35002L17.7 3.15002C19.7774 4.70807 21 7.15328 21 9.75002C21 12.3468 19.7774 14.792 17.7 16.35Z" fill="black"/>
</svg>
