<svg width="24" height="24" viewBox="0 0 24 24" fill="none" xmlns="http://www.w3.org/2000/svg">
<path fill-rule="evenodd" clip-rule="evenodd" d="M22.0275 8.88C21.8262 8.22747 21.5598 7.59681 21.2325 6.9975C20.7485 6.10801 20.1398 5.29226 19.425 4.575C15.3244 0.474803 8.67632 0.475029 4.57598 4.57551C0.475648 8.67598 0.475648 15.324 4.57598 19.4245C8.67632 23.525 15.3244 23.5252 19.425 19.425C20.1398 18.7077 20.7485 17.892 21.2325 17.0025C21.5598 16.4032 21.8262 15.7725 22.0275 15.12C22.6598 13.0881 22.6598 10.9119 22.0275 8.88ZM2.99997 12C2.99997 7.02944 7.02941 3 12 3V21C7.02941 21 2.99997 16.9706 2.99997 12Z" fill="black"/>
</svg>
