<svg width="24" height="24" viewBox="0 0 24 24" fill="none" xmlns="http://www.w3.org/2000/svg">
<path fill-rule="evenodd" clip-rule="evenodd" d="M20.5763 11.0243L16.0328 6.4335C15.7593 6.15724 15.3872 6.00125 14.9985 6H9C8.17192 6.00083 7.50083 6.67192 7.5 7.5V21.75C7.50083 22.5781 8.17192 23.2492 9 23.25H19.5C20.3281 23.2492 20.9992 22.5781 21 21.75V12.0578C20.999 11.6712 20.8469 11.3003 20.5763 11.0243ZM15 7.5225L19.443 12H15V7.5225ZM9 21.75V7.5H13.5V12C13.5008 12.8281 14.1719 13.4992 15 13.5H19.5L19.5007 21.75H9ZM4.5 13.5H3V3C3.00083 2.17192 3.67192 1.50083 4.5 1.5H15V3H4.5V13.5Z" fill="black"/>
</svg>
