<svg width="24" height="24" viewBox="0 0 24 24" fill="none" xmlns="http://www.w3.org/2000/svg">
<path fill-rule="evenodd" clip-rule="evenodd" d="M21 6.75L19.5 16.5L18 6.75H16.5L18.387 17.25H20.613L22.5 6.75H21ZM13.5 17.25H9V15.75H13.5V12.75H10.5C9.67192 12.7492 9.00083 12.0781 9 11.25V8.25C9.00083 7.42192 9.67192 6.75083 10.5 6.75H15V8.25H10.5V11.25H13.5C14.3281 11.2508 14.9992 11.9219 15 12.75V15.75C14.9992 16.5781 14.3281 17.2492 13.5 17.25ZM7.5 17.25H3C2.17192 17.2492 1.50083 16.5781 1.5 15.75V8.25C1.50083 7.42192 2.17192 6.75083 3 6.75H7.5V8.25H3V15.75H7.5V17.25Z" fill="black"/>
</svg>
