<svg width="24" height="24" viewBox="0 0 24 24" fill="none" xmlns="http://www.w3.org/2000/svg">
<path fill-rule="evenodd" clip-rule="evenodd" d="M7.5 17.25H3.75C2.92157 17.25 2.25 16.5784 2.25 15.75V11.25C2.25 10.4216 2.92157 9.75 3.75 9.75H7.5V11.25H3.75V15.75H7.5V17.25ZM13.5 17.25H10.5C9.67157 17.25 9 16.5784 9 15.75V6.75H10.5V15.75H13.5V6.75H15V15.75C15 16.5784 14.3284 17.25 13.5 17.25ZM21 6.75H16.5V8.25H21V11.25H17.25V12.75H21V15.75H16.5V17.25H21C21.8284 17.25 22.5 16.5784 22.5 15.75V8.25C22.5 7.42157 21.8284 6.75 21 6.75Z" fill="black"/>
</svg>
