<svg width="24" height="24" viewBox="0 0 24 24" fill="none" xmlns="http://www.w3.org/2000/svg">
<path d="M14.125 16V14.75C14.9534 14.75 15.625 14.0784 15.625 13.25V11.75C15.625 10.9216 14.9534 10.25 14.125 10.25H11.875V8.75H15.625V7.25H14.1299V6H12.1299V7.25H11.875C11.0466 7.25 10.375 7.92163 10.375 8.75V10.25C10.375 11.0784 11.0466 11.75 11.875 11.75H14.125V13.25H10.375V14.75H12.125V16H14.125Z" fill="black"/>
<path fill-rule="evenodd" clip-rule="evenodd" d="M13 20C17.9705 20 22 15.9705 22 11C22 6.0293 17.9705 2 13 2C8.02954 2 4 6.0293 4 11C4 15.9705 8.02954 20 13 20ZM13 18.5C17.1421 18.5 20.5 15.1421 20.5 11C20.5 6.85791 17.1421 3.5 13 3.5C8.85791 3.5 5.5 6.85791 5.5 11C5.5 15.1421 8.85791 18.5 13 18.5Z" fill="black"/>
<path d="M1.5 13.5002C1.5 11.8757 1.93042 10.3518 2.68335 9.03613C2.56299 9.67236 2.5 10.3289 2.5 11.0002C2.5 12.1748 2.69287 13.3042 3.04858 14.3586C3.44238 17.8149 6.1853 20.5579 9.6416 20.9517C10.696 21.3074 11.8254 21.5002 13 21.5002C13.6714 21.5002 14.3279 21.4373 14.9641 21.3169C13.6484 22.0698 12.1245 22.5002 10.5 22.5002C5.52954 22.5002 1.5 18.4707 1.5 13.5002Z" fill="black"/>
</svg>
