<svg width="24" height="24" viewBox="0 0 24 24" fill="none" xmlns="http://www.w3.org/2000/svg">
<path fill-rule="evenodd" clip-rule="evenodd" d="M22 11C22 15.9705 17.9705 20 13 20C8.02954 20 4 15.9705 4 11C4 6.0293 8.02954 2 13 2C17.9705 2 22 6.0293 22 11ZM14.125 16V14.75C14.9534 14.75 15.625 14.0784 15.625 13.25V11.75C15.625 10.9216 14.9534 10.25 14.125 10.25H11.875V8.75H15.625V7.25H14.1299V6H12.1299V7.25H11.875C11.0466 7.25 10.375 7.92163 10.375 8.75V10.25C10.375 11.0784 11.0466 11.75 11.875 11.75H14.125V13.25H10.375V14.75H12.125V16H14.125Z" fill="black"/>
<path d="M13.719 21.4761C14.1414 21.4475 14.5569 21.394 14.9641 21.3169C13.6484 22.0698 12.1245 22.5002 10.5 22.5002C5.52954 22.5002 1.5 18.4707 1.5 13.5002C1.5 11.8757 1.93042 10.3518 2.68335 9.03613C2.56299 9.67236 2.5 10.3289 2.5 11.0002C2.5 16.7993 7.20093 21.5002 13 21.5002C13.2417 21.5002 13.4814 21.4922 13.719 21.4761Z" fill="black"/>
</svg>
