<svg width="24" height="24" viewBox="0 0 24 24" fill="none" xmlns="http://www.w3.org/2000/svg">
<path fill-rule="evenodd" clip-rule="evenodd" d="M19.875 14.7225L15.18 12L19.875 9.27746C21.2094 8.52619 21.953 7.03903 21.7533 5.52075C21.5536 4.00247 20.4508 2.75814 18.9675 2.37746C18.6516 2.29454 18.3266 2.25171 18 2.24996C16.6533 2.24529 15.4075 2.96312 14.7361 4.13059C14.0648 5.29806 14.071 6.73587 14.7525 7.89746C15.1626 8.60362 15.792 9.15663 16.545 9.47246L13.68 11.13L3 4.94996L2.25 6.25496L12.18 12L2.25 17.76L3 19.065L13.68 12.87L16.545 14.5275C15.792 14.8433 15.1626 15.3963 14.7525 16.1025C14.071 17.2641 14.0648 18.7019 14.7361 19.8693C15.4075 21.0368 16.6533 21.7546 18 21.75C18.3266 21.7482 18.6516 21.7054 18.9675 21.6225C20.4508 21.2418 21.5536 19.9975 21.7533 18.4792C21.953 16.9609 21.2094 15.4737 19.875 14.7225ZM16.05 7.14746C15.7465 6.62903 15.6629 6.01076 15.8179 5.43036C15.9729 4.84996 16.3535 4.35563 16.875 4.05746C17.393 3.75937 18.0083 3.67962 18.5852 3.8358C19.1621 3.99198 19.6531 4.37126 19.95 4.88996C20.2511 5.40773 20.3333 6.02418 20.1785 6.60276C20.0236 7.18134 19.6445 7.67431 19.125 7.97246C18.6079 8.27117 17.9933 8.35206 17.4165 8.19732C16.8397 8.04257 16.3481 7.66489 16.05 7.14746ZM19.95 19.1475C19.6531 19.6662 19.1621 20.0454 18.5852 20.2016C18.0083 20.3578 17.393 20.278 16.875 19.98C16.3535 19.6818 15.9729 19.1875 15.8179 18.6071C15.6629 18.0267 15.7465 17.4084 16.05 16.89C16.3481 16.3725 16.8397 15.9949 17.4165 15.8401C17.9933 15.6854 18.6079 15.7663 19.125 16.065C20.1847 16.6849 20.5518 18.0399 19.95 19.11V19.1475Z" fill="black"/>
</svg>
