<svg width="24" height="24" viewBox="0 0 24 24" fill="none" xmlns="http://www.w3.org/2000/svg">
<path fill-rule="evenodd" clip-rule="evenodd" d="M21 1.5H3C2.17192 1.50083 1.50083 2.17192 1.5 3V21C1.50083 21.8281 2.17192 22.4992 3 22.5H21C21.8279 22.4988 22.4988 21.8279 22.5 21V3C22.4992 2.17192 21.8281 1.50083 21 1.5ZM21 8.25H10.5V3H21V8.25ZM9 3V8.25H3V3H9ZM3 21V9.75H21L21.0015 21H3ZM18 15.75H19.5V19.5H18V15.75ZM15 12H16.5V19.5H15V12ZM8.25 19.5C6.17996 19.4975 4.50248 17.82 4.5 15.75H6C6 16.9926 7.00736 18 8.25 18C9.49264 18 10.5 16.9926 10.5 15.75C10.5 14.5074 9.49264 13.5 8.25 13.5V12C10.3211 12 12 13.6789 12 15.75C12 17.8211 10.3211 19.5 8.25 19.5Z" fill="black"/>
</svg>
