<svg width="24" height="24" viewBox="0 0 24 24" fill="none" xmlns="http://www.w3.org/2000/svg">
<path fill-rule="evenodd" clip-rule="evenodd" d="M22.5 22.5H18V21H21V3H18V1.5H22.5V22.5ZM18.6825 14.6925C18.4572 13.6039 17.7114 12.6954 16.6875 12.2625C15.8475 11.9125 14.9025 11.9125 14.0625 12.2625C13.8962 12.3381 13.7358 12.4258 13.5825 12.525L11.475 10.4175C12.3995 8.95428 12.0762 7.02995 10.7244 5.94913C9.37252 4.86831 7.42423 4.9765 6.20037 6.20037C4.9765 7.42423 4.86831 9.37252 5.94913 10.7244C7.02995 12.0762 8.95428 12.3995 10.4175 11.475L12.525 13.5825C12.0576 14.3171 11.8936 15.2044 12.0675 16.0575C12.2928 17.1461 13.0386 18.0546 14.0625 18.4875C14.9025 18.8375 15.8475 18.8375 16.6875 18.4875C17.7114 18.0546 18.4572 17.1461 18.6825 16.0575C18.7724 15.6069 18.7724 15.1431 18.6825 14.6925ZM8.625 10.5C7.58947 10.5 6.75 9.66053 6.75 8.625C6.75 7.58947 7.58947 6.75 8.625 6.75C9.66053 6.75 10.5 7.58947 10.5 8.625C10.5 9.12228 10.3025 9.59919 9.95082 9.95082C9.59919 10.3025 9.12228 10.5 8.625 10.5ZM6 22.5H1.5V1.5H6V3H3V21H6V22.5Z" fill="black"/>
</svg>
