<svg width="24" height="24" viewBox="0 0 24 24" fill="none" xmlns="http://www.w3.org/2000/svg">
<path fill-rule="evenodd" clip-rule="evenodd" d="M19.5 16.5C18.9659 16.5028 18.4425 16.6497 17.985 16.9253L15.1252 14.0647C15.9584 12.8143 15.9584 11.1857 15.1252 9.93525L17.0355 8.025C18.0333 8.5056 19.2322 8.19641 19.8731 7.29322C20.514 6.39003 20.41 5.15625 19.6269 4.37314C18.8437 3.59003 17.61 3.48599 16.7068 4.1269C15.8036 4.7678 15.4944 5.96673 15.975 6.9645L14.0647 8.87475C12.8143 8.0416 11.1857 8.0416 9.93525 8.87475L7.07475 6.01425C7.35018 5.55696 7.49709 5.03382 7.5 4.5C7.5 2.84315 6.15685 1.5 4.5 1.5C2.84315 1.5 1.5 2.84315 1.5 4.5C1.5 6.15685 2.84315 7.5 4.5 7.5C5.03407 7.49722 5.55749 7.35031 6.015 7.07475L8.87475 9.93525C8.0416 11.1857 8.0416 12.8143 8.87475 14.0647L6.01425 16.9253C5.55695 16.6499 5.03381 16.5029 4.5 16.5C2.84315 16.5 1.5 17.8431 1.5 19.5C1.5 21.1569 2.84315 22.5 4.5 22.5C6.15685 22.5 7.5 21.1569 7.5 19.5C7.49722 18.9659 7.35031 18.4425 7.07475 17.985L9.93525 15.1252C10.3341 15.3911 10.7805 15.5775 11.25 15.6742V18.138C10.2168 18.5033 9.5971 19.5597 9.7824 20.6398C9.96771 21.7198 10.9042 22.5093 12 22.5093C13.0958 22.5093 14.0323 21.7198 14.2176 20.6398C14.4029 19.5597 13.7832 18.5033 12.75 18.138V15.6742C13.2195 15.5775 13.6659 15.3911 14.0647 15.1252L16.9253 17.9858C16.6498 18.443 16.5029 18.9662 16.5 19.5C16.5 21.1569 17.8431 22.5 19.5 22.5C21.1569 22.5 22.5 21.1569 22.5 19.5C22.5 17.8431 21.1569 16.5 19.5 16.5ZM12 9.75C13.2426 9.75 14.25 10.7574 14.25 12C14.25 13.2426 13.2426 14.25 12 14.25C10.7574 14.25 9.75 13.2426 9.75 12C9.75124 10.7579 10.7579 9.75124 12 9.75ZM3 4.5C3 3.67157 3.67157 3 4.5 3C5.32843 3 6 3.67157 6 4.5C6 5.32843 5.32843 6 4.5 6C3.67192 5.99917 3.00083 5.32808 3 4.5ZM4.5 21C3.67157 21 3 20.3284 3 19.5C3 18.6716 3.67157 18 4.5 18C5.32843 18 6 18.6716 6 19.5C5.99917 20.3281 5.32808 20.9992 4.5 21ZM19.5 21C18.6716 21 18 20.3284 18 19.5C18 18.6716 18.6716 18 19.5 18C20.3284 18 21 18.6716 21 19.5C20.9988 20.3279 20.3279 20.9988 19.5 21Z" fill="black"/>
</svg>
