<svg width="24" height="24" viewBox="0 0 24 24" fill="none" xmlns="http://www.w3.org/2000/svg">
<path fill-rule="evenodd" clip-rule="evenodd" d="M20.9999 2.24999C20.0492 2.25192 19.2029 2.85296 18.8879 3.74999H16.3934C16.0577 2.42577 14.866 1.4984 13.4999 1.4984C12.1338 1.4984 10.942 2.42577 10.6064 3.74999H7.39339C7.03066 2.33451 5.69915 1.38762 4.24303 1.50967C2.78692 1.63171 1.6316 2.78703 1.50956 4.24314C1.38752 5.69926 2.3344 7.03077 3.74989 7.39349V10.6065C2.42567 10.9421 1.49829 12.1339 1.49829 13.5C1.49829 14.8661 2.42567 16.0578 3.74989 16.3935V18.888C2.71673 19.2533 2.09698 20.3097 2.28229 21.3898C2.4676 22.4698 3.40405 23.2593 4.49989 23.2593C5.59572 23.2593 6.53218 22.4698 6.71748 21.3898C6.90279 20.3097 6.28305 19.2533 5.24989 18.888V16.3935C5.71673 16.2725 6.14727 16.0401 6.50464 15.7162L9.02764 16.9777C9.0128 17.0678 9.00353 17.1588 8.99989 17.25C8.99564 18.3246 9.749 19.2535 10.8013 19.4711C11.8537 19.6887 12.9137 19.1349 13.3361 18.1468C13.7584 17.1587 13.4262 16.0098 12.5417 15.3995C11.6572 14.7893 10.4652 14.8866 9.69139 15.6322L7.33039 14.4517C7.43862 14.1459 7.49588 13.8244 7.49989 13.5C7.49583 12.1358 6.57101 10.9465 5.24989 10.6065V7.39349C6.29978 7.11979 7.11968 6.29989 7.39339 5.24999H10.6064C10.7934 6.01341 11.277 6.67076 11.9502 7.07647C12.6234 7.48218 13.4305 7.60276 14.1929 7.41149L15.5511 9.78899C14.8215 10.6315 14.8066 11.8776 15.5159 12.7374C16.2251 13.5971 17.4514 13.8193 18.4172 13.2631C19.383 12.7069 19.8063 11.5348 19.4187 10.4898C19.0311 9.44484 17.9458 8.83229 16.8509 9.04049L15.5166 6.70499C15.9435 6.31503 16.2481 5.8096 16.3934 5.24999H18.8879C19.2712 6.32593 20.4008 6.94296 21.5132 6.68399C22.6256 6.42501 23.3666 5.3725 23.2352 4.23792C23.1039 3.10333 22.142 2.24795 20.9999 2.24999ZM5.99989 13.5C5.99989 14.3284 5.32831 15 4.49989 15C3.67146 15 2.99989 14.3284 2.99989 13.5C2.99989 12.6716 3.67146 12 4.49989 12C5.32797 12.0008 5.99906 12.6719 5.99989 13.5ZM4.49989 5.99999C3.67146 5.99999 2.99989 5.32842 2.99989 4.49999C2.99989 3.67157 3.67146 2.99999 4.49989 2.99999C5.32831 2.99999 5.99989 3.67157 5.99989 4.49999C5.99906 5.32808 5.32797 5.99917 4.49989 5.99999ZM11.9999 4.49999C11.9999 3.67157 12.6715 2.99999 13.4999 2.99999C14.3283 2.99999 14.9999 3.67157 14.9999 4.49999C14.9999 5.32842 14.3283 5.99999 13.4999 5.99999C12.6718 5.99917 12.0007 5.32808 11.9999 4.49999Z" fill="black"/>
</svg>
