<svg width="24" height="24" viewBox="0 0 24 24" fill="none" xmlns="http://www.w3.org/2000/svg">
<path fill-rule="evenodd" clip-rule="evenodd" d="M6.74998 6C7.16419 6 7.49998 5.66421 7.49998 5.25C7.49998 4.83579 7.16419 4.5 6.74998 4.5C6.33576 4.5 5.99998 4.83579 5.99998 5.25C5.99998 5.66421 6.33576 6 6.74998 6ZM20.25 16.605V13.5C20.25 12.6716 19.5784 12 18.75 12H12.75V9H19.5C20.3284 9 21 8.32843 21 7.5V3C21 2.17157 20.3284 1.5 19.5 1.5H4.49998C3.67155 1.5 2.99998 2.17157 2.99998 3V7.5C2.99998 8.32843 3.67155 9 4.49998 9H11.25V12H5.24998C4.42155 12 3.74998 12.6716 3.74998 13.5V16.605C2.28725 16.9827 1.33353 18.3891 1.52389 19.8878C1.71424 21.3864 2.98928 22.5097 4.49998 22.5097C6.01068 22.5097 7.28571 21.3864 7.47607 19.8878C7.66642 18.3891 6.71271 16.9827 5.24998 16.605V13.5H11.25V16.5H8.99998V22.5H15V16.5H12.75V13.5H18.75V16.605C17.2872 16.9827 16.3335 18.3891 16.5239 19.8878C16.7142 21.3864 17.9893 22.5097 19.5 22.5097C21.0107 22.5097 22.2857 21.3864 22.4761 19.8878C22.6664 18.3891 21.7127 16.9827 20.25 16.605ZM5.99998 19.5C5.99998 20.3284 5.3284 21 4.49998 21C3.67155 21 2.99998 20.3284 2.99998 19.5C2.99998 18.6716 3.67155 18 4.49998 18C5.3284 18 5.99998 18.6716 5.99998 19.5ZM13.5 18V21H10.5V18H13.5ZM4.49998 7.5V3H19.5V7.5H4.49998ZM19.5 21C18.6716 21 18 20.3284 18 19.5C18 18.6716 18.6716 18 19.5 18C20.3284 18 21 18.6716 21 19.5C21 20.3284 20.3284 21 19.5 21Z" fill="black"/>
</svg>
