<svg width="24" height="24" viewBox="0 0 24 24" fill="none" xmlns="http://www.w3.org/2000/svg">
<path fill-rule="evenodd" clip-rule="evenodd" d="M4.5 18C5.32843 18 6 18.6716 6 19.5C6 20.3284 5.32843 21 4.5 21C3.67157 21 3 20.3284 3 19.5C3 18.6716 3.67157 18 4.5 18ZM4.5 16.5C2.84315 16.5 1.5 17.8431 1.5 19.5C1.5 21.1569 2.84315 22.5 4.5 22.5C6.15685 22.5 7.5 21.1569 7.5 19.5C7.5 17.8431 6.15685 16.5 4.5 16.5ZM12 3C12.8284 3 13.5 3.67157 13.5 4.5C13.5 5.32843 12.8284 6 12 6C11.1716 6 10.5 5.32843 10.5 4.5C10.5 3.67157 11.1716 3 12 3ZM12 1.5C10.3431 1.5 9 2.84315 9 4.5C9 6.15685 10.3431 7.5 12 7.5C13.6569 7.5 15 6.15685 15 4.5C15 2.84315 13.6569 1.5 12 1.5ZM19.5 3C20.3284 3 21 3.67157 21 4.5C21 5.32843 20.3284 6 19.5 6C18.6716 6 18 5.32843 18 4.5C18 3.67157 18.6716 3 19.5 3ZM19.5 1.5C17.8431 1.5 16.5 2.84315 16.5 4.5C16.5 6.15685 17.8431 7.5 19.5 7.5C21.1569 7.5 22.5 6.15685 22.5 4.5C22.5 2.84315 21.1569 1.5 19.5 1.5ZM13.5 18V21H10.5V18H13.5ZM15 16.5H9V22.5H15V16.5ZM20.25 16.605V12.75C20.25 11.9216 19.5784 11.25 18.75 11.25H5.25V7.5H7.5V1.5H1.5V7.5H3.75V11.25C3.75 12.0784 4.42157 12.75 5.25 12.75H18.75V16.605C17.2873 16.9827 16.3336 18.3891 16.5239 19.8878C16.7143 21.3864 17.9893 22.5097 19.5 22.5097C21.0107 22.5097 22.2857 21.3864 22.4761 19.8878C22.6664 18.3891 21.7127 16.9827 20.25 16.605ZM3 3H6V6H3V3ZM19.5 21C18.6716 21 18 20.3284 18 19.5C18 18.6716 18.6716 18 19.5 18C20.3284 18 21 18.6716 21 19.5C21 20.3284 20.3284 21 19.5 21Z" fill="black"/>
</svg>
