<svg width="24" height="24" viewBox="0 0 24 24" fill="none" xmlns="http://www.w3.org/2000/svg">
<path fill-rule="evenodd" clip-rule="evenodd" d="M17.25 20.385L15.3075 18.4425L14.25 19.5L17.25 22.5L22.5 17.25L21.4425 16.1925L17.25 20.385ZM8.25 6.75C8.66421 6.75 9 6.41421 9 6C9 5.58579 8.66421 5.25 8.25 5.25C7.83579 5.25 7.5 5.58579 7.5 6C7.5 6.41421 7.83579 6.75 8.25 6.75ZM8.25 12.75C8.66421 12.75 9 12.4142 9 12C9 11.5858 8.66421 11.25 8.25 11.25C7.83579 11.25 7.5 11.5858 7.5 12C7.5 12.4142 7.83579 12.75 8.25 12.75ZM8.25 18.75C8.66421 18.75 9 18.4142 9 18C9 17.5858 8.66421 17.25 8.25 17.25C7.83579 17.25 7.5 17.5858 7.5 18C7.5 18.4142 7.83579 18.75 8.25 18.75ZM18 2.25H6C5.17157 2.25 4.5 2.92157 4.5 3.75V20.25C4.5 21.0784 5.17157 21.75 6 21.75H12V20.25H6V15.75H19.5V3.75C19.5 2.92157 18.8284 2.25 18 2.25ZM18 14.25H6V9.75H18V14.25ZM18 8.25H6V3.75H18V8.25Z" fill="black"/>
</svg>
