<svg width="24" height="24" viewBox="0 0 24 24" fill="none" xmlns="http://www.w3.org/2000/svg">
<path fill-rule="evenodd" clip-rule="evenodd" d="M22.3725 15L22.6275 13.5L18.75 12.8625V9.5775L22.545 8.5575L22.1625 7.11L18.54 8.0775C18.041 6.19114 16.75 4.61303 15 3.75V1.5H13.5V3.1725C12.5132 2.94248 11.4868 2.94248 10.5 3.1725V1.5H9V3.75C7.24446 4.62293 5.9552 6.21602 5.4675 8.115L1.845 7.11L1.5 8.5575L5.25 9.5775V12.8625L1.38 13.5L1.62 15L5.25 14.385C5.26714 15.3105 5.47657 16.2223 5.86501 17.0625L2.4675 20.4675L3.5325 21.5325L6.675 18.3825C7.95398 20.0243 9.91881 20.9844 12 20.9844C14.0812 20.9844 16.046 20.0243 17.325 18.3825L20.4675 21.5325L21.5325 20.4675L18.1275 17.0625C18.5185 16.2229 18.7305 15.311 18.75 14.385L22.3725 15ZM11.25 19.44C8.66931 19.0675 6.75306 16.8574 6.75 14.25V9.75H11.25V19.44ZM6.9675 8.25C7.62936 6.02276 9.6765 4.49547 12 4.49547C14.3235 4.49547 16.3707 6.02276 17.0325 8.25H6.9675ZM17.25 14.25C17.2469 16.8574 15.3307 19.0675 12.75 19.44V9.75H17.25V14.25Z" fill="black"/>
</svg>
