<svg width="24" height="24" viewBox="0 0 24 24" fill="none" xmlns="http://www.w3.org/2000/svg">
<path fill-rule="evenodd" clip-rule="evenodd" d="M18.75 17.25H14.25C13.0074 17.25 12 18.2574 12 19.5V21H13.5V19.5C13.5 19.0858 13.8358 18.75 14.25 18.75H18.75C19.1642 18.75 19.5 19.0858 19.5 19.5V21H21V19.5C21 18.2574 19.9926 17.25 18.75 17.25ZM13.5 13.5C13.5 15.1569 14.8431 16.5 16.5 16.5C18.1569 16.5 19.5 15.1569 19.5 13.5C19.5 11.8431 18.1569 10.5 16.5 10.5C14.8431 10.5 13.5 11.8431 13.5 13.5ZM18 13.5C18 14.3284 17.3284 15 16.5 15C15.6716 15 15 14.3284 15 13.5C15 12.6716 15.6716 12 16.5 12C17.3284 12 18 12.6716 18 13.5ZM11.25 11.5612L10.1895 10.5L8.25 12.4403L6.3105 10.5L5.25 11.5612L7.1895 13.5L5.25 15.4395L6.3105 16.5L8.25 14.5605L10.1895 16.5L11.25 15.4395L9.3105 13.5L11.25 11.5612ZM10.5 19.5H3V4.5H8.379L11.379 7.5H21V13.5H22.5V7.5C22.5 6.67157 21.8284 6 21 6H12L9.4395 3.4395C9.15826 3.15818 8.77679 3.00008 8.379 3H3C2.17157 3 1.5 3.67157 1.5 4.5V19.5C1.5 20.3284 2.17157 21 3 21H10.5V19.5Z" fill="black"/>
</svg>
