<svg width="24" height="24" viewBox="0 0 24 24" fill="none" xmlns="http://www.w3.org/2000/svg">
<path fill-rule="evenodd" clip-rule="evenodd" d="M1.50005 21H22.5001V22.5H1.50005V21ZM10.1101 3.86253L14.3776 9.96753L14.9776 10.83L19.3801 9.65253C19.655 9.57759 19.9451 9.57759 20.2201 9.65253C20.6568 9.76264 21.0124 10.079 21.1726 10.5C21.3091 10.8655 21.2872 11.2713 21.1121 11.62C20.9371 11.9687 20.6247 12.2287 20.2501 12.3375L6.21755 16.0875C5.97269 16.1592 5.71242 16.1592 5.46755 16.0875C4.99142 15.9494 4.62358 15.5702 4.50005 15.09L4.31255 14.3925L3.75005 12.285L3.19505 10.23L4.27505 9.93753L6.00005 12.2625L6.60755 13.0725L11.1451 11.8575L9.06005 4.14003L10.1101 3.86253ZM10.6201 2.25003C10.4968 2.22012 10.3683 2.22012 10.2451 2.25003L7.92755 2.87253C7.5554 2.98811 7.33377 3.36945 7.41755 3.75003L9.29255 10.77L7.18505 11.3325L5.13755 8.62503C5.04019 8.4952 4.90334 8.40047 4.74755 8.35503C4.62434 8.32512 4.49576 8.32512 4.37255 8.35503L2.04005 9.00003C1.65929 9.10292 1.42329 9.48315 1.50005 9.87003L2.81255 14.775L3.00005 15.48C3.2681 16.4833 4.05175 17.267 5.05505 17.535C5.5466 17.6651 6.06351 17.6651 6.55505 17.535L20.5801 13.785C21.8544 13.4587 22.7457 12.3105 22.7457 10.995C22.7457 9.67958 21.8544 8.53131 20.5801 8.20503C20.049 8.06619 19.4911 8.06619 18.9601 8.20503L15.5776 9.11253L11.0251 2.55753C10.93 2.41099 10.7867 2.30224 10.6201 2.25003Z" fill="black"/>
</svg>
