<svg width="24" height="24" viewBox="0 0 24 24" fill="none" xmlns="http://www.w3.org/2000/svg">
<path fill-rule="evenodd" clip-rule="evenodd" d="M7.5 22.5H3C2.17157 22.5 1.5 21.8284 1.5 21V12C1.5 11.1716 2.17157 10.5 3 10.5H7.5C8.32843 10.5 9 11.1716 9 12V21C9 21.8284 8.32843 22.5 7.5 22.5ZM3 12V21H7.5V12H3ZM21 3H4.5C3.67157 3 3 3.67157 3 4.5V9H4.5V4.5H21V15H10.5V16.5H12V19.5H10.5V21H17.25V19.5H13.5V16.5H21C21.8284 16.5 22.5 15.8284 22.5 15V4.5C22.5 3.67157 21.8284 3 21 3Z" fill="black"/>
</svg>
