<svg width="24" height="24" viewBox="0 0 24 24" fill="none" xmlns="http://www.w3.org/2000/svg">
<path fill-rule="evenodd" clip-rule="evenodd" d="M9.75 22.5C5.19365 22.5 1.5 18.8063 1.5 14.25C1.5 9.69365 5.19365 6 9.75 6C10.1642 6 10.5 6.33579 10.5 6.75V13.5H17.25C17.6642 13.5 18 13.8358 18 14.25C18 18.8063 14.3063 22.5 9.75 22.5ZM9 7.545C5.48702 7.93585 2.87048 10.9706 3.001 14.5029C3.13152 18.0351 5.9649 20.8685 9.49714 20.999C13.0294 21.1295 16.0641 18.513 16.455 15H10.5C9.67157 15 9 14.3284 9 13.5V7.545ZM21 10.5H14.25C13.4216 10.5 12.75 9.82843 12.75 9V2.25C12.75 1.83579 13.0858 1.5 13.5 1.5C18.0563 1.5 21.75 5.19365 21.75 9.75C21.75 10.1642 21.4142 10.5 21 10.5ZM14.25 9H20.205C19.8535 5.86826 17.3817 3.3965 14.25 3.045V9Z" fill="black"/>
</svg>
