<svg width="24" height="24" viewBox="0 0 24 24" fill="none" xmlns="http://www.w3.org/2000/svg">
<path fill-rule="evenodd" clip-rule="evenodd" d="M9.75 8.25H5.25C4.00736 8.25 3 9.25736 3 10.5V12H4.5V10.5C4.5 10.0858 4.83579 9.75 5.25 9.75H9.75C10.1642 9.75 10.5 10.0858 10.5 10.5V12H12V10.5C12 9.25736 10.9926 8.25 9.75 8.25ZM7.5 7.5C9.15685 7.5 10.5 6.15685 10.5 4.5C10.5 2.84315 9.15685 1.5 7.5 1.5C5.84315 1.5 4.5 2.84315 4.5 4.5C4.5 6.15685 5.84315 7.5 7.5 7.5ZM7.5 3C8.32843 3 9 3.67157 9 4.5C9 5.32843 8.32843 6 7.5 6C6.67157 6 6 5.32843 6 4.5C6 3.67157 6.67157 3 7.5 3ZM15 3H22.5V4.5H15V3ZM15 6H22.5V7.5H15V6ZM15 9H19.5V10.5H15V9ZM3.75 22.5H2.25C1.42157 22.5 0.75 21.8284 0.75 21V16.5C0.75 15.6716 1.42157 15 2.25 15H4.5V16.5H2.25V18H3.75C4.57843 18 5.25 18.6716 5.25 19.5V21C5.25 21.8284 4.57843 22.5 3.75 22.5ZM2.25 19.5V21H3.75V19.5H2.25ZM9.75 22.5H8.25C7.42157 22.5 6.75 21.8284 6.75 21V16.5C6.75 15.6716 7.42157 15 8.25 15H9.75C10.5784 15 11.25 15.6716 11.25 16.5V21C11.25 21.8284 10.5784 22.5 9.75 22.5ZM8.25 16.5V21H9.75V16.5H8.25ZM15.75 22.5H14.25C13.4216 22.5 12.75 21.8284 12.75 21V16.5C12.75 15.6716 13.4216 15 14.25 15H15.75C16.5784 15 17.25 15.6716 17.25 16.5V21C17.25 21.8284 16.5784 22.5 15.75 22.5ZM14.25 16.5V21H15.75V16.5H14.25ZM21.75 22.5H20.25C19.4216 22.5 18.75 21.8284 18.75 21V16.5C18.75 15.6716 19.4216 15 20.25 15H21.75C22.5784 15 23.25 15.6716 23.25 16.5V21C23.25 21.8284 22.5784 22.5 21.75 22.5ZM20.25 16.5V21H21.75V16.5H20.25Z" fill="black"/>
</svg>
