<svg width="24" height="24" viewBox="0 0 24 24" fill="none" xmlns="http://www.w3.org/2000/svg">
<path d="M11 7.25L12.0575 8.3075L10.1225 10.25H10.75C13.6481 10.2533 15.2467 11.8519 15.25 14.75V15.25H13.75V14.75C13.7475 12.68 12.82 11.7525 10.75 11.75H10.1225L12.0575 13.6925L11 14.75L7.25 11L11 7.25Z" fill="black"/>
<path fill-rule="evenodd" clip-rule="evenodd" d="M11.0144 1.15825L1.15825 11.0144C0.613915 11.5587 0.613915 12.4413 1.15825 12.9856L11.0144 22.8417C11.5587 23.3861 12.4413 23.3861 12.9856 22.8417L22.8417 12.9856C23.3861 12.4413 23.3861 11.5587 22.8417 11.0144L12.9856 1.15825C12.4413 0.613915 11.5587 0.613915 11.0144 1.15825ZM2.29142 12.0025L12 2.29396L21.711 12.0049L12.0024 21.7135L2.29142 12.0025Z" fill="black"/>
</svg>
