<svg width="24" height="24" viewBox="0 0 24 24" fill="none" xmlns="http://www.w3.org/2000/svg">
<path fill-rule="evenodd" clip-rule="evenodd" d="M1.15825 11.0144L11.0144 1.15825C11.5587 0.613915 12.4413 0.613915 12.9856 1.15825L22.8417 11.0144C23.3861 11.5587 23.3861 12.4413 22.8417 12.9856L12.9856 22.8417C12.4413 23.3861 11.5587 23.3861 11.0144 22.8417L1.15825 12.9856C0.613915 12.4413 0.613915 11.5587 1.15825 11.0144ZM12.0575 8.3075L11 7.25L7.25 11L11 14.75L12.0575 13.6925L10.1225 11.75H10.75C12.82 11.7525 13.7475 12.68 13.75 14.75V15.25H15.25V14.75C15.2467 11.8519 13.6481 10.2533 10.75 10.25H10.1225L12.0575 8.3075Z" fill="black"/>
</svg>
