<svg width="24" height="24" viewBox="0 0 24 24" fill="none" xmlns="http://www.w3.org/2000/svg">
<path fill-rule="evenodd" clip-rule="evenodd" d="M19.275 6.975L14.025 1.725C13.8913 1.57686 13.6995 1.49465 13.5 1.5H6C5.17157 1.5 4.5 2.17158 4.5 3V21C4.5 21.8284 5.17157 22.5 6 22.5H18C18.8284 22.5 19.5 21.8284 19.5 21V7.5C19.5054 7.30052 19.4231 7.10869 19.275 6.975ZM13.5 3.3L17.7 7.5H13.5V3.3ZM18 21H6V3H12V7.5C12 8.32843 12.6716 9 13.5 9H18V21ZM8.25 16.5H15.75V18H8.25V16.5ZM8.25 12H15.75V13.5H8.25V12Z" fill="black"/>
</svg>
