<svg width="24" height="24" viewBox="0 0 24 24" fill="none" xmlns="http://www.w3.org/2000/svg">
<path fill-rule="evenodd" clip-rule="evenodd" d="M9.75 15.75H19.6275L17.6925 17.6925L18.75 18.75L22.5 15L18.75 11.25L17.6925 12.3075L19.6275 14.25H9.75V15.75ZM16.5 10.5V7.50001C16.5012 7.30066 16.4229 7.10905 16.2825 6.96751L11.0325 1.71751C10.891 1.57712 10.6994 1.49886 10.5 1.50001H3C2.17157 1.50001 1.5 2.17159 1.5 3.00001V21C1.5 21.8284 2.17157 22.5 3 22.5H15C15.8284 22.5 16.5 21.8284 16.5 21V19.5H15V21H3V3.00001H9V7.50001C9 8.32844 9.67157 9.00001 10.5 9.00001H15V10.5H16.5ZM10.5 7.50001V3.30751L14.6925 7.50001H10.5Z" fill="black"/>
</svg>
