<svg width="24" height="24" viewBox="0 0 24 24" fill="none" xmlns="http://www.w3.org/2000/svg">
<path fill-rule="evenodd" clip-rule="evenodd" d="M21 14.25H11.1225L13.0575 12.3075L12 11.25L8.25 15L12 18.75L13.0575 17.6925L11.1225 15.75H21V14.25ZM18 10.5V7.50001C18.0012 7.30066 17.9229 7.10905 17.7825 6.96751L12.5325 1.71751C12.391 1.57712 12.1994 1.49886 12 1.50001H4.5C3.67157 1.50001 3 2.17159 3 3.00001V21C3 21.8284 3.67157 22.5 4.5 22.5H16.5C17.3284 22.5 18 21.8284 18 21V19.5H16.5V21H4.5V3.00001H10.5V7.50001C10.5 8.32844 11.1716 9.00001 12 9.00001H16.5V10.5H18ZM12 7.50001V3.30751L16.1925 7.50001H12Z" fill="black"/>
</svg>
