<svg width="24" height="24" viewBox="0 0 24 24" fill="none" xmlns="http://www.w3.org/2000/svg">
<path fill-rule="evenodd" clip-rule="evenodd" d="M12.75 16.5H14.25V18H12.75V16.5ZM12.75 13.5H14.25V15H12.75V13.5ZM10.5 18H12.75V19.5H10.5V18ZM12 1.5C6.20101 1.5 1.5 6.20101 1.5 12C1.5 17.799 6.20101 22.5 12 22.5C17.799 22.5 22.5 17.799 22.5 12C22.4934 6.20375 17.7962 1.50661 12 1.5ZM3.525 15H4.5L7.63275 16.95C7.97653 17.1639 8.428 17.0663 8.65275 16.7295L9.40875 15.5955C9.60672 15.2982 9.56749 14.9024 9.315 14.6497L7.5 12.834L8.25 10.5H12.2423C12.5487 10.4999 12.8243 10.3134 12.9382 10.029L14.1248 7.06275C14.2044 6.86376 14.1951 6.6402 14.0993 6.4485L12.3848 3.0195C15.5298 3.14527 18.3791 4.90965 19.8933 7.6691C21.4075 10.4285 21.3653 13.7796 19.782 16.5H17.25C16.8358 16.5 16.5 16.8358 16.5 17.25V19.7828C14.1881 21.1285 11.3962 21.372 8.88622 20.4468C6.37626 19.5216 4.41032 17.5243 3.525 15Z" fill="black"/>
</svg>
