<svg width="24" height="24" viewBox="0 0 24 24" fill="none" xmlns="http://www.w3.org/2000/svg">
<path fill-rule="evenodd" clip-rule="evenodd" d="M12 1.5C6.20101 1.5 1.5 6.20101 1.5 12C1.5 17.799 6.20101 22.5 12 22.5C17.799 22.5 22.5 17.799 22.5 12C22.4934 6.20375 17.7962 1.50661 12 1.5ZM15.75 3.8295C16.5443 4.1956 17.281 4.67538 17.937 5.25375L17.6273 6H15.75V3.8295ZM10.0335 20.7773C6.72376 20.0419 4.11015 17.5054 3.27587 14.2192C2.4416 10.933 3.52884 7.45708 6.087 5.232L7.09875 6.75H9.60525L8.48025 9.75H5.46L4.4235 12.861L6.34875 15.75H10.0988L11.1728 17.3603L10.0335 20.7773ZM12 21C11.8477 21 11.6985 20.985 11.5478 20.9775L12.5955 17.835C12.7431 17.3962 12.6786 16.9138 12.4207 16.5292L11.3468 14.9182C11.069 14.5004 10.6004 14.2496 10.0988 14.25H7.15125L6.07725 12.639L6.54075 11.25H8.25V12.75H9.75V10.6357L11.952 4.76325L10.548 4.23675L10.1677 5.25H7.90125L7.296 4.3425C9.3697 3.04747 11.8869 2.66848 14.25 3.2955V6C14.2508 6.82808 14.9219 7.49917 15.75 7.5H17.6895C18.0875 7.50108 18.4694 7.34281 18.75 7.0605L18.855 6.9555L19.0665 6.4455C19.672 7.2146 20.1478 8.07747 20.475 9H16.9492C16.2169 8.99773 15.5908 9.52639 15.4702 10.2488L15.0225 12.8295C14.9114 13.4561 15.2098 14.0843 15.7658 14.394L17.3895 15.492L18.483 18.2265C16.7913 19.9974 14.449 20.9994 12 21ZM18.6112 14.508L16.575 13.1318L16.5 13.0868L16.9493 10.5H20.8643C21.2571 12.7128 20.7892 14.9922 19.5562 16.8713L18.6112 14.508Z" fill="black"/>
</svg>
