<svg width="24" height="24" viewBox="0 0 24 24" fill="none" xmlns="http://www.w3.org/2000/svg">
<path fill-rule="evenodd" clip-rule="evenodd" d="M12 1.5C6.20101 1.5 1.5 6.20101 1.5 12C1.5 17.799 6.20101 22.5 12 22.5C17.799 22.5 22.5 17.799 22.5 12C22.4934 6.20375 17.7962 1.50661 12 1.5ZM3.015 12.2955L4.0185 12.63L5.25 14.4773V15.4395C5.25004 15.6384 5.32909 15.8291 5.46975 15.9697L7.5 18V19.7827C4.8133 18.228 3.11803 15.3979 3.015 12.2955ZM12 21C11.3512 20.9987 10.7044 20.927 10.071 20.7863L10.5 19.5L11.8538 16.116C11.9453 15.8866 11.9181 15.6269 11.781 15.4215L10.7227 13.8337C10.5836 13.6252 10.3495 13.5 10.0988 13.5H6.40125L5.46525 12.0953L7.0605 10.5H8.25V12H9.75V9.9495L12.651 4.872L11.349 4.128L10.7078 5.25H8.65125L7.8375 4.02825C10.0483 2.86163 12.6478 2.67898 15 3.525V6C15 6.41421 15.3358 6.75 15.75 6.75H16.8488C17.0995 6.75004 17.3336 6.6248 17.4727 6.41625L18.1305 5.42925C18.9871 6.2282 19.68 7.18627 20.1705 8.25H17.115C16.7576 8.25022 16.45 8.50256 16.38 8.853L15.8378 12.2055C15.7851 12.5295 15.9492 12.85 16.2428 12.9967L18.75 14.25L19.2638 17.292C17.5752 19.619 14.875 20.9973 12 21Z" fill="black"/>
</svg>
