<svg width="24" height="24" viewBox="0 0 24 24" fill="none" xmlns="http://www.w3.org/2000/svg">
<path fill-rule="evenodd" clip-rule="evenodd" d="M22.5001 12C22.5107 7.24491 19.3312 3.07355 14.7434 1.82345C10.1556 0.573349 5.29947 2.55516 2.89636 6.65829C0.493243 10.7614 1.14027 15.9663 4.47486 19.3562C7.80944 22.746 13.003 23.4785 17.1451 21.1432L17.2328 21.1627L17.2508 21.0795C20.4952 19.2063 22.4956 15.7463 22.5001 12ZM3.00006 12C3.00297 11.2404 3.10252 10.4844 3.29631 9.74997H6.47856L10.2226 12.87L8.79006 14.7795C8.34528 15.3775 8.40458 16.2109 8.92956 16.74L10.5001 18.3105V20.8642C6.17506 20.13 3.00796 16.3868 3.00006 12ZM9.99006 15.6795L12.2776 12.63L7.02156 8.24997H3.82956C4.93735 5.81993 7.07015 4.00975 9.64795 3.31172C12.2257 2.6137 14.9805 3.1004 17.1631 4.63947L16.7093 5.99997H12.4396L10.1573 8.28222L17.1728 14.517L15.9361 20.0812C14.7116 20.6844 13.365 20.9987 12.0001 21V17.6895L9.99006 15.6795ZM17.7263 18.9375L18.6361 14.8425C18.7538 14.3116 18.575 13.7587 18.1688 13.3972L12.3428 8.21772L13.0606 7.49997H16.7093C17.3554 7.50059 17.9291 7.08707 18.1328 6.47397L18.3976 5.67897C20.1756 7.47337 21.116 9.93347 20.9883 12.4564C20.8606 14.9793 19.6765 17.3318 17.7263 18.9375Z" fill="black"/>
</svg>
