<svg width="24" height="24" viewBox="0 0 24 24" fill="none" xmlns="http://www.w3.org/2000/svg">
<path fill-rule="evenodd" clip-rule="evenodd" d="M10.5 18H12.75V19.5H10.5V18ZM12.75 16.5H14.25V18H12.75V16.5ZM12.75 13.5H14.25V15H12.75V13.5ZM12 1.5C6.20101 1.5 1.5 6.20101 1.5 12C1.5 17.799 6.20101 22.5 12 22.5C17.799 22.5 22.5 17.799 22.5 12C22.4934 6.20375 17.7962 1.50661 12 1.5ZM11.5478 3.0225L13.428 6.7845L12.2423 9.75H7.7025L6.645 13.0402L8.784 15.1792L8.02875 16.3132L4.7145 14.25H3.29625C2.60558 11.6333 3.13572 8.84467 4.7384 6.66397C6.34107 4.48328 8.84422 3.14465 11.5478 3.0225ZM3.8295 15.75H4.2855L7.23675 17.5868C7.924 18.0186 8.83037 17.8224 9.2775 17.145L10.0335 16.011C10.4283 15.4158 10.35 14.6249 9.846 14.1187L8.35425 12.627L8.79675 11.25H12.2422C12.8562 11.2521 13.4089 10.8781 13.635 10.3073L14.8207 7.3425C14.9801 6.9446 14.9618 6.49756 14.7705 6.114L13.263 3.099C16.0776 3.48977 18.5406 5.19108 19.9024 7.68514C21.2641 10.1792 21.3636 13.171 20.1705 15.75H17.25C16.4219 15.7508 15.7508 16.4219 15.75 17.25V20.1705C13.584 21.1733 11.1075 21.2706 8.86959 20.4407C6.63166 19.6109 4.81802 17.9225 3.8295 15.75ZM17.25 19.2952V17.25H19.2952C18.7275 18.0369 18.0369 18.7275 17.25 19.2952Z" fill="black"/>
</svg>
