<svg width="24" height="24" viewBox="0 0 24 24" fill="none" xmlns="http://www.w3.org/2000/svg">
<path fill-rule="evenodd" clip-rule="evenodd" d="M22.5 21.4425L2.5575 1.5L1.5 2.5575L9.0675 10.125L3 16.1925V21H7.8075L13.875 14.9325L21.4425 22.5L22.5 21.4425ZM7.1925 19.5H4.5V16.8075L10.125 11.1825L12.8175 13.875L7.1925 19.5ZM22.0575 4.6275L19.3725 1.9425C19.0911 1.66083 18.7094 1.50257 18.3112 1.50257C17.9131 1.50257 17.5314 1.66083 17.25 1.9425L11.19 8.0025L12.2475 9.06L15 6.3075L17.6925 9L14.94 11.7525L15.9975 12.81L22.0575 6.75C22.3392 6.46865 22.4974 6.08686 22.4974 5.68875C22.4974 5.29064 22.3392 4.90885 22.0575 4.6275ZM18.75 7.9425L16.0575 5.25L18.3075 3L21 5.6925L18.75 7.9425Z" fill="black"/>
</svg>
