<svg width="24" height="24" viewBox="0 0 24 24" fill="none" xmlns="http://www.w3.org/2000/svg">
<path fill-rule="evenodd" clip-rule="evenodd" d="M19.5 4.5H3V6.8775L8.5575 12.4425L9 12.8775V19.5H12V18H13.5V19.5C13.5 20.3284 12.8284 21 12 21H9C8.17157 21 7.5 20.3284 7.5 19.5V13.5L1.9425 7.9425C1.65897 7.66065 1.49968 7.27728 1.5 6.8775V4.5C1.5 3.67157 2.17157 3 3 3H19.5V4.5ZM22.2825 8.4675L20.0325 6.2175C19.8917 6.07552 19.7 5.99565 19.5 5.99565C19.3 5.99565 19.1083 6.07552 18.9675 6.2175L12 13.1925V16.5H15.3075L22.2825 9.5325C22.4245 9.39168 22.5043 9.19998 22.5043 9C22.5043 8.80002 22.4245 8.60832 22.2825 8.4675ZM14.6925 15H13.5V13.8075L17.25 10.0575L18.4425 11.25L14.6925 15ZM19.5 10.1925L18.3075 9L19.5 7.8075L20.6925 9L19.5 10.1925Z" fill="black"/>
</svg>
