<svg width="24" height="24" viewBox="0 0 24 24" fill="none" xmlns="http://www.w3.org/2000/svg">
<path fill-rule="evenodd" clip-rule="evenodd" d="M17.7187 16.9402C16.4448 16.9534 15.2226 16.4374 14.3437 15.5152L12.0187 13.1152L9.69366 15.5152C7.80502 17.3903 4.7573 17.3903 2.86866 15.5152C1.99895 14.5472 1.51809 13.2916 1.51866 11.9902C1.51 10.6732 2.0222 9.40621 2.94366 8.46524C3.83621 7.56533 5.05119 7.05914 6.31866 7.05914C7.58613 7.05914 8.80111 7.56533 9.69366 8.46524L12.0187 10.8652L14.3437 8.46524C15.2362 7.56533 16.4512 7.05914 17.7187 7.05914C18.9861 7.05914 20.2011 7.56533 21.0937 8.46524C22.9687 10.4412 22.9687 13.5393 21.0937 15.5152C20.1948 16.4082 18.9855 16.9188 17.7187 16.9402ZM13.0687 11.9902L15.3937 14.4652C16.6814 15.7403 18.7559 15.7403 20.0437 14.4652C21.3187 13.0616 21.3187 10.9189 20.0437 9.51524C18.7559 8.24018 16.6814 8.24018 15.3937 9.51524L13.0687 11.9902ZM6.31866 8.54024C5.44098 8.52351 4.59689 8.87748 3.99366 9.51524C2.69349 10.9091 2.69349 13.0714 3.99366 14.4652C5.28144 15.7403 7.35588 15.7403 8.64366 14.4652L10.9687 11.9902L8.64366 9.51524C8.01265 8.91887 7.1863 8.57234 6.31866 8.54024Z" fill="black"/>
</svg>
