<svg width="24" height="24" viewBox="0 0 24 24" fill="none" xmlns="http://www.w3.org/2000/svg">
<path fill-rule="evenodd" clip-rule="evenodd" d="M19.5 22.5H18V20.25C17.9975 18.18 16.32 16.5025 14.25 16.5H9.75C7.67996 16.5025 6.00248 18.18 6 20.25V22.5H4.5V20.25C4.50331 17.3519 6.85188 15.0033 9.75 15H14.25C17.1481 15.0033 19.4967 17.3519 19.5 20.25V22.5ZM3.75 4.5C3.33579 4.5 3 4.83579 3 5.25V12H4.5V5.25C4.5 4.83579 4.16421 4.5 3.75 4.5ZM3 1.5V3H6.75V8.25C6.75 11.1495 9.1005 13.5 12 13.5C14.8995 13.5 17.25 11.1495 17.25 8.25V3H21V1.5H3ZM8.25 3H15.75V5.25H8.25V3ZM12 12C9.92893 12 8.25 10.3211 8.25 8.25V6.75H15.75V8.25C15.75 10.3211 14.0711 12 12 12Z" fill="black"/>
</svg>
