<svg width="24" height="24" viewBox="0 0 24 24" fill="none" xmlns="http://www.w3.org/2000/svg">
<path fill-rule="evenodd" clip-rule="evenodd" d="M5.25008 20.25H22.5001V21.75H5.25008V20.25ZM20.5351 7.88249L14.5876 1.94249C14.3062 1.66083 13.9244 1.50256 13.5263 1.50256C13.1282 1.50256 12.7464 1.66083 12.4651 1.94249L1.96508 12.4425C1.68341 12.7238 1.52515 13.1056 1.52515 13.5037C1.52515 13.9019 1.68341 14.2836 1.96508 14.565L5.34758 18H12.5401L20.5351 10.005C20.8167 9.72364 20.975 9.34186 20.975 8.94374C20.975 8.54563 20.8167 8.16385 20.5351 7.88249ZM11.9176 16.5H6.00008L3.00008 13.5L7.73258 8.76749L13.6801 14.7075L11.9176 16.5ZM14.7376 13.68L8.79758 7.73249L13.5001 2.99999L19.5001 8.94749L14.7376 13.68Z" fill="black"/>
</svg>
