<svg width="24" height="24" viewBox="0 0 24 24" fill="none" xmlns="http://www.w3.org/2000/svg">
<path fill-rule="evenodd" clip-rule="evenodd" d="M1.5 12C1.5 17.799 6.20101 22.5 12 22.5C17.799 22.5 22.5 17.799 22.5 12C22.5 6.20101 17.799 1.5 12 1.5C6.20101 1.5 1.5 6.20101 1.5 12ZM18.8625 17.8125L6.1875 5.1375C9.76362 2.16081 15.0191 2.40069 18.3092 5.69077C21.5993 8.98086 21.8392 14.2364 18.8625 17.8125ZM6.18 18.87C2.39838 15.6586 1.92874 9.99266 5.13 6.2025L17.7975 18.87C14.4435 21.704 9.53399 21.704 6.18 18.87Z" fill="black"/>
</svg>
