<svg width="24" height="24" viewBox="0 0 24 24" fill="none" xmlns="http://www.w3.org/2000/svg">
<path fill-rule="evenodd" clip-rule="evenodd" d="M13.5 23.25H15V21.75C15 21.3358 15.3358 21 15.75 21H20.25C20.6642 21 21 21.3358 21 21.75V23.25H22.5V21.75C22.4988 20.5079 21.4921 19.5012 20.25 19.5H15.75C14.5079 19.5012 13.5012 20.5079 13.5 21.75V23.25ZM18 18.75C16.3431 18.75 15 17.4069 15 15.75C15 14.0931 16.3431 12.75 18 12.75C19.6569 12.75 21 14.0931 21 15.75C20.9983 17.4062 19.6562 18.7483 18 18.75ZM18 14.25C17.1716 14.25 16.5 14.9216 16.5 15.75C16.5 16.5784 17.1716 17.25 18 17.25C18.8284 17.25 19.5 16.5784 19.5 15.75C19.4988 14.9221 18.8279 14.2512 18 14.25ZM1.5 23.25H3V21.75C3 21.3358 3.33579 21 3.75 21H8.25C8.66421 21 9 21.3358 9 21.75V23.25H10.5V21.75C10.4988 20.5079 9.49213 19.5012 8.25 19.5H3.75C2.50787 19.5012 1.50124 20.5079 1.5 21.75V23.25ZM6 18.75C4.34315 18.75 3 17.4069 3 15.75C3 14.0931 4.34315 12.75 6 12.75C7.65685 12.75 9 14.0931 9 15.75C8.99835 17.4062 7.65617 18.7483 6 18.75ZM6 14.25C5.17157 14.25 4.5 14.9216 4.5 15.75C4.5 16.5784 5.17157 17.25 6 17.25C6.82843 17.25 7.5 16.5784 7.5 15.75C7.49917 14.9219 6.82808 14.2508 6 14.25ZM13.5 12H15V10.5C15 10.0858 15.3358 9.75 15.75 9.75H20.25C20.6642 9.75 21 10.0858 21 10.5V12H22.5V10.5C22.4988 9.25787 21.4921 8.25124 20.25 8.25H15.75C14.5079 8.25124 13.5012 9.25787 13.5 10.5V12ZM18 7.5C16.3431 7.5 15 6.15685 15 4.5C15 2.84315 16.3431 1.5 18 1.5C19.6569 1.5 21 2.84315 21 4.5C20.9983 6.15617 19.6562 7.49835 18 7.5ZM18 3C17.1716 3 16.5 3.67157 16.5 4.5C16.5 5.32843 17.1716 6 18 6C18.8284 6 19.5 5.32843 19.5 4.5C19.4992 3.67192 18.8281 3.00083 18 3ZM1.5 12H3V10.5C3.00041 10.086 3.33596 9.75041 3.75 9.75H8.25C8.66404 9.75041 8.99959 10.086 9 10.5V12H10.5V10.5C10.4988 9.25787 9.49213 8.25124 8.25 8.25H3.75C2.50787 8.25124 1.50124 9.25787 1.5 10.5V12ZM6 7.5C4.34315 7.5 3 6.15685 3 4.5C3 2.84315 4.34315 1.5 6 1.5C7.65685 1.5 9 2.84315 9 4.5C8.99793 6.156 7.656 7.49793 6 7.5ZM6 3C5.17157 3 4.5 3.67157 4.5 4.5C4.5 5.32843 5.17157 6 6 6C6.82843 6 7.5 5.32843 7.5 4.5C7.49917 3.67192 6.82808 3.00083 6 3Z" fill="black"/>
</svg>
