<svg width="24" height="24" viewBox="0 0 24 24" fill="none" xmlns="http://www.w3.org/2000/svg">
<path fill-rule="evenodd" clip-rule="evenodd" d="M1.5 20.25H3.75V22.5H1.5V20.25ZM22.2825 5.46748L18.5325 1.71748C18.24 1.42669 17.7675 1.42669 17.475 1.71748L15 4.19248L14.0325 3.21748L12.9675 4.28248L13.9425 5.24998L6.2175 12.9675C6.07711 13.109 5.99885 13.3006 6 13.5V14.6925L3.9675 16.7175C3.67671 17.01 3.67671 17.4825 3.9675 17.775L6.2175 20.025C6.51003 20.3158 6.98247 20.3158 7.275 20.025L9.3075 18H10.5C10.6994 18.0011 10.891 17.9229 11.0325 17.7825L18.75 10.0575L19.7175 11.0325L20.7825 9.96748L19.8075 8.99998L22.2825 6.53248C22.5733 6.23996 22.5733 5.76751 22.2825 5.47498V5.46748ZM10.1925 16.5H8.6925L6.75 18.4425L5.5575 17.25L7.5 15.3075V13.8075L15 6.30748L17.6925 8.99998L10.1925 16.5ZM18.75 7.94248L16.0575 5.24998L18 3.30748L20.6925 5.99998L18.75 7.94248Z" fill="black"/>
</svg>
