<svg width="24" height="24" viewBox="0 0 24 24" fill="none" xmlns="http://www.w3.org/2000/svg">
<path fill-rule="evenodd" clip-rule="evenodd" d="M12 1.5C6.20101 1.5 1.5 6.20101 1.5 12C1.5 17.799 6.20101 22.5 12 22.5C17.799 22.5 22.5 17.799 22.5 12C22.5 9.21523 21.3938 6.54451 19.4246 4.57538C17.4555 2.60625 14.7848 1.5 12 1.5ZM8.625 8.25C9.66053 8.25 10.5 9.08947 10.5 10.125C10.5 11.1605 9.66053 12 8.625 12C7.58947 12 6.75 11.1605 6.75 10.125C6.74596 9.62649 6.94221 9.14723 7.29472 8.79472C7.64723 8.44221 8.12649 8.24596 8.625 8.25ZM12 18C9.89418 17.9964 7.94436 16.8892 6.8625 15.0825L8.145 14.3325C8.9591 15.6844 10.4219 16.5111 12 16.5111C13.5781 16.5111 15.0409 15.6844 15.855 14.3325L17.1375 15.0825C16.0556 16.8892 14.1058 17.9964 12 18ZM15.375 12C14.3395 12 13.5 11.1605 13.5 10.125C13.5 9.08947 14.3395 8.25 15.375 8.25C16.4105 8.25 17.25 9.08947 17.25 10.125C17.254 10.6235 17.0578 11.1028 16.7053 11.4553C16.3528 11.8078 15.8735 12.004 15.375 12Z" fill="black"/>
</svg>
