<svg width="24" height="24" viewBox="0 0 24 24" fill="none" xmlns="http://www.w3.org/2000/svg">
<path fill-rule="evenodd" clip-rule="evenodd" d="M12 1.5C6.20101 1.5 1.5 6.20101 1.5 12C1.5 17.799 6.20101 22.5 12 22.5C17.799 22.5 22.5 17.799 22.5 12C22.5 9.21523 21.3938 6.54451 19.4246 4.57538C17.4555 2.60625 14.7848 1.5 12 1.5ZM8.625 8.25C9.66053 8.25 10.5 9.08947 10.5 10.125C10.5 11.1605 9.66053 12 8.625 12C7.58947 12 6.75 11.1605 6.75 10.125C6.74579 9.6212 6.94613 9.13725 7.3052 8.78384C7.66426 8.43043 8.15133 8.23779 8.655 8.25H8.625ZM15.855 17.94C15.0409 16.5881 13.5781 15.7614 12 15.7614C10.4219 15.7614 8.9591 16.5881 8.145 17.94L6.8625 17.19C7.94853 15.3898 9.89758 14.2894 12 14.2894C14.1024 14.2894 16.0515 15.3898 17.1375 17.19L15.855 17.94ZM15.375 12C14.3395 12 13.5 11.1605 13.5 10.125C13.5 9.08947 14.3395 8.25 15.375 8.25C16.4105 8.25 17.25 9.08947 17.25 10.125C17.25 11.1605 16.4105 12 15.375 12Z" fill="black"/>
</svg>
