<svg width="24" height="24" viewBox="0 0 24 24" fill="none" xmlns="http://www.w3.org/2000/svg">
<path d="M6 22.5H1.5V18H3V21H6V22.5Z" fill="black"/>
<path d="M1.5 1.5V6H3V3H6V1.5H1.5Z" fill="black"/>
<path d="M22.5 22.5H18V21H21V18H22.5V22.5Z" fill="black"/>
<path d="M21 3V6H22.5V1.5H18V3H21Z" fill="black"/>
<path d="M6.75 10.1251C6.75 9.08953 7.58947 8.25006 8.625 8.25006C9.12351 8.24602 9.60277 8.44227 9.95528 8.79478C10.3078 9.14729 10.504 9.62655 10.5 10.1251C10.5 11.1606 9.66053 12.0001 8.625 12.0001C7.58947 12.0001 6.75 11.1606 6.75 10.1251Z" fill="black"/>
<path d="M13.5 10.1251C13.5 9.08953 14.3395 8.25006 15.375 8.25006C15.8735 8.24602 16.3528 8.44227 16.7053 8.79478C17.0578 9.14729 17.254 9.62655 17.25 10.1251C17.25 11.1606 16.4105 12.0001 15.375 12.0001C14.3395 12.0001 13.5 11.1606 13.5 10.1251Z" fill="black"/>
<path d="M17.1375 15.0826C16.0556 16.8892 14.1058 17.9965 12 18.0001C9.89418 17.9965 7.94436 16.8892 6.8625 15.0826L8.145 14.3326C8.9591 15.6845 10.4219 16.5111 12 16.5111C13.5781 16.5111 15.0409 15.6845 15.855 14.3326L17.1375 15.0826Z" fill="black"/>
</svg>
