<svg width="24" height="24" viewBox="0 0 24 24" fill="none" xmlns="http://www.w3.org/2000/svg">
<path fill-rule="evenodd" clip-rule="evenodd" d="M12 1.5C6.20101 1.5 1.5 6.20101 1.5 12C1.5 17.799 6.20101 22.5 12 22.5C17.799 22.5 22.5 17.799 22.5 12C22.5 9.21523 21.3938 6.54451 19.4246 4.57538C17.4555 2.60625 14.7848 1.5 12 1.5ZM12 21C7.02944 21 3 16.9706 3 12C3 7.02944 7.02944 3 12 3C16.9706 3 21 7.02944 21 12C21 16.9706 16.9706 21 12 21ZM8.625 8.25C7.58947 8.25 6.75 9.08947 6.75 10.125C6.75 11.1605 7.58947 12 8.625 12C9.66053 12 10.5 11.1605 10.5 10.125C10.5 9.62772 10.3025 9.15081 9.95082 8.79917C9.59919 8.44754 9.12228 8.25 8.625 8.25ZM15.375 8.25C14.3395 8.25 13.5 9.08947 13.5 10.125C13.5 11.1605 14.3395 12 15.375 12C16.4105 12 17.25 11.1605 17.25 10.125C17.25 9.08947 16.4105 8.25 15.375 8.25ZM12 14.25C9.89418 14.2536 7.94436 15.3608 6.8625 17.1675L8.145 17.9175C8.9591 16.5656 10.4219 15.7389 12 15.7389C13.5781 15.7389 15.0409 16.5656 15.855 17.9175L17.1375 17.1675C16.0556 15.3608 14.1058 14.2536 12 14.25Z" fill="black"/>
</svg>
