<svg width="24" height="24" viewBox="0 0 24 24" fill="none" xmlns="http://www.w3.org/2000/svg">
<path fill-rule="evenodd" clip-rule="evenodd" d="M22.5 3H19.5V0H18V3H15V4.5H18V7.5H19.5V4.5H22.5V3ZM8.625 8.25C7.58947 8.25 6.75 9.08947 6.75 10.125C6.75 11.1605 7.58947 12 8.625 12C9.66053 12 10.5 11.1605 10.5 10.125C10.504 9.62649 10.3078 9.14723 9.95528 8.79472C9.60277 8.44221 9.12351 8.24596 8.625 8.25ZM15.375 8.25C14.3395 8.25 13.5 9.08947 13.5 10.125C13.5 11.1605 14.3395 12 15.375 12C16.4105 12 17.25 11.1605 17.25 10.125C17.254 9.62649 17.0578 9.14723 16.7053 8.79472C16.3528 8.44221 15.8735 8.24596 15.375 8.25ZM6.75 15C7.84691 16.857 9.84323 17.9964 12 17.9964C14.1568 17.9964 16.1531 16.857 17.25 15H6.75ZM20.865 10.5C21.4948 14.2257 19.7302 17.9481 16.4474 19.8192C13.1646 21.6902 9.06262 21.3114 6.17792 18.8709C3.29322 16.4304 2.24013 12.4478 3.54147 8.90042C4.8428 5.35299 8.22142 2.99617 12 3V1.5C6.20101 1.5 1.5 6.20101 1.5 12C1.5 17.799 6.20101 22.5 12 22.5C17.799 22.5 22.5 17.799 22.5 12C22.4942 11.4979 22.4541 10.9967 22.38 10.5H20.865Z" fill="black"/>
</svg>
