<svg width="24" height="24" viewBox="0 0 24 24" fill="none" xmlns="http://www.w3.org/2000/svg">
<path fill-rule="evenodd" clip-rule="evenodd" d="M12 16.5C10.4196 16.4976 8.95631 15.6663 8.14503 14.31L6.86253 15.06C7.94856 16.8602 9.89761 17.9606 12 17.9606C14.1025 17.9606 16.0515 16.8602 17.1375 15.06L15.855 14.31C15.0438 15.6663 13.5804 16.4976 12 16.5ZM22.5 3H19.5V0H18V3H15V4.5H18V7.5H19.5V4.5H22.5V3ZM8.62503 8.25C7.5895 8.25 6.75003 9.08947 6.75003 10.125C6.75003 11.1605 7.5895 12 8.62503 12C9.66056 12 10.5 11.1605 10.5 10.125C10.5041 9.62649 10.3078 9.14723 9.95531 8.79472C9.6028 8.44221 9.12354 8.24596 8.62503 8.25ZM15.375 8.25C14.3395 8.25 13.5 9.08947 13.5 10.125C13.5 11.1605 14.3395 12 15.375 12C16.4106 12 17.25 11.1605 17.25 10.125C17.2541 9.62649 17.0578 9.14723 16.7053 8.79472C16.3528 8.44221 15.8735 8.24596 15.375 8.25ZM20.7075 9.75C20.897 10.4852 20.9953 11.2408 21 12C21 16.9706 16.9706 21 12 21C7.02947 21 3.00003 16.9706 3.00003 12C3.00003 7.02944 7.02947 3 12 3V1.5C7.54563 1.49847 3.57504 4.30769 2.09389 8.50862C0.612754 12.7096 1.94345 17.3879 5.41381 20.1804C8.88417 22.9729 13.7389 23.2719 17.5256 20.9263C21.3124 18.5806 23.207 14.1009 22.2525 9.75H20.7075Z" fill="black"/>
</svg>
