<svg width="24" height="24" viewBox="0 0 24 24" fill="none" xmlns="http://www.w3.org/2000/svg">
<path fill-rule="evenodd" clip-rule="evenodd" d="M12 1.5C6.20101 1.5 1.5 6.20101 1.5 12C1.5 17.799 6.20101 22.5 12 22.5C17.799 22.5 22.5 17.799 22.5 12C22.5 9.21523 21.3938 6.54451 19.4246 4.57538C17.4555 2.60625 14.7848 1.5 12 1.5ZM12 21C7.02944 21 3 16.9706 3 12C3 7.02944 7.02944 3 12 3C16.9706 3 21 7.02944 21 12C21 16.9706 16.9706 21 12 21ZM18.3075 8.25L17.25 7.1925L15.75 8.6925L14.25 7.1925L13.1925 8.25L14.6925 9.75L13.1925 11.25L14.25 12.3075L15.75 10.8075L17.25 12.3075L18.3075 11.25L16.8075 9.75L18.3075 8.25ZM10.8075 8.25L9.75 7.1925L8.25 8.6925L6.75 7.1925L5.6925 8.25L7.1925 9.75L5.6925 11.25L6.75 12.3075L8.25 10.8075L9.75 12.3075L10.8075 11.25L9.3075 9.75L10.8075 8.25ZM12 14.25C10.7574 14.25 9.75 15.2574 9.75 16.5C9.75 17.7426 10.7574 18.75 12 18.75C13.2426 18.75 14.25 17.7426 14.25 16.5C14.25 15.2574 13.2426 14.25 12 14.25Z" fill="black"/>
</svg>
