<svg width="24" height="24" viewBox="0 0 24 24" fill="none" xmlns="http://www.w3.org/2000/svg">
<path fill-rule="evenodd" clip-rule="evenodd" d="M12 1.5C6.20101 1.5 1.5 6.20101 1.5 12C1.5 17.799 6.20101 22.5 12 22.5C17.799 22.5 22.5 17.799 22.5 12C22.5 9.21523 21.3938 6.54451 19.4246 4.57538C17.4555 2.60625 14.7848 1.5 12 1.5ZM12 21C7.02944 21 3 16.9706 3 12C3 7.02944 7.02944 3 12 3C16.9706 3 21 7.02944 21 12C21 16.9706 16.9706 21 12 21ZM8.625 8.25C7.58947 8.25 6.75 9.08947 6.75 10.125C6.75 11.1605 7.58947 12 8.625 12C9.66053 12 10.5 11.1605 10.5 10.125C10.504 9.62649 10.3078 9.14723 9.95528 8.79472C9.60277 8.44221 9.12351 8.24596 8.625 8.25ZM15.375 8.25C14.3395 8.25 13.5 9.08947 13.5 10.125C13.5 11.1605 14.3395 12 15.375 12C16.4105 12 17.25 11.1605 17.25 10.125C17.254 9.62649 17.0578 9.14723 16.7053 8.79472C16.3528 8.44221 15.8735 8.24596 15.375 8.25ZM12 18C14.1058 17.9964 16.0556 16.8892 17.1375 15.0825L15.855 14.3325C15.0409 15.6844 13.5781 16.5111 12 16.5111C10.4219 16.5111 8.9591 15.6844 8.145 14.3325L6.8625 15.0825C7.94436 16.8892 9.89418 17.9964 12 18Z" fill="black"/>
</svg>
