<svg width="24" height="24" viewBox="0 0 24 24" fill="none" xmlns="http://www.w3.org/2000/svg">
<path fill-rule="evenodd" clip-rule="evenodd" d="M12 18C14.1058 17.9964 16.0556 16.8892 17.1375 15.0825L15.855 14.3325C15.0409 15.6844 13.5781 16.5111 12 16.5111C10.4219 16.5111 8.9591 15.6844 8.145 14.3325L6.8625 15.0825C7.94436 16.8892 9.89418 17.9964 12 18ZM12 1.5C6.20101 1.5 1.5 6.20101 1.5 12C1.5 17.799 6.20101 22.5 12 22.5C17.799 22.5 22.5 17.799 22.5 12C22.5 9.21523 21.3938 6.54451 19.4246 4.57538C17.4555 2.60625 14.7848 1.5 12 1.5ZM12 3C15.514 3.00548 18.7034 5.0556 20.1675 8.25H18.75C18.75 7.83579 18.4142 7.5 18 7.5H6C5.58579 7.5 5.25 7.83579 5.25 8.25H3.8325C5.29664 5.0556 8.48605 3.00548 12 3ZM12 21C7.02944 21 3 16.9706 3 12C3.0035 11.2403 3.10432 10.4841 3.3 9.75H5.25V11.25C5.25 12.0784 5.92157 12.75 6.75 12.75H9.2325C9.97317 12.7601 10.6103 12.2281 10.7325 11.4975L11.1225 9H12.8775L13.29 11.4975C13.4122 12.2281 14.0493 12.7601 14.79 12.75H17.25C18.0784 12.75 18.75 12.0784 18.75 11.25V9.75H20.7C20.8957 10.4841 20.9965 11.2403 21 12C21 16.9706 16.9706 21 12 21Z" fill="black"/>
</svg>
