<svg width="24" height="24" viewBox="0 0 24 24" fill="none" xmlns="http://www.w3.org/2000/svg">
<path fill-rule="evenodd" clip-rule="evenodd" d="M6.17996 18.855L5.24996 20.0025C6.1789 20.7926 7.24024 21.4121 8.38496 21.8325L8.90246 20.43C7.90954 20.0689 6.98797 19.5357 6.17996 18.855ZM3.14246 13.5L1.64246 13.8075C1.85636 15.0192 2.28023 16.1842 2.89496 17.25L4.19246 16.5C3.67344 15.5674 3.31829 14.5527 3.14246 13.5ZM8.86496 3.57L8.34746 2.1675C7.21597 2.59186 6.16762 3.21122 5.24996 3.9975L6.17996 5.145C6.97668 4.46803 7.88527 3.93506 8.86496 3.57ZM4.19246 7.5L2.89496 6.75C2.29192 7.81909 1.87593 8.98333 1.66496 10.1925L3.16496 10.4475C3.33391 9.41284 3.68159 8.41547 4.19246 7.5ZM12 1.5V3C16.9705 3 21 7.02944 21 12C21 16.9706 16.9705 21 12 21V22.5C17.7989 22.5 22.5 17.799 22.5 12C22.5 6.20101 17.7989 1.5 12 1.5Z" fill="black"/>
</svg>
