<svg width="24" height="24" viewBox="0 0 24 24" fill="none" xmlns="http://www.w3.org/2000/svg">
<path fill-rule="evenodd" clip-rule="evenodd" d="M1.5 21H22.5V22.5H1.5V21ZM20.25 8.24999C20.6642 8.24999 21 7.9142 21 7.49999V5.24999C20.9999 4.93421 20.802 4.65235 20.505 4.54499L12.255 1.54499C12.0902 1.48541 11.9098 1.48541 11.745 1.54499L3.495 4.54499C3.19804 4.65235 3.00013 4.93421 3 5.24999V7.49999C3 7.9142 3.33579 8.24999 3.75 8.24999H4.5V18H3V19.5H21V18H19.5V8.24999H20.25ZM4.5 5.77499L12 3.04499L19.5 5.77499V6.74999H4.5V5.77499ZM13.5 18H10.5V8.24999H13.5V18ZM6 8.24999H9V18H6V8.24999ZM18 18H15V8.24999H18V18Z" fill="black"/>
</svg>
