<svg width="24" height="24" viewBox="0 0 24 24" fill="none" xmlns="http://www.w3.org/2000/svg">
<path fill-rule="evenodd" clip-rule="evenodd" d="M5.24999 3.90751C5.00415 3.90438 4.78724 3.74593 4.70949 3.51268C4.63174 3.27943 4.7102 3.02253 4.90499 2.87251C6.9744 1.40847 9.46656 0.662928 12 0.750012C13.995 0.750012 16.86 1.08751 19.125 2.71501C19.3828 2.89999 19.4431 3.25835 19.26 3.51751C19.0699 3.77379 18.7096 3.83051 18.45 3.64501C16.5266 2.42266 14.2774 1.81327 12 1.89751C9.72636 1.82027 7.48914 2.48354 5.62499 3.78751C5.51886 3.872 5.38546 3.91469 5.24999 3.90751ZM21.1725 9.19501C20.9844 9.19329 20.8085 9.10119 20.7 8.94751C19.4025 7.11751 17.085 4.68001 12 4.68001C8.5685 4.5936 5.31143 6.18993 3.27749 8.95501C3.09019 9.21034 2.73221 9.26722 2.47499 9.08251C2.34391 8.99129 2.25711 8.84925 2.23573 8.69099C2.21434 8.53273 2.26033 8.37276 2.36249 8.25001C4.61707 5.20429 8.21161 3.44479 12 3.53251C16.2075 3.53251 19.3575 5.09251 21.63 8.28751C21.8116 8.54862 21.7479 8.90738 21.4875 9.09001C21.3946 9.15432 21.2854 9.19075 21.1725 9.19501ZM9.20999 23.25C8.972 23.2488 8.75848 23.1035 8.66999 22.8825C8.60938 22.7397 8.61044 22.5782 8.67292 22.4362C8.7354 22.2942 8.85375 22.1843 8.99999 22.1325C12.2775 20.8725 14.25 18.2925 14.25 15.225C14.2953 14.6155 14.0729 14.0165 13.6407 13.5843C13.2085 13.1521 12.6095 12.9297 12 12.975C10.605 12.975 9.92999 13.725 9.74999 15.4875C9.57605 17.2007 8.0785 18.4696 6.35999 18.36C5.46088 18.3731 4.59769 18.0075 3.9814 17.3527C3.36511 16.6979 3.05251 15.8142 3.11999 14.9175C3.20627 10.0905 7.17251 6.23814 12 6.29251C16.9501 6.29243 20.9711 10.29 21 15.24C20.9471 16.9143 20.594 18.5655 19.9575 20.115C19.8305 20.4022 19.4995 20.5379 19.2075 20.4225C19.0667 20.3645 18.955 20.2526 18.8972 20.1117C18.8394 19.9708 18.8404 19.8127 18.9 19.6725C19.4759 18.2626 19.7984 16.7621 19.8525 15.24C19.8318 10.9203 16.3198 7.43169 12 7.44001C9.9724 7.39986 8.01214 8.16802 6.55165 9.57505C5.09116 10.9821 4.25045 12.9123 4.21499 14.94C4.15281 15.5302 4.34602 16.1188 4.74588 16.5574C5.14574 16.996 5.71406 17.2426 6.30749 17.235C6.85303 17.2893 7.39763 17.1233 7.82017 16.774C8.24271 16.4247 8.50816 15.921 8.55749 15.375C8.82749 13.0425 9.97499 11.8575 11.9775 11.8575C12.8953 11.8111 13.7895 12.1576 14.4364 12.8103C15.0834 13.4629 15.422 14.3601 15.3675 15.2775C15.3675 18.8325 13.1175 21.8175 9.36749 23.25C9.31517 23.256 9.26232 23.256 9.20999 23.25ZM14.8275 22.71C14.6838 22.7077 14.5457 22.6546 14.4375 22.56C14.3294 22.453 14.2686 22.3071 14.2686 22.155C14.2686 22.0029 14.3294 21.8571 14.4375 21.75C16.1248 20.0009 17.0754 17.6703 17.0925 15.24C17.0925 14.07 16.7325 10.2525 12.0675 10.2525C10.6944 10.2042 9.35943 10.7096 8.36249 11.655C7.47031 12.5377 6.97494 13.745 6.98999 15C6.98589 15.316 6.72853 15.57 6.41249 15.57C6.26003 15.572 6.11311 15.5129 6.00459 15.4057C5.89606 15.2986 5.83498 15.1525 5.83499 15C5.81138 13.448 6.41114 11.9513 7.49999 10.845C8.70695 9.68657 10.3277 9.0599 12 9.10501C16.56 9.10501 18.18 12.405 18.18 15.24C18.1702 17.9452 17.1233 20.5436 15.255 22.5C15.1506 22.6299 14.9941 22.7068 14.8275 22.71ZM6.49499 20.805C6.10405 20.8041 5.71345 20.7816 5.32499 20.7375C5.12135 20.7147 4.94533 20.585 4.86323 20.3973C4.78114 20.2096 4.80544 19.9923 4.92698 19.8273C5.04853 19.6623 5.24885 19.5747 5.45249 19.5975C7.31999 19.8075 8.78999 19.4775 9.83249 18.6075C10.8035 17.7391 11.3779 16.5119 11.4225 15.21C11.43 15.0565 11.5 14.9128 11.6161 14.8122C11.7323 14.7117 11.8845 14.663 12.0375 14.6775C12.3518 14.7015 12.5905 14.9701 12.5775 15.285C12.5136 16.9061 11.787 18.43 10.5675 19.5C9.40981 20.4082 7.9649 20.8712 6.49499 20.805Z" fill="black"/>
</svg>
