<svg width="24" height="24" viewBox="0 0 24 24" fill="none" xmlns="http://www.w3.org/2000/svg">
<path fill-rule="evenodd" clip-rule="evenodd" d="M8.70742 22.44C8.39168 22.3068 8.20645 21.9764 8.25742 21.6375L9.62242 12.75H5.99992C5.76716 12.7563 5.54469 12.6541 5.3978 12.4734C5.25092 12.2928 5.19628 12.0541 5.24992 11.8275L7.49992 2.07753C7.58152 1.73165 7.89467 1.49053 8.24992 1.50003H15.7499C15.9769 1.49926 16.1919 1.60128 16.3349 1.77753C16.48 1.95582 16.5352 2.19077 16.4849 2.41503L15.1874 8.25003H18.7499C19.0367 8.24945 19.2987 8.41248 19.4249 8.67003C19.5343 8.91667 19.5028 9.20307 19.3424 9.42003L9.59241 22.17C9.45877 22.3681 9.23871 22.4907 8.99992 22.5C8.89956 22.4982 8.8004 22.4778 8.70742 22.44ZM13.3124 9.75003L14.8124 3.00003H8.84992L6.94492 11.25H11.3774L10.1849 18.96L17.2499 9.75003H13.3124Z" fill="black"/>
</svg>
