<svg width="24" height="24" viewBox="0 0 24 24" fill="none" xmlns="http://www.w3.org/2000/svg">
<path fill-rule="evenodd" clip-rule="evenodd" d="M8.3475 5.16753L8.85 3.00003H14.85L13.35 9.75003H17.25L15.3825 12.1875L16.455 13.26L19.3575 9.45753C19.5179 9.24057 19.5494 8.95417 19.44 8.70753C19.3226 8.4304 19.051 8.25027 18.75 8.25003H15.1875L16.5 2.41503C16.5503 2.19077 16.495 1.95582 16.35 1.77753C16.2038 1.59712 15.9822 1.49464 15.75 1.50003H8.25C7.89475 1.49053 7.58161 1.73165 7.5 2.07753L7.095 3.91503L8.3475 5.16753ZM22.5 21.4425L15.5175 14.46L14.4525 13.3875L2.5575 1.50003L1.5 2.55753L6.3 7.36503L5.25 11.8275C5.19636 12.0541 5.251 12.2928 5.39789 12.4734C5.54477 12.6541 5.76724 12.7563 6 12.75H9.6225L8.25 21.6375C8.19904 21.9764 8.38427 22.3068 8.7 22.44C8.79533 22.4787 8.89712 22.4991 9 22.5C9.23212 22.4995 9.45091 22.3915 9.5925 22.2075L14.6025 15.66L21.4425 22.5L22.5 21.4425ZM6.945 11.25L7.5525 8.61003L10.1925 11.25H6.945ZM10.185 18.96L11.25 12.2775L13.5 14.5875L10.185 18.96Z" fill="black"/>
</svg>
