<svg width="24" height="24" viewBox="0 0 24 24" fill="none" xmlns="http://www.w3.org/2000/svg">
<path fill-rule="evenodd" clip-rule="evenodd" d="M15 17.25H8.89499C8.82072 16.987 8.7123 16.7348 8.57249 16.5L16.5 8.57249C16.9515 8.84954 17.4703 8.9974 18 8.99999C19.5602 9.00505 20.8639 7.8133 20.9985 6.25886C21.1332 4.70442 20.0538 3.30628 18.5159 3.04302C16.978 2.77976 15.4951 3.73928 15.105 5.24999H8.89499C8.51731 3.78726 7.1109 2.83355 5.61224 3.0239C4.11358 3.21426 2.99025 4.48929 2.99025 5.99999C2.99025 7.51069 4.11358 8.78573 5.61224 8.97608C7.1109 9.16644 8.51731 8.21272 8.89499 6.74999H15.105C15.1793 7.01301 15.2877 7.26516 15.4275 7.49999L7.49999 15.4275C7.04851 15.1504 6.52968 15.0026 5.99999 15C4.43974 14.9949 3.13607 16.1867 3.00144 17.7411C2.86682 19.2956 3.94618 20.6937 5.48407 20.957C7.02196 21.2202 8.50491 20.2607 8.89499 18.75H15V21H21V15H15V17.25ZM5.99999 7.49999C5.17156 7.49999 4.49999 6.82842 4.49999 5.99999C4.49999 5.17157 5.17156 4.49999 5.99999 4.49999C6.82841 4.49999 7.49999 5.17157 7.49999 5.99999C7.49999 6.39782 7.34195 6.77935 7.06065 7.06065C6.77934 7.34196 6.39781 7.49999 5.99999 7.49999ZM18 4.49999C18.8284 4.49999 19.5 5.17157 19.5 5.99999C19.5 6.82842 18.8284 7.49999 18 7.49999C17.1716 7.49999 16.5 6.82842 16.5 5.99999C16.5 5.17157 17.1716 4.49999 18 4.49999ZM5.99999 19.5C5.17156 19.5 4.49999 18.8284 4.49999 18C4.49999 17.1716 5.17156 16.5 5.99999 16.5C6.82841 16.5 7.49999 17.1716 7.49999 18C7.49999 18.8284 6.82841 19.5 5.99999 19.5ZM16.5 16.5H19.5V19.5H16.5V16.5Z" fill="black"/>
</svg>
