<svg width="24" height="24" viewBox="0 0 24 24" fill="none" xmlns="http://www.w3.org/2000/svg">
<path fill-rule="evenodd" clip-rule="evenodd" d="M20.25 16.605V12.75C20.25 11.9216 19.5784 11.25 18.75 11.25H12.75V7.395C14.2127 7.01733 15.1664 5.61091 14.9761 4.11225C14.7857 2.61359 13.5107 1.49026 12 1.49026C10.4893 1.49026 9.21424 2.61359 9.02389 4.11225C8.83353 5.61091 9.78725 7.01733 11.25 7.395V11.25H5.24998C4.42155 11.25 3.74998 11.9216 3.74998 12.75V16.605C2.28725 16.9827 1.33353 18.3891 1.52389 19.8878C1.71424 21.3864 2.98928 22.5097 4.49998 22.5097C6.01068 22.5097 7.28571 21.3864 7.47607 19.8878C7.66642 18.3891 6.71271 16.9827 5.24998 16.605V12.75H18.75V16.605C17.2872 16.9827 16.3335 18.3891 16.5239 19.8878C16.7142 21.3864 17.9893 22.5097 19.5 22.5097C21.0107 22.5097 22.2857 21.3864 22.4761 19.8878C22.6664 18.3891 21.7127 16.9827 20.25 16.605ZM5.99998 19.5C5.99998 20.3284 5.3284 21 4.49998 21C3.67155 21 2.99998 20.3284 2.99998 19.5C2.99998 18.6716 3.67155 18 4.49998 18C5.3284 18 5.99998 18.6716 5.99998 19.5ZM10.5 4.5C10.5 3.67158 11.1716 3 12 3C12.8284 3 13.5 3.67158 13.5 4.5C13.5 5.32843 12.8284 6 12 6C11.1716 6 10.5 5.32843 10.5 4.5ZM19.5 21C18.6716 21 18 20.3284 18 19.5C18 18.6716 18.6716 18 19.5 18C20.3284 18 21 18.6716 21 19.5C21 20.3284 20.3284 21 19.5 21Z" fill="black"/>
</svg>
