<svg width="24" height="24" viewBox="0 0 24 24" fill="none" xmlns="http://www.w3.org/2000/svg">
<path fill-rule="evenodd" clip-rule="evenodd" d="M15 18H8.89499C8.82072 17.737 8.7123 17.4848 8.57249 17.25L16.5 9.3225C16.9515 9.59954 17.4703 9.74741 18 9.75C19.5602 9.75506 20.8639 8.56331 20.9985 7.00887C21.1332 5.45443 20.0538 4.05629 18.5159 3.79303C16.978 3.52977 15.4951 4.48929 15.105 6H10.5V7.5H15.105C15.1793 7.76302 15.2877 8.01516 15.4275 8.25L7.49999 16.1775C7.04851 15.9005 6.52968 15.7526 5.99999 15.75C4.43974 15.7449 3.13607 16.9367 3.00144 18.4911C2.86682 20.0456 3.94618 21.4437 5.48407 21.707C7.02196 21.9702 8.50491 21.0107 8.89499 19.5H15V21.75H21V15.75H15V18ZM18 5.25C18.8284 5.25 19.5 5.92157 19.5 6.75C19.5 7.57843 18.8284 8.25 18 8.25C17.1716 8.25 16.5 7.57843 16.5 6.75C16.5 5.92157 17.1716 5.25 18 5.25ZM5.99999 20.25C5.17156 20.25 4.49999 19.5784 4.49999 18.75C4.49999 17.9216 5.17156 17.25 5.99999 17.25C6.82841 17.25 7.49999 17.9216 7.49999 18.75C7.49999 19.5784 6.82841 20.25 5.99999 20.25ZM16.5 17.25H19.5V20.25H16.5V17.25ZM5.28749 11.8125C3.83455 10.5311 3.00219 8.68725 3.00219 6.75C3.00219 4.81275 3.83455 2.96887 5.28749 1.6875L6.27749 2.8125C5.14742 3.80912 4.50004 5.24325 4.50004 6.75C4.50004 8.25675 5.14742 9.69088 6.27749 10.6875L5.28749 11.8125ZM7.26749 9.5625C6.4603 8.85063 5.99788 7.82625 5.99788 6.75C5.99788 5.67375 6.4603 4.64937 7.26749 3.9375L8.24999 5.0625C7.76567 5.48962 7.48822 6.10425 7.48822 6.75C7.48822 7.39575 7.76567 8.01038 8.24999 8.4375L7.26749 9.5625Z" fill="black"/>
</svg>
