<svg width="24" height="24" viewBox="0 0 24 24" fill="none" xmlns="http://www.w3.org/2000/svg">
<path fill-rule="evenodd" clip-rule="evenodd" d="M21 6H12L9.4425 3.4425C9.16065 3.15897 8.77728 2.99968 8.3775 3H3C2.17157 3 1.5 3.67157 1.5 4.5V19.5C1.5 20.3284 2.17157 21 3 21H21C21.8284 21 22.5 20.3284 22.5 19.5V7.5C22.5 6.67157 21.8284 6 21 6ZM16.5 19.5H10.5V18.75C10.5 18.3358 10.8358 18 11.25 18H15.75C16.1642 18 16.5 18.3358 16.5 18.75V19.5ZM21 19.5H18V18.75C18 17.5074 16.9926 16.5 15.75 16.5H11.25C10.0074 16.5 9 17.5074 9 18.75V19.5H3V4.5H8.3775L10.9425 7.0575L11.3775 7.5H21V19.5ZM10.5 12.75C10.5 14.4069 11.8431 15.75 13.5 15.75C15.1569 15.75 16.5 14.4069 16.5 12.75C16.5 11.0931 15.1569 9.75 13.5 9.75C11.8431 9.75 10.5 11.0931 10.5 12.75ZM13.5 11.25C14.3284 11.25 15 11.9216 15 12.75C15 13.5784 14.3284 14.25 13.5 14.25C12.6716 14.25 12 13.5784 12 12.75C12 11.9216 12.6716 11.25 13.5 11.25Z" fill="black"/>
</svg>
