<svg width="24" height="24" viewBox="0 0 24 24" fill="none" xmlns="http://www.w3.org/2000/svg">
<path fill-rule="evenodd" clip-rule="evenodd" d="M19.5 13.5C18.1358 13.504 16.9465 14.4289 16.6065 15.75H12.75V8.24998H16.6065C16.9842 9.71271 18.3906 10.6664 19.8893 10.4761C21.3879 10.2857 22.5112 9.01068 22.5112 7.49998C22.5112 5.98928 21.3879 4.71424 19.8893 4.52389C18.3906 4.33353 16.9842 5.28725 16.6065 6.74998H12.75C11.9219 6.7508 11.2508 7.42189 11.25 8.24998V11.25H7.39351C7.01583 9.78725 5.60942 8.83353 4.11076 9.02389C2.6121 9.21424 1.48877 10.4893 1.48877 12C1.48877 13.5107 2.6121 14.7857 4.11076 14.9761C5.60942 15.1664 7.01583 14.2127 7.39351 12.75H11.25V15.75C11.2508 16.5781 11.9219 17.2492 12.75 17.25H16.6065C16.9989 18.7557 18.479 19.71 20.0125 19.4461C21.5459 19.1821 22.6218 17.7878 22.4881 16.2376C22.3545 14.6873 21.056 13.4977 19.5 13.5ZM19.5 5.99998C20.3284 5.99998 21 6.67155 21 7.49998C21 8.3284 20.3284 8.99998 19.5 8.99998C18.6716 8.99998 18 8.3284 18 7.49998C18.0008 6.67189 18.6719 6.0008 19.5 5.99998ZM4.50001 13.5C3.67158 13.5 3.00001 12.8284 3.00001 12C3.00001 11.1716 3.67158 10.5 4.50001 10.5C5.32843 10.5 6.00001 11.1716 6.00001 12C5.99918 12.8281 5.32809 13.4992 4.50001 13.5ZM19.5 18C18.6716 18 18 17.3284 18 16.5C18 15.6716 18.6716 15 19.5 15C20.3284 15 21 15.6716 21 16.5C20.9992 17.3281 20.3281 17.9992 19.5 18Z" fill="black"/>
</svg>
