<svg width="24" height="24" viewBox="0 0 24 24" fill="none" xmlns="http://www.w3.org/2000/svg">
<path fill-rule="evenodd" clip-rule="evenodd" d="M2.9997 22.1249C2.8639 22.3602 2.61146 22.5037 2.33983 22.4999L2.18986 22.4774C1.87436 22.412 1.63589 22.1524 1.59748 21.8324C1.53433 21.3348 1.50178 20.8338 1.5 20.3323C1.51879 13.8608 6.33067 8.40593 12.7478 7.58149V2.99871C12.7493 2.69591 12.9326 2.42372 13.2127 2.30866C13.4919 2.19121 13.8144 2.25335 14.03 2.46617L23.0282 11.4667C23.1702 11.6076 23.25 11.7993 23.25 11.9993C23.25 12.1993 23.1702 12.391 23.0282 12.5318L14.03 21.5324C13.8144 21.7452 13.4919 21.8073 13.2127 21.6899C12.9326 21.5748 12.7493 21.3026 12.7478 20.9998V16.4996C8.73454 16.5259 5.03136 18.6629 2.9997 22.1249ZM2.9997 19.4997C5.55205 16.5888 9.25221 14.9439 13.1227 14.9995H13.4976C13.9117 14.9995 14.2475 15.3353 14.2475 15.7495V19.1922L21.4385 11.9993L14.2475 4.80632V8.24904C14.249 8.63828 13.9527 8.96405 13.5651 8.99908C7.9432 9.4292 3.46572 13.8792 2.9997 19.4997Z" fill="black"/>
</svg>
