<svg width="24" height="24" viewBox="0 0 24 24" fill="none" xmlns="http://www.w3.org/2000/svg">
<path d="M12 21C16.1421 21 19.5 17.6421 19.5 13.5H21C21 18.4706 16.9706 22.5 12 22.5C7.02944 22.5 3 18.4706 3 13.5C3 8.52944 7.02944 4.5 12 4.5H15V0.75L19.5 5.25L15 9.75V6H12C7.85786 6 4.5 9.35786 4.5 13.5C4.5 17.6421 7.85786 21 12 21Z" fill="black"/>
<path d="M11.3475 11.685H13.935L13.92 10.74H10.53L10.3125 13.9725L11.205 14.1C11.3086 13.9839 11.4301 13.8851 11.565 13.8075C11.7411 13.7095 11.9412 13.6627 12.1425 13.6725C12.4021 13.6496 12.6587 13.7423 12.8437 13.9258C13.0287 14.1094 13.1234 14.3652 13.1025 14.625V14.67C13.12 14.9426 13.0313 15.2113 12.855 15.42C12.6554 15.6136 12.3822 15.712 12.105 15.69C11.965 15.6955 11.8251 15.6752 11.6925 15.63C11.5772 15.5917 11.4685 15.5361 11.37 15.465C11.2741 15.3917 11.1883 15.3059 11.115 15.21L10.9125 14.9025L10.1175 15.51C10.2084 15.6558 10.3112 15.7938 10.425 15.9225C10.5454 16.0544 10.6843 16.1681 10.8375 16.26C11.0109 16.3646 11.1975 16.4453 11.3925 16.5C11.6231 16.5568 11.86 16.5846 12.0975 16.5825C12.4068 16.5909 12.7149 16.54 13.005 16.4325C13.2547 16.3449 13.4824 16.2041 13.6725 16.02C13.8536 15.842 13.9943 15.6272 14.085 15.39C14.1832 15.134 14.2315 14.8616 14.2275 14.5875C14.2298 14.3313 14.184 14.0768 14.0925 13.8375C14.008 13.6216 13.8804 13.4251 13.7175 13.26C13.5607 13.1013 13.3713 12.9785 13.1625 12.9C12.9419 12.8177 12.7079 12.777 12.4725 12.78C12.3203 12.7771 12.1686 12.7973 12.0225 12.84C11.9038 12.8791 11.7924 12.9374 11.6925 13.0125C11.5972 13.0869 11.5137 13.1755 11.445 13.275C11.374 13.3839 11.3089 13.4966 11.25 13.6125L11.3475 11.685Z" fill="black"/>
</svg>
