<svg width="24" height="24" viewBox="0 0 24 24" fill="none" xmlns="http://www.w3.org/2000/svg">
<path fill-rule="evenodd" clip-rule="evenodd" d="M19.5 13.5C19.5 17.6421 16.1421 21 12 21C7.85786 21 4.5 17.6421 4.5 13.5C4.5 9.35786 7.85786 6 12 6H15V9.75L19.5 5.25L15 0.75V4.5H12C7.02944 4.5 3 8.52944 3 13.5C3 18.4706 7.02944 22.5 12 22.5C16.9706 22.5 21 18.4706 21 13.5H19.5ZM14.73 16.5975C14.3985 16.6065 14.0696 16.5371 13.77 16.395C13.5023 16.262 13.2727 16.0633 13.1025 15.8175C12.924 15.5315 12.8042 15.2128 12.75 14.88C12.6577 14.4665 12.6149 14.0436 12.6225 13.62C12.6157 13.1965 12.6585 12.7736 12.75 12.36C12.817 12.0249 12.9495 11.7063 13.14 11.4225C13.3102 11.1767 13.5398 10.978 13.8075 10.845C14.1071 10.7029 14.436 10.6335 14.7675 10.6425C15.4011 10.5943 16.0143 10.8782 16.3875 11.3925C16.771 12.059 16.9533 12.8222 16.9125 13.59C16.9533 14.3578 16.771 15.121 16.3875 15.7875C16.0215 16.3366 15.3881 16.6461 14.73 16.5975ZM14.73 15.6825C15.0416 15.7152 15.3407 15.5507 15.48 15.27C15.6449 14.9161 15.7221 14.5276 15.705 14.1375V13.1025C15.723 12.7148 15.6457 12.3285 15.48 11.9775C15.3115 11.7164 15.022 11.5587 14.7113 11.5587C14.4005 11.5587 14.111 11.7164 13.9425 11.9775C13.7797 12.3293 13.705 12.7154 13.725 13.1025V14.1375C13.7059 14.527 13.7805 14.9153 13.9425 15.27C14.0864 15.565 14.4055 15.7322 14.73 15.6825ZM9.465 13.065C9.73135 13.0914 9.99815 13.0194 10.215 12.8625C10.368 12.7382 10.4541 12.5495 10.4475 12.3525V12.2925C10.4587 12.0833 10.3763 11.8799 10.2225 11.7375C10.0478 11.5943 9.82556 11.522 9.6 11.535C9.36492 11.5304 9.13338 11.5928 8.9325 11.715C8.72534 11.8433 8.55076 12.0178 8.4225 12.225L7.725 11.6025C7.82689 11.4682 7.9371 11.3405 8.055 11.22C8.17698 11.1035 8.31303 11.0027 8.46 10.92C8.62406 10.827 8.80097 10.7587 8.985 10.7175C9.19812 10.6632 9.41761 10.6379 9.6375 10.6425C9.90604 10.6412 10.1735 10.6765 10.4325 10.7475C10.6553 10.806 10.8643 10.9079 11.0475 11.0475C11.2155 11.1734 11.3538 11.3347 11.4525 11.52C11.5446 11.7144 11.5908 11.9274 11.5875 12.1425C11.5888 12.3135 11.5609 12.4834 11.505 12.645C11.4475 12.7876 11.3664 12.9194 11.265 13.035C11.1633 13.1439 11.0442 13.2352 10.9125 13.305C10.7773 13.3738 10.6335 13.4243 10.485 13.455V13.5C10.6492 13.5298 10.8083 13.5828 10.9575 13.6575C11.1018 13.7276 11.2316 13.8243 11.34 13.9425C11.4481 14.0643 11.5343 14.2039 11.595 14.355C11.6576 14.5306 11.6881 14.7161 11.685 14.9025C11.6906 15.1412 11.6392 15.3777 11.535 15.5925C11.4342 15.804 11.2852 15.9889 11.1 16.1325C10.9008 16.2861 10.6743 16.4006 10.4325 16.47C10.1529 16.5544 9.86198 16.5949 9.57 16.59C9.31756 16.5934 9.06567 16.5657 8.82 16.5075C8.62053 16.4556 8.42885 16.3774 8.25 16.275C8.09589 16.1813 7.9547 16.0678 7.83 15.9375C7.7087 15.8094 7.59831 15.6715 7.5 15.525L8.3025 14.9175C8.36373 15.0281 8.43397 15.1334 8.5125 15.2325C8.59124 15.3287 8.68198 15.4144 8.7825 15.4875C8.88545 15.5602 8.99939 15.6159 9.12 15.6525C9.25923 15.6905 9.40322 15.7082 9.5475 15.705C9.81676 15.7257 10.0841 15.6455 10.2975 15.48C10.4694 15.3135 10.5622 15.0816 10.5525 14.8425V14.7825C10.5579 14.5503 10.4554 14.3287 10.275 14.1825C10.0387 14.0306 9.76049 13.9571 9.48 13.9725H8.91V13.065H9.465Z" fill="black"/>
</svg>
