<svg width="24" height="24" viewBox="0 0 24 24" fill="none" xmlns="http://www.w3.org/2000/svg">
<path fill-rule="evenodd" clip-rule="evenodd" d="M6.375 22.5C5.33947 22.5 4.5 21.6605 4.5 20.625C4.5 19.5895 5.33947 18.75 6.375 18.75C6.8475 18.6975 8.1375 17.6025 8.2425 13.335L6.9075 12.9975C5.93667 12.7507 5.25703 11.8767 5.25703 10.875C5.25703 9.8733 5.93667 8.99928 6.9075 8.7525L8.25 8.4075C8.6625 3 14.49 1.5 17.625 1.5C18.6605 1.5 19.5 2.33947 19.5 3.375C19.5 4.41053 18.6605 5.25 17.625 5.25C17.565 5.25 15.9525 5.3625 15.765 8.415L17.0925 8.7525C18.0633 8.99928 18.743 9.8733 18.743 10.875C18.743 11.8767 18.0633 12.7507 17.0925 12.9975L15.75 13.3425C15.3675 22.395 6.465 22.5 6.375 22.5ZM17.625 3C17.3025 3 9.75 3.0825 9.75 9V9.585L7.275 10.2075C6.97146 10.287 6.75977 10.5612 6.75977 10.875C6.75977 11.1888 6.97146 11.463 7.275 11.5425L9.75 12.165V12.75C9.75 20.04 6.75 20.25 6.375 20.25C6.16789 20.25 6 20.4179 6 20.625C6 20.8321 6.16789 21 6.375 21C6.6975 21 14.25 20.8725 14.25 12.75V12.165L16.725 11.5425C17.0285 11.463 17.2402 11.1888 17.2402 10.875C17.2402 10.5612 17.0285 10.287 16.725 10.2075L14.25 9.585V9C14.25 3.81 17.595 3.75 17.625 3.75C17.8321 3.75 18 3.58211 18 3.375C18 3.16789 17.8321 3 17.625 3ZM3.1125 17.595C1.46661 14.9804 1.05573 11.7737 1.98926 8.82858C2.92278 5.88349 5.10596 3.499 7.9575 2.31L8.535 3.69C6.08918 4.70982 4.21709 6.75567 3.4178 9.28217C2.61852 11.8087 2.97327 14.559 4.3875 16.8L3.1125 17.595ZM16.0425 21.69L15.465 20.31C17.9192 19.2863 19.795 17.2297 20.5893 14.692C21.3836 12.1543 21.0151 9.39524 19.5825 7.155L20.85 6.345C22.5202 8.95893 22.9491 12.1776 22.0218 15.1377C21.0944 18.0978 18.9056 20.4963 16.0425 21.69Z" fill="black"/>
</svg>
