<svg width="24" height="24" viewBox="0 0 24 24" fill="none" xmlns="http://www.w3.org/2000/svg">
<path fill-rule="evenodd" clip-rule="evenodd" d="M5.63245 19.5C5.26772 19.5006 4.90453 19.4527 4.55245 19.3575C2.35415 18.7306 1.06088 16.4607 1.64245 14.25L3.38995 7.61998C3.66488 6.53601 4.36515 5.60863 5.33245 5.04748C6.27416 4.50203 7.39501 4.35619 8.44495 4.64248C9.56212 4.95271 10.498 5.7172 11.025 6.74998H12.975C13.4997 5.71541 14.4365 4.95018 15.555 4.64248C16.6049 4.35619 17.7257 4.50203 18.6675 5.04748C19.6299 5.60709 20.3291 6.5277 20.61 7.60498L22.3575 14.25C22.9479 16.4678 21.6487 18.7489 19.44 19.3725C18.39 19.6588 17.2692 19.5129 16.3275 18.9675C15.3633 18.4098 14.6635 17.4884 14.385 16.41L14.25 15.75H9.74995L9.57745 16.395C9.2989 17.4734 8.59906 18.3948 7.63495 18.9525C7.02556 19.304 6.3359 19.4925 5.63245 19.5ZM7.37245 5.99998C6.91986 6.00152 6.47539 6.12038 6.08245 6.34498C5.46659 6.70632 5.01894 7.29689 4.83745 7.98748L3.08995 14.6175C2.70956 16.0384 3.53658 17.5024 4.94995 17.91C5.61272 18.0908 6.32028 17.9989 6.91495 17.655C7.5342 17.2975 7.98306 16.7053 8.15995 16.0125L8.62495 14.25H15.375L15.8325 16.0125C16.0124 16.7038 16.4605 17.2949 17.0775 17.655C17.675 17.9986 18.3847 18.0903 19.05 17.91C20.4657 17.506 21.2921 16.0373 20.9025 14.6175L19.155 7.98748C18.9791 7.29634 18.5333 6.70465 17.9175 6.34498C17.3199 6.00139 16.6102 5.90964 15.945 6.08998C15.1185 6.32558 14.4565 6.94563 14.1675 7.75498L13.9875 8.24998H10.0125L9.83245 7.75498C9.54083 6.94456 8.87617 6.32459 8.04745 6.08998C7.82735 6.03063 7.60042 6.00037 7.37245 5.99998ZM7.49995 12C6.67152 12 5.99995 11.3284 5.99995 10.5C5.99995 9.67155 6.67152 8.99998 7.49995 8.99998C8.32838 8.99998 8.99995 9.67155 8.99995 10.5C8.99995 11.3284 8.32838 12 7.49995 12ZM16.5 9.74998C16.9142 9.74998 17.25 9.41419 17.25 8.99998C17.25 8.58577 16.9142 8.24998 16.5 8.24998C16.0857 8.24998 15.75 8.58577 15.75 8.99998C15.75 9.41419 16.0857 9.74998 16.5 9.74998ZM16.5 12.75C16.9142 12.75 17.25 12.4142 17.25 12C17.25 11.5858 16.9142 11.25 16.5 11.25C16.0857 11.25 15.75 11.5858 15.75 12C15.75 12.4142 16.0857 12.75 16.5 12.75ZM15 11.25C15.4142 11.25 15.75 10.9142 15.75 10.5C15.75 10.0858 15.4142 9.74998 15 9.74998C14.5857 9.74998 14.25 10.0858 14.25 10.5C14.25 10.9142 14.5857 11.25 15 11.25ZM18 11.25C18.4142 11.25 18.75 10.9142 18.75 10.5C18.75 10.0858 18.4142 9.74998 18 9.74998C17.5857 9.74998 17.25 10.0858 17.25 10.5C17.25 10.9142 17.5857 11.25 18 11.25Z" fill="black"/>
</svg>
