<svg width="24" height="24" viewBox="0 0 24 24" fill="none" xmlns="http://www.w3.org/2000/svg">
<path fill-rule="evenodd" clip-rule="evenodd" d="M5.63245 22.5C5.26772 22.5006 4.90453 22.4527 4.55245 22.3575C2.35415 21.7306 1.06088 19.4607 1.64245 17.25L3.38995 10.62C3.6685 9.5416 4.36834 8.62018 5.33245 8.06249C6.27416 7.51705 7.39501 7.3712 8.44495 7.65749C9.55935 7.96425 10.4948 8.72292 11.025 9.74999H12.975C13.4997 8.71542 14.4365 7.95019 15.555 7.64249C16.6049 7.3562 17.7257 7.50205 18.6675 8.04749C19.631 8.60582 20.3306 9.52697 20.61 10.605L22.3575 17.25C22.9479 19.4678 21.6487 21.7489 19.44 22.3725C18.39 22.6588 17.2692 22.5129 16.3275 21.9675C15.3633 21.4098 14.6635 20.4884 14.385 19.41L14.25 18.75H9.74995L9.57745 19.395C9.2989 20.4734 8.59906 21.3948 7.63495 21.9525C7.02556 22.304 6.3359 22.4925 5.63245 22.5ZM7.37245 8.99999C6.91986 9.00153 6.47539 9.1204 6.08245 9.34499C5.46548 9.70507 5.01743 10.2962 4.83745 10.9875L3.08995 17.6175C2.70956 19.0384 3.53658 20.5024 4.94995 20.91C5.61272 21.0908 6.32028 20.999 6.91495 20.655C7.53249 20.2955 7.98074 19.7042 8.15995 19.0125L8.62495 17.25H15.375L15.8325 19.0125C16.0139 19.7031 16.4616 20.2937 17.0775 20.655C17.675 20.9986 18.3847 21.0903 19.05 20.91C20.4657 20.506 21.2921 19.0373 20.9025 17.6175L19.155 10.9875C18.9806 10.2956 18.5344 9.70337 17.9175 9.34499C17.3199 9.0014 16.6102 8.90965 15.945 9.08999C15.1185 9.32559 14.4565 9.94564 14.1675 10.755L13.9875 11.25H10.0125L9.83245 10.755C9.54083 9.94457 8.87617 9.3246 8.04745 9.08999C7.82735 9.03064 7.60042 9.00038 7.37245 8.99999ZM7.49995 15C6.67152 15 5.99995 14.3284 5.99995 13.5C5.99995 12.6716 6.67152 12 7.49995 12C8.32838 12 8.99995 12.6716 8.99995 13.5C8.99995 14.3284 8.32838 15 7.49995 15ZM16.5 12.75C16.9142 12.75 17.25 12.4142 17.25 12C17.25 11.5858 16.9142 11.25 16.5 11.25C16.0857 11.25 15.75 11.5858 15.75 12C15.75 12.4142 16.0857 12.75 16.5 12.75ZM16.5 15.75C16.9142 15.75 17.25 15.4142 17.25 15C17.25 14.5858 16.9142 14.25 16.5 14.25C16.0857 14.25 15.75 14.5858 15.75 15C15.75 15.4142 16.0857 15.75 16.5 15.75ZM15 14.25C15.4142 14.25 15.75 13.9142 15.75 13.5C15.75 13.0858 15.4142 12.75 15 12.75C14.5857 12.75 14.25 13.0858 14.25 13.5C14.25 13.9142 14.5857 14.25 15 14.25ZM18 14.25C18.4142 14.25 18.75 13.9142 18.75 13.5C18.75 13.0858 18.4142 12.75 18 12.75C17.5857 12.75 17.25 13.0858 17.25 13.5C17.25 13.9142 17.5857 14.25 18 14.25ZM10.3125 6.74999L9.18745 5.75249C9.89933 4.9453 10.9237 4.48288 12 4.48288C13.0762 4.48288 14.1006 4.9453 14.8125 5.75249L13.6875 6.74999C13.2603 6.26568 12.6457 5.98823 12 5.98823C11.3542 5.98823 10.7396 6.26568 10.3125 6.74999ZM15.9375 4.77749C14.9408 3.64743 13.5067 3.00004 12 3.00004C10.4932 3.00004 9.05907 3.64743 8.06245 4.77749L6.93745 3.78749C8.21882 2.33455 10.0627 1.5022 12 1.5022C13.9372 1.5022 15.7811 2.33455 17.0625 3.78749L15.9375 4.77749Z" fill="black"/>
</svg>
