<svg width="24" height="24" viewBox="0 0 24 24" fill="none" xmlns="http://www.w3.org/2000/svg">
<path fill-rule="evenodd" clip-rule="evenodd" d="M22.4417 21.4418L22.4392 21.4444L2.49879 1.50402L2.50136 1.50145L2.49973 1.49982L1.44226 2.55728L8.30943 9.42445C7.93536 9.95947 7.67466 10.5796 7.56219 11.25H4.24997V12.75H7.56219C7.87833 14.6344 9.36559 16.1216 11.25 16.4378V19.75H12.75V16.4378C13.4204 16.3253 14.0405 16.0646 14.5755 15.6905L21.3848 22.4998L22.4417 21.4418ZM9.09448 11.25C9.16195 10.9879 9.26395 10.7396 9.39535 10.5104L13.4896 14.6046C13.2603 14.736 13.0121 14.838 12.75 14.9055C12.5103 14.9672 12.2589 15 12 15C11.741 15 11.4897 14.9672 11.25 14.9055C10.1958 14.6342 9.36582 13.8042 9.09448 12.75C9.03279 12.5103 8.99997 12.259 8.99997 12C8.99997 11.741 9.03279 11.4897 9.09448 11.25Z" fill="black"/>
<path d="M10.7827 7.66658L12.1184 9.00229C12.3356 9.01073 12.547 9.04226 12.75 9.09451C13.8042 9.36585 14.6341 10.1958 14.9055 11.25C14.9577 11.453 14.9892 11.6643 14.9977 11.8816L16.3334 13.2173C16.3762 13.0647 16.4111 12.9087 16.4378 12.75H19.75V11.25H16.4378C16.1216 9.36562 14.6343 7.87836 12.75 7.56222V4.25H11.25V7.56222C11.0912 7.58885 10.9353 7.62379 10.7827 7.66658Z" fill="black"/>
</svg>
