<svg width="24" height="24" viewBox="0 0 24 24" fill="none" xmlns="http://www.w3.org/2000/svg">
<path fill-rule="evenodd" clip-rule="evenodd" d="M7.56222 11.25C7.87836 9.36562 9.36562 7.87836 11.25 7.56222V4.25H12.75V7.56222C14.6344 7.87836 16.1216 9.36562 16.4378 11.25H19.75V12.75H16.4378C16.1216 14.6344 14.6344 16.1216 12.75 16.4378V19.75H11.25V16.4378C9.36562 16.1216 7.87836 14.6344 7.56222 12.75H4.25V11.25H7.56222ZM12.75 9.09451C13.8042 9.36585 14.6342 10.1958 14.9055 11.25C14.9672 11.4897 15 11.741 15 12C15 12.259 14.9672 12.5103 14.9055 12.75C14.6342 13.8042 13.8042 14.6342 12.75 14.9055C12.5103 14.9672 12.259 15 12 15C11.741 15 11.4897 14.9672 11.25 14.9055C10.1958 14.6342 9.36585 13.8042 9.09451 12.75C9.03281 12.5103 9 12.259 9 12C9 11.741 9.03281 11.4897 9.09451 11.25C9.36585 10.1958 10.1958 9.36585 11.25 9.09451C11.4897 9.03281 11.741 9 12 9C12.259 9 12.5103 9.03281 12.75 9.09451Z" fill="black"/>
</svg>
