<svg width="24" height="24" viewBox="0 0 24 24" fill="none" xmlns="http://www.w3.org/2000/svg">
<path fill-rule="evenodd" clip-rule="evenodd" d="M10.5 3.00002C13.3995 3.00002 15.75 5.35052 15.75 8.25002C15.75 11.1495 13.3995 13.5 10.5 13.5C7.60052 13.5 5.25002 11.1495 5.25002 8.25002C5.25002 5.35052 7.60052 3.00002 10.5 3.00002ZM10.5 1.50002C6.7721 1.50002 3.75002 4.5221 3.75002 8.25002C3.75002 11.9779 6.7721 15 10.5 15C14.2279 15 17.25 11.9779 17.25 8.25002C17.25 4.5221 14.2279 1.50002 10.5 1.50002ZM21 8.25002C21.0029 5.46537 19.8931 2.79498 17.9175 0.83252L16.86 1.89002C20.1731 5.42827 20.0889 10.9549 16.6694 14.3905C13.25 17.8261 7.72386 17.9364 4.17002 14.64L3.08252 15.6675C5.04498 17.6431 7.71537 18.7529 10.5 18.75V21H7.50002V22.5H15V21H12V18.63C17.1614 17.885 20.9939 13.4649 21 8.25002Z" fill="black"/>
</svg>
