<svg width="24" height="24" viewBox="0 0 24 24" fill="none" xmlns="http://www.w3.org/2000/svg">
<path fill-rule="evenodd" clip-rule="evenodd" d="M18 7.5C15.9289 7.5 14.25 9.17893 14.25 11.25C14.25 13.3211 15.9289 15 18 15C20.0711 15 21.75 13.3211 21.75 11.25C21.75 9.17893 20.0711 7.5 18 7.5ZM6 1.5C3.92893 1.5 2.25 3.17893 2.25 5.25C2.25 7.32107 3.92893 9 6 9C8.07107 9 9.75 7.32107 9.75 5.25C9.75 4.25544 9.35491 3.30161 8.65165 2.59835C7.94839 1.89509 6.99456 1.5 6 1.5Z" fill="black"/>
<path d="M0.75 16.5V14.25C0.75 12.1789 2.42893 10.5 4.5 10.5H7.5C9.57107 10.5 11.25 12.1789 11.25 14.25V16.5H0.75Z" fill="black"/>
<path d="M12.75 22.5V20.25C12.75 18.1789 14.4289 16.5 16.5 16.5H19.5C21.5711 16.5 23.25 18.1789 23.25 20.25V22.5H12.75Z" fill="black"/>
</svg>
