<svg width="24" height="24" viewBox="0 0 24 24" fill="none" xmlns="http://www.w3.org/2000/svg">
<path fill-rule="evenodd" clip-rule="evenodd" d="M19.7775 15.39L12.75 11.5575V10.395C14.2607 10.0049 15.2202 8.52198 14.9569 6.98409C14.6937 5.4462 13.2955 4.36683 11.7411 4.50146C10.1867 4.63608 8.9949 5.93975 8.99997 7.5H10.5C10.5455 6.9641 10.8735 6.49321 11.3604 6.26471C11.8473 6.03621 12.4191 6.08482 12.8604 6.39221C13.3017 6.69961 13.5455 7.2191 13.5 7.755C13.3468 8.50045 12.678 9.02656 11.9175 9C11.5488 9 11.25 9.29885 11.25 9.6675V11.5575L4.22247 15.39C3.76302 15.6338 3.39859 16.0246 3.18747 16.5C2.89009 17.1549 2.94462 17.9159 3.33234 18.5217C3.72006 19.1275 4.38822 19.4957 5.10747 19.5H18.8925C19.6117 19.4957 20.2799 19.1275 20.6676 18.5217C21.0553 17.9159 21.1098 17.1549 20.8125 16.5C20.6013 16.0246 20.2369 15.6338 19.7775 15.39ZM18.8925 18H5.10747C4.77195 18 4.49997 17.728 4.49997 17.3925C4.49922 17.1177 4.64886 16.8644 4.88997 16.7325L12 12.855L19.11 16.7325C19.3511 16.8644 19.5007 17.1177 19.5 17.3925C19.5 17.728 19.228 18 18.8925 18Z" fill="black"/>
</svg>
