<svg width="24" height="24" viewBox="0 0 24 24" fill="none" xmlns="http://www.w3.org/2000/svg">
<path fill-rule="evenodd" clip-rule="evenodd" d="M16.5 9.75H15V14.25H16.5C16.9142 14.25 17.25 13.9142 17.25 13.5V10.5C17.25 10.0858 16.9142 9.75 16.5 9.75ZM21 4.5H3C2.17157 4.5 1.5 5.17157 1.5 6V18C1.5 18.8284 2.17157 19.5 3 19.5H21C21.8284 19.5 22.5 18.8284 22.5 18V6C22.5 5.17157 21.8284 4.5 21 4.5ZM11.25 15.75H9.75V12.75H7.5V15.75H6V8.25H7.5V11.25H9.75V8.25H11.25V15.75ZM18.75 13.5C18.75 14.7426 17.7426 15.75 16.5 15.75H13.5V8.25H16.5C17.7426 8.25 18.75 9.25736 18.75 10.5V13.5Z" fill="black"/>
</svg>
