<svg width="24" height="24" viewBox="0 0 24 24" fill="none" xmlns="http://www.w3.org/2000/svg">
<path fill-rule="evenodd" clip-rule="evenodd" d="M21 4.5H3C2.17157 4.5 1.5 5.17157 1.5 6V18C1.5 18.8284 2.17157 19.5 3 19.5H21C21.8284 19.5 22.5 18.8284 22.5 18V6C22.5 5.17157 21.8284 4.5 21 4.5ZM3 18V6H21V18H3ZM16.5 8.25H13.5V15.75H16.5C17.7426 15.75 18.75 14.7426 18.75 13.5V10.5C18.75 9.25736 17.7426 8.25 16.5 8.25ZM17.25 13.5C17.25 13.9142 16.9142 14.25 16.5 14.25H15V9.75H16.5C16.9142 9.75 17.25 10.0858 17.25 10.5V13.5ZM9.75 8.25V11.25H7.5V8.25H6V15.75H7.5V12.75H9.75V15.75H11.25V8.25H9.75Z" fill="black"/>
</svg>
