<svg width="24" height="24" viewBox="0 0 24 24" fill="none" xmlns="http://www.w3.org/2000/svg">
<path fill-rule="evenodd" clip-rule="evenodd" d="M13.5 22.5V21C17.6403 20.9955 20.9955 17.6403 21 13.5H22.5C22.4946 18.4683 18.4683 22.4946 13.5 22.5ZM13.5 19.5V18C15.9841 17.9971 17.9971 15.9841 18 13.5H19.5C19.4959 16.812 16.812 19.4959 13.5 19.5ZM13.5 16.5V15C14.3281 14.9992 14.9992 14.3281 15 13.5H16.5C16.4983 15.1562 15.1562 16.4983 13.5 16.5ZM7.5 1.5C3.77379 1.50413 0.754133 4.52379 0.75 8.25H2.25C2.25 5.35051 4.60051 3 7.5 3C10.3995 3 12.75 5.35051 12.75 8.25C12.7555 10.1416 11.7556 11.8937 10.1243 12.8512L9.75 13.0673V15.372C9.75742 15.9799 9.51312 16.5638 9.075 16.9853C8.18919 17.9387 6.8066 18.2461 5.60025 17.7577C4.49646 17.2804 3.77317 16.2024 3.75 15H2.25C2.27761 16.7985 3.35383 18.4149 5.0025 19.134C5.54972 19.3738 6.14057 19.4978 6.738 19.4985C7.99709 19.472 9.19849 18.9654 10.0965 18.0825C10.8391 17.3773 11.2566 16.3961 11.25 15.372V13.9155C13.1291 12.6426 14.2533 10.5196 14.25 8.25C14.2459 4.52379 11.2262 1.50413 7.5 1.5ZM6.96 6.0615C7.63214 5.89715 8.34252 6.05055 8.88695 6.4776C9.43138 6.90465 9.74955 7.55806 9.75 8.25H11.25C11.2525 7.10759 10.7319 6.02689 9.837 5.31675C8.93241 4.59997 7.74995 4.33563 6.62625 4.599C5.24651 4.91916 4.16916 5.99651 3.849 7.37625C3.47561 8.97116 4.17368 10.6248 5.577 11.4697C6.2905 11.8727 6.73692 12.6237 6.75 13.443V15H8.25V13.4422C8.23929 12.095 7.51511 10.8545 6.34725 10.1828C5.562 9.71566 5.13689 8.82033 5.27126 7.91659C5.40563 7.01286 6.07283 6.27994 6.96 6.0615Z" fill="black"/>
</svg>
