<svg width="24" height="24" viewBox="0 0 24 24" fill="none" xmlns="http://www.w3.org/2000/svg">
<path fill-rule="evenodd" clip-rule="evenodd" d="M20.25 7.5H15.75C14.5079 7.50124 13.5012 8.50787 13.5 9.75V14.25C13.5008 15.0781 14.1719 15.7492 15 15.75V21C15.0008 21.8281 15.6719 22.4992 16.5 22.5H19.5C20.3281 22.4992 20.9992 21.8281 21 21V15.75C21.8281 15.7492 22.4992 15.0781 22.5 14.25V9.75C22.4988 8.50787 21.4921 7.50124 20.25 7.5ZM21 14.25H19.5V21H16.5V14.25H15V9.75C15 9.33579 15.3358 9 15.75 9H20.25C20.6642 9 21 9.33579 21 9.75V14.25ZM15 3.75C15 2.09315 16.3431 0.75 18 0.75C19.6569 0.75 21 2.09315 21 3.75C21 5.40685 19.6569 6.75 18 6.75C16.3438 6.74835 15.0017 5.40617 15 3.75ZM16.5 3.75C16.5 4.57843 17.1716 5.25 18 5.25C18.8284 5.25 19.5 4.57843 19.5 3.75C19.5 2.92157 18.8284 2.25 18 2.25C17.1719 2.25083 16.5008 2.92192 16.5 3.75ZM10.5 12V9.75C10.4988 8.50787 9.49213 7.50124 8.25 7.5H3.75C2.50787 7.50124 1.50124 8.50787 1.5 9.75V12H0V13.5H12V12H10.5ZM3 9.75C3 9.33579 3.33579 9 3.75 9H8.25C8.66421 9 9 9.33579 9 9.75V12H3V9.75ZM3 3.75C3 2.09315 4.34315 0.75 6 0.75C7.65685 0.75 9 2.09315 9 3.75C9 5.40685 7.65685 6.75 6 6.75C4.34383 6.74835 3.00165 5.40617 3 3.75ZM4.5 3.75C4.5 4.57843 5.17157 5.25 6 5.25C6.82843 5.25 7.5 4.57843 7.5 3.75C7.5 2.92157 6.82843 2.25 6 2.25C5.17192 2.25083 4.50083 2.92192 4.5 3.75Z" fill="black"/>
</svg>
