<svg width="24" height="24" viewBox="0 0 24 24" fill="none" xmlns="http://www.w3.org/2000/svg">
<path fill-rule="evenodd" clip-rule="evenodd" d="M12 1.5C6.20101 1.5 1.5 6.20101 1.5 12C1.5 17.799 6.20101 22.5 12 22.5C17.799 22.5 22.5 17.799 22.5 12C22.5 9.21523 21.3938 6.54451 19.4246 4.57538C17.4555 2.60625 14.7848 1.5 12 1.5ZM12 18.75C11.545 18.75 11.1348 18.4759 10.9606 18.0555C10.7865 17.6351 10.8828 17.1513 11.2045 16.8295C11.5263 16.5078 12.0101 16.4115 12.4305 16.5856C12.8509 16.7598 13.125 17.17 13.125 17.625C13.125 18.2463 12.6213 18.75 12 18.75ZM12.855 12.9375V14.8125H11.1675V11.25H12.75C13.689 11.189 14.4194 10.4097 14.4194 9.46875C14.4194 8.52782 13.689 7.74846 12.75 7.6875H11.625C10.6421 7.68749 9.84413 8.4821 9.84 9.465V9.945H8.1675V9.465C8.17164 7.55012 9.72512 6 11.64 6H12.75C14.6066 6.0588 16.0882 7.56831 16.1123 9.42571C16.1364 11.2831 14.6945 12.8306 12.84 12.9375H12.855Z" fill="black"/>
</svg>
