<svg width="24" height="24" viewBox="0 0 24 24" fill="none" xmlns="http://www.w3.org/2000/svg">
<path fill-rule="evenodd" clip-rule="evenodd" d="M12 1.5C6.20101 1.5 1.5 6.20101 1.5 12C1.5 17.799 6.20101 22.5 12 22.5C17.799 22.5 22.5 17.799 22.5 12C22.5 9.21523 21.3938 6.54451 19.4246 4.57538C17.4555 2.60625 14.7848 1.5 12 1.5ZM12 21C7.02944 21 3 16.9706 3 12C3 7.02944 7.02944 3 12 3C16.9706 3 21 7.02944 21 12C21 16.9706 16.9706 21 12 21ZM12 18.75C12.6213 18.75 13.125 18.2463 13.125 17.625C13.125 17.0037 12.6213 16.5 12 16.5C11.3787 16.5 10.875 17.0037 10.875 17.625C10.875 18.2463 11.3787 18.75 12 18.75ZM12.75 6H11.625C10.7293 5.998 9.86968 6.35294 9.23631 6.98631C8.60294 7.61968 8.248 8.47928 8.25 9.375V9.75H9.75V9.375C9.75 8.33947 10.5895 7.5 11.625 7.5H12.75C13.7855 7.5 14.625 8.33947 14.625 9.375C14.625 10.4105 13.7855 11.25 12.75 11.25H11.25V14.625H12.75V12.75C14.614 12.75 16.125 11.239 16.125 9.375C16.125 7.51104 14.614 6 12.75 6Z" fill="black"/>
</svg>
