<svg width="24" height="24" viewBox="0 0 24 24" fill="none" xmlns="http://www.w3.org/2000/svg">
<path fill-rule="evenodd" clip-rule="evenodd" d="M7.125 11.25C7.74632 11.25 8.25 11.7537 8.25 12.375C8.25 12.9963 7.74632 13.5 7.125 13.5C6.50368 13.5 6 12.9963 6 12.375C6 11.7537 6.50368 11.25 7.125 11.25ZM7.125 9.75001C5.67525 9.75001 4.5 10.9253 4.5 12.375C4.5 13.8248 5.67525 15 7.125 15C8.57475 15 9.75 13.8248 9.75 12.375C9.75 10.9253 8.57475 9.75001 7.125 9.75001ZM18.75 10.5H12.75C11.9216 10.5 11.25 11.1716 11.25 12V16.5H3V7.95001L12 3.10501L21.3975 8.16001L22.1025 6.84001L12.3525 1.59001C12.1321 1.47268 11.8679 1.47268 11.6475 1.59001L1.8975 6.84001C1.65349 6.96994 1.50074 7.22357 1.5 7.50001V22.5H3V18H21V22.5H22.5V14.25C22.5 12.1789 20.8211 10.5 18.75 10.5ZM12.75 16.5V12H18.75C19.9926 12 21 13.0074 21 14.25V16.5H12.75Z" fill="black"/>
</svg>
