<svg width="24" height="24" viewBox="0 0 24 24" fill="none" xmlns="http://www.w3.org/2000/svg">
<path fill-rule="evenodd" clip-rule="evenodd" d="M22.5 8.25H18.75V15.75H20.25V13.5H22.5C23.3279 13.4988 23.9988 12.8279 24 12V9.75C23.9992 8.92192 23.3281 8.25083 22.5 8.25ZM20.25 12V9.75H22.5L22.5007 12H20.25ZM7.5 9.75H9V15.75H10.5V9.75H12V8.25H7.5V9.75ZM17.25 8.25H12.75V9.75H14.25V15.75H15.75V9.75H17.25V8.25ZM4.5 8.25V11.25H2.25V8.25H0.75V15.75H2.25V12.75H4.5V15.75H6V8.25H4.5Z" fill="black"/>
</svg>
