<svg width="24" height="24" viewBox="0 0 24 24" fill="none" xmlns="http://www.w3.org/2000/svg">
<path fill-rule="evenodd" clip-rule="evenodd" d="M17.6249 22.5H6.37491C3.87268 22.5027 1.77547 20.6089 1.52376 18.1194C1.27206 15.6299 2.94776 13.3546 5.39991 12.8565C6.05857 9.73685 8.81152 7.50444 11.9999 7.50444C15.1883 7.50444 17.9413 9.73685 18.5999 12.8565C21.0489 13.3579 22.7208 15.6316 22.4694 18.1187C22.2179 20.6058 20.1247 22.4989 17.6249 22.5ZM11.9999 9.00372C9.35066 9.00578 7.11817 10.9816 6.79416 13.611L6.71991 14.22L6.10791 14.268C4.3032 14.4107 2.93343 15.9534 3.00518 17.7623C3.07692 19.5712 4.56456 21.0006 6.37491 21H17.6249C19.4353 21.0006 20.9229 19.5712 20.9946 17.7623C21.0664 15.9534 19.6966 14.4107 17.8919 14.268L17.2807 14.22L17.2064 13.611C16.8817 10.9817 14.6492 9.00607 11.9999 9.00372ZM19.5329 8.99097H19.4669C17.8474 8.98633 16.5289 7.68749 16.4999 6.06822C16.4988 5.42439 16.7114 4.79841 17.1044 4.28847L18.8902 1.78647C19.0374 1.59964 19.2621 1.4906 19.4999 1.4906C19.7378 1.4906 19.9625 1.59964 20.1097 1.78647L21.8977 4.28922C22.2875 4.79554 22.4992 5.41645 22.4999 6.05547C22.4762 7.67905 21.1567 8.9846 19.5329 8.99097ZM19.4999 3.51597L18.3224 5.16447C18.1176 5.41667 18.004 5.73062 17.9999 6.05547C18.0072 6.44284 18.1682 6.81142 18.4475 7.07998C18.7267 7.34854 19.1013 7.49505 19.4887 7.48722H19.5112C20.3185 7.49194 20.9807 6.84904 20.9999 6.04197C20.9972 5.7406 20.8958 5.44842 20.7112 5.21022C20.6957 5.19003 20.6807 5.16953 20.6662 5.14872L19.4999 3.51597Z" fill="black"/>
</svg>
