<svg width="24" height="24" viewBox="0 0 24 24" fill="none" xmlns="http://www.w3.org/2000/svg">
<path fill-rule="evenodd" clip-rule="evenodd" d="M12 13.5C12.8284 13.5 13.5 12.8284 13.5 12C13.5 11.1716 12.8284 10.5 12 10.5C11.1716 10.5 10.5 11.1716 10.5 12C10.5 12.8284 11.1716 13.5 12 13.5ZM12 5.25C11.325 5.24949 10.6537 5.35062 10.0087 5.55C10.8144 4.98695 11.6878 4.52759 12.6083 4.18275C14.5787 3.46013 16.6529 3.06073 18.7507 3L18.75 1.5C18.615 1.5 5.25 1.62 5.25 12C5.24988 14.1433 6.26764 16.1593 7.99225 17.4318C9.71686 18.7044 11.9433 19.0823 13.9913 18.45C13.1856 19.0131 12.3122 19.4724 11.3917 19.8172C9.42156 20.5397 7.34759 20.9391 5.25 21V22.5C5.385 22.5 18.75 22.38 18.75 12C18.7459 8.27379 15.7262 5.25413 12 5.25ZM12 17.25C9.10051 17.25 6.75 14.8995 6.75 12C6.75 9.1005 9.10051 6.75 12 6.75C14.8995 6.75 17.25 9.1005 17.25 12C17.2467 14.8981 14.8981 17.2467 12 17.25Z" fill="black"/>
</svg>
