<svg width="24" height="24" viewBox="0 0 24 24" fill="none" xmlns="http://www.w3.org/2000/svg">
<path fill-rule="evenodd" clip-rule="evenodd" d="M18.4177 10.2375C16.9473 7.36876 13.8324 5.8592 10.7787 6.53542C7.72498 7.21164 5.46897 9.91053 5.246 13.1543C2.67975 13.4428 0.777728 15.7707 0.914446 18.4557C1.05116 21.1406 3.17893 23.2458 5.76008 23.25H17.2801C20.5395 23.2541 23.2632 20.6666 23.5587 17.2854C23.8543 13.9042 21.6242 10.8468 18.4177 10.2375ZM17.2801 22.125H5.76008C3.76927 22.1341 2.11469 20.5294 1.98138 18.4603C1.84807 16.3912 3.28196 14.5706 5.25608 14.3025C5.33221 15.2954 5.60272 16.2615 6.05096 17.1413C6.14228 17.3184 6.31737 17.4313 6.51027 17.4375C6.70318 17.4436 6.8846 17.3421 6.98619 17.1712C7.08779 17.0003 7.09412 16.7859 7.0028 16.6088C5.52294 13.7239 6.45426 10.1375 9.12848 8.42317C11.8027 6.7088 15.2959 7.4587 17.1015 10.1348C15.3572 10.1849 13.711 10.9859 12.5547 12.3473C12.4193 12.4967 12.3728 12.7111 12.4335 12.9066C12.4942 13.1021 12.6525 13.2476 12.8462 13.286C13.04 13.3245 13.2385 13.2498 13.364 13.0913C14.9534 11.2137 17.568 10.709 19.6977 11.8688C21.8274 13.0286 22.9217 15.5531 22.3487 17.9841C21.7756 20.4152 19.6832 22.1246 17.2801 22.125ZM23.6866 7.69126C23.6143 7.5605 23.4951 7.46505 23.3552 7.42594C23.2153 7.38683 23.0662 7.40727 22.9407 7.48276L20.7663 8.79076C20.5894 8.88813 20.4778 9.07842 20.4752 9.28681C20.4727 9.4952 20.5797 9.68838 20.7541 9.79041C20.9286 9.89244 21.1426 9.88701 21.3121 9.77626L23.4865 8.46826C23.7476 8.31113 23.8371 7.96343 23.6866 7.69126ZM17.0468 5.90251C17.1723 5.97823 17.3216 5.9988 17.4617 5.95968C17.6017 5.92056 17.7211 5.82497 17.7934 5.69401L19.0491 3.42901C19.1865 3.1583 19.0936 2.82293 18.839 2.66994C18.5844 2.51695 18.2592 2.60114 18.103 2.86051L16.8474 5.12551C16.6968 5.39748 16.786 5.74512 17.0468 5.90251ZM12.2401 4.56076C12.385 4.56076 12.524 4.50078 12.6265 4.39403C12.729 4.28727 12.7866 4.14248 12.7866 3.99151V1.37626C12.7866 1.06187 12.5419 0.807007 12.2401 0.807007C11.9383 0.807007 11.6936 1.06187 11.6936 1.37626V3.99151C11.6934 4.14261 11.7509 4.28759 11.8534 4.39451C11.9559 4.50143 12.095 4.56076 12.2401 4.56076ZM6.68672 5.69401C6.84163 5.95689 7.16937 6.04342 7.42579 5.88913C7.68221 5.73484 7.774 5.39589 7.6328 5.12476L6.37712 2.85976C6.28015 2.68208 6.09918 2.57218 5.90297 2.57184C5.70676 2.57149 5.52543 2.68073 5.42789 2.85807C5.33034 3.0354 5.33154 3.2536 5.43104 3.42976L6.68672 5.69401ZM3.71456 8.79076L1.54016 7.48276C1.37105 7.37911 1.16158 7.37786 0.991338 7.47947C0.821097 7.58109 0.716219 7.76997 0.716554 7.97435C0.716889 8.17874 0.822385 8.36725 0.992958 8.46826L3.16808 9.77626C3.33744 9.88455 3.54988 9.88854 3.72288 9.78668C3.89588 9.68482 4.00216 9.49316 4.00043 9.28616C3.9987 9.07917 3.88923 8.88947 3.71456 8.79076Z" fill="black"/>
</svg>
