<svg width="24" height="24" viewBox="0 0 24 24" fill="none" xmlns="http://www.w3.org/2000/svg">
<path fill-rule="evenodd" clip-rule="evenodd" d="M8.2499 18H15.7499V19.5H8.2499V18ZM9.7499 21H14.2499V22.5H9.7499V21ZM11.9999 1.5C7.85776 1.5 4.4999 4.85786 4.4999 9C4.39701 11.2112 5.36238 13.3372 7.0949 14.715C7.8449 15.4125 8.2499 15.81 8.2499 16.5H9.7499C9.7499 15.12 8.9174 14.3475 8.1074 13.605C6.68403 12.515 5.89442 10.7897 5.9999 9C5.9999 5.68629 8.68619 3 11.9999 3C15.3136 3 17.9999 5.68629 17.9999 9C18.1036 10.791 17.3111 12.5166 15.8849 13.605C15.0824 14.355 14.2499 15.105 14.2499 16.5H15.7499C15.7499 15.81 16.1474 15.4125 16.9049 14.7075C18.6362 13.3321 19.6016 11.2088 19.4999 9C19.4999 7.01088 18.7097 5.10322 17.3032 3.6967C15.8967 2.29018 13.989 1.5 11.9999 1.5Z" fill="black"/>
</svg>
