<svg width="24" height="24" viewBox="0 0 24 24" fill="none" xmlns="http://www.w3.org/2000/svg">
<path fill-rule="evenodd" clip-rule="evenodd" d="M21 4.5V19.5H3V4.5H21ZM21 3H3C2.17157 3 1.5 3.67157 1.5 4.5V19.5C1.5 20.3284 2.17157 21 3 21H21C21.8284 21 22.5 20.3284 22.5 19.5V4.5C22.5 3.67157 21.8284 3 21 3ZM4.5 7.5H9.75V9H4.5V7.5ZM4.5 10.5H7.5V12H4.5V10.5ZM17.25 13.5H12.75C11.5074 13.5 10.5 14.5074 10.5 15.75V17.25H12V15.75C12 15.3358 12.3358 15 12.75 15H17.25C17.6642 15 18 15.3358 18 15.75V17.25H19.5V15.75C19.5 14.5074 18.4926 13.5 17.25 13.5ZM15 12.75C16.6569 12.75 18 11.4069 18 9.75C18 8.09315 16.6569 6.75 15 6.75C13.3431 6.75 12 8.09315 12 9.75C12 11.4069 13.3431 12.75 15 12.75ZM15 8.25C15.8284 8.25 16.5 8.92157 16.5 9.75C16.5 10.5784 15.8284 11.25 15 11.25C14.1716 11.25 13.5 10.5784 13.5 9.75C13.5 8.92157 14.1716 8.25 15 8.25Z" fill="black"/>
</svg>
