<svg width="24" height="24" viewBox="0 0 24 24" fill="none" xmlns="http://www.w3.org/2000/svg">
<path fill-rule="evenodd" clip-rule="evenodd" d="M12 1.5C6.20101 1.5 1.5 6.20101 1.5 12C1.5 17.799 6.20101 22.5 12 22.5C17.799 22.5 22.5 17.799 22.5 12C22.5 9.21523 21.3938 6.54451 19.4246 4.57538C17.4555 2.60625 14.7848 1.5 12 1.5ZM12 5.25C12.6213 5.25 13.125 5.75368 13.125 6.375C13.125 6.99632 12.6213 7.5 12 7.5C11.3787 7.5 10.875 6.99632 10.875 6.375C10.875 5.75368 11.3787 5.25 12 5.25ZM15 18.09H9V16.41H11.16V11.34H9.75V9.66H12.8475V16.41H15V18.09Z" fill="black"/>
</svg>
