<svg width="24" height="24" viewBox="0 0 24 24" fill="none" xmlns="http://www.w3.org/2000/svg">
<path fill-rule="evenodd" clip-rule="evenodd" d="M12.75 16.5V9.75H9.75V11.25H11.25V16.5H9V18H15V16.5H12.75ZM12 5.25C11.3787 5.25 10.875 5.75368 10.875 6.375C10.875 6.99632 11.3787 7.5 12 7.5C12.6213 7.5 13.125 6.99632 13.125 6.375C13.125 5.75368 12.6213 5.25 12 5.25ZM12 22.5C6.20101 22.5 1.5 17.799 1.5 12C1.5 6.20101 6.20101 1.5 12 1.5C17.799 1.5 22.5 6.20101 22.5 12C22.5 17.799 17.799 22.5 12 22.5ZM12 3C7.02944 3 3 7.02944 3 12C3 16.9706 7.02944 21 12 21C16.9706 21 21 16.9706 21 12C21 7.02944 16.9706 3 12 3Z" fill="black"/>
</svg>
