<svg width="24" height="24" viewBox="0 0 24 24" fill="none" xmlns="http://www.w3.org/2000/svg">
<path fill-rule="evenodd" clip-rule="evenodd" d="M22.41 11.64L17.91 3.39C17.7781 3.14889 17.5248 2.99925 17.25 3H6.74998C6.47514 2.99925 6.22191 3.14889 6.08998 3.39L1.58998 11.64C1.45601 11.8721 1.45601 12.158 1.58998 12.39L6.08998 20.64C6.22961 20.8696 6.48138 21.0069 6.74998 21H17.25C17.5248 21.0008 17.7781 20.8511 17.91 20.61L22.41 12.36C22.5327 12.1357 22.5327 11.8643 22.41 11.64ZM17.1975 5.25L20.49 11.25H13.365L17.1975 5.25ZM12 10.605L8.11498 4.5H15.885L12 10.605ZM6.80248 5.25L10.635 11.25H3.50998L6.80248 5.25ZM3.50998 12.75H10.635L6.80248 18.75L3.50998 12.75ZM12 13.395L15.885 19.5H8.11498L12 13.395ZM17.1975 18.75L13.365 12.75H20.49L17.1975 18.75Z" fill="black"/>
</svg>
