<svg width="24" height="24" viewBox="0 0 24 24" fill="none" xmlns="http://www.w3.org/2000/svg">
<path fill-rule="evenodd" clip-rule="evenodd" d="M14.25 18H17.25V21H14.25V18ZM19.5 18H22.5V21H19.5V18ZM14.25 12.75H17.25V15.75H14.25V12.75ZM19.5 12.75H22.5V15.75H19.5V12.75ZM12.75 18H3V7.5H21V11.25H22.5V7.5C22.4992 6.67192 21.8281 6.00083 21 6H16.5V3C16.4992 2.17192 15.8281 1.50083 15 1.5H9C8.17192 1.50083 7.50083 2.17192 7.5 3V6H3C2.17192 6.00083 1.50083 6.67192 1.5 7.5V18C1.50083 18.8281 2.17192 19.4992 3 19.5H12.75V18ZM9 3H15V6H9V3Z" fill="black"/>
</svg>
