<svg width="24" height="24" viewBox="0 0 24 24" fill="none" xmlns="http://www.w3.org/2000/svg">
<path fill-rule="evenodd" clip-rule="evenodd" d="M18 15.75H15.75C14.9216 15.75 14.25 15.0784 14.25 14.25V9.75C14.25 8.92157 14.9216 8.25 15.75 8.25H18C18.8284 8.25 19.5 8.92157 19.5 9.75V14.25C19.5 15.0784 18.8284 15.75 18 15.75ZM15.75 9.75V14.25H18V9.75H15.75ZM11.25 15.75H7.5V14.25H11.25V12.75H9C8.17157 12.75 7.5 12.0784 7.5 11.25V9.75C7.5 8.92157 8.17157 8.25 9 8.25H12.75V9.75H9V11.25H11.25C12.0784 11.25 12.75 11.9216 12.75 12.75V14.25C12.75 15.0784 12.0784 15.75 11.25 15.75ZM4.5 8.25H6V15.75H4.5V8.25ZM21 4.5H3C2.17157 4.5 1.5 5.17157 1.5 6V18C1.5 18.8284 2.17157 19.5 3 19.5H21C21.8284 19.5 22.5 18.8284 22.5 18V6C22.5 5.17157 21.8284 4.5 21 4.5ZM3 18V6H21V18H3Z" fill="black"/>
</svg>
