<svg width="24" height="24" viewBox="0 0 24 24" fill="none" xmlns="http://www.w3.org/2000/svg">
<path fill-rule="evenodd" clip-rule="evenodd" d="M21 19.5H3C2.17157 19.5 1.5 18.8284 1.5 18V7.5C1.5 6.67157 2.17157 6 3 6H21C21.8284 6 22.5 6.67157 22.5 7.5V18C22.5 18.8284 21.8284 19.5 21 19.5ZM3 7.5V18H21V7.5H3ZM7.5 15H15.75V16.5H7.5V15ZM4.5 9H6V10.5H4.5V9ZM7.5 9H9V10.5H7.5V9ZM10.5 9H12V10.5H10.5V9ZM13.5 9H15V10.5H13.5V9ZM4.5 15H6V16.5H4.5V15ZM4.5 12H6V13.5H4.5V12ZM7.5 12H9V13.5H7.5V12ZM10.5 12H12V13.5H10.5V12ZM16.5 9H19.5V10.5H16.5V9ZM16.5 12H19.5V13.5H16.5V12ZM13.5 12H15V13.5H13.5V12ZM17.25 15H19.5V16.5H17.25V15Z" fill="black"/>
</svg>
