<svg width="24" height="24" viewBox="0 0 24 24" fill="none" xmlns="http://www.w3.org/2000/svg">
<path fill-rule="evenodd" clip-rule="evenodd" d="M17.25 6C17.6642 6 18 5.66421 18 5.25C18 4.83579 17.6642 4.5 17.25 4.5C16.8358 4.5 16.5 4.83579 16.5 5.25C16.5 5.66421 16.8358 6 17.25 6ZM19.5 3V7.5H4.5V3H19.5ZM19.5 1.5H4.5C3.67157 1.5 3 2.17157 3 3V7.5C3 8.32843 3.67157 9 4.5 9H19.5C20.3284 9 21 8.32843 21 7.5V3C21 2.17157 20.3284 1.5 19.5 1.5ZM15.4425 16.0575L12.75 13.3725V22.5H11.25V13.3725L8.5575 16.0575L7.5 15L12 10.5L16.5 15L15.4425 16.0575ZM6 4.5H15V6H6V4.5Z" fill="black"/>
</svg>
