<svg width="24" height="24" viewBox="0 0 24 24" fill="none" xmlns="http://www.w3.org/2000/svg">
<path fill-rule="evenodd" clip-rule="evenodd" d="M17.25 19.5C17.6642 19.5 18 19.1642 18 18.75C18 18.3358 17.6642 18 17.25 18C16.8358 18 16.5 18.3358 16.5 18.75C16.5 19.1642 16.8358 19.5 17.25 19.5ZM19.5 16.5V21H4.5V16.5H19.5ZM19.5 15H4.5C3.67157 15 3 15.6716 3 16.5V21C3 21.8284 3.67157 22.5 4.5 22.5H19.5C20.3284 22.5 21 21.8284 21 21V16.5C21 15.6716 20.3284 15 19.5 15ZM15.4425 3.4425L12.75 6.1275V0H11.25V6.1275L8.5575 3.4425L7.5 4.5L12 9L16.5 4.5L15.4425 3.4425ZM15.4425 7.9425L12 11.37L8.5575 7.9425L7.5 9L12 13.5L16.5 9L15.4425 7.9425ZM6 18H15V19.5H6V18Z" fill="black"/>
</svg>
