<svg width="24" height="24" viewBox="0 0 24 24" fill="none" xmlns="http://www.w3.org/2000/svg">
<path fill-rule="evenodd" clip-rule="evenodd" d="M17.25 17.25H14.25C13.4216 17.25 12.75 16.5784 12.75 15.75V11.25C12.75 10.4216 13.4216 9.75 14.25 9.75H17.25C18.0784 9.75 18.75 10.4216 18.75 11.25V15.75C18.75 16.5784 18.0784 17.25 17.25 17.25ZM14.25 11.25V15.75H17.25V11.25H14.25ZM9.75 17.25H6.75C5.92157 17.25 5.25 16.5784 5.25 15.75V8.25C5.25 7.42157 5.92157 6.75 6.75 6.75H9.75C10.5784 6.75 11.25 7.42157 11.25 8.25V15.75C11.25 16.5784 10.5784 17.25 9.75 17.25ZM6.75 8.25V15.75H9.75V8.25H6.75Z" fill="black"/>
</svg>
