<svg width="24" height="24" viewBox="0 0 24 24" fill="none" xmlns="http://www.w3.org/2000/svg">
<path fill-rule="evenodd" clip-rule="evenodd" d="M17.25 9.75H13.5V11.25H17.25V12.75H14.25C13.4216 12.75 12.75 13.4216 12.75 14.25V15.75C12.75 16.5784 13.4216 17.25 14.25 17.25H18.75V11.25C18.75 10.4216 18.0784 9.75 17.25 9.75ZM17.25 15.75H14.25V14.25H17.25V15.75ZM9.75 6.75H6.75C5.92157 6.75 5.25 7.42157 5.25 8.25V17.25H6.75V13.5H9.75V17.25H11.25V8.25C11.25 7.42157 10.5784 6.75 9.75 6.75ZM6.75 12V8.25H9.75V12H6.75Z" fill="black"/>
</svg>
