<svg width="24" height="24" viewBox="0 0 24 24" fill="none" xmlns="http://www.w3.org/2000/svg">
<path fill-rule="evenodd" clip-rule="evenodd" d="M16.5 17.25H12.75V15.75H16.5V14.25H14.25C13.4216 14.25 12.75 13.5784 12.75 12.75V11.25C12.75 10.4216 13.4216 9.75 14.25 9.75H18V11.25H14.25V12.75H16.5C17.3284 12.75 18 13.4216 18 14.25V15.75C18 16.5784 17.3284 17.25 16.5 17.25ZM9.75 17.25H5.25V15.75H9.75V12.75H6.75C5.92157 12.75 5.25 12.0784 5.25 11.25V8.25C5.25 7.42157 5.92157 6.75 6.75 6.75H11.25V8.25H6.75V11.25H9.75C10.5784 11.25 11.25 11.9216 11.25 12.75V15.75C11.25 16.5784 10.5784 17.25 9.75 17.25Z" fill="black"/>
</svg>
