<svg width="24" height="24" viewBox="0 0 24 24" fill="none" xmlns="http://www.w3.org/2000/svg">
<path fill-rule="evenodd" clip-rule="evenodd" d="M18.2249 9.75L17.5424 16.2075L16.4999 9.75H14.9999L13.9574 16.2075L13.2749 9.75H11.9999L13.0199 17.25H14.7299L15.7499 10.9725L16.7699 17.25H18.4799L19.4999 9.75H18.2249ZM9.15745 6.75L8.90245 12.75L8.70745 16.155L8.39995 13.5L7.88995 9.405H6.37495L5.86495 13.5L5.55745 16.155L5.36995 12.75L5.10745 6.75H3.75745L4.50745 17.25H6.20995L6.77995 13.5525L7.12495 10.5L7.13245 10.4775L7.13995 10.5L7.48495 13.5525L8.05495 17.25H9.75745L10.5074 6.75H9.15745Z" fill="black"/>
</svg>
