<svg width="24" height="24" viewBox="0 0 24 24" fill="none" xmlns="http://www.w3.org/2000/svg">
<path fill-rule="evenodd" clip-rule="evenodd" d="M14.25 9.75C13.4216 9.75 12.75 10.4216 12.75 11.25V15.75C12.75 16.5784 13.4216 17.25 14.25 17.25H17.25V18.75H13.5V20.25H17.25C18.0784 20.25 18.75 19.5784 18.75 18.75V9.75H14.25ZM17.25 15.75H14.25V11.25H17.25V15.75ZM11.25 17.25H6.75C5.92157 17.25 5.25 16.5784 5.25 15.75V8.25C5.25 7.42157 5.92157 6.75 6.75 6.75H11.25V8.25H6.75V15.75H9.75V12.75H8.25V11.25H11.25V17.25Z" fill="black"/>
</svg>
