<svg width="24" height="24" viewBox="0 0 24 24" fill="none" xmlns="http://www.w3.org/2000/svg">
<path fill-rule="evenodd" clip-rule="evenodd" d="M17.25 9.75H14.25V6.75H12.75V17.25H17.25C18.0784 17.25 18.75 16.5784 18.75 15.75V11.25C18.75 10.4216 18.0784 9.75 17.25 9.75ZM14.25 15.75V11.25H17.25V15.75H14.25ZM11.25 9C11.25 7.75736 10.2426 6.75 9 6.75H5.25V17.25H9C10.2426 17.25 11.25 16.2426 11.25 15V13.5C11.2467 12.945 11.0383 12.4107 10.665 12C11.0383 11.5893 11.2467 11.055 11.25 10.5V9ZM6.75 8.25H9C9.41421 8.25 9.75 8.58579 9.75 9V10.5C9.75 10.9142 9.41421 11.25 9 11.25H6.75V8.25ZM9.75 15C9.75 15.4142 9.41421 15.75 9 15.75H6.75V12.75H9C9.41421 12.75 9.75 13.0858 9.75 13.5V15Z" fill="black"/>
</svg>
