<svg width="24" height="24" viewBox="0 0 24 24" fill="none" xmlns="http://www.w3.org/2000/svg">
<path fill-rule="evenodd" clip-rule="evenodd" d="M14.25 9.75C13.4216 9.75 12.75 10.4216 12.75 11.25V15.75C12.75 16.5784 13.4216 17.25 14.25 17.25H17.25V20.25H18.75V9.75H14.25ZM17.25 15.75H14.25V11.25H17.25V15.75ZM9.75 6.75H6.75C5.92157 6.75 5.25 7.42157 5.25 8.25V15.75C5.25 16.5784 5.92157 17.25 6.75 17.25H7.5V18.75C7.5 19.5784 8.17157 20.25 9 20.25H10.5V18.75H9V17.25H9.75C10.5784 17.25 11.25 16.5784 11.25 15.75V8.25C11.25 7.42157 10.5784 6.75 9.75 6.75ZM6.75 15.75V8.25H9.75V15.75H6.75Z" fill="black"/>
</svg>
