<svg width="24" height="24" viewBox="0 0 24 24" fill="none" xmlns="http://www.w3.org/2000/svg">
<path fill-rule="evenodd" clip-rule="evenodd" d="M17.25 6.75V9.75H14.25C13.4216 9.75 12.75 10.4216 12.75 11.25V15.75C12.75 16.5784 13.4216 17.25 14.25 17.25H18.75V6.75H17.25ZM14.25 11.25H17.25V15.75H14.25V11.25ZM8.25 17.25H5.25V6.75H8.25C9.90685 6.75 11.25 8.09315 11.25 9.75V14.25C11.25 15.9069 9.90685 17.25 8.25 17.25ZM6.75 15.75H8.25C9.07843 15.75 9.75 15.0784 9.75 14.25V9.75C9.75 8.92157 9.07843 8.25 8.25 8.25H6.75V15.75Z" fill="black"/>
</svg>
