<svg width="24" height="24" viewBox="0 0 24 24" fill="none" xmlns="http://www.w3.org/2000/svg">
<path fill-rule="evenodd" clip-rule="evenodd" d="M11.25 1.5H12.75V5.22H11.25V1.5ZM16.2653 6.6675L18.8955 4.038L19.956 5.0985L17.3258 7.72875L16.2653 6.6675ZM18.78 11.25H22.5V12.75H18.78V11.25ZM16.2697 17.328L17.3302 16.2675L19.9605 18.8978L18.9 19.9575L16.2697 17.328ZM11.25 18.78H12.75V22.5H11.25V18.78ZM4.047 18.9015L6.678 16.2712L7.7385 17.3317L5.10825 19.962L4.047 18.9015ZM1.5 11.25H5.22V12.75H1.5V11.25ZM4.0425 5.10225L5.10375 4.04175L7.734 6.672L6.6735 7.7325L4.0425 5.10225ZM12 9C13.6569 9 15 10.3431 15 12C15 13.6569 13.6569 15 12 15C10.3431 15 9 13.6569 9 12C9 10.3431 10.3431 9 12 9ZM12 7.5C9.51472 7.5 7.5 9.51472 7.5 12C7.5 14.4853 9.51472 16.5 12 16.5C14.4853 16.5 16.5 14.4853 16.5 12C16.5 9.51472 14.4853 7.5 12 7.5Z" fill="black"/>
</svg>
