<svg width="24" height="24" viewBox="0 0 24 24" fill="none" xmlns="http://www.w3.org/2000/svg">
<path fill-rule="evenodd" clip-rule="evenodd" d="M12 7.50003C13.2426 7.50003 14.25 8.50739 14.25 9.75003C14.25 10.9927 13.2426 12 12 12C10.7574 12 9.75 10.9927 9.75 9.75003C9.75 8.50739 10.7574 7.50003 12 7.50003ZM12 6.00003C9.92893 6.00003 8.25 7.67896 8.25 9.75003C8.25 11.8211 9.92893 13.5 12 13.5C14.0711 13.5 15.75 11.8211 15.75 9.75003C15.75 7.67896 14.0711 6.00003 12 6.00003ZM12 3.00003C15.6639 2.94985 18.6802 5.8689 18.75 9.53253C18.7504 10.9482 18.2779 12.3235 17.4075 13.44L12 21.345L6.6375 13.5C5.73821 12.3733 5.24891 10.9742 5.25 9.53253C5.31981 5.8689 8.33605 2.94985 12 3.00003ZM12 1.50003C7.50438 1.44165 3.81172 5.03696 3.75 9.53253C3.7519 11.2782 4.33213 12.9741 5.4 14.355L12 24L18.6 14.355C19.6679 12.9741 20.2481 11.2782 20.25 9.53253C20.1883 5.03696 16.4956 1.44165 12 1.50003Z" fill="black"/>
</svg>
