<svg width="24" height="24" viewBox="0 0 24 24" fill="none" xmlns="http://www.w3.org/2000/svg">
<path fill-rule="evenodd" clip-rule="evenodd" d="M19.6575 2.99996H4.3425C3.61669 2.9956 3.02038 3.57193 3 4.29746V19.65C3.01639 20.3773 3.61508 20.9559 4.3425 20.9475H19.6575C20.3849 20.9559 20.9836 20.3773 21 19.65V4.29746C20.9796 3.57193 20.3833 2.9956 19.6575 2.99996ZM8.3325 18.3075H5.6925V9.74996H8.3325V18.3075ZM7.0425 8.55746C6.19951 8.55771 5.51036 7.88521 5.49 7.04246C5.47516 6.62634 5.63396 6.22278 5.92839 5.92835C6.22282 5.63392 6.62638 5.47513 7.0425 5.48996C7.8561 5.54662 8.48716 6.22314 8.48716 7.03871C8.48716 7.85428 7.8561 8.53081 7.0425 8.58746V8.55746ZM18.36 18.255H15.75V14.07C15.75 13.0725 15.75 11.775 14.355 11.775C12.96 11.775 12.75 12.87 12.75 13.9725V18.21H10.08V9.74996H12.57V10.875H12.6225C13.1428 9.97143 14.1234 9.43337 15.165 9.47996C17.8575 9.47996 18.36 11.28 18.36 13.5675V18.255Z" fill="black"/>
</svg>
