<svg width="24" height="24" viewBox="0 0 24 24" fill="none" xmlns="http://www.w3.org/2000/svg">
<path fill-rule="evenodd" clip-rule="evenodd" d="M4.86 5.70001V8.64001H1.5V15.75H6.96V5.70001H4.86ZM4.86 14.1H3.6V10.35H4.86V14.1ZM7.8 8.64001H9.9V15.78H7.8V8.64001ZM7.8 5.70001H9.9V7.80001H7.8V5.70001ZM10.74 8.64001V15.75H14.1V16.59H10.74V18.3H16.2V8.64001H10.74ZM14.1 14.1H12.84V10.35H14.1V14.1ZM17.04 8.64001V15.75H20.4V16.59H17.04V18.3H22.5V8.64001H17.04ZM20.4 14.1H19.14V10.35H20.4V14.1Z" fill="black"/>
</svg>
