<svg width="24" height="24" viewBox="0 0 24 24" fill="none" xmlns="http://www.w3.org/2000/svg">
<path fill-rule="evenodd" clip-rule="evenodd" d="M21.75 17.895H20.25C20.25 18.2384 20.1131 18.5677 19.8695 18.8098C19.626 19.052 19.2959 19.187 18.9525 19.185C18.09 19.185 17.5875 18.54 17.0175 17.685C19.2702 16.1443 20.6151 13.5892 20.61 10.86C20.6775 5.4675 16.2225 1.9425 11.4825 1.9425C6.7425 1.9425 2.25 5.5275 2.25 10.7775C2.25 16.0275 6.75 19.62 11.3775 19.62C12.1584 19.6126 12.9341 19.4913 13.68 19.26C14.5425 20.8425 15.6225 22.065 17.775 22.065C18.8853 22.1391 19.9711 21.7162 20.7389 20.9107C21.5067 20.1053 21.8771 19.0005 21.75 17.895ZM15.645 15.3075C14.7879 13.8195 13.192 12.9124 11.475 12.9375C10.4699 12.9035 9.48235 13.2071 8.67 13.8L9.15 15C9.35918 14.9386 9.5773 14.9132 9.795 14.925C11.16 14.925 12.045 16.0725 12.885 17.655C12.4155 17.763 11.9341 17.8109 11.4525 17.7975C8.145 17.82 6.75 15.45 6.75 10.8525C6.75 6.255 8.1825 3.8775 11.4225 3.8775C14.6625 3.8775 16.1625 6.2475 16.1625 10.8525C16.1994 12.3558 16.0175 13.8565 15.6225 15.3075H15.645Z" fill="black"/>
</svg>
