<svg width="24" height="24" viewBox="0 0 24 24" fill="none" xmlns="http://www.w3.org/2000/svg">
<path fill-rule="evenodd" clip-rule="evenodd" d="M12 1.5C6.20101 1.5 1.5 6.20101 1.5 12C1.5 17.799 6.20101 22.5 12 22.5C17.799 22.5 22.5 17.799 22.5 12C22.5 9.21523 21.3938 6.54451 19.4246 4.57538C17.4555 2.60625 14.7848 1.5 12 1.5ZM11.9325 9.3375C11.5846 9.3375 11.3025 9.61956 11.3025 9.9675V13.8225C11.3025 15.293 10.1105 16.485 8.64 16.485C7.16954 16.485 5.9775 15.293 5.9775 13.8225V12.0675H8.01V13.7475C8.01 14.0954 8.29206 14.3775 8.64 14.3775C8.98794 14.3775 9.27 14.0954 9.27 13.7475V9.9975C9.3451 8.58393 10.5132 7.47626 11.9288 7.47626C13.3443 7.47626 14.5124 8.58393 14.5875 9.9975V10.7475L13.4025 11.13L12.5625 10.7475V9.9975C12.5686 9.82586 12.5051 9.65902 12.3865 9.53478C12.2679 9.41054 12.1042 9.33941 11.9325 9.3375ZM17.88 13.8375C17.8049 15.2511 16.6368 16.3587 15.2213 16.3587C13.8057 16.3587 12.6376 15.2511 12.5625 13.8375V12.105L13.4025 12.4875L14.5875 12.105V13.8225C14.5875 14.1704 14.8696 14.4525 15.2175 14.4525C15.5654 14.4525 15.8475 14.1704 15.8475 13.8225V12.1425H17.88V13.8375Z" fill="black"/>
</svg>
