<svg width="24" height="24" viewBox="0 0 24 24" fill="none" xmlns="http://www.w3.org/2000/svg">
<path fill-rule="evenodd" clip-rule="evenodd" d="M20.9325 13.41C21.0081 12.9438 21.0457 12.4723 21.045 12C21.045 9.60113 20.0921 7.3005 18.3958 5.60423C16.6995 3.90796 14.3989 2.95501 12 2.95501C11.5277 2.95428 11.0562 2.9919 10.59 3.06751C8.439 1.77901 5.68725 2.11877 3.91426 3.89177C2.14126 5.66476 1.8015 8.41651 3.09 10.5675C3.00563 11.0405 2.96048 11.5196 2.955 12C2.955 16.9954 7.00459 21.045 12 21.045C12.4723 21.0457 12.9438 21.0081 13.41 20.9325C15.561 22.221 18.3128 21.8813 20.0857 20.1083C21.8587 18.3353 22.1985 15.5835 20.91 13.4325L20.9325 13.41ZM16.2975 16.11C15.8742 16.6953 15.2908 17.1458 14.6175 17.4075C13.7868 17.7335 12.8997 17.8916 12.0075 17.8725C10.969 17.916 9.9359 17.7021 9 17.25C8.45437 16.9567 7.98646 16.5376 7.635 16.0275C7.31307 15.5917 7.1301 15.0689 7.11 14.5275C7.1084 14.2435 7.22528 13.9717 7.4325 13.7775C7.65967 13.5842 7.95209 13.4849 8.25 13.5C8.49897 13.4953 8.74128 13.5805 8.9325 13.74C9.14182 13.9358 9.30346 14.177 9.405 14.445C9.53512 14.7582 9.70124 15.0552 9.9 15.33C10.0981 15.5837 10.3557 15.7846 10.65 15.915C11.0497 16.0865 11.4829 16.166 11.9175 16.1475C12.5365 16.1775 13.1496 16.0151 13.6725 15.6825C14.0807 15.4434 14.3339 15.008 14.34 14.535C14.3531 14.2056 14.2248 13.8863 13.9875 13.6575C13.7204 13.4115 13.3993 13.2317 13.05 13.1325C12.66 13.005 12.1425 12.8775 11.49 12.735C10.7406 12.5605 10.0098 12.3144 9.3075 12C8.75492 11.7735 8.26767 11.4126 7.89 10.95C7.5318 10.4732 7.34664 9.88861 7.365 9.29251C7.35895 8.68652 7.55414 8.09564 7.92 7.61251C8.33789 7.09332 8.89441 6.70324 9.525 6.48751C10.3224 6.22267 11.1602 6.1008 12 6.12751C12.6571 6.11589 13.3121 6.20441 13.9425 6.39001C14.4373 6.53692 14.902 6.77055 15.315 7.08001C15.64 7.32414 15.9108 7.63318 16.11 7.98751C16.2721 8.27374 16.3598 8.59609 16.365 8.92501C16.3631 9.20828 16.2468 9.47875 16.0425 9.67501C15.8361 9.89867 15.5443 10.0241 15.24 10.02C14.9987 10.0388 14.7596 9.96354 14.5725 9.81001C14.3757 9.62039 14.211 9.40001 14.085 9.15751C13.8993 8.77526 13.6302 8.43952 13.2975 8.17501C12.861 7.90288 12.3471 7.78167 11.835 7.83001C11.3093 7.80785 10.7884 7.93808 10.335 8.20501C9.99997 8.38391 9.78353 8.72565 9.765 9.10501C9.75907 9.30878 9.82549 9.50806 9.9525 9.66751C10.1021 9.84083 10.2859 9.98128 10.4925 10.08C10.7125 10.1938 10.9437 10.2843 11.1825 10.35C11.4225 10.4175 11.8125 10.515 12.36 10.6425C13.05 10.7925 13.665 10.9575 14.2275 11.1375C14.7306 11.2908 15.2102 11.5129 15.6525 11.7975C16.0383 12.0415 16.3558 12.3796 16.575 12.78C16.7979 13.2367 16.9011 13.7425 16.875 14.25C16.8818 14.9152 16.6798 15.5657 16.2975 16.11Z" fill="black"/>
</svg>
