<svg width="24" height="24" viewBox="0 0 24 24" fill="none" xmlns="http://www.w3.org/2000/svg">
<path fill-rule="evenodd" clip-rule="evenodd" d="M22.0576 6.94499C21.8144 6.04146 21.1086 5.3357 20.2051 5.09249C18.5701 4.64999 12.0001 4.64999 12.0001 4.64999C12.0001 4.64999 5.43008 4.64999 3.79508 5.09249C2.89154 5.3357 2.18578 6.04146 1.94258 6.94499C1.63729 8.61244 1.48914 10.3049 1.50008 12C1.48914 13.6951 1.63729 15.3875 1.94258 17.055C2.18578 17.9585 2.89154 18.6643 3.79508 18.9075C5.43008 19.35 12.0001 19.35 12.0001 19.35C12.0001 19.35 18.5701 19.35 20.2051 18.9075C21.1086 18.6643 21.8144 17.9585 22.0576 17.055C22.3629 15.3875 22.511 13.6951 22.5001 12C22.511 10.3049 22.3629 8.61244 22.0576 6.94499ZM9.90008 15.15V8.84999L15.3526 12L9.90008 15.15Z" fill="black"/>
</svg>
