<svg width="24" height="24" viewBox="0 0 24 24" fill="none" xmlns="http://www.w3.org/2000/svg">
<path fill-rule="evenodd" clip-rule="evenodd" d="M22.5 6.42C22.5011 6.04284 22.4685 5.66634 22.4025 5.295C22.3261 4.84105 22.182 4.40114 21.975 3.99C21.74 3.55407 21.4361 3.15898 21.075 2.82C20.5417 2.30283 19.8865 1.92876 19.17 1.7325C18.5101 1.56955 17.8322 1.49142 17.1525 1.5H6.84751C6.46501 1.5 6.09751 1.5 5.69251 1.5525C5.2711 1.59946 4.85612 1.69252 4.45501 1.83C3.83461 2.06742 3.27574 2.44171 2.82001 2.925C2.29635 3.45752 1.91916 4.11631 1.72501 4.8375C1.56027 5.49183 1.48458 6.16541 1.50001 6.84V17.1675C1.5057 17.634 1.53825 18.0998 1.59751 18.5625C1.66654 19.0541 1.81073 19.5322 2.02501 19.98C2.32976 20.5665 2.75995 21.0786 3.28501 21.48C3.66324 21.7833 4.09243 22.017 4.55251 22.17C5.22513 22.3777 5.9261 22.4789 6.63001 22.47H17.5575C17.9807 22.4622 18.4023 22.417 18.8175 22.335C19.6007 22.1962 20.3302 21.8432 20.925 21.315C21.6238 20.7067 22.1121 19.8928 22.32 18.99C22.446 18.3908 22.5063 17.7797 22.5 17.1675V6.42ZM19.6875 16.17C19.5525 16.485 18.8775 16.7475 17.73 16.92C17.6175 16.92 17.5725 17.115 17.5125 17.4C17.4896 17.5192 17.4595 17.6369 17.4225 17.7525C17.4035 17.8596 17.3059 17.9344 17.1975 17.925C17.0862 17.9214 16.9757 17.9063 16.8675 17.88C16.3744 17.7724 15.8654 17.7597 15.3675 17.8425C14.9341 17.9533 14.5315 18.161 14.19 18.45C13.6094 18.943 12.8809 19.228 12.12 19.26H11.925C11.1641 19.228 10.4356 18.943 9.85501 18.45C9.5105 18.1613 9.10553 17.9537 8.67001 17.8425C8.46647 17.8107 8.26098 17.7932 8.05501 17.79C7.76504 17.7946 7.47619 17.8273 7.19251 17.8875C7.08444 17.9143 6.9738 17.9294 6.86251 17.9325C6.74797 17.947 6.64103 17.8725 6.61501 17.76C6.5804 17.6417 6.55286 17.5215 6.53251 17.4C6.46501 17.115 6.42001 16.9425 6.31501 16.9275C5.16751 16.7475 4.48501 16.485 4.35001 16.1775C4.34312 16.1454 4.34312 16.1121 4.35001 16.08C4.34085 15.9856 4.40646 15.9004 4.50001 15.885C5.45126 15.7139 6.30881 15.2053 6.91501 14.4525C7.24794 14.0652 7.52558 13.6336 7.74001 13.17C7.86978 12.9641 7.90007 12.7107 7.82251 12.48C7.67251 12.1275 7.18501 11.9775 6.85501 11.8725L6.63751 11.7975C6.35251 11.685 5.88751 11.445 5.94001 11.115C6.03769 10.8549 6.29256 10.688 6.57001 10.7025C6.63194 10.6906 6.69558 10.6906 6.75751 10.7025C6.99069 10.8226 7.24586 10.8941 7.50751 10.9125C7.66986 10.9214 7.82987 10.8707 7.95751 10.77V10.3125C7.79184 9.27616 7.84034 8.21686 8.10001 7.2C8.75103 5.71448 10.2282 4.76316 11.85 4.785H12.1575C13.7793 4.76316 15.2565 5.71448 15.9075 7.2C16.1737 8.21258 16.2374 9.26774 16.095 10.305V10.7625C16.2096 10.8544 16.3532 10.9023 16.5 10.8975C16.7612 10.882 17.0165 10.8131 17.25 10.695C17.3263 10.6645 17.4078 10.6492 17.49 10.65C17.5852 10.6477 17.6797 10.6656 17.7675 10.7025C17.9684 10.752 18.1195 10.9179 18.15 11.1225C18.15 11.28 18.03 11.52 17.445 11.7525L17.2275 11.8275C16.905 11.9325 16.41 12.0825 16.2675 12.435C16.1909 12.6649 16.2183 12.9169 16.3425 13.125C16.38 13.2225 17.37 15.4725 19.575 15.84C19.6679 15.8582 19.7343 15.9404 19.7325 16.035C19.7146 16.0727 19.6919 16.108 19.665 16.14L19.6875 16.17Z" fill="black"/>
</svg>
