<svg width="24" height="24" viewBox="0 0 24 24" fill="none" xmlns="http://www.w3.org/2000/svg">
<path fill-rule="evenodd" clip-rule="evenodd" d="M12 1.5C6.85121 1.5007 2.46251 5.23471 1.63721 10.317C0.811902 15.3992 3.79351 20.3301 8.67753 21.96C9.20253 22.0575 9.42753 21.735 9.42753 21.4575V19.6725C6.51003 20.3025 5.89503 18.2625 5.89503 18.2625C5.68987 17.6196 5.25807 17.0732 4.68003 16.725C3.72753 16.08 4.75503 16.0875 4.75503 16.0875C5.42924 16.1827 6.02164 16.5841 6.36003 17.175C6.96497 18.26 8.33475 18.6495 9.42003 18.045C9.46237 17.5129 9.69698 17.0143 10.08 16.6425C7.75503 16.3725 5.30253 15.4725 5.30253 11.4525C5.28552 10.4084 5.67245 9.39812 6.38253 8.6325C6.06112 7.72815 6.0987 6.73498 6.48753 5.8575C6.48753 5.8575 7.36503 5.5725 9.37503 6.93C11.0936 6.46121 12.9064 6.46121 14.625 6.93C16.6275 5.5725 17.505 5.8575 17.505 5.8575C17.8939 6.73498 17.9314 7.72815 17.61 8.6325C18.3201 9.39812 18.707 10.4084 18.69 11.4525C18.69 15.4875 16.2375 16.3725 13.8975 16.635C14.4047 17.149 14.6645 17.8574 14.61 18.5775V21.4575C14.61 21.8025 14.7975 22.065 15.36 21.96C20.2509 20.3279 23.2331 15.3862 22.3975 10.2984C21.562 5.21056 17.156 1.48219 12 1.5Z" fill="black"/>
</svg>
