<svg width="24" height="24" viewBox="0 0 24 24" fill="none" xmlns="http://www.w3.org/2000/svg">
<path fill-rule="evenodd" clip-rule="evenodd" d="M8.56496 6.2175C8.41984 5.87679 8.08775 5.65343 7.71746 5.6475H4.71746C4.5575 5.63842 4.4033 5.70852 4.30496 5.835C4.22341 5.97928 4.22341 6.15573 4.30496 6.3L6.35246 9.8475L3.12746 15.54C3.04117 15.683 3.04117 15.862 3.12746 16.005C3.20942 16.1409 3.35889 16.2214 3.51746 16.215H6.51746C6.88503 16.2035 7.21001 15.9731 7.34246 15.63L10.6125 9.8475L8.56496 6.2175ZM20.8725 2.16C20.9511 2.01499 20.9511 1.84002 20.8725 1.695C20.7823 1.56595 20.6322 1.49229 20.475 1.5H17.415C17.0528 1.51023 16.7327 1.73843 16.605 2.0775C16.605 2.0775 10.08 13.65 9.85496 14.025L14.16 21.9225C14.3032 22.2625 14.6312 22.488 15 22.5H18C18.1604 22.5135 18.3155 22.4388 18.405 22.305C18.488 22.1611 18.488 21.9839 18.405 21.84L14.1375 14.04L20.8725 2.16Z" fill="black"/>
</svg>
