<svg width="24" height="24" viewBox="0 0 24 24" fill="none" xmlns="http://www.w3.org/2000/svg">
<path fill-rule="evenodd" clip-rule="evenodd" d="M6.78152 14.3745C6.78152 15.1393 6.32077 15.8288 5.61415 16.1214C4.90754 16.414 4.09423 16.2521 3.55354 15.7112C3.01285 15.1703 2.85127 14.3569 3.14416 13.6504C3.43705 12.9439 4.12671 12.4834 4.89152 12.4837H6.78152V14.3745ZM7.73477 14.3745C7.73477 13.3303 8.58128 12.4837 9.62552 12.4837C10.6697 12.4837 11.5163 13.3303 11.5163 14.3745V19.1092C11.5163 20.1535 10.6697 21 9.62552 21C8.58128 21 7.73477 20.1535 7.73477 19.1092V14.3745ZM9.62552 6.78149C8.86071 6.78149 8.17123 6.32074 7.87862 5.61412C7.58601 4.90751 7.74791 4.0942 8.28882 3.55351C8.82973 3.01282 9.6431 2.85124 10.3496 3.14413C11.0561 3.43702 11.5166 4.12668 11.5163 4.89149V6.78149H9.62552ZM9.62552 7.73474C10.6697 7.73474 11.5163 8.58125 11.5163 9.62549C11.5163 10.6697 10.6697 11.5162 9.62552 11.5162H4.89002C3.84579 11.5162 2.99927 10.6697 2.99927 9.62549C2.99927 8.58125 3.84579 7.73474 4.89002 7.73474H9.62552ZM17.2185 9.62549C17.2185 8.86068 17.6793 8.1712 18.3859 7.87859C19.0925 7.58598 19.9058 7.74788 20.4465 8.28879C20.9872 8.8297 21.1488 9.64306 20.8559 10.3496C20.563 11.0561 19.8733 11.5165 19.1085 11.5162H17.2185V9.62549ZM16.2653 9.62549C16.2653 10.6697 15.4187 11.5162 14.3745 11.5162C13.3303 11.5162 12.4838 10.6697 12.4838 9.62549V4.88999C12.4838 3.84575 13.3303 2.99924 14.3745 2.99924C15.4187 2.99924 16.2653 3.84575 16.2653 4.88999V9.62549ZM14.3745 17.2185C15.1393 17.2185 15.8288 17.6792 16.1214 18.3859C16.414 19.0925 16.2521 19.9058 15.7112 20.4465C15.1703 20.9872 14.3569 21.1487 13.6504 20.8558C12.9439 20.563 12.4835 19.8733 12.4838 19.1085V17.2185H14.3745ZM14.3745 16.2652C13.3303 16.2652 12.4838 15.4187 12.4838 14.3745C12.4838 13.3303 13.3303 12.4837 14.3745 12.4837H19.1093C20.1535 12.4837 21 13.3303 21 14.3745C21 15.4187 20.1535 16.2652 19.1093 16.2652H14.3745Z" fill="black"/>
</svg>
