<svg width="24" height="24" viewBox="0 0 24 24" fill="none" xmlns="http://www.w3.org/2000/svg">
<path fill-rule="evenodd" clip-rule="evenodd" d="M12.0001 1.5C6.97963 1.53419 2.68585 5.11759 1.754 10.0509C0.822159 14.9842 3.51301 19.8869 8.17505 21.75C8.02312 20.7558 8.02312 19.7442 8.17505 18.75L9.41255 13.5C9.21671 13.0245 9.11974 12.5142 9.12755 12C9.12755 10.545 9.97505 9.45 11.0251 9.45C11.41 9.44421 11.7783 9.60675 12.0334 9.89504C12.2885 10.1833 12.4051 10.5686 12.3526 10.95C12.3526 11.85 11.7826 13.2 11.4826 14.445C11.3515 14.9162 11.4584 15.4217 11.769 15.7995C12.0796 16.1773 12.5549 16.3799 13.0426 16.3425C14.9026 16.3425 16.3426 14.37 16.3426 11.535C16.3804 10.3702 15.9264 9.24318 15.0916 8.42986C14.2569 7.61654 13.1185 7.19195 11.9551 7.26C10.7136 7.20668 9.50448 7.66395 8.609 8.52542C7.71353 9.38689 7.20981 10.5774 7.21505 11.82C7.20671 12.6766 7.4692 13.5139 7.96505 14.2125C8.03826 14.2939 8.06635 14.4062 8.04005 14.5125C7.95755 14.8425 7.77755 15.5625 7.74755 15.705C7.71755 15.8475 7.59005 15.9375 7.39505 15.8475C6.08255 15.2325 5.26505 13.32 5.26505 11.775C5.26505 8.4675 7.67255 5.4225 12.2026 5.4225C15.8401 5.4225 18.6751 8.0175 18.6751 11.49C18.6751 15.105 16.4251 18.015 13.2226 18.015C12.2687 18.0482 11.3628 17.5966 10.8151 16.815L10.1626 19.3125C9.84976 20.2831 9.41102 21.2085 8.85755 22.065C9.87739 22.3664 10.9367 22.513 12.0001 22.5C17.799 22.5 22.5001 17.799 22.5001 12C22.5001 6.20101 17.799 1.5 12.0001 1.5Z" fill="black"/>
</svg>
