<svg width="24" height="24" viewBox="0 0 24 24" fill="none" xmlns="http://www.w3.org/2000/svg">
<path fill-rule="evenodd" clip-rule="evenodd" d="M8.94 18.705C11.4989 18.7211 13.9577 17.7117 15.7672 15.9022C17.5767 14.0927 18.5861 11.6339 18.57 9.07501V8.63251C19.2267 8.15138 19.7951 7.56014 20.25 6.88501C19.6316 7.15546 18.9773 7.33482 18.3075 7.41751C19.0177 6.99434 19.5506 6.32826 19.8075 5.54251C19.1456 5.93959 18.4199 6.21874 17.6625 6.36751C16.6139 5.25018 14.9461 4.9752 13.5943 5.69675C12.2425 6.4183 11.5428 7.95696 11.8875 9.45001C9.16635 9.31644 6.63036 8.03209 4.9125 5.91751C4.02372 7.46009 4.4828 9.42757 5.9625 10.4175C5.43646 10.3972 4.92259 10.2533 4.4625 9.99751V10.035C4.45287 11.6358 5.56204 13.0262 7.125 13.3725C6.63573 13.5041 6.12322 13.5246 5.625 13.4325C6.07495 14.7901 7.33014 15.718 8.76 15.75C7.56691 16.7104 6.08407 17.239 4.5525 17.25C4.28396 17.2422 4.01606 17.2197 3.75 17.1825C5.30022 18.1702 7.1019 18.6909 8.94 18.6825" fill="black"/>
</svg>
