<svg width="24" height="24" viewBox="0 0 24 24" fill="none" xmlns="http://www.w3.org/2000/svg">
<path fill-rule="evenodd" clip-rule="evenodd" d="M16.8675 17.7825H11.2125C10.5294 17.8085 9.86902 17.5345 9.405 17.0325C8.62536 16.1792 7.98273 15.2102 7.5 14.16C6.525 12.21 5.595 10.245 4.635 8.29501C4.3425 7.69501 4.02 7.12501 3.675 6.55501C3.18211 5.58372 2.42912 4.76841 1.5 4.20001H4.1775C5.93666 4.21734 7.69186 4.3703 9.4275 4.65751C11.5833 4.98329 13.3985 6.44063 14.1825 8.47501C14.8699 10.2692 15.4141 12.1149 15.81 13.995C16.034 15.2899 16.3883 16.5589 16.8675 17.7825ZM21.075 19.785C19.9963 19.7201 19.125 18.8805 19.02 17.805C18.9136 16.5831 18.8786 15.356 18.915 14.13C18.9131 12.2259 18.7601 10.3249 18.4575 8.44501C18.402 7.89468 18.1855 7.37292 17.835 6.94501H19.8225C20.2275 6.94501 20.37 7.22251 20.49 7.53001C20.7705 8.31282 20.9421 9.13047 21 9.96001C21.2175 12 21.2325 14.0475 21.2475 16.095C21.2324 16.3823 21.2324 16.6702 21.2475 16.9575C21.315 17.5425 21.5475 17.7825 22.125 17.7675C22.5 17.7675 22.5 17.7225 22.5 17.7225V19.74C22.0281 19.8075 21.5502 19.8226 21.075 19.785Z" fill="black"/>
</svg>
