<svg width="24" height="24" viewBox="0 0 24 24" fill="none" xmlns="http://www.w3.org/2000/svg">
<path fill-rule="evenodd" clip-rule="evenodd" d="M20.5424 10.365H12.1574V13.8375H16.9874C16.5374 16.05 14.6549 17.3175 12.1574 17.3175C9.22062 17.3175 6.83989 14.9368 6.83989 12C6.83989 9.06322 9.22062 6.68249 12.1574 6.68249C13.3658 6.68419 14.5367 7.10274 15.4724 7.86749L18.0899 5.24999C15.0852 2.60015 10.6908 2.25536 7.30962 4.40418C3.92846 6.553 2.3747 10.678 3.498 14.5235C4.6213 18.369 8.1512 21.0091 12.1574 21C16.6574 21 20.7449 17.73 20.7449 12C20.7404 11.449 20.6725 10.9004 20.5424 10.365Z" fill="black"/>
</svg>
