<svg width="24" height="24" viewBox="0 0 24 24" fill="none" xmlns="http://www.w3.org/2000/svg">
<path fill-rule="evenodd" clip-rule="evenodd" d="M15.75 21H8.25C7.42158 21 6.75 20.3284 6.75 19.5V12H3C2.69723 11.9985 2.42506 11.8151 2.31 11.535C2.19256 11.2557 2.25469 10.9332 2.4675 10.7175L11.4675 1.71752C11.6083 1.57553 11.8 1.49567 12 1.49567C12.2 1.49567 12.3917 1.57553 12.5325 1.71752L21.5325 10.7175C21.7453 10.9332 21.8074 11.2557 21.69 11.535C21.5749 11.8151 21.3028 11.9985 21 12H17.25V19.5C17.25 20.3284 16.5784 21 15.75 21ZM4.8075 10.5H7.5C7.91422 10.5 8.25 10.8358 8.25 11.25V19.5H15.75V11.25C15.75 10.8358 16.0858 10.5 16.5 10.5H19.1925L12 3.30752L4.8075 10.5Z" fill="black"/>
</svg>
