<svg width="24" height="24" viewBox="0 0 24 24" fill="none" xmlns="http://www.w3.org/2000/svg">
<path fill-rule="evenodd" clip-rule="evenodd" d="M9 15.75H3V3H16.5V9H18V3C18 2.17157 17.3284 1.5 16.5 1.5H3C2.17157 1.5 1.5 2.17157 1.5 3V15.75C1.5 16.5784 2.17157 17.25 3 17.25H9V15.75ZM22.5 21.435L20.1675 19.1025C21.5212 17.1953 21.1882 14.569 19.4014 13.06C17.6146 11.5509 14.9697 11.6621 13.3159 13.3159C11.6621 14.9697 11.5509 17.6146 13.06 19.4014C14.569 21.1882 17.1953 21.5212 19.1025 20.1675L21.435 22.5L22.5 21.435ZM16.5 19.5C14.8431 19.5 13.5 18.1569 13.5 16.5C13.5 14.8431 14.8431 13.5 16.5 13.5C18.1569 13.5 19.5 14.8431 19.5 16.5C19.5 18.1569 18.1569 19.5 16.5 19.5Z" fill="black"/>
</svg>
