<svg width="24" height="24" viewBox="0 0 24 24" fill="none" xmlns="http://www.w3.org/2000/svg">
<path fill-rule="evenodd" clip-rule="evenodd" d="M12.4425 15.3075L15.1275 18L12.435 20.6925L13.5 21.75L17.25 18L13.5 14.25L12.4425 15.3075ZM17.6925 15.3075L20.3775 18L17.685 20.6925L18.75 21.75L22.5 18L18.75 14.25L17.6925 15.3075ZM10.5 17.25H3V5.9325L11.5725 11.865C11.8296 12.0434 12.1704 12.0434 12.4275 11.865L21 5.9325V12.75H22.5V5.25C22.5 4.42157 21.8284 3.75 21 3.75H3C2.17157 3.75 1.5 4.42157 1.5 5.25V17.25C1.5 18.0784 2.17157 18.75 3 18.75H10.5V17.25ZM19.35 5.25L12 10.335L4.65 5.25H19.35Z" fill="black"/>
</svg>
