<svg width="24" height="24" viewBox="0 0 24 24" fill="none" xmlns="http://www.w3.org/2000/svg">
<path fill-rule="evenodd" clip-rule="evenodd" d="M18.75 24H24V18.75H22.5V22.5H18.75V24ZM18.75 20.25H16.5V12.75H18.75C19.9921 12.7512 20.9988 13.7579 21 15V18C20.9988 19.2421 19.9921 20.2488 18.75 20.25ZM18 18.75H18.75C19.1642 18.75 19.5 18.4142 19.5 18V15C19.5 14.5858 19.1642 14.25 18.75 14.25H18V18.75ZM15 20.25H10.5V17.25C10.5008 16.4219 11.1719 15.7508 12 15.75H13.5V14.25H10.5V12.75H13.5C14.3281 12.7508 14.9992 13.4219 15 14.25V15.75C14.9992 16.5781 14.3281 17.2492 13.5 17.25H12V18.75H15V20.25ZM18.75 11.25H16.5V3.75H18.75C19.9921 3.75124 20.9988 4.75787 21 6V9C20.9988 10.2421 19.9921 11.2488 18.75 11.25ZM18 9.75H18.75C19.1642 9.75 19.5 9.41421 19.5 9V6C19.5 5.58579 19.1642 5.25 18.75 5.25H18V9.75ZM13.5 3.75H10.5V5.25H13.5V6.75H11.25V8.25H13.5V9.75H10.5V11.25H13.5C14.3279 11.2488 14.9988 10.5779 15 9.75V5.25C14.9992 4.42192 14.3281 3.75083 13.5 3.75ZM7.5 20.25H6V17.9655C2.46375 17.634 1.5 14.958 1.5 13.5C1.5 11.2388 3.0615 10.1235 4.43925 9.1395C5.679 8.2545 6.75 7.4895 6.75 6V3.75H8.25V6C8.25 8.26125 6.6885 9.3765 5.31075 10.3605C4.071 11.2455 3 12.0105 3 13.5C3.00375 13.8022 3.14325 16.5 6.75 16.5C7.16421 16.5 7.5 16.8358 7.5 17.25V20.25ZM5.25 0H0V5.25H1.5V1.5H5.25V0Z" fill="black"/>
</svg>
