<svg width="24" height="24" viewBox="0 0 24 24" fill="none" xmlns="http://www.w3.org/2000/svg">
<path fill-rule="evenodd" clip-rule="evenodd" d="M12 18L7.4325 11.55C5.90645 9.74821 5.55623 7.22798 6.53318 5.07837C7.51013 2.92875 9.63906 1.53524 12 1.5C15.3381 1.53299 18.0208 4.25934 18 7.5975C18.0006 8.9962 17.5244 10.3533 16.65 11.445L12 18ZM12 3C9.48861 3.02884 7.47501 5.08607 7.5 7.5975C7.50502 8.69837 7.90109 9.76163 8.6175 10.5975L12 15.39L15.4725 10.5C16.1326 9.67608 16.4947 8.6532 16.5 7.5975C16.525 5.08607 14.5114 3.02884 12 3ZM12 8.25C12.8284 8.25 13.5 7.57843 13.5 6.75C13.5 5.92157 12.8284 5.25 12 5.25C11.1716 5.25 10.5 5.92157 10.5 6.75C10.5 7.57843 11.1716 8.25 12 8.25ZM21 9H19.5V10.5H21V21H3V10.5H4.5V9H3C2.17157 9 1.5 9.67157 1.5 10.5V21C1.5 21.8284 2.17157 22.5 3 22.5H21C21.8284 22.5 22.5 21.8284 22.5 21V10.5C22.5 9.67157 21.8284 9 21 9Z" fill="black"/>
</svg>
