<svg width="24" height="24" viewBox="0 0 24 24" fill="none" xmlns="http://www.w3.org/2000/svg">
<path fill-rule="evenodd" clip-rule="evenodd" d="M15 1.5H3C2.17157 1.5 1.5 2.17157 1.5 3V6C1.5 6.82843 2.17157 7.5 3 7.5V21C3 21.8284 3.67157 22.5 4.5 22.5H13.5C14.3284 22.5 15 21.8284 15 21V7.5C15.8284 7.5 16.5 6.82843 16.5 6V3C16.5 2.17157 15.8284 1.5 15 1.5ZM4.5 10.5H6.75V18H4.5V10.5ZM13.5 21H4.5V19.5H8.25V9H4.5V7.5H13.5V21ZM3 6V3H15V6H3ZM19.5 15C21.1569 15 22.5 13.6569 22.5 12C22.5 10.3431 21.1569 9 19.5 9C17.8431 9 16.5 10.3431 16.5 12C16.5 13.6569 17.8431 15 19.5 15Z" fill="black"/>
</svg>
