<svg width="24" height="24" viewBox="0 0 24 24" fill="none" xmlns="http://www.w3.org/2000/svg">
<path fill-rule="evenodd" clip-rule="evenodd" d="M17.25 10.5V12.75C17.25 15.6495 14.8995 18 12 18C9.10051 18 6.75 15.6495 6.75 12.75V10.5H5.25V12.75C5.25163 16.1865 7.83481 19.0732 11.25 19.455V21H8.25V22.5H15.75V21H12.75V19.455C16.1652 19.0732 18.7484 16.1865 18.75 12.75V10.5H17.25ZM12 16.5C14.0711 16.5 15.75 14.8211 15.75 12.75V5.25C15.75 3.17893 14.0711 1.5 12 1.5C9.92893 1.5 8.25 3.17893 8.25 5.25V12.75C8.25 14.8211 9.92893 16.5 12 16.5Z" fill="black"/>
</svg>
