<svg width="24" height="24" viewBox="0 0 24 24" fill="none" xmlns="http://www.w3.org/2000/svg">
<path fill-rule="evenodd" clip-rule="evenodd" d="M17.25 12.75C17.244 14.8292 16.0115 16.709 14.1071 17.5435C12.2027 18.378 9.98523 18.01 8.4525 16.605L9.5175 15.5475C10.6209 16.5221 12.1925 16.7609 13.5356 16.158C14.8787 15.5552 15.7448 14.2222 15.75 12.75V9.315L22.5 2.565L21.4425 1.5L1.5 21.4425L2.5575 22.5L7.3875 17.67C8.44612 18.67 9.8024 19.2967 11.25 19.455V21H8.25V22.5H15.75V21H12.75V19.455C16.1652 19.0732 18.7484 16.1865 18.75 12.75V10.5H17.25V12.75ZM6.75 12.99V10.5H5.25V12.75C5.25097 13.278 5.3139 13.8041 5.4375 14.3175L6.75 12.99ZM15.57 4.185C15.0105 2.44039 13.2723 1.35548 11.4592 1.61927C9.64619 1.88305 8.28918 3.41829 8.25 5.25V11.505L15.57 4.185Z" fill="black"/>
</svg>
