<svg width="24" height="24" viewBox="0 0 24 24" fill="none" xmlns="http://www.w3.org/2000/svg">
<path fill-rule="evenodd" clip-rule="evenodd" d="M6.885 13.9275C6.79816 13.5409 6.7529 13.1462 6.75 12.75V10.5H5.25V12.75C5.24718 13.565 5.39465 14.3735 5.685 15.135L6.885 13.9275ZM9.75 11.25V5.24997C9.75 4.00733 10.7574 2.99997 12 2.99997C13.2426 2.99997 14.25 4.00733 14.25 5.24997V6.56247L15.75 5.06247C15.6982 2.99141 13.9773 1.35445 11.9062 1.40622C9.83518 1.458 8.19822 3.17891 8.25 5.24997V11.25H9.75ZM17.25 12.75C17.244 14.8292 16.0115 16.709 14.1071 17.5435C12.2027 18.378 9.98523 18.0099 8.4525 16.605L9.5175 15.5475C10.6209 16.5221 12.1925 16.7609 13.5356 16.158C14.8787 15.5552 15.7448 14.2222 15.75 12.75V9.31497L22.5 2.56497L21.4425 1.49997L1.5 21.4425L2.5575 22.5L7.3875 17.67C8.44612 18.6699 9.8024 19.2967 11.25 19.455V21H8.25V22.5H15.75V21H12.75V19.455C16.1652 19.0731 18.7484 16.1864 18.75 12.75V10.5H17.25V12.75ZM14.25 12.75C14.2466 13.6178 13.7445 14.4064 12.9595 14.7764C12.1745 15.1465 11.2466 15.0321 10.575 14.4825L14.25 10.815V12.75Z" fill="black"/>
</svg>
