<svg width="24" height="24" viewBox="0 0 24 24" fill="none" xmlns="http://www.w3.org/2000/svg">
<path fill-rule="evenodd" clip-rule="evenodd" d="M16.0575 17.25L12 13.1933L7.9425 17.25L6.75 16.0575L10.8067 12L6.75 7.94325L7.94325 6.75L12 10.8067L16.0568 6.75L17.25 7.94325L13.1933 12L17.25 16.0575L16.0575 17.25ZM12 3C16.9706 3 21 7.02944 21 12C21 16.9706 16.9706 21 12 21C7.02944 21 3 16.9706 3 12C3.00579 7.03184 7.03184 3.00579 12 3ZM12 1.5C6.20101 1.5 1.5 6.20101 1.5 12C1.5 17.799 6.20101 22.5 12 22.5C17.799 22.5 22.5 17.799 22.5 12C22.5 9.21523 21.3938 6.54451 19.4246 4.57538C17.4555 2.60625 14.7848 1.5 12 1.5Z" fill="black"/>
</svg>
