<svg width="24" height="24" viewBox="0 0 24 24" fill="none" xmlns="http://www.w3.org/2000/svg">
<path fill-rule="evenodd" clip-rule="evenodd" d="M3 15.75V17.25H5.6895L1.5 21.4395L2.5605 22.5L6.75 18.3105V21H8.25V15.75H3ZM17.625 3H6.375L1.287 9.78375L5.15775 14.25L6.15075 13.1055L3.8925 10.5H7.7265L12 22.1453L22.713 9.78375L17.625 3ZM20.25 9H16.1655L13.353 4.5H16.875L20.25 9ZM14.397 9H9.603L12 5.16525L14.397 9ZM3.75 9L7.125 4.5H10.647L7.8345 9H3.75ZM11.9993 17.7908L9.324 10.5H14.676L11.9993 17.7908ZM13.4573 18.1733L16.2735 10.5H20.1075L13.4573 18.1733Z" fill="black"/>
</svg>
