<svg width="24" height="24" viewBox="0 0 24 24" fill="none" xmlns="http://www.w3.org/2000/svg">
<path fill-rule="evenodd" clip-rule="evenodd" d="M20.625 16.875V13.875H16.875V7.125H17.625V13.125H20.625V7.125H21.375V13.125H22.125V13.875H21.375V16.875H20.625ZM21.75 6.75H20.25V12.75H18V6.75H16.5V14.25H20.25V17.25H21.75V14.25H22.5V12.75H21.75V6.75ZM10.5 17.25H9V6.75H13.5C14.3284 6.75 15 7.42157 15 8.25V12C15 12.8284 14.3284 13.5 13.5 13.5H10.5V17.25ZM10.5 12H13.5V8.25H10.5V12ZM6 6.75L4.8675 10.5L4.5 11.985L4.155 10.5L3 6.75H1.5V17.25H3V11.25L2.88 9.75L3.315 11.25L4.5 14.7225L5.685 11.25L6.12 9.75L6 11.25V17.25H7.5V6.75H6Z" fill="black"/>
</svg>
