<svg width="24" height="24" viewBox="0 0 24 24" fill="none" xmlns="http://www.w3.org/2000/svg">
<path fill-rule="evenodd" clip-rule="evenodd" d="M12.75 12.75H16.6065C16.9842 14.2127 18.3906 15.1664 19.8893 14.9761C21.3879 14.7857 22.5112 13.5107 22.5112 12C22.5112 10.4893 21.3879 9.21426 19.8893 9.0239C18.3906 8.83355 16.9842 9.78726 16.6065 11.25H12.75V5.24999H16.6065C16.9842 6.71272 18.3906 7.66644 19.8893 7.47608C21.3879 7.28573 22.5112 6.01069 22.5112 4.49999C22.5112 2.98929 21.3879 1.71426 19.8893 1.5239C18.3906 1.33355 16.9842 2.28726 16.6065 3.74999H12.75C11.9219 3.75082 11.2508 4.42191 11.25 5.24999V11.25H7.39351C7.01583 9.78726 5.60942 8.83355 4.11076 9.0239C2.6121 9.21426 1.48877 10.4893 1.48877 12C1.48877 13.5107 2.6121 14.7857 4.11076 14.9761C5.60942 15.1664 7.01583 14.2127 7.39351 12.75H11.25V18.75C11.2508 19.5781 11.9219 20.2492 12.75 20.25H16.6065C16.9842 21.7127 18.3906 22.6664 19.8893 22.4761C21.3879 22.2857 22.5112 21.0107 22.5112 19.5C22.5112 17.9893 21.3879 16.7143 19.8893 16.5239C18.3906 16.3335 16.9842 17.2873 16.6065 18.75H12.75V12.75ZM19.5 10.5C20.3284 10.5 21 11.1716 21 12C21 12.8284 20.3284 13.5 19.5 13.5C18.6716 13.5 18 12.8284 18 12C18.0008 11.1719 18.6719 10.5008 19.5 10.5ZM19.5 2.99999C20.3284 2.99999 21 3.67157 21 4.49999C21 5.32842 20.3284 5.99999 19.5 5.99999C18.6716 5.99999 18 5.32842 18 4.49999C18.0008 3.67191 18.6719 3.00082 19.5 2.99999ZM4.50001 13.5C3.67158 13.5 3.00001 12.8284 3.00001 12C3.00001 11.1716 3.67158 10.5 4.50001 10.5C5.32843 10.5 6.00001 11.1716 6.00001 12C5.99918 12.8281 5.32809 13.4992 4.50001 13.5ZM19.5 18C20.3284 18 21 18.6716 21 19.5C21 20.3284 20.3284 21 19.5 21C18.6716 21 18 20.3284 18 19.5C18.0008 18.6719 18.6719 18.0008 19.5 18Z" fill="black"/>
</svg>
