<svg width="24" height="24" viewBox="0 0 24 24" fill="none" xmlns="http://www.w3.org/2000/svg">
<path fill-rule="evenodd" clip-rule="evenodd" d="M22.5 22.5H16.5V16.5H22.5V22.5ZM18 21H21V18H18V21ZM15 20.25H6C3.51472 20.25 1.5 18.2353 1.5 15.75C1.5 13.2647 3.51472 11.25 6 11.25H7.5V12.75H6C4.34315 12.75 3 14.0931 3 15.75C3 17.4069 4.34315 18.75 6 18.75H15V20.25ZM15 15H9V9H15V15ZM10.5 13.5H13.5V10.5H10.5V13.5ZM18 12.75H16.5V11.25H18C19.6569 11.25 21 9.90685 21 8.25C21 6.59315 19.6569 5.25 18 5.25H9V3.75H18C20.4853 3.75 22.5 5.76472 22.5 8.25C22.5 10.7353 20.4853 12.75 18 12.75ZM7.5 7.5H1.5V1.5H7.5V7.5ZM3 6H6V3H3V6Z" fill="black"/>
</svg>
