<svg width="24" height="24" viewBox="0 0 24 24" fill="none" xmlns="http://www.w3.org/2000/svg">
<path fill-rule="evenodd" clip-rule="evenodd" d="M12 15C10.3431 15 9 13.6569 9 12C9 10.3431 10.3431 9 12 9C13.6569 9 15 10.3431 15 12C14.9979 13.656 13.656 14.9979 12 15ZM12 10.5C11.1716 10.5 10.5 11.1716 10.5 12C10.5 12.8284 11.1716 13.5 12 13.5C12.8284 13.5 13.5 12.8284 13.5 12C13.4992 11.1719 12.8281 10.5008 12 10.5ZM3.75 15C2.09315 15 0.75 13.6569 0.75 12C0.75 10.3431 2.09315 9 3.75 9C5.40685 9 6.75 10.3431 6.75 12C6.74793 13.656 5.406 14.9979 3.75 15ZM3.75 10.5C2.92157 10.5 2.25 11.1716 2.25 12C2.25 12.8284 2.92157 13.5 3.75 13.5C4.57843 13.5 5.25 12.8284 5.25 12C5.24917 11.1719 4.57808 10.5008 3.75 10.5ZM7.5 23.25C5.84315 23.25 4.5 21.9069 4.5 20.25C4.5 18.5931 5.84315 17.25 7.5 17.25C9.15685 17.25 10.5 18.5931 10.5 20.25C10.4979 21.906 9.156 23.2479 7.5 23.25ZM7.5 18.75C6.67157 18.75 6 19.4216 6 20.25C6 21.0784 6.67157 21.75 7.5 21.75C8.32843 21.75 9 21.0784 9 20.25C8.99917 19.4219 8.32808 18.7508 7.5 18.75ZM16.5 23.25C14.8431 23.25 13.5 21.9069 13.5 20.25C13.5 18.5931 14.8431 17.25 16.5 17.25C18.1569 17.25 19.5 18.5931 19.5 20.25C19.4979 21.906 18.156 23.2479 16.5 23.25ZM16.5 18.75C15.6716 18.75 15 19.4216 15 20.25C15 21.0784 15.6716 21.75 16.5 21.75C17.3284 21.75 18 21.0784 18 20.25C17.9992 19.4219 17.3281 18.7508 16.5 18.75ZM20.25 15C18.5931 15 17.25 13.6569 17.25 12C17.25 10.3431 18.5931 9 20.25 9C21.9069 9 23.25 10.3431 23.25 12C23.2479 13.656 21.906 14.9979 20.25 15ZM20.25 10.5C19.4216 10.5 18.75 11.1716 18.75 12C18.75 12.8284 19.4216 13.5 20.25 13.5C21.0784 13.5 21.75 12.8284 21.75 12C21.7492 11.1719 21.0781 10.5008 20.25 10.5ZM16.5 6.75C14.8431 6.75 13.5 5.40685 13.5 3.75C13.5 2.09315 14.8431 0.75 16.5 0.75C18.1569 0.75 19.5 2.09315 19.5 3.75C19.4979 5.406 18.156 6.74793 16.5 6.75ZM16.5 2.25C15.6716 2.25 15 2.92157 15 3.75C15 4.57843 15.6716 5.25 16.5 5.25C17.3284 5.25 18 4.57843 18 3.75C17.9992 2.92192 17.3281 2.25083 16.5 2.25ZM7.5 6.75C5.84315 6.75 4.5 5.40685 4.5 3.75C4.5 2.09315 5.84315 0.75 7.5 0.75C9.15685 0.75 10.5 2.09315 10.5 3.75C10.4979 5.406 9.156 6.74793 7.5 6.75ZM7.5 2.25C6.67157 2.25 6 2.92157 6 3.75C6 4.57843 6.67157 5.25 7.5 5.25C8.32843 5.25 9 4.57843 9 3.75C8.99917 2.92192 8.32808 2.25083 7.5 2.25Z" fill="black"/>
</svg>
