<svg width="24" height="24" viewBox="0 0 24 24" fill="none" xmlns="http://www.w3.org/2000/svg">
<path fill-rule="evenodd" clip-rule="evenodd" d="M22.5 2.5605L21.4395 1.5L1.5 21.4395L2.5605 22.5L4.0605 21H19.5C20.3279 20.9988 20.9988 20.3279 21 19.5V4.0605L22.5 2.5605ZM19.5 19.5H5.5605L11.4053 13.6552L13.1895 15.4395C13.7753 16.0251 14.7248 16.0251 15.3105 15.4395L16.5 14.25L19.5 17.2477V19.5ZM19.5 15.126L17.5605 13.1865C16.9747 12.6009 16.0252 12.6009 15.4395 13.1865L14.25 14.376L12.4672 12.5933L19.5 5.5605V15.126ZM4.5 16.5V14.25L8.25 10.5023L9.27975 11.5328L10.3418 10.4707L9.3105 9.4395C8.72475 8.85393 7.77525 8.85393 7.1895 9.4395L4.5 12.129V4.5H16.5V3H4.5C3.67192 3.00083 3.00083 3.67192 3 4.5V16.5H4.5Z" fill="black"/>
</svg>
