<svg width="24" height="24" viewBox="0 0 24 24" fill="none" xmlns="http://www.w3.org/2000/svg">
<path fill-rule="evenodd" clip-rule="evenodd" d="M23 19.9425L3.0575 0L2 1.0575L8 7.0575L2.495 9.045C2.20365 9.15551 2.01099 9.43465 2.01099 9.74625C2.01099 10.0578 2.20365 10.337 2.495 10.4475L9.695 13.3275L12.575 20.5275C12.6856 20.8056 12.9509 20.9913 13.25 21C13.5603 20.9936 13.8346 20.7969 13.94 20.505L15.95 15L21.95 21L23 19.9425ZM4.85 9.75L9.155 8.25L11.4425 10.5L10.07 11.8725L4.85 9.75ZM13.25 18.15L11.1575 12.9L12.5 11.5575L14.75 13.845L13.25 18.15ZM12.2675 7.0875L17.9975 5.0025L15.9125 10.7325L17.0825 11.9025L19.955 4.005C20.0536 3.73155 19.9854 3.42572 19.7798 3.22017C19.5743 3.01461 19.2684 2.94636 18.995 3.045L11.0975 5.9175L12.2675 7.0875Z" fill="black"/>
</svg>
