<svg width="24" height="24" viewBox="0 0 24 24" fill="none" xmlns="http://www.w3.org/2000/svg">
<path fill-rule="evenodd" clip-rule="evenodd" d="M23 19.9425L3.0575 0L2 1.0575L8 7.0575L2.495 9.045C2.20365 9.15551 2.01099 9.43465 2.01099 9.74625C2.01099 10.0578 2.20365 10.337 2.495 10.4475L8.9375 13.02L11.4425 10.5L12.5 11.5575L9.9725 14.085L12.5525 20.5275C12.6662 20.813 12.9426 21.0003 13.25 21C13.5603 20.9936 13.8346 20.7969 13.94 20.505L15.95 15L21.95 21L23 19.9425ZM17.3675 11.1225L19.955 4.005C20.0536 3.73155 19.9854 3.42572 19.7798 3.22017C19.5743 3.01461 19.2684 2.94636 18.995 3.045L11.8775 5.6325L17.3675 11.1225Z" fill="black"/>
</svg>
