<svg width="24" height="24" viewBox="0 0 24 24" fill="none" xmlns="http://www.w3.org/2000/svg">
<path fill-rule="evenodd" clip-rule="evenodd" d="M14.25 7.5H19.5V9H14.25V7.5ZM14.25 11.25H19.5V12.75H14.25V11.25ZM14.25 15H19.5V16.5H14.25V15ZM21 3.75H3C2.17192 3.75083 1.50083 4.42192 1.5 5.25V18.75C1.50083 19.5781 2.17192 20.2492 3 20.25H21C21.8279 20.2488 22.4988 19.5779 22.5 18.75V5.25C22.4992 4.42192 21.8281 3.75083 21 3.75ZM3 5.25H11.25V18.75H3V5.25ZM12.75 18.75V5.25H21L21.0015 18.75H12.75Z" fill="black"/>
</svg>
