<svg width="24" height="24" viewBox="0 0 24 24" fill="none" xmlns="http://www.w3.org/2000/svg">
<path fill-rule="evenodd" clip-rule="evenodd" d="M3.75 17.25V16.05L5.775 14.025C5.92314 13.8913 6.00536 13.6995 6 13.5V9.75C6.00144 7.44382 7.32454 5.34256 9.40361 4.34461C11.4827 3.34665 13.9497 3.62864 15.75 5.07L16.83 3.9975C15.6828 3.00805 14.2577 2.39765 12.75 2.25V0.75H11.25V2.25C7.42833 2.68567 4.53209 5.90371 4.5 9.75V13.2L2.475 15.225C2.32686 15.3587 2.24464 15.5505 2.25 15.75V17.25H3.75ZM19.5 13.2V9.75C19.4953 8.57654 19.2153 7.42055 18.6825 6.375L22.5 2.5575L21.4425 1.5L1.5 21.4425L2.5575 22.5L6.3075 18.75H8.25C8.25 20.8211 9.92893 22.5 12 22.5C14.0711 22.5 15.75 20.8211 15.75 18.75H21C21.2027 18.7634 21.4014 18.6887 21.545 18.545C21.6887 18.4014 21.7634 18.2027 21.75 18V15.75C21.7554 15.5505 21.6731 15.3587 21.525 15.225L19.5 13.2ZM12 21C10.7574 21 9.75 19.9926 9.75 18.75H14.25C14.25 19.9926 13.2426 21 12 21ZM20.25 17.25H7.815L17.565 7.5C17.8521 8.2154 17.9998 8.97912 18 9.75V13.5C17.9946 13.6995 18.0769 13.8913 18.225 14.025L20.25 16.05V17.25Z" fill="black"/>
</svg>
