<svg width="24" height="24" viewBox="0 0 24 24" fill="none" xmlns="http://www.w3.org/2000/svg">
<path fill-rule="evenodd" clip-rule="evenodd" d="M21.525 15.225L19.5 13.2V9.75C19.495 5.89323 16.5849 2.6598 12.75 2.25V0.75H11.25V2.25C7.42828 2.68567 4.53204 5.90371 4.49995 9.75V13.2L2.47495 15.225C2.32681 15.3587 2.2446 15.5505 2.24995 15.75V18C2.23654 18.2027 2.31124 18.4014 2.4549 18.545C2.59857 18.6887 2.79723 18.7634 2.99995 18.75H8.24995C8.24995 20.8211 9.92888 22.5 12 22.5C14.071 22.5 15.75 20.8211 15.75 18.75H21C21.2027 18.7634 21.4013 18.6887 21.545 18.545C21.6887 18.4014 21.7634 18.2027 21.75 18V15.75C21.7553 15.5505 21.6731 15.3587 21.525 15.225ZM12 21C10.7573 21 9.74995 19.9926 9.74995 18.75H14.25C14.25 19.9926 13.2426 21 12 21Z" fill="black"/>
</svg>
