<svg width="24" height="24" viewBox="0 0 24 24" fill="none" xmlns="http://www.w3.org/2000/svg">
<path fill-rule="evenodd" clip-rule="evenodd" d="M19.5 13.2V9.75C19.4953 8.57654 19.2153 7.42055 18.6825 6.375L22.5 2.5575L21.4425 1.5L1.5 21.4425L2.5575 22.5L6.3075 18.75H8.25C8.25 20.8211 9.92893 22.5 12 22.5C14.0711 22.5 15.75 20.8211 15.75 18.75H21C21.2027 18.7634 21.4014 18.6887 21.545 18.545C21.6887 18.4014 21.7634 18.2027 21.75 18V15.75C21.7554 15.5505 21.6731 15.3587 21.525 15.225L19.5 13.2ZM12 21C10.7574 21 9.75 19.9926 9.75 18.75H14.25C14.25 19.9926 13.2426 21 12 21ZM16.2225 3.54C15.1944 2.81998 13.9988 2.37582 12.75 2.25V0.75H11.25V2.25C7.42833 2.68567 4.53209 5.90371 4.5 9.75V13.2L2.475 15.225C2.32686 15.3587 2.24464 15.5505 2.25 15.75V17.505L16.2225 3.54Z" fill="black"/>
</svg>
