<svg width="24" height="24" viewBox="0 0 24 24" fill="none" xmlns="http://www.w3.org/2000/svg">
<path fill-rule="evenodd" clip-rule="evenodd" d="M4.5 4.5H7.5V7.5H4.5V4.5ZM7.5 7.5H10.5V10.5H7.5V7.5ZM10.5 4.5H13.5V7.5H10.5V4.5ZM16.5 4.5H19.5V7.5H16.5V4.5ZM4.5 10.5H7.5V13.5H4.5V10.5ZM10.5 10.5H13.5V13.5H10.5V10.5ZM16.5 10.5H19.5V13.5H16.5V10.5ZM4.5 16.5H7.5V19.5H4.5V16.5ZM10.5 16.5H13.5V19.5H10.5V16.5ZM16.5 16.5H19.5V19.5H16.5V16.5ZM13.5 7.5H16.5V10.5H13.5V7.5ZM7.5 13.5H10.5V16.5H7.5V13.5ZM13.5 13.5H16.5V16.5H13.5V13.5Z" fill="black"/>
</svg>
