<svg width="24" height="24" viewBox="0 0 24 24" fill="none" xmlns="http://www.w3.org/2000/svg">
<path fill-rule="evenodd" clip-rule="evenodd" d="M22.5 3H18V4.5H20.8125L18 7.5V9H22.5V7.5H19.785L22.5 4.5V3ZM15 13.215L16.56 10.5L15.2625 9.75L13.6275 12.57C10.8669 11.5469 7.78049 11.9387 5.36309 13.6191C2.9457 15.2995 1.50298 18.0559 1.5 21H3C3.00183 18.5905 4.16119 16.3286 6.11625 14.9202C8.07131 13.5119 10.584 13.1286 12.87 13.89L10.5 18C9.67157 18 9 18.6716 9 19.5C9 20.3284 9.67157 21 10.5 21C11.3284 21 12 20.3284 12 19.5C11.9995 19.2366 11.9297 18.9779 11.7975 18.75L14.25 14.5125C16.5681 15.8509 17.9973 18.3233 18 21H19.5C19.4967 17.7879 17.7818 14.821 15 13.215Z" fill="black"/>
</svg>
