<svg width="24" height="24" viewBox="0 0 24 24" fill="none" xmlns="http://www.w3.org/2000/svg">
<path fill-rule="evenodd" clip-rule="evenodd" d="M12 21H2.99999C2.5952 21.0243 2.19937 20.8741 1.91262 20.5874C1.62587 20.3006 1.47566 19.9048 1.49999 19.5V10.5C1.47566 10.0952 1.62587 9.69937 1.91262 9.41262C2.19937 9.12587 2.5952 8.97566 2.99999 8.99999H12C12.4048 8.97566 12.8006 9.12587 13.0874 9.41262C13.3741 9.69937 13.5243 10.0952 13.5 10.5V19.5C13.5243 19.9048 13.3741 20.3006 13.0874 20.5874C12.8006 20.8741 12.4048 21.0243 12 21ZM2.99999 10.5V19.5H12V10.5H2.99999ZM16.5 14.25H15V7.49999H7.49999V5.99999H15C15.4048 5.97566 15.8006 6.12587 16.0874 6.41262C16.3741 6.69937 16.5243 7.0952 16.5 7.49999V14.25ZM19.5 10.5H18V4.49999H12V2.99999H18C18.4048 2.97566 18.8006 3.12587 19.0874 3.41262C19.3741 3.69937 19.5243 4.0952 19.5 4.49999V10.5ZM18 12.75V14.25H20.1L16.5 18.3V16.5H15V21H19.5V19.5H17.4L21 15.45V17.25H22.5V12.75H18Z" fill="black"/>
</svg>
