<svg width="24" height="24" viewBox="0 0 24 24" fill="none" xmlns="http://www.w3.org/2000/svg">
<path fill-rule="evenodd" clip-rule="evenodd" d="M21.6225 17.3775L17.25 12.9975V9.75002C17.2511 9.55066 17.1728 9.35905 17.0325 9.21752L9.53245 1.71752C9.39163 1.57553 9.19993 1.49567 8.99995 1.49567C8.79998 1.49567 8.60828 1.57553 8.46745 1.71752L1.71745 8.46752C1.57547 8.60834 1.49561 8.80004 1.49561 9.00002C1.49561 9.19999 1.57547 9.39169 1.71745 9.53252L9.21745 17.0325C9.35899 17.1729 9.5506 17.2512 9.74995 17.25H13.005L17.3775 21.63C18.5497 22.8022 20.4502 22.8022 21.6225 21.63C22.7947 20.4578 22.7947 18.5572 21.6225 17.385V17.3775ZM4.49995 7.80752L6.21745 9.53252L7.28245 8.46751L5.55745 6.75002L6.74995 5.55752L9.96745 8.78252L11.0325 7.71751L7.80745 4.50002L8.99995 3.30752L13.9425 8.25002L8.24995 13.9425L3.30745 9.00002L4.49995 7.80752ZM20.5575 20.5575C19.9724 21.1391 19.0275 21.1391 18.4425 20.5575L13.845 15.9675C13.6851 15.8576 13.5035 15.7834 13.3125 15.75H10.0575L9.30745 15L15 9.30752L15.75 10.0575V13.3125C15.7508 13.5093 15.8289 13.6978 15.9675 13.8375L20.5575 18.4425C21.139 19.0276 21.139 19.9725 20.5575 20.5575Z" fill="black"/>
</svg>
