<svg width="24" height="24" viewBox="0 0 24 24" fill="none" xmlns="http://www.w3.org/2000/svg">
<path fill-rule="evenodd" clip-rule="evenodd" d="M9 4.5H4.5C3.67157 4.5 3 5.17157 3 6V10.5C3 11.3284 3.67157 12 4.5 12H9C9.82843 12 10.5 11.3284 10.5 10.5V6C10.5 5.17157 9.82843 4.5 9 4.5ZM4.5 10.5V6H9V10.5H4.5ZM19.5 4.5H15C14.1716 4.5 13.5 5.17157 13.5 6V18C13.5 18.8284 14.1716 19.5 15 19.5H19.5C20.3284 19.5 21 18.8284 21 18V6C21 5.17157 20.3284 4.5 19.5 4.5ZM15 18V6H19.5V18H15Z" fill="black"/>
</svg>
