<svg width="24" height="24" viewBox="0 0 24 24" fill="none" xmlns="http://www.w3.org/2000/svg">
<path fill-rule="evenodd" clip-rule="evenodd" d="M16.3073 14.019C16.6047 13.7818 16.871 13.5082 17.1001 13.2045C18.2301 11.7015 18.306 9.6542 17.2904 8.07162C16.2748 6.48904 14.382 5.70515 12.5448 6.10628C10.7077 6.50741 9.31386 8.00891 9.05032 9.87078C7.03531 10.2718 5.39506 11.7318 4.76332 13.6868C2.60691 14.3021 1.23391 16.4127 1.54541 18.6334C1.85691 20.8541 3.7576 22.5055 6.00007 22.5038H14.2501C16.3264 22.5096 18.1357 21.0906 18.625 19.0728C19.1143 17.0549 18.1557 14.9648 16.3073 14.019ZM13.5001 7.50378C15.1562 7.50544 16.4984 8.84762 16.5001 10.5038C16.5022 11.1532 16.2915 11.7855 15.9001 12.3038C15.7028 12.5632 15.4647 12.7889 15.1951 12.972C14.3295 11.1751 12.5815 9.96679 10.5946 9.79203C10.9214 8.45171 12.1205 7.50731 13.5001 7.50378ZM14.2501 21.0038H6.00007C4.44238 21.0064 3.1428 19.8144 3.01107 18.2623C2.87935 16.7102 3.95947 15.3162 5.49532 15.0563L5.99257 14.9723L6.10208 14.4803C6.52199 12.5953 8.19428 11.2546 10.1255 11.2546C12.0566 11.2546 13.7289 12.5953 14.1488 14.4803L14.2583 14.9723L14.7548 15.0563C16.2907 15.3162 17.3708 16.7102 17.2391 18.2623C17.1074 19.8144 15.8078 21.0064 14.2501 21.0038ZM19.5001 9.75378H22.5001V11.2538H19.5001V9.75378ZM17.2126 5.73003L19.3336 3.60978L20.3948 4.67028L18.2731 6.79128L17.2126 5.73003ZM12.7501 1.50378H14.2501V4.50378H12.7501V1.50378ZM6.60607 4.67028L7.66657 3.60978L9.78832 5.73078L8.72707 6.79128L6.60607 4.67028Z" fill="black"/>
</svg>
