<svg width="24" height="24" viewBox="0 0 24 24" fill="none" xmlns="http://www.w3.org/2000/svg">
<path fill-rule="evenodd" clip-rule="evenodd" d="M15.75 1.49997C12.0221 1.49997 9 4.52205 9 8.24997C8.99935 8.91341 9.09794 9.5732 9.2925 10.2075L1.5 18V22.5H6L13.7925 14.7075C15.7469 15.3071 17.8677 14.9888 19.5599 13.8417C21.2521 12.6946 22.3333 10.8425 22.5 8.80497C22.6514 7.20413 22.2112 5.60328 21.2625 4.30497C19.9867 2.53359 17.933 1.48857 15.75 1.49997ZM15.75 13.5C15.2417 13.498 14.7365 13.4222 14.25 13.275L13.3875 13.0125L10.365 16.035L9.3075 15L8.25 16.0575L9.285 17.0925L8.0925 18.285L7.0575 17.25L6 18.3075L7.035 19.3425L5.3775 21H3V18.6225L10.35 11.25L10.9875 10.6125L10.77 9.89997C9.99136 7.45145 11.0615 4.79499 13.32 3.56997C14.9234 2.73179 16.8453 2.77824 18.4063 3.69289C19.9673 4.60754 20.9474 6.2615 21 8.06997C21.052 9.13131 20.7658 10.1818 20.1825 11.07C19.2179 12.5848 17.5459 13.5014 15.75 13.5ZM16.5 8.99997C17.3284 8.99997 18 8.3284 18 7.49997C18 6.67154 17.3284 5.99997 16.5 5.99997C15.6716 5.99997 15 6.67154 15 7.49997C15 8.3284 15.6716 8.99997 16.5 8.99997Z" fill="black"/>
</svg>
