<svg width="24" height="24" viewBox="0 0 24 24" fill="none" xmlns="http://www.w3.org/2000/svg">
<path fill-rule="evenodd" clip-rule="evenodd" d="M19.5 15H13.3725L15.3075 13.0575L14.25 12L10.5 15.75L14.25 19.5L15.3075 18.4425L13.3725 16.5H19.5V22.5H21V16.5C21 15.6716 20.3284 15 19.5 15ZM17.7825 6.96751L12.5325 1.71751C12.391 1.57712 12.1994 1.49886 12 1.50001H4.5C3.67157 1.50001 3 2.17159 3 3.00001V21C3 21.8284 3.67157 22.5 4.5 22.5H10.5V21H4.5V3.00001H10.5V7.50001C10.5 8.32844 11.1716 9.00001 12 9.00001H16.5V10.5H18V7.50001C18.0012 7.30066 17.9229 7.10905 17.7825 6.96751ZM12 3.30751L16.1925 7.50001H12V3.30751Z" fill="black"/>
</svg>
