<svg width="24" height="24" viewBox="0 0 24 24" fill="none" xmlns="http://www.w3.org/2000/svg">
<path fill-rule="evenodd" clip-rule="evenodd" d="M22.5 8.25V6.75H16.5V17.25H18V12.75H21.75V11.25H18V8.25H22.5ZM6 6.75H1.5V17.25H3V13.5H6C6.82843 13.5 7.5 12.8284 7.5 12V8.25C7.5 7.42157 6.82843 6.75 6 6.75ZM6 12H3V8.25H6V12ZM12 17.25H9V6.75H12C13.6569 6.75 15 8.09315 15 9.75V14.25C15 15.9069 13.6569 17.25 12 17.25ZM10.5 15.75H12C12.8284 15.75 13.5 15.0784 13.5 14.25V9.75C13.5 8.92157 12.8284 8.25 12 8.25H10.5V15.75Z" fill="black"/>
</svg>
