<svg width="24" height="24" viewBox="0 0 24 24" fill="none" xmlns="http://www.w3.org/2000/svg">
<path fill-rule="evenodd" clip-rule="evenodd" d="M13.5 22.5H10.5C9.67157 22.5 9 21.8284 9 21V15.75C8.17157 15.75 7.5 15.0784 7.5 14.25V9.75C7.5 8.50736 8.50736 7.5 9.75 7.5H14.25C15.4926 7.5 16.5 8.50736 16.5 9.75V14.25C16.5 15.0784 15.8284 15.75 15 15.75V21C15 21.8284 14.3284 22.5 13.5 22.5ZM9.75 9C9.54727 8.98659 9.34862 9.06129 9.20495 9.20495C9.06129 9.34862 8.98659 9.54727 9 9.75V14.25H10.5V21H13.5V14.25H15V9.75C15.0134 9.54727 14.9387 9.34862 14.795 9.20495C14.6514 9.06129 14.4527 8.98659 14.25 9H9.75ZM12 6.75C10.3431 6.75 9 5.40685 9 3.75C9 2.09315 10.3431 0.75 12 0.75C13.6569 0.75 15 2.09315 15 3.75C15 4.54565 14.6839 5.30871 14.1213 5.87132C13.5587 6.43393 12.7956 6.75 12 6.75ZM12 2.25C11.1716 2.25 10.5 2.92157 10.5 3.75C10.5 4.57843 11.1716 5.25 12 5.25C12.8284 5.25 13.5 4.57843 13.5 3.75C13.5 2.92157 12.8284 2.25 12 2.25Z" fill="black"/>
</svg>
