<svg width="24" height="24" viewBox="0 0 24 24" fill="none" xmlns="http://www.w3.org/2000/svg">
<path fill-rule="evenodd" clip-rule="evenodd" d="M7.50001 23.25H4.50001C3.67261 23.2475 3.00248 22.5774 3.00001 21.75V16.5C2.17261 16.4975 1.50248 15.8274 1.50001 15V10.5C1.48891 9.89993 1.72239 9.32116 2.14678 8.89677C2.57117 8.47238 3.14994 8.2389 3.75001 8.25H8.25001C8.85008 8.2389 9.42885 8.47238 9.85324 8.89677C10.2776 9.32116 10.5111 9.89993 10.5 10.5V15C10.4975 15.8274 9.82741 16.4975 9.00001 16.5V21.75C8.99754 22.5774 8.32741 23.2475 7.50001 23.25ZM3.75001 9.75C3.54762 9.73783 3.3497 9.81294 3.20632 9.95631C3.06295 10.0997 2.98785 10.2976 3.00001 10.5V15H4.50001V21.75H7.50001V15H9.00001V10.5C9.01218 10.2976 8.93708 10.0997 8.7937 9.95631C8.65033 9.81294 8.45241 9.73783 8.25001 9.75H3.75001ZM6.00001 7.5C4.34316 7.5 3.00001 6.15685 3.00001 4.5C3.00001 2.84315 4.34316 1.5 6.00001 1.5C7.65687 1.5 9.00001 2.84315 9.00001 4.5C8.99795 6.156 7.65601 7.49793 6.00001 7.5ZM6.00001 3C5.17159 3 4.50001 3.67157 4.50001 4.5C4.50001 5.32843 5.17159 6 6.00001 6C6.82844 6 7.50001 5.32843 7.50001 4.5C7.49919 3.67192 6.8281 3.00083 6.00001 3ZM21.5745 3.192C20.4038 2.00232 18.5095 1.92873 17.25 3.024C15.9905 1.92873 14.0963 2.00232 12.9255 3.192C11.6922 4.45132 11.6922 6.46568 12.9255 7.725L17.2485 12.105L17.25 12.1035L17.2515 12.1042L21.5745 7.725C22.8079 6.46568 22.8079 4.45132 21.5745 3.192ZM20.5065 6.67125L17.2515 9.969L17.25 9.9675L17.2485 9.969L13.9935 6.67125C13.3324 5.99791 13.3324 4.91909 13.9935 4.24575C14.6525 3.60521 15.7015 3.60521 16.3605 4.24575L17.2463 5.151L17.25 5.14725L17.2538 5.151L18.1388 4.24575C18.7979 3.60472 19.8474 3.60472 20.5065 4.24575C21.1676 4.91909 21.1676 5.99791 20.5065 6.67125Z" fill="black"/>
</svg>
