<svg width="24" height="24" viewBox="0 0 24 24" fill="none" xmlns="http://www.w3.org/2000/svg">
<path fill-rule="evenodd" clip-rule="evenodd" d="M14.25 15.75H15.75V18H14.25V15.75ZM14.25 0H15.75V2.25H14.25V0ZM6 8.25H8.25V9.75H6V8.25ZM21.75 8.25H24V9.75H21.75V8.25ZM8.112 3.162L9.162 2.112L10.7535 3.702L9.7035 4.75275L8.112 3.162ZM19.2585 14.292L20.3085 13.242L21.8993 14.8327L20.8492 15.8827L19.2585 14.292ZM8.12025 14.8298L9.711 13.239L10.761 14.289L9.171 15.8798L8.12025 14.8298ZM19.2502 3.6945L20.8417 2.103L21.8918 3.153L20.3002 4.7445L19.2502 3.6945ZM15 3.75C12.1005 3.75 9.75 6.1005 9.75 9C9.75 11.8995 12.1005 14.25 15 14.25C17.8995 14.25 20.25 11.8995 20.25 9C20.25 6.1005 17.8995 3.75 15 3.75ZM15 12.75C12.9289 12.75 11.25 11.0711 11.25 9C11.25 6.92893 12.9289 5.25 15 5.25V12.75ZM3.75 13.5H0V24H3.75C4.99264 24 6 22.9926 6 21.75V20.25C5.99669 19.695 5.78834 19.1607 5.415 18.75C5.78834 18.3393 5.99669 17.805 6 17.25V15.75C6 14.5074 4.99264 13.5 3.75 13.5ZM1.5 15H3.75C4.16421 15 4.5 15.3358 4.5 15.75V17.25C4.5 17.6642 4.16421 18 3.75 18H1.5V15ZM4.5 21.75C4.5 22.1642 4.16421 22.5 3.75 22.5H1.5V19.5H3.75C4.16421 19.5 4.5 19.8358 4.5 20.25V21.75ZM1.5 1.5H6.75V0H0V6.75H1.5V1.5Z" fill="black"/>
</svg>
