<svg width="24" height="24" viewBox="0 0 24 24" fill="none" xmlns="http://www.w3.org/2000/svg">
<path fill-rule="evenodd" clip-rule="evenodd" d="M15.2475 16.11L16.9275 14.43C17.3898 13.9734 18.0778 13.8323 18.6825 14.07L20.73 14.8875C21.3416 15.1357 21.7439 15.7274 21.75 16.3875V20.1375C21.7465 20.5812 21.5619 21.0042 21.2391 21.3086C20.9163 21.6131 20.4831 21.7725 20.04 21.75C5.69249 20.8575 2.79749 8.70747 2.24999 4.05747C2.19858 3.5956 2.34707 3.13378 2.65804 2.78842C2.969 2.44307 3.41277 2.24712 3.87749 2.24997H7.49999C8.16131 2.25193 8.75505 2.65567 8.99999 3.26997L9.81749 5.31747C10.0632 5.92017 9.92437 6.6114 9.46499 7.07247L7.78499 8.75247C7.78499 8.75247 8.75249 15.3 15.2475 16.11Z" fill="black"/>
</svg>
