<svg width="24" height="24" viewBox="0 0 24 24" fill="none" xmlns="http://www.w3.org/2000/svg">
<path fill-rule="evenodd" clip-rule="evenodd" d="M6.8925 13.92C5.04886 11.1264 3.96572 7.90019 3.75 4.56V4.5C3.75 4.08579 4.08579 3.75 4.5 3.75H8.46L9.585 6.5775L7.455 8.73L7.5 9.09C7.68388 10.1873 8.05422 11.2451 8.595 12.2175L9.69 11.1225C9.39103 10.5257 9.17888 9.8893 9.06 9.2325L10.6575 7.62C11.082 7.19482 11.2119 6.55736 10.9875 6L9.8475 3.195C9.62006 2.62392 9.06721 2.2494 8.4525 2.25H4.32C3.72394 2.29593 3.17066 2.57719 2.78229 3.03169C2.39392 3.48619 2.2024 4.07657 2.25 4.6725C2.51453 8.37184 3.75405 11.9351 5.8425 15L6.8925 13.92ZM20.8275 14.145L18 13.0125C17.445 12.779 16.8041 12.9001 16.3725 13.32L14.745 14.9325C13.5874 14.7325 12.5004 14.2393 11.5875 13.5L22.5 2.5575L21.4425 1.5L1.5 21.4425L2.5575 22.5L7.8075 17.25C10.3425 19.635 14.0175 21.465 19.35 21.75H19.5C20.7426 21.75 21.75 20.7426 21.75 19.5V15.54C21.7543 14.9308 21.3897 14.3795 20.8275 14.145ZM20.25 19.545C20.2384 19.744 20.1481 19.9303 19.9989 20.0626C19.8497 20.1949 19.654 20.2623 19.455 20.25C14.5725 19.9725 11.205 18.345 8.8725 16.185L10.5 14.58C11.7409 15.653 13.2791 16.3227 14.91 16.5L15.27 16.545L17.4225 14.4075L20.25 15.54V19.545Z" fill="black"/>
</svg>
