<svg width="24" height="24" viewBox="0 0 24 24" fill="none" xmlns="http://www.w3.org/2000/svg">
<path fill-rule="evenodd" clip-rule="evenodd" d="M20.055 14.67L18.165 13.92C17.6098 13.699 16.9763 13.8286 16.5525 14.25L15 15.795C13.521 15.6361 12.1235 15.0379 10.9875 14.0775L22.5 2.5575L21.4425 1.5L1.5 21.4425L2.5575 22.5L8.505 16.56C10.935 18.9 14.4225 20.685 19.4175 21C19.8294 21.0227 20.2325 20.8747 20.5319 20.5909C20.8313 20.3071 21.0006 19.9125 21 19.5V16.0575C20.9975 15.4455 20.6235 14.8964 20.055 14.67ZM6.1125 13.6425L8.7525 11.0025C8.46814 10.362 8.26166 9.6897 8.1375 9L9.69 7.4475C10.1114 7.02373 10.241 6.39025 10.02 5.835L9.27 3.945C9.04256 3.37392 8.48971 2.9994 7.875 3H4.5C4.07186 2.9974 3.66302 3.17788 3.37645 3.49597C3.08988 3.81406 2.9529 4.23946 3 4.665C3.36318 7.85032 4.42604 10.916 6.1125 13.6425Z" fill="black"/>
</svg>
