<svg width="24" height="24" viewBox="0 0 24 24" fill="none" xmlns="http://www.w3.org/2000/svg">
<path fill-rule="evenodd" clip-rule="evenodd" d="M19.4999 21.75H19.3724C4.63495 20.9025 2.54245 8.4675 2.24995 4.6725C2.20235 4.07657 2.39387 3.48619 2.78223 3.03169C3.1706 2.57719 3.72388 2.29593 4.31995 2.25H8.45245C9.06715 2.24941 9.62001 2.62392 9.84745 3.195L10.9874 6C11.2118 6.55736 11.082 7.19483 10.6574 7.62L9.05995 9.2325C9.57109 12.1372 11.8416 14.4137 14.7449 14.9325L16.3724 13.32C16.8041 12.9001 17.4449 12.779 17.9999 13.0125L20.8274 14.145C21.3897 14.3795 21.7543 14.9308 21.7499 15.54V19.5C21.7499 20.7426 20.7426 21.75 19.4999 21.75ZM4.49995 3.75C4.08573 3.75 3.74995 4.08579 3.74995 4.5V4.56C4.09495 9 6.30745 19.5 19.4549 20.25C19.6539 20.2623 19.8497 20.1949 19.9988 20.0626C20.148 19.9303 20.2384 19.744 20.2499 19.545V15.54L17.4224 14.4075L15.2699 16.545L14.9099 16.5C8.38495 15.6825 7.49995 9.1575 7.49995 9.09L7.45495 8.73L9.58495 6.5775L8.45995 3.75H4.49995Z" fill="black"/>
</svg>
