<svg width="24" height="24" viewBox="0 0 24 24" fill="none" xmlns="http://www.w3.org/2000/svg">
<path fill-rule="evenodd" clip-rule="evenodd" d="M16.5 10.5C15.4457 10.5004 14.4105 10.7807 13.5 11.3123V6.75C13.5 3.85051 11.1495 1.5 8.25 1.5C5.35051 1.5 3 3.85051 3 6.75V17.25C2.99945 19.4412 4.36009 21.4023 6.41287 22.1689C8.46565 22.9354 10.7786 22.3463 12.2145 20.691C14.1185 22.6381 17.0953 23.0581 19.4636 21.7138C21.832 20.3694 22.9973 17.5982 22.3015 14.9653C21.6056 12.3324 19.2233 10.4987 16.5 10.5ZM16.5 12C18.6936 12.0038 20.5654 13.5874 20.9325 15.75H12.0675C12.4346 13.5874 14.3064 12.0038 16.5 12ZM4.5 6.75C4.5 4.67893 6.17893 3 8.25 3C10.3211 3 12 4.67893 12 6.75V11.25H4.5V6.75ZM8.25 21C6.17996 20.9975 4.50248 19.32 4.5 17.25V12.75H11.8238C10.2833 14.659 10.0679 17.3161 11.2808 19.4482C10.578 20.4218 9.45071 20.999 8.25 21ZM16.5 21C14.3064 20.9962 12.4346 19.4126 12.0675 17.25H20.9325C20.5654 19.4126 18.6936 20.9962 16.5 21Z" fill="black"/>
</svg>
