<svg width="24" height="24" viewBox="0 0 24 24" fill="none" xmlns="http://www.w3.org/2000/svg">
<path fill-rule="evenodd" clip-rule="evenodd" d="M16.5 10.5C15.4457 10.5004 14.4105 10.7807 13.5 11.3123V6.75C13.5 3.85051 11.1495 1.5 8.25001 1.5C5.35052 1.5 3.00001 3.85051 3.00001 6.75V17.25C2.99558 19.4416 4.35561 21.4043 6.40908 22.17C8.46256 22.9356 10.7756 22.3423 12.207 20.6828C14.1083 22.6346 17.0863 23.0596 19.4576 21.7175C21.829 20.3753 22.9976 17.6034 22.3029 14.9686C21.6082 12.3339 19.2248 10.4985 16.5 10.5ZM8.25001 3C10.3201 3.00248 11.9975 4.67996 12 6.75V11.25H4.50001V6.75C4.50249 4.67996 6.17997 3.00248 8.25001 3ZM8.25001 21C6.17997 20.9975 4.50249 19.32 4.50001 17.25V12.75H11.8238C10.2828 14.659 10.0674 17.3167 11.2808 19.449C10.5757 20.4198 9.44981 20.996 8.25001 21ZM16.5 21C14.6799 21 13.0391 19.9036 12.3426 18.2221C11.646 16.5405 12.031 14.605 13.318 13.318C14.605 12.031 16.5406 11.646 18.2221 12.3425C19.9036 13.0391 21 14.6799 21 16.5C20.9971 18.9841 18.9841 20.9971 16.5 21ZM14.25 15.75H18.75V17.25H14.25V15.75Z" fill="black"/>
</svg>
