<svg width="24" height="24" viewBox="0 0 24 24" fill="none" xmlns="http://www.w3.org/2000/svg">
<path fill-rule="evenodd" clip-rule="evenodd" d="M12 1.5C6.20101 1.5 1.5 6.20101 1.5 12C1.5 17.799 6.20101 22.5 12 22.5C17.799 22.5 22.5 17.799 22.5 12C22.5 9.21523 21.3938 6.54451 19.4246 4.57538C17.4555 2.60625 14.7848 1.5 12 1.5ZM17.61 12.66L9.36 17.16C9.12795 17.294 8.84205 17.294 8.61 17.16C8.38044 17.0204 8.24311 16.7686 8.25 16.5V7.5C8.25005 7.2352 8.38973 6.99005 8.6175 6.855C8.84955 6.72103 9.13545 6.72103 9.3675 6.855L17.6175 11.355C17.8601 11.4859 18.0113 11.7394 18.0113 12.015C18.0113 12.2906 17.8601 12.5441 17.6175 12.675L17.61 12.66ZM9.75 15.24L15.6825 12L9.75 8.7675V15.24Z" fill="black"/>
</svg>
