<svg width="24" height="24" viewBox="0 0 24 24" fill="none" xmlns="http://www.w3.org/2000/svg">
<path fill-rule="evenodd" clip-rule="evenodd" d="M12 3C16.9706 3 21 7.02944 21 12C21 16.9706 16.9706 21 12 21C7.02944 21 3 16.9706 3 12C3 7.02944 7.02944 3 12 3ZM12 1.5C6.20101 1.5 1.5 6.20101 1.5 12C1.5 17.799 6.20101 22.5 12 22.5C17.799 22.5 22.5 17.799 22.5 12C22.5 6.20101 17.799 1.5 12 1.5ZM9 17.25C8.86539 17.25 8.73327 17.2137 8.6175 17.145C8.38973 17.01 8.25005 16.7648 8.25 16.5V7.5C8.25005 7.2352 8.38973 6.99005 8.6175 6.855C8.84955 6.72103 9.13545 6.72103 9.3675 6.855L17.6175 11.355C17.8601 11.4859 18.0113 11.7394 18.0113 12.015C18.0113 12.2906 17.8601 12.5441 17.6175 12.675L9.3675 17.175C9.25333 17.2307 9.12687 17.2565 9 17.25ZM9.75 8.76V15.24L15.6825 12L9.75 8.76Z" fill="black"/>
</svg>
