<svg width="24" height="24" viewBox="0 0 24 24" fill="none" xmlns="http://www.w3.org/2000/svg">
<path fill-rule="evenodd" clip-rule="evenodd" d="M10.2825 9.2175L5.5575 4.5H9.75V3H3V9.75H4.5V5.5575L9.2175 10.2825L10.2825 9.2175ZM21 22.5H9C8.17157 22.5 7.5 21.8284 7.5 21V13.5H9V21H21V9H13.5V7.5H21C21.8284 7.5 22.5 8.17157 22.5 9V21C22.5 21.8284 21.8284 22.5 21 22.5ZM16.5 11.25H12.75V12.75H16.5V14.25H13.5C12.6716 14.25 12 14.9216 12 15.75V17.25C12 18.0784 12.6716 18.75 13.5 18.75H18V12.75C18 11.9216 17.3284 11.25 16.5 11.25ZM16.5 17.25H13.5V15.75H16.5V17.25Z" fill="black"/>
</svg>
