<svg width="24" height="24" viewBox="0 0 24 24" fill="none" xmlns="http://www.w3.org/2000/svg">
<path fill-rule="evenodd" clip-rule="evenodd" d="M21 3H7.5C6.6726 3.00247 6.00247 3.6726 6 4.5V15C6.00247 15.8274 6.6726 16.4975 7.5 16.5H21C21.8274 16.4975 22.4975 15.8274 22.5 15V4.5C22.4975 3.6726 21.8274 3.00247 21 3ZM21 15H7.5V4.5H21V15ZM13.5 19.5H3V12H4.5V10.5H3C2.1726 10.5025 1.50247 11.1726 1.5 12V19.5C1.50247 20.3274 2.1726 20.9975 3 21H13.5C14.3274 20.9975 14.9975 20.3274 15 19.5V18H13.5V19.5Z" fill="black"/>
</svg>
