<svg width="24" height="24" viewBox="0 0 24 24" fill="none" xmlns="http://www.w3.org/2000/svg">
<path fill-rule="evenodd" clip-rule="evenodd" d="M16.8749 4.305L16.1249 5.6025C19.3586 7.4695 20.9352 11.2757 19.9688 14.8825C19.0024 18.4892 15.7339 20.9972 11.9999 20.9972C8.26591 20.9972 4.99745 18.4892 4.03102 14.8825C3.06459 11.2757 4.64117 7.4695 7.87491 5.6025L7.12491 4.305C3.30322 6.51145 1.43998 11.0097 2.58213 15.2722C3.72427 19.5348 7.587 22.4987 11.9999 22.4987C16.4128 22.4987 20.2755 19.5348 21.4177 15.2722C22.5598 11.0097 20.6966 6.51145 16.8749 4.305ZM11.2499 1.5H12.7499V12H11.2499V1.5Z" fill="black"/>
</svg>
