<svg width="24" height="24" viewBox="0 0 24 24" fill="none" xmlns="http://www.w3.org/2000/svg">
<path d="M19.5 4.5H16.5V7.5H19.5V4.5Z" fill="black"/>
<path fill-rule="evenodd" clip-rule="evenodd" d="M22.5 10.5H13.5V1.5H22.5V10.5ZM15 9H21V3H15V9Z" fill="black"/>
<path d="M4.5 16.5H7.5V19.5H4.5V16.5Z" fill="black"/>
<path fill-rule="evenodd" clip-rule="evenodd" d="M1.5 22.5H10.5V13.5H1.5V22.5ZM9 21H3V15H9V21Z" fill="black"/>
<path d="M21 19.5H22.5V22.5H19.5V21H21V19.5Z" fill="black"/>
<path d="M19.5 19.5H21V16.5H22.5V13.5H19.5V15H21V16.5H19.5V19.5Z" fill="black"/>
<path d="M18 19.5H19.5V21H18V19.5Z" fill="black"/>
<path d="M15 19.5H18V15H16.5V13.5H13.5V15H16.5V18H15V16.5H13.5V18H15V19.5Z" fill="black"/>
<path d="M15 19.5V21H16.5V22.5H13.5V19.5H15Z" fill="black"/>
<path d="M4.5 4.5H7.5V7.5H4.5V4.5Z" fill="black"/>
<path fill-rule="evenodd" clip-rule="evenodd" d="M1.5 10.5H10.5V1.5H1.5V10.5ZM9 9H3V3H9V9Z" fill="black"/>
</svg>
