<svg width="24" height="24" viewBox="0 0 24 24" fill="none" xmlns="http://www.w3.org/2000/svg">
<path fill-rule="evenodd" clip-rule="evenodd" d="M21 7.5H18V1.5H16.5V7.5H9.75V6H8.25V7.5H6V6H4.5V7.5H3C2.17157 7.5 1.5 8.17157 1.5 9V21C1.5 21.8284 2.17157 22.5 3 22.5H21C21.8284 22.5 22.5 21.8284 22.5 21V9C22.5 8.17157 21.8284 7.5 21 7.5ZM3 21V9H21V21H3ZM7.5 19.5C5.84315 19.5 4.5 18.1569 4.5 16.5C4.5 14.8431 5.84315 13.5 7.5 13.5C9.15685 13.5 10.5 14.8431 10.5 16.5C10.5 18.1569 9.15685 19.5 7.5 19.5ZM7.5 15C6.67157 15 6 15.6716 6 16.5C6 17.3284 6.67157 18 7.5 18C8.32843 18 9 17.3284 9 16.5C9 15.6716 8.32843 15 7.5 15ZM5.25 10.5H9.75V12H5.25V10.5ZM12.75 12H19.5V13.5H12.75V12ZM12.75 15H19.5V16.5H12.75V15ZM12.75 18H19.5V19.5H12.75V18Z" fill="black"/>
</svg>
