<svg width="24" height="24" viewBox="0 0 24 24" fill="none" xmlns="http://www.w3.org/2000/svg">
<path fill-rule="evenodd" clip-rule="evenodd" d="M12 1.5C9.17398 1.5004 6.46848 2.64482 4.5 4.6725V1.5H3V7.5H9V6H5.31C8.21324 2.77382 13.0054 2.07918 16.7052 4.34823C20.405 6.61728 21.9584 11.2036 20.399 15.2539C18.8396 19.3043 14.6117 21.6648 10.3455 20.8669C6.07929 20.0691 2.9902 16.3402 3 12H1.5C1.5 17.799 6.20101 22.5 12 22.5C17.799 22.5 22.5 17.799 22.5 12C22.5 6.20101 17.799 1.5 12 1.5Z" fill="black"/>
<path d="M7.5 12C7.5 9.51472 9.51472 7.5 12 7.5C14.4853 7.5 16.5 9.51472 16.5 12C16.5 14.4853 14.4853 16.5 12 16.5C9.51472 16.5 7.5 14.4853 7.5 12Z" fill="black"/>
</svg>
