<svg width="24" height="24" viewBox="0 0 24 24" fill="none" xmlns="http://www.w3.org/2000/svg">
<path fill-rule="evenodd" clip-rule="evenodd" d="M12 1.5C9.20786 1.50629 6.70778 3.23103 5.71047 5.839C4.71316 8.44696 5.4245 11.3998 7.50001 13.2675V22.5L12 19.5L16.5 22.5V13.2675C18.5755 11.3998 19.2868 8.44696 18.2895 5.839C17.2922 3.23103 14.7921 1.50629 12 1.5ZM15 19.695L12.8325 18.255L12 17.7L11.1675 18.255L9.00001 19.695V14.2875C10.8867 15.2394 13.1133 15.2394 15 14.2875V19.695ZM15.6675 12C13.8791 13.746 11.1078 13.9891 9.04273 12.5813C6.97763 11.1734 6.19133 8.50492 7.16306 6.20222C8.1348 3.89952 10.5951 2.60111 13.0445 3.09836C15.4939 3.59562 17.2531 5.75066 17.25 8.25C17.2482 9.66194 16.6778 11.0137 15.6675 12Z" fill="black"/>
</svg>
