<svg width="24" height="24" viewBox="0 0 24 24" fill="none" xmlns="http://www.w3.org/2000/svg">
<path fill-rule="evenodd" clip-rule="evenodd" d="M12 15C13.6569 15 15 13.6569 15 12C15 10.3431 13.6569 9 12 9C10.3431 9 9 10.3431 9 12C9 13.6569 10.3431 15 12 15ZM12 1.5C6.225 1.5 1.5 6.225 1.5 12C1.5 17.775 6.225 22.5 12 22.5C17.775 22.5 22.5 17.775 22.5 12C22.5 6.225 17.775 1.5 12 1.5ZM12 16.5C9.525 16.5 7.5 14.475 7.5 12C7.5 9.525 9.525 7.5 12 7.5C14.475 7.5 16.5 9.525 16.5 12C16.5 14.475 14.475 16.5 12 16.5Z" fill="black"/>
</svg>
