<svg width="24" height="24" viewBox="0 0 24 24" fill="none" xmlns="http://www.w3.org/2000/svg">
<path fill-rule="evenodd" clip-rule="evenodd" d="M22.5 17.25V15.75H21V14.25H19.5V15.75H17.25V14.25H15.75V15.75H14.25V17.25H15.75V19.5H14.25V21H15.75V22.5H17.25V21H19.5V22.5H21V21H22.5V19.5H21V17.25H22.5ZM19.5 19.5H17.25V17.25H19.5V19.5ZM3.6225 15.2662C5.99739 16.4523 8.59744 17.1196 11.25 17.2238V15.7238C8.37032 15.6023 5.5675 14.7581 3.09975 13.269C3.03654 12.8489 3.0032 12.4248 3 12C3.00329 11.5757 3.03662 11.1521 3.09975 10.7325C8.57164 7.42254 15.4284 7.42254 20.9002 10.7325C20.9634 11.1521 20.9967 11.5757 21 12H22.5C22.5 6.20101 17.799 1.5 12 1.5C6.20101 1.5 1.5 6.20101 1.5 12C1.5 17.799 6.20101 22.5 12 22.5V21C8.29384 20.9942 4.96949 18.719 3.6225 15.2662ZM12 3C15.7063 3.00589 19.0307 5.28148 20.3775 8.7345C15.1059 6.08827 8.89405 6.08827 3.6225 8.7345C4.96925 5.28148 8.29365 3.00589 12 3Z" fill="black"/>
</svg>
