<svg width="24" height="24" viewBox="0 0 24 24" fill="none" xmlns="http://www.w3.org/2000/svg">
<path fill-rule="evenodd" clip-rule="evenodd" d="M22.5 17.25V15.75H21V14.25H19.5V15.75H17.25V14.25H15.75V15.75H14.25V17.25H15.75V19.5H14.25V21H15.75V22.5H17.25V21H19.5V22.5H21V21H22.5V19.5H21V17.25H22.5ZM19.5 19.5H17.25V17.25H19.5V19.5ZM12 22.5C6.20101 22.5 1.5 17.799 1.5 12C1.5 6.20101 6.20101 1.5 12 1.5C17.799 1.5 22.5 6.20101 22.5 12H21C21 7.02944 16.9706 3 12 3C7.02944 3 3 7.02944 3 12C3 16.9706 7.02944 21 12 21V22.5Z" fill="black"/>
</svg>
