<svg width="24" height="24" viewBox="0 0 24 24" fill="none" xmlns="http://www.w3.org/2000/svg">
<path fill-rule="evenodd" clip-rule="evenodd" d="M21 18.75H15C14.1721 18.7488 13.5012 18.0779 13.5 17.25V15H15V17.25H21V6.75H15V9H13.5V6.75C13.5008 5.92192 14.1719 5.25083 15 5.25H21C21.8281 5.25083 22.4992 5.92192 22.5 6.75V17.25C22.4988 18.0779 21.8279 18.7488 21 18.75ZM6 11.25H9V12.75H6V11.25ZM15 11.25H18V12.75H15V11.25ZM10.5 11.25H13.5V12.75H10.5V11.25ZM9 18.75H3C2.17192 18.7492 1.50083 18.0781 1.5 17.25V6.75C1.50083 5.92192 2.17192 5.25083 3 5.25H9C9.82808 5.25083 10.4992 5.92192 10.5 6.75V9H9V6.75H3V17.25H9V15H10.5V17.25C10.4992 18.0781 9.82808 18.7492 9 18.75Z" fill="black"/>
</svg>
