<svg width="24" height="24" viewBox="0 0 24 24" fill="none" xmlns="http://www.w3.org/2000/svg">
<path fill-rule="evenodd" clip-rule="evenodd" d="M9 7.49998H5.085C7.0771 4.43843 10.8452 3.05124 14.3469 4.09032C17.8486 5.1294 20.2502 8.34737 20.25 12H21.75C21.7542 7.89038 19.1812 4.21934 15.3166 2.82139C11.4521 1.42343 7.12592 2.59874 4.5 5.75998V2.99998H3V8.99998H9V7.49998ZM15 16.5H18.915C16.9229 19.5615 13.1548 20.9487 9.65307 19.9096C6.15138 18.8706 3.74977 15.6526 3.75 12H2.25C2.24577 16.1096 4.81883 19.7806 8.68337 21.1786C12.5479 22.5765 16.8741 21.4012 19.5 18.24V21H21V15H15V16.5Z" fill="black"/>
</svg>
