<svg width="24" height="24" viewBox="0 0 24 24" fill="none" xmlns="http://www.w3.org/2000/svg">
<path fill-rule="evenodd" clip-rule="evenodd" d="M19.5 4.5H4.3725L7.0575 1.8075L6 0.75L1.5 5.25L6 9.75L7.0575 8.6925L4.3725 6H19.5V11.25H21V6C21 5.17157 20.3284 4.5 19.5 4.5ZM16.9425 15.3075L19.6275 18H4.5V12.75H3V18C3 18.8284 3.67157 19.5 4.5 19.5H19.6275L16.9425 22.1925L18 23.25L22.5 18.75L18 14.25L16.9425 15.3075ZM12.75 14.25V8.25H11.25V9H9.75V10.5H11.25V14.25H9.75V15.75H14.25V14.25H12.75Z" fill="black"/>
</svg>
