<svg width="24" height="24" viewBox="0 0 24 24" fill="none" xmlns="http://www.w3.org/2000/svg">
<path fill-rule="evenodd" clip-rule="evenodd" d="M21.66 22.5C21.3883 22.5038 21.1358 22.3603 21 22.125C18.9679 18.6633 15.264 16.5264 11.25 16.5V21C11.2485 21.3028 11.0651 21.5749 10.785 21.69C10.5057 21.8074 10.1832 21.7453 9.9675 21.5325L0.9675 12.5325C0.825515 12.3917 0.745651 12.2 0.745651 12C0.745651 11.8 0.825515 11.6083 0.9675 11.4675L9.9675 2.4675C10.1832 2.25469 10.5057 2.19256 10.785 2.31C11.0651 2.42506 11.2485 2.69723 11.25 3V7.5825C17.6684 8.40689 22.4812 13.8614 22.5 20.3325C22.4982 20.834 22.4657 21.335 22.4025 21.8325C22.3641 22.1525 22.1256 22.4121 21.81 22.4775L21.66 22.5ZM10.875 15C14.7462 14.9444 18.4471 16.5892 21 19.5C20.5339 13.8799 16.0555 9.43009 10.4325 9C10.0449 8.96498 9.74842 8.63923 9.75 8.25V4.8075L2.5575 12L9.75 19.1925V15.75C9.75 15.3358 10.0858 15 10.5 15H10.905H10.875Z" fill="black"/>
</svg>
