<svg width="24" height="24" viewBox="0 0 24 24" fill="none" xmlns="http://www.w3.org/2000/svg">
<path fill-rule="evenodd" clip-rule="evenodd" d="M16.5 16.5V21H4.5V3H12V1.5H4.5C3.67157 1.5 3 2.17157 3 3V21C3 21.8284 3.67157 22.5 4.5 22.5H16.5C17.3284 22.5 18 21.8284 18 21V16.5H16.5ZM22.155 4.32L19.68 1.845C19.2134 1.38763 18.4666 1.38763 18 1.845L7.5 12.345V16.5H11.6475L22.1475 6C22.6049 5.53339 22.6049 4.78661 22.1475 4.32H22.155ZM11.025 15H9V12.975L16.08 5.8875L18.1125 7.92L11.025 15ZM19.17 6.8625L17.1375 4.83L18.84 3.1275L20.8725 5.16L19.17 6.8625Z" fill="black"/>
</svg>
