<svg width="24" height="24" viewBox="0 0 24 24" fill="none" xmlns="http://www.w3.org/2000/svg">
<path fill-rule="evenodd" clip-rule="evenodd" d="M13.5 9.75V3H12V4.5H9.75V6H12V9.75H9.75V11.25H15.75V9.75H13.5ZM12.375 15C13.8247 15 15 16.1753 15 17.625C15 19.0747 13.8247 20.25 12.375 20.25C10.9253 20.25 9.75 19.0747 9.75 17.625C9.75 16.1753 10.9253 15 12.375 15ZM12.375 13.5C10.0968 13.5 8.25 15.3468 8.25 17.625C8.25 19.9032 10.0968 21.75 12.375 21.75C14.6532 21.75 16.5 19.9032 16.5 17.625C16.5 15.3468 14.6532 13.5 12.375 13.5ZM6 22.5H1.5V1.5H6V3H3V21H6V22.5ZM22.5 22.5H18V21H21V3H18V1.5H22.5V22.5Z" fill="black"/>
</svg>
