<svg width="24" height="24" viewBox="0 0 24 24" fill="none" xmlns="http://www.w3.org/2000/svg">
<path fill-rule="evenodd" clip-rule="evenodd" d="M16.4025 5.88L15.0975 5.13L12 10.5C11.1716 10.5 10.5 11.1716 10.5 12C10.5 12.8284 11.1716 13.5 12 13.5C12.8284 13.5 13.5 12.8284 13.5 12C13.4995 11.7366 13.4297 11.4779 13.2975 11.25L16.4025 5.88ZM12 1.5C6.20101 1.5 1.5 6.20101 1.5 12C1.5 17.799 6.20101 22.5 12 22.5C17.799 22.5 22.5 17.799 22.5 12C22.5 9.21523 21.3938 6.54451 19.4246 4.57538C17.4555 2.60625 14.7848 1.5 12 1.5ZM12 3C15.7078 3.00427 19.0334 5.28193 20.3775 8.7375C19.4855 8.29144 18.5602 7.91531 17.61 7.6125L16.86 8.94C18.2849 9.35799 19.649 9.96061 20.9175 10.7325C21.0475 11.5725 21.0475 12.4275 20.9175 13.2675C18.2279 14.8948 15.1436 15.7534 12 15.75C8.86152 15.7507 5.78274 14.8922 3.0975 13.2675C2.9675 12.4275 2.9675 11.5725 3.0975 10.7325C5.56195 9.23025 8.36654 8.37623 11.25 8.25V6.75C8.59815 6.85288 5.99835 7.51753 3.6225 8.7C4.97858 5.25918 8.30159 2.99822 12 3ZM12 21C8.29225 20.9957 4.96656 18.7181 3.6225 15.2625C6.22188 16.569 9.09075 17.2496 12 17.25C14.9093 17.2496 17.7781 16.569 20.3775 15.2625C19.0334 18.7181 15.7078 20.9957 12 21Z" fill="black"/>
</svg>
