<svg width="24" height="24" viewBox="0 0 24 24" fill="none" xmlns="http://www.w3.org/2000/svg">
<path fill-rule="evenodd" clip-rule="evenodd" d="M22.5 8.25V2.25C22.5 1.83579 22.1642 1.5 21.75 1.5H14.25C13.8358 1.5 13.5 1.83579 13.5 2.25V8.25C13.5035 10.4437 15.0872 12.3157 17.25 12.6825V21H14.25V22.5H21.75V21H18.75V12.6825C20.9128 12.3157 22.4965 10.4437 22.5 8.25ZM15 8.25V3H21V8.25C21 9.90685 19.6569 11.25 18 11.25C16.3431 11.25 15 9.90685 15 8.25ZM9 1.5V8.265C8.99835 9.9046 7.6696 11.2333 6.03 11.235C4.37395 11.2496 3.01854 9.92101 3 8.265V1.5H1.5V8.265C1.51523 10.4476 3.09729 12.3034 5.25 12.6637V22.5H6.75V12.6713C8.90938 12.3173 10.4958 10.4532 10.5 8.265V1.5H9ZM5.25 1.5H6.75V8.985H5.25V1.5Z" fill="black"/>
</svg>
