<svg width="24" height="24" viewBox="0 0 24 24" fill="none" xmlns="http://www.w3.org/2000/svg">
<path fill-rule="evenodd" clip-rule="evenodd" d="M6.75 1.49998H8.25V8.99998H6.75V1.49998ZM10.5 8.24998C10.5 9.90683 9.15685 11.25 7.5 11.25C5.84315 11.25 4.5 9.90683 4.5 8.24998V1.49998H3V8.24998C3.00222 10.4441 4.58655 12.3168 6.75 12.6825V22.5H8.25V12.6825C10.4135 12.3168 11.9978 10.4441 12 8.24998V1.49998H10.5V8.24998ZM16.5 1.49998H15.75V22.5H17.25V15H19.5C20.3284 15 21 14.3284 21 13.5V5.99998C21.0469 4.79273 20.5879 3.62069 19.7336 2.7664C18.8793 1.91211 17.7072 1.45308 16.5 1.49998ZM19.5 13.5H17.25V3.06748C19.41 3.48748 19.5 5.72248 19.5 5.99998V13.5Z" fill="black"/>
</svg>
