<svg width="24" height="24" viewBox="0 0 24 24" fill="none" xmlns="http://www.w3.org/2000/svg">
<path fill-rule="evenodd" clip-rule="evenodd" d="M3 13.5C3 18.4706 7.02944 22.5 12 22.5C16.9706 22.5 21 18.4706 21 13.5C21 8.52944 16.9706 4.5 12 4.5H9V0.75L4.5 5.25L9 9.75V6H12C16.1421 6 19.5 9.35786 19.5 13.5C19.5 17.6421 16.1421 21 12 21C7.85786 21 4.5 17.6421 4.5 13.5H3ZM14.7225 16.5975C14.3911 16.6056 14.0624 16.5363 13.7625 16.395C13.4962 16.2598 13.267 16.0616 13.095 15.8175C12.9064 15.5327 12.774 15.2145 12.705 14.88C12.6164 14.466 12.5736 14.0434 12.5775 13.62C12.5745 13.1966 12.6172 12.7742 12.705 12.36C12.7754 12.0259 12.9077 11.7079 13.095 11.4225C13.267 11.1784 13.4962 10.9802 13.7625 10.845C14.0624 10.7037 14.3911 10.6344 14.7225 10.6425C15.3561 10.5943 15.9693 10.8782 16.3425 11.3925C16.7292 12.0577 16.9118 12.8219 16.8675 13.59C16.9118 14.3581 16.7292 15.1223 16.3425 15.7875C15.9833 16.3245 15.3676 16.6324 14.7225 16.5975ZM14.7225 15.6825C15.0311 15.7009 15.3228 15.5405 15.4725 15.27C15.6517 14.9192 15.7468 14.5314 15.75 14.1375V13.1025C15.7662 12.7157 15.6917 12.3304 15.5325 11.9775C15.3622 11.7166 15.0716 11.5592 14.76 11.5592C14.4484 11.5592 14.1578 11.7166 13.9875 11.9775C13.8283 12.3304 13.7538 12.7157 13.77 13.1025V14.1375C13.7545 14.5267 13.829 14.9142 13.9875 15.27C14.1335 15.5367 14.4188 15.6969 14.7225 15.6825ZM7.9725 16.5V15.615H9.4725V11.7225L8.0775 12.4725L7.665 11.6775L9.405 10.7025H10.5V15.5775H11.835V16.5H7.9725Z" fill="black"/>
</svg>
