<svg width="24" height="24" viewBox="0 0 24 24" fill="none" xmlns="http://www.w3.org/2000/svg">
<path fill-rule="evenodd" clip-rule="evenodd" d="M3 13.5C3 18.4706 7.02944 22.5 12 22.5C16.9706 22.5 21 18.4706 21 13.5C21 8.52944 16.9706 4.5 12 4.5H9V0.75L4.5 5.25L9 9.75V6H12C16.1421 6 19.5 9.35786 19.5 13.5C19.5 17.6421 16.1421 21 12 21C7.85786 21 4.5 17.6421 4.5 13.5H3ZM13.935 11.685H11.3475L11.25 13.6125C11.3089 13.4966 11.374 13.3839 11.445 13.275C11.5137 13.1755 11.5972 13.0869 11.6925 13.0125C11.7924 12.9374 11.9038 12.8792 12.0225 12.84C12.1686 12.7973 12.3203 12.7771 12.4725 12.78C12.7079 12.777 12.9419 12.8177 13.1625 12.9C13.3713 12.9785 13.5607 13.1013 13.7175 13.26C13.8804 13.4251 14.008 13.6216 14.0925 13.8375C14.184 14.0768 14.2298 14.3313 14.2275 14.5875C14.2315 14.8616 14.1832 15.134 14.085 15.39C13.9943 15.6272 13.8536 15.842 13.6725 16.02C13.4824 16.2041 13.2547 16.3449 13.005 16.4325C12.7149 16.54 12.4068 16.5909 12.0975 16.5825C11.86 16.5846 11.6231 16.5568 11.3925 16.5C11.1975 16.4453 11.0109 16.3646 10.8375 16.26C10.6843 16.1681 10.5454 16.0544 10.425 15.9225C10.3112 15.7938 10.2084 15.6558 10.1175 15.51L10.9125 14.9025L11.115 15.21C11.1883 15.3059 11.2741 15.3917 11.37 15.465C11.4685 15.5361 11.5772 15.5917 11.6925 15.63C11.8251 15.6752 11.965 15.6955 12.105 15.69C12.3822 15.712 12.6554 15.6136 12.855 15.42C13.0313 15.2113 13.12 14.9426 13.1025 14.67V14.625C13.1234 14.3652 13.0287 14.1094 12.8437 13.9258C12.6587 13.7423 12.4021 13.6496 12.1425 13.6725C11.9412 13.6627 11.7411 13.7095 11.565 13.8075C11.4301 13.8851 11.3086 13.9839 11.205 14.1L10.3125 13.9725L10.53 10.74H13.92L13.935 11.685Z" fill="black"/>
</svg>
