<svg width="24" height="24" viewBox="0 0 24 24" fill="none" xmlns="http://www.w3.org/2000/svg">
<path d="M11.2716 16.6192C10.8046 16.1523 10.3376 15.6855 9.86064 15.2186C8.74775 16.3312 7.64479 17.4338 6.5319 18.5464C6.17418 18.1888 5.8264 17.8411 5.46869 17.4835C6.58158 16.3709 7.68454 15.2682 8.79743 14.1557C8.33041 13.6888 7.86339 13.2318 7.40631 12.7649C5.65748 12.5166 3.90865 12.2683 2.14989 12.01C1.8816 11.9702 1.65306 11.7914 1.55369 11.5431C1.45433 11.2947 1.49407 11.0067 1.66299 10.7881C2.66659 9.53648 3.66024 8.28482 4.66383 7.03317C4.80294 6.85437 5.02154 6.7451 5.25008 6.7451C7.14796 6.7451 9.04584 6.7451 10.9437 6.7451C11.8877 5.80139 12.8317 4.85769 13.7756 3.91398C15.3158 2.36432 17.4223 1.49015 19.6084 1.50008C20.0754 1.50008 20.5424 1.50008 20.9995 1.50008C21.8242 1.50008 22.4999 2.17558 22.4999 3.00008C22.4999 3.46696 22.4999 3.93385 22.4999 4.3908C22.5099 6.57622 21.6354 8.68217 20.0853 10.2219C19.1414 11.1656 18.1974 12.1093 17.2534 13.053C17.2534 14.9504 17.2534 16.8477 17.2534 18.745C17.2534 18.9735 17.1441 19.1921 16.9653 19.3311C15.7133 20.3344 14.4613 21.3278 13.2093 22.3311C13.0801 22.4404 12.9112 22.5 12.7422 22.5C12.6429 22.5 12.5534 22.4801 12.464 22.4503C12.2156 22.351 12.0367 22.1225 11.997 21.8543C11.7784 20.1159 11.52 18.3676 11.2716 16.6192Z" fill="black"/>
</svg>
