<svg width="24" height="24" viewBox="0 0 24 24" fill="none" xmlns="http://www.w3.org/2000/svg">
<path fill-rule="evenodd" clip-rule="evenodd" d="M21 22.5H12C11.1719 22.4992 10.5008 21.8281 10.5 21V12C10.5008 11.1719 11.1719 10.5008 12 10.5H21C21.8281 10.5008 22.4992 11.1719 22.5 12V21C22.4992 21.8281 21.8281 22.4992 21 22.5ZM11.25 1.5L10.1925 2.5575L12.1275 4.5H8.25C5.35188 4.50331 3.00331 6.85188 3 9.75V13.5H4.5V9.75C4.50248 7.67996 6.17996 6.00248 8.25 6H12.1275L10.1925 7.9425L11.25 9L15 5.25L11.25 1.5Z" fill="black"/>
</svg>
