<svg width="24" height="24" viewBox="0 0 24 24" fill="none" xmlns="http://www.w3.org/2000/svg">
<path fill-rule="evenodd" clip-rule="evenodd" d="M13.4325 20.115L13.695 21.615C14.8146 21.4198 15.891 21.0288 16.875 20.46L16.125 19.1625C15.2905 19.6358 14.379 19.9583 13.4325 20.115ZM18.315 17.3025L19.5 18.2625C20.2264 17.3903 20.795 16.3978 21.18 15.33L19.7775 14.82C19.4394 15.7269 18.9443 16.5672 18.315 17.3025ZM7.12498 20.4375C8.10891 21.0063 9.18537 21.3973 10.305 21.5925L10.5675 20.0925C9.61952 19.9288 8.70799 19.5987 7.87498 19.1175L7.12498 20.4375ZM4.25248 14.82L2.84998 15.33C3.22587 16.3957 3.78418 17.388 4.49998 18.2625L4.73998 18.0675L5.65498 17.3175C5.03629 16.5799 4.55147 15.7397 4.22248 14.835L4.25248 14.82ZM21.75 12C21.7479 10.8633 21.5448 9.73593 21.15 8.67L19.7475 9.18C20.0755 10.0842 20.2455 11.0381 20.25 12H21.75ZM19.5 5.7375C17.6476 3.50751 14.899 2.21747 12 2.21747C9.10099 2.21747 6.35234 3.50751 4.49998 5.7375V3H2.99998V9H8.99998V7.5H5.10748C6.53479 5.3195 8.90848 3.94161 11.5098 3.78355C14.1111 3.6255 16.6342 4.70585 18.315 6.6975L19.5 5.7375Z" fill="black"/>
</svg>
