<svg width="24" height="24" viewBox="0 0 24 24" fill="none" xmlns="http://www.w3.org/2000/svg">
<path fill-rule="evenodd" clip-rule="evenodd" d="M1.5 21V12C1.50083 11.1719 2.17192 10.5008 3 10.5H12C12.8281 10.5008 13.4992 11.1719 13.5 12V21C13.4992 21.8281 12.8281 22.4992 12 22.5H3C2.17192 22.4992 1.50083 21.8281 1.5 21ZM3 12L2.99925 21H12V12H3ZM12.75 1.5L13.8075 2.5575L11.8725 4.5H15.75C18.6481 4.50331 20.9967 6.85188 21 9.75V13.5H19.5V9.75C19.4975 7.67996 17.82 6.00248 15.75 6H11.8725L13.8075 7.9425L12.75 9L9 5.25L12.75 1.5Z" fill="black"/>
</svg>
