<svg width="24" height="24" viewBox="0 0 24 24" fill="none" xmlns="http://www.w3.org/2000/svg">
<path fill-rule="evenodd" clip-rule="evenodd" d="M22.0575 16.2525L7.75504 1.93505C7.47368 1.65338 7.0919 1.49512 6.69379 1.49512C6.29567 1.49512 5.91389 1.65338 5.63254 1.93505L1.94254 5.63255C1.36095 6.2176 1.36095 7.16249 1.94254 7.74755L16.245 22.065C16.5281 22.3458 16.9113 22.5024 17.31 22.5C17.7061 22.5004 18.0863 22.344 18.3675 22.065L22.0575 18.3675C22.6391 17.7825 22.6391 16.8376 22.0575 16.2525ZM17.31 21L3.00004 6.69005L6.69004 3.00005L9.53254 5.84255L7.84504 7.50005L8.90254 8.55755L10.59 6.90005L13.6875 9.99755L12 11.685L13.065 12.75L14.7525 11.0625L17.85 14.16L16.1625 15.8475L17.25 16.905L18.9375 15.2175L21 17.31L17.31 21Z" fill="black"/>
</svg>
