<svg width="24" height="24" viewBox="0 0 24 24" fill="none" xmlns="http://www.w3.org/2000/svg">
<path fill-rule="evenodd" clip-rule="evenodd" d="M15.75 12C18.2353 12 20.25 14.0147 20.25 16.5C20.25 18.9853 18.2353 21 15.75 21C13.2647 21 11.25 18.9853 11.25 16.5C11.25 14.0147 13.2647 12 15.75 12ZM15.75 10.5C12.4363 10.5 9.75 13.1863 9.75 16.5C9.75 19.8137 12.4363 22.5 15.75 22.5C19.0637 22.5 21.75 19.8137 21.75 16.5C21.75 13.1863 19.0637 10.5 15.75 10.5ZM19.5 3H4.5C3.67157 3 3 3.67157 3 4.5V19.5C3 20.3284 3.67157 21 4.5 21H7.5V19.5H4.5V9H21V4.5C21 3.67157 20.3284 3 19.5 3ZM4.5 7.5V4.5H19.5V7.5H4.5ZM14.25 14.25V18.75L18 16.5L14.25 14.25Z" fill="black"/>
</svg>
