<svg width="24" height="24" viewBox="0 0 24 24" fill="none" xmlns="http://www.w3.org/2000/svg">
<path fill-rule="evenodd" clip-rule="evenodd" d="M16.17 11.325L13.56 8.0625C13.2755 7.70721 12.8451 7.50028 12.39 7.5H3C2.17157 7.5 1.5 8.17157 1.5 9V21C1.5 21.8284 2.17157 22.5 3 22.5H15C15.8284 22.5 16.5 21.8284 16.5 21V12.2625C16.4997 11.9216 16.3833 11.5909 16.17 11.325ZM6.75 9H11.25V11.25H6.75V9ZM11.25 21H6.75V16.5H11.25V21ZM12.75 21V16.5C12.75 15.6716 12.0784 15 11.25 15H6.75C5.92157 15 5.25 15.6716 5.25 16.5V21H3V9H5.25V11.25C5.25 12.0784 5.92157 12.75 6.75 12.75H11.25C12.0784 12.75 12.75 12.0784 12.75 11.25V9.45L15 12.2625V21H12.75ZM20.25 15.75H18.75V5.25H8.25V3.75H18.75C19.5784 3.75 20.25 4.42157 20.25 5.25V15.75ZM24 10.5H22.5V1.5H13.5V0H22.5C23.3284 0 24 0.671573 24 1.5V10.5Z" fill="black"/>
</svg>
