<svg width="24" height="24" viewBox="0 0 24 24" fill="none" xmlns="http://www.w3.org/2000/svg">
<path fill-rule="evenodd" clip-rule="evenodd" d="M20.8 7L17 3.2C16.9 3.1 16.7 3 16.5 3H4.5C3.7 3 3 3.7 3 4.5V19.5C3 20.3 3.7 21 4.5 21H19.5C20.3 21 21 20.3 21 19.5V7.5C21 7.3 20.9 7.1 20.8 7ZM9 4.5H15V7.5H9V4.5ZM15 19.5H9V13.5H15V19.5ZM16.5 19.5V13.5C16.5 12.7 15.8 12 15 12H9C8.2 12 7.5 12.7 7.5 13.5V19.5H4.5V4.5H7.5V7.5C7.5 8.3 8.2 9 9 9H15C15.8 9 16.5 8.3 16.5 7.5V4.8L19.5 7.8V19.5H16.5Z" fill="black"/>
</svg>
