<svg width="24" height="24" viewBox="0 0 24 24" fill="none" xmlns="http://www.w3.org/2000/svg">
<path fill-rule="evenodd" clip-rule="evenodd" d="M21.6224 3.87747C20.4343 2.74413 18.5654 2.74413 17.3774 3.87747L0.254883 21H7.19238C8.18503 20.9998 9.13709 20.606 9.83988 19.905L21.6224 8.12247C22.1857 7.55976 22.5022 6.7962 22.5022 5.99997C22.5022 5.20374 22.1857 4.44017 21.6224 3.87747ZM9.21738 14.16L10.7849 12.5925L12.9074 14.715L11.3399 16.2825L9.21738 14.16ZM8.78238 18.84C8.36083 19.262 7.78892 19.4994 7.19238 19.5H3.87738L8.15988 15.2175L10.2824 17.34L8.78238 18.84ZM20.5574 7.05747L13.9649 13.6575L11.8424 11.535L18.4424 4.94247C19.0274 4.36088 19.9723 4.36088 20.5574 4.94247C21.139 5.52752 21.139 6.47241 20.5574 7.05747Z" fill="black"/>
</svg>
