<svg width="24" height="24" viewBox="0 0 24 24" fill="none" xmlns="http://www.w3.org/2000/svg">
<path fill-rule="evenodd" clip-rule="evenodd" d="M9.75 12.75H5.25C4.42157 12.75 3.75 13.4216 3.75 14.25V18.75C3.75 19.5784 4.42157 20.25 5.25 20.25H9.75C10.5784 20.25 11.25 19.5784 11.25 18.75V14.25C11.25 13.4216 10.5784 12.75 9.75 12.75ZM5.25 18.75V14.25H9.75V18.75H5.25ZM14.25 15.75V17.25H18.75C19.5784 17.25 20.25 16.5784 20.25 15.75V5.25C20.25 4.42157 19.5784 3.75 18.75 3.75H8.25C7.42157 3.75 6.75 4.42157 6.75 5.25V9.75H8.25V5.25H18.75V15.75" fill="black"/>
</svg>
