<svg width="24" height="24" viewBox="0 0 24 24" fill="none" xmlns="http://www.w3.org/2000/svg">
<path fill-rule="evenodd" clip-rule="evenodd" d="M19.7806 3.21746C19.5739 3.01178 19.2668 2.94451 18.9931 3.04497L2.494 9.04465C2.20267 9.15515 2.01001 9.43428 2.01001 9.74587C2.01001 10.0574 2.20267 10.3366 2.494 10.4471L9.69362 13.3269L12.5735 20.5265C12.6841 20.8046 12.9493 20.9903 13.2484 20.999C13.5587 20.9927 13.833 20.7959 13.9384 20.504L19.9381 4.00492C20.0424 3.73407 19.981 3.42736 19.7806 3.21746ZM13.2484 18.1492L11.156 12.8994L14.7484 9.30714L13.6909 8.24969L10.0686 11.872L4.84888 9.74962L17.9957 5.00236L13.2484 18.1492Z" fill="black"/>
</svg>
