<svg width="24" height="24" viewBox="0 0 24 24" fill="none" xmlns="http://www.w3.org/2000/svg">
<path fill-rule="evenodd" clip-rule="evenodd" d="M20.25 12.5699V11.4224L21.69 10.1624C22.2381 9.6794 22.3584 8.87179 21.975 8.24994L20.205 5.24994C19.9373 4.78632 19.4429 4.50049 18.9075 4.49994C18.7445 4.49869 18.5824 4.52403 18.4275 4.57494L16.605 5.18994C16.2904 4.98085 15.9621 4.79293 15.6225 4.62744L15.24 2.73744C15.0985 2.02477 14.4665 1.51602 13.74 1.52994H10.23C9.50355 1.51602 8.87156 2.02477 8.73001 2.73744L8.34751 4.62744C8.00546 4.79289 7.67474 4.9808 7.35751 5.18994L5.57251 4.54494C5.41598 4.50416 5.25389 4.48896 5.09251 4.49994C4.55716 4.50049 4.06268 4.78632 3.79501 5.24994L2.02501 8.24994C1.66396 8.8702 1.79286 9.65931 2.33251 10.1324L3.75001 11.4299V12.5774L2.33251 13.8374C1.77695 14.3144 1.64697 15.1228 2.02501 15.7499L3.79501 18.7499C4.06268 19.2136 4.55716 19.4994 5.09251 19.4999C5.25552 19.5012 5.41765 19.4759 5.57251 19.4249L7.39501 18.8099C7.70966 19.019 8.03789 19.207 8.37751 19.3724L8.76001 21.2624C8.90156 21.9751 9.53355 22.4839 10.26 22.4699H13.8C14.5265 22.4839 15.1585 21.9751 15.3 21.2624L15.6825 19.3724C16.0246 19.207 16.3553 19.0191 16.6725 18.8099L18.4875 19.4249C18.6424 19.4759 18.8045 19.5012 18.9675 19.4999C19.5029 19.4994 19.9973 19.2136 20.265 18.7499L21.975 15.7499C22.3361 15.1297 22.2072 14.3406 21.6675 13.8674L20.25 12.5699ZM18.9075 17.9999L16.335 17.1299C15.7328 17.64 15.0446 18.0388 14.3025 18.3074L13.77 20.9999H10.23L9.69751 18.3374C8.96133 18.0611 8.2768 17.6631 7.67251 17.1599L5.09251 17.9999L3.32251 14.9999L5.36251 13.1999C5.22383 12.4236 5.22383 11.6288 5.36251 10.8524L3.32251 8.99994L5.09251 5.99994L7.66501 6.86994C8.26721 6.35986 8.95546 5.96113 9.69751 5.69244L10.23 2.99994H13.77L14.3025 5.66244C15.0387 5.93876 15.7232 6.3368 16.3275 6.83994L18.9075 5.99994L20.6775 8.99994L18.6375 10.7999C18.7762 11.5763 18.7762 12.3711 18.6375 13.1474L20.6775 14.9999L18.9075 17.9999ZM12 16.4999C9.51473 16.4999 7.50001 14.4852 7.50001 11.9999C7.50001 9.51466 9.51473 7.49994 12 7.49994C14.4853 7.49994 16.5 9.51466 16.5 11.9999C16.5122 13.1971 16.042 14.3488 15.1954 15.1953C14.3488 16.0419 13.1972 16.5121 12 16.4999ZM12 8.99994C11.1988 8.98128 10.4248 9.29135 9.85812 9.85806C9.29142 10.4248 8.98134 11.1987 9.00001 11.9999C8.98134 12.8012 9.29142 13.5751 9.85812 14.1418C10.4248 14.7085 11.1988 15.0186 12 14.9999C12.8012 15.0186 13.5752 14.7085 14.1419 14.1418C14.7086 13.5751 15.0187 12.8012 15 11.9999C15.0187 11.1987 14.7086 10.4248 14.1419 9.85806C13.5752 9.29135 12.8012 8.98128 12 8.99994Z" fill="black"/>
</svg>
