<svg width="24" height="24" viewBox="0 0 24 24" fill="none" xmlns="http://www.w3.org/2000/svg">
<path fill-rule="evenodd" clip-rule="evenodd" d="M22.5 5.24998H18.675C18.3201 3.50223 16.7834 2.24622 15 2.24622C13.2166 2.24622 11.6799 3.50223 11.325 5.24998H1.5V6.74998H11.325C11.6799 8.49772 13.2166 9.75373 15 9.75373C16.7834 9.75373 18.3201 8.49772 18.675 6.74998H22.5V5.24998ZM15 8.24998C13.7574 8.24998 12.75 7.24262 12.75 5.99998C12.75 4.75733 13.7574 3.74998 15 3.74998C16.2426 3.74998 17.25 4.75733 17.25 5.99998C17.25 7.24262 16.2426 8.24998 15 8.24998ZM1.5 18.75H5.325C5.67989 20.4977 7.21659 21.7537 9 21.7537C10.7834 21.7537 12.3201 20.4977 12.675 18.75H22.5V17.25H12.675C12.3201 15.5022 10.7834 14.2462 9 14.2462C7.21659 14.2462 5.67989 15.5022 5.325 17.25H1.5V18.75ZM6.75 18C6.75 16.7573 7.75736 15.75 9 15.75C10.2426 15.75 11.25 16.7573 11.25 18C11.25 19.2426 10.2426 20.25 9 20.25C7.75736 20.25 6.75 19.2426 6.75 18Z" fill="black"/>
</svg>
