<svg width="24" height="24" viewBox="0 0 24 24" fill="none" xmlns="http://www.w3.org/2000/svg">
<path fill-rule="evenodd" clip-rule="evenodd" d="M17.25 15C16.1129 15.0057 15.0398 15.5271 14.3325 16.4175L8.84999 12.99C9.0498 12.3451 9.0498 11.6549 8.84999 11.01L14.3325 7.58252C15.4815 9.00524 17.4891 9.39172 19.0841 8.49724C20.6792 7.60276 21.3964 5.68821 20.7817 3.9659C20.167 2.24358 18.3996 1.21583 16.5987 1.53342C14.7977 1.85102 13.4885 3.42133 13.5 5.25002C13.5035 5.58541 13.554 5.91864 13.65 6.24002L8.16749 9.66752C7.17542 8.41864 5.50195 7.93394 3.99599 8.45928C2.49004 8.98463 1.48117 10.4051 1.48117 12C1.48117 13.595 2.49004 15.0154 3.99599 15.5408C5.50195 16.0661 7.17542 15.5814 8.16749 14.3325L13.65 17.76C13.554 18.0814 13.5035 18.4146 13.5 18.75C13.5 20.8211 15.1789 22.5 17.25 22.5C19.3211 22.5 21 20.8211 21 18.75C21 16.679 19.3211 15 17.25 15ZM17.25 3.00002C18.4926 3.00002 19.5 4.00738 19.5 5.25002C19.5 6.49266 18.4926 7.50002 17.25 7.50002C16.0073 7.50002 15 6.49266 15 5.25002C15 4.00738 16.0073 3.00002 17.25 3.00002ZM5.24999 14.25C4.00734 14.25 2.99999 13.2427 2.99999 12C2.99999 10.7574 4.00734 9.75002 5.24999 9.75002C6.49263 9.75002 7.49999 10.7574 7.49999 12C7.49999 13.2427 6.49263 14.25 5.24999 14.25ZM17.25 21C16.0073 21 15 19.9927 15 18.75C15 17.5074 16.0073 16.5 17.25 16.5C18.4926 16.5 19.5 17.5074 19.5 18.75C19.5 19.9927 18.4926 21 17.25 21Z" fill="black"/>
</svg>
