<svg width="24" height="24" viewBox="0 0 24 24" fill="none" xmlns="http://www.w3.org/2000/svg">
<path fill-rule="evenodd" clip-rule="evenodd" d="M7.5 22.5C8.32843 22.5 9 21.8284 9 21C9 20.1716 8.32843 19.5 7.5 19.5C6.67157 19.5 6 20.1716 6 21C6 21.8284 6.67157 22.5 7.5 22.5ZM18 22.5C18.8284 22.5 19.5 21.8284 19.5 21C19.5 20.1716 18.8284 19.5 18 19.5C17.1716 19.5 16.5 20.1716 16.5 21C16.5 21.8284 17.1716 22.5 18 22.5ZM21 5.25H4.365L3.75 2.1C3.67764 1.74516 3.36207 1.4927 3 1.5H0V3H2.385L5.25 17.4C5.32236 17.7548 5.63793 18.0073 6 18H19.5V16.5H6.615L6 13.5H19.5C19.8575 13.5087 20.1714 13.2639 20.25 12.915L21.75 6.165C21.8009 5.9395 21.745 5.70312 21.5985 5.52433C21.4519 5.34554 21.2311 5.24432 21 5.25ZM18.9 12H5.715L4.665 6.75H20.0625L18.9 12Z" fill="black"/>
</svg>
