<svg width="24" height="24" viewBox="0 0 24 24" fill="none" xmlns="http://www.w3.org/2000/svg">
<path fill-rule="evenodd" clip-rule="evenodd" d="M21.57 8.5125C21.4275 8.3459 21.2192 8.24999 21 8.25H16.5V5.25C16.5 4.00736 15.4926 3 14.25 3H9.74995C8.50731 3 7.49995 4.00736 7.49995 5.25V8.25H2.99995C2.77992 8.24751 2.5699 8.34177 2.42551 8.50782C2.28112 8.67387 2.21693 8.89495 2.24995 9.1125L3.65995 18.225C3.77211 18.9646 4.41199 19.5085 5.15995 19.5H18.855C19.6029 19.5085 20.2428 18.9646 20.355 18.225L21.75 9.1125C21.7803 8.89582 21.7146 8.67667 21.57 8.5125ZM8.99995 5.25C8.99995 4.83579 9.33574 4.5 9.74995 4.5H14.25C14.6642 4.5 15 4.83579 15 5.25V8.25H8.99995V5.25ZM18.855 18H5.14495L3.87745 9.75H20.1225L18.855 18Z" fill="black"/>
</svg>
