<svg width="24" height="24" viewBox="0 0 24 24" fill="none" xmlns="http://www.w3.org/2000/svg">
<path fill-rule="evenodd" clip-rule="evenodd" d="M3 16.5H9.75V15H3V5.25H19.5V12H21V5.25C20.9992 4.42192 20.3281 3.75083 19.5 3.75H3C2.17192 3.75083 1.50083 4.42192 1.5 5.25V15C1.50083 15.8281 2.17192 16.4992 3 16.5ZM9 7.5V10.1895L5.78025 6.96975L4.71975 8.03025L7.9395 11.25H5.25V12.75H10.5V7.5H9ZM11.25 15C11.25 14.1716 11.9216 13.5 12.75 13.5H21C21.8284 13.5 22.5 14.1716 22.5 15V19.5C22.5 20.3284 21.8284 21 21 21H12.75C11.9216 21 11.25 20.3284 11.25 19.5V15Z" fill="black"/>
</svg>
