<svg width="24" height="24" viewBox="0 0 24 24" fill="none" xmlns="http://www.w3.org/2000/svg">
<path fill-rule="evenodd" clip-rule="evenodd" d="M21 21H12.75C11.9219 20.9992 11.2508 20.3281 11.25 19.5V15C11.2508 14.1719 11.9219 13.5008 12.75 13.5H21C21.8279 13.5012 22.4988 14.1721 22.5 15V19.5C22.4988 20.3279 21.8279 20.9988 21 21ZM12.75 15V19.5H21.0015L21 15H12.75ZM9 7.5V10.1895L5.78025 6.96975L4.71975 8.03025L7.9395 11.25H5.25V12.75H10.5V7.5H9ZM9.75 16.5H3C2.17192 16.4992 1.50083 15.8281 1.5 15V5.25C1.50083 4.42192 2.17192 3.75083 3 3.75H19.5C20.3281 3.75083 20.9992 4.42192 21 5.25V12H19.5V5.25H3V15H9.75V16.5Z" fill="black"/>
</svg>
