<svg width="24" height="24" viewBox="0 0 24 24" fill="none" xmlns="http://www.w3.org/2000/svg">
<path fill-rule="evenodd" clip-rule="evenodd" d="M15 16.5H16.5L12.75 7.5H11.25L7.5 16.5H9L9.93 14.25H14.0775L15 16.5ZM10.5525 12.75L11.9175 9.435H12.105L13.5 12.75H10.5525ZM9 21H4.5C3.67157 21 3 20.3284 3 19.5V4.5C3 3.67157 3.67157 3 4.5 3H19.5C20.3284 3 21 3.67157 21 4.5V12.75H19.5V4.5H4.5V19.5H9V21ZM17.25 20.385L15.3075 18.4425L14.25 19.5L17.25 22.5L22.5 17.25L21.4425 16.1925L17.25 20.385Z" fill="black"/>
</svg>
