<svg width="24" height="24" viewBox="0 0 24 24" fill="none" xmlns="http://www.w3.org/2000/svg">
<path fill-rule="evenodd" clip-rule="evenodd" d="M2.25 8.25V9.75H6.4425L1.7175 14.4675L2.7825 15.5325L7.5 10.8075V15H9V8.25H2.25ZM19.5 9.75H17.25V9H15.75V9.75H13.5C12.6716 9.75 12 10.4216 12 11.25V12.75C12 13.5784 12.6716 14.25 13.5 14.25H15.75V15H17.25V14.25H19.5C20.3284 14.25 21 13.5784 21 12.75V11.25C21 10.4216 20.3284 9.75 19.5 9.75ZM13.5 12.75V11.25H19.5V12.75H13.5ZM19.5 17.25H17.25V16.5H15.75V17.25H13.5C12.6716 17.25 12 17.9216 12 18.75V20.25C12 21.0784 12.6716 21.75 13.5 21.75H15.75V22.5H17.25V21.75H19.5C20.3284 21.75 21 21.0784 21 20.25V18.75C21 17.9216 20.3284 17.25 19.5 17.25ZM13.5 20.25V18.75H19.5V20.25H13.5ZM19.5 2.25H17.25V1.5H15.75V2.25H13.5C12.6716 2.25 12 2.92157 12 3.75V5.25C12 6.07843 12.6716 6.75 13.5 6.75H15.75V7.5H17.25V6.75H19.5C20.3284 6.75 21 6.07843 21 5.25V3.75C21 2.92157 20.3284 2.25 19.5 2.25ZM13.5 5.25V3.75H19.5V5.25H13.5Z" fill="black"/>
</svg>
