<svg width="24" height="24" viewBox="0 0 24 24" fill="none" xmlns="http://www.w3.org/2000/svg">
<path fill-rule="evenodd" clip-rule="evenodd" d="M11.25 3H12.75V21H11.25V3ZM7.5 5.25V18.75H3V5.25H7.5ZM7.5 3.75H3C2.17157 3.75 1.5 4.42157 1.5 5.25V18.75C1.5 19.5784 2.17157 20.25 3 20.25H7.5C8.32843 20.25 9 19.5784 9 18.75V5.25C9 4.42157 8.32843 3.75 7.5 3.75ZM21 5.25V18.75H16.5V5.25H21ZM21 3.75H16.5C15.6716 3.75 15 4.42157 15 5.25V18.75C15 19.5784 15.6716 20.25 16.5 20.25H21C21.8284 20.25 22.5 19.5784 22.5 18.75V5.25C22.5 4.42157 21.8284 3.75 21 3.75Z" fill="black"/>
</svg>
