<svg width="24" height="24" viewBox="0 0 24 24" fill="none" xmlns="http://www.w3.org/2000/svg">
<path fill-rule="evenodd" clip-rule="evenodd" d="M16.875 17.25C15.011 17.25 13.5 15.739 13.5 13.875C13.5 12.011 15.011 10.5 16.875 10.5C18.739 10.5 20.25 12.011 20.25 13.875C20.2479 15.7381 18.7381 17.2479 16.875 17.25ZM16.875 12C15.8395 12 15 12.8395 15 13.875C15 14.9105 15.8395 15.75 16.875 15.75C17.9105 15.75 18.75 14.9105 18.75 13.875C18.7488 12.84 17.91 12.0012 16.875 12ZM21 6H19.5V2.25H14.25V6H12.75C11.9219 6.00083 11.2508 6.67192 11.25 7.5V21C11.2508 21.8281 11.9219 22.4992 12.75 22.5H21C21.8279 22.4988 22.4988 21.8279 22.5 21V7.5C22.4992 6.67192 21.8281 6.00083 21 6ZM15.75 3.75H18V6H15.75V3.75ZM12.75 21V7.5H21L21.0015 21H12.75ZM1.5 10.5H3.75V12.75H1.5V10.5ZM5.25 6.75H7.5V9H5.25V6.75ZM1.5 6.75H3.75V9H1.5V6.75ZM9 3H11.25V5.25H9V3ZM5.25 3H7.5V5.25H5.25V3ZM1.5 3H3.75V5.25H1.5V3Z" fill="black"/>
</svg>
