<svg width="24" height="24" viewBox="0 0 24 24" fill="none" xmlns="http://www.w3.org/2000/svg">
<path fill-rule="evenodd" clip-rule="evenodd" d="M6 22.5H1.5C0.671573 22.5 0 21.8284 0 21V10.5C0 9.67157 0.671573 9 1.5 9H6C6.82843 9 7.5 9.67157 7.5 10.5V21C7.5 21.8284 6.82843 22.5 6 22.5ZM1.5 10.5V21H6V10.5H1.5ZM15 22.5H10.5C9.67157 22.5 9 21.8284 9 21V10.5C9 9.67157 9.67157 9 10.5 9H15C15.8284 9 16.5 9.67157 16.5 10.5V21C16.5 21.8284 15.8284 22.5 15 22.5ZM10.5 10.5V21H15V10.5H10.5ZM20.25 15.75H18.75V6.75H12.75V5.25H18.75C19.5784 5.25 20.25 5.92157 20.25 6.75V15.75ZM24 12H22.5V3H16.5V1.5H22.5C23.3284 1.5 24 2.17157 24 3V12Z" fill="black"/>
</svg>
