<svg width="24" height="24" viewBox="0 0 24 24" fill="none" xmlns="http://www.w3.org/2000/svg">
<path fill-rule="evenodd" clip-rule="evenodd" d="M11.25 21H3C2.17157 21 1.5 20.3284 1.5 19.5V8.25C1.5 7.42157 2.17157 6.75 3 6.75H11.25C12.0784 6.75 12.75 7.42157 12.75 8.25V19.5C12.75 20.3284 12.0784 21 11.25 21ZM3 8.25V19.5H11.25V8.25H3ZM19.5 4.5L18.4425 5.5575L20.25 7.5H16.5V4.5C16.5 3.67157 15.8284 3 15 3H7.5V4.5H15V15H16.5V9H20.25L18.4425 10.9425L19.5 12L23.25 8.25L19.5 4.5Z" fill="black"/>
</svg>
