<svg width="24" height="24" viewBox="0 0 24 24" fill="none" xmlns="http://www.w3.org/2000/svg">
<path fill-rule="evenodd" clip-rule="evenodd" d="M12 4.89L14.07 9.075L14.415 9.825L15.165 9.9375L19.785 10.605L16.5 13.83L15.9375 14.3775L16.0725 15.1275L16.86 19.725L12.7275 17.5575L12 17.25L11.3025 17.6175L7.16999 19.755L7.91999 15.1575L8.05499 14.4075L7.49999 13.83L4.18499 10.5675L8.80499 9.9L9.55499 9.7875L9.89999 9.0375L12 4.89ZM12 1.5L8.58749 8.415L0.959991 9.5175L6.47999 14.9025L5.17499 22.5L12 18.915L18.825 22.5L17.52 14.9025L23.04 9.525L15.4125 8.415L12 1.5Z" fill="black"/>
</svg>
