<svg width="24" height="24" viewBox="0 0 24 24" fill="none" xmlns="http://www.w3.org/2000/svg">
<path fill-rule="evenodd" clip-rule="evenodd" d="M12 1.5C6.20101 1.5 1.5 6.20101 1.5 12C1.5 17.799 6.20101 22.5 12 22.5C17.799 22.5 22.5 17.799 22.5 12C22.5 9.21523 21.3938 6.54451 19.4246 4.57538C17.4555 2.60625 14.7848 1.5 12 1.5ZM16.5 15C16.5 15.8284 15.8284 16.5 15 16.5H9C8.17157 16.5 7.5 15.8284 7.5 15V9C7.5 8.17157 8.17157 7.5 9 7.5H15C15.8284 7.5 16.5 8.17157 16.5 9V15ZM9 9H15V15H9V9Z" fill="black"/>
</svg>
