<svg width="24" height="24" viewBox="0 0 24 24" fill="none" xmlns="http://www.w3.org/2000/svg">
<path fill-rule="evenodd" clip-rule="evenodd" d="M12 3C16.9706 3 21 7.02944 21 12C21 16.9706 16.9706 21 12 21C7.02944 21 3 16.9706 3 12C3 7.02944 7.02944 3 12 3ZM12 1.5C6.20101 1.5 1.5 6.20101 1.5 12C1.5 17.799 6.20101 22.5 12 22.5C17.799 22.5 22.5 17.799 22.5 12C22.5 6.20101 17.799 1.5 12 1.5ZM15 9V15H9V9H15ZM15 7.5H9C8.17157 7.5 7.5 8.17157 7.5 9V15C7.5 15.8284 8.17157 16.5 9 16.5H15C15.8284 16.5 16.5 15.8284 16.5 15V9C16.5 8.17157 15.8284 7.5 15 7.5Z" fill="black"/>
</svg>
