<svg width="24" height="24" viewBox="0 0 24 24" fill="none" xmlns="http://www.w3.org/2000/svg">
<path fill-rule="evenodd" clip-rule="evenodd" d="M22.5 8.00999L21 3.50999C20.8928 3.19096 20.5862 2.98245 20.25 2.99999H3.75005C3.41393 2.98245 3.10729 3.19096 3.00005 3.50999L1.50005 8.00999C1.48924 8.08963 1.48924 8.17036 1.50005 8.24999V12.75C1.50005 13.1642 1.83583 13.5 2.25005 13.5H3.00005V21H4.50005V13.5H9.00005V21H21V13.5H21.75C22.1643 13.5 22.5 13.1642 22.5 12.75V8.24999C22.5109 8.17036 22.5109 8.08963 22.5 8.00999ZM19.5 19.5H10.5V13.5H19.5V19.5ZM21 12H18V8.99999H16.5V12H12.75V8.99999H11.25V12H7.50005V8.99999H6.00005V12H3.00005V8.36999L4.29005 4.49999H19.71L21 8.36999V12Z" fill="black"/>
</svg>
