<svg width="24" height="24" viewBox="0 0 24 24" fill="none" xmlns="http://www.w3.org/2000/svg">
<path fill-rule="evenodd" clip-rule="evenodd" d="M6.0525 15.75L1.5 11.25L6.0525 6.75L7.125 7.8075L3.645 11.25L7.125 14.6925L6.0525 15.75ZM15 3C17.0711 3 18.75 4.67893 18.75 6.75C18.75 8.82107 17.0711 10.5 15 10.5C12.9289 10.5 11.25 8.82107 11.25 6.75C11.25 4.67893 12.9289 3 15 3ZM15 1.5C12.1005 1.5 9.75 3.85051 9.75 6.75C9.75 9.6495 12.1005 12 15 12C17.8995 12 20.25 9.6495 20.25 6.75C20.25 3.85051 17.8995 1.5 15 1.5ZM22.5 22.5H21V18.75C21 16.6789 19.3211 15 17.25 15H12.75C10.6789 15 9 16.6789 9 18.75V22.5H7.5V18.75C7.5 15.8505 9.8505 13.5 12.75 13.5H17.25C20.1495 13.5 22.5 15.8505 22.5 18.75V22.5Z" fill="black"/>
</svg>
