<svg width="24" height="24" viewBox="0 0 24 24" fill="none" xmlns="http://www.w3.org/2000/svg">
<path fill-rule="evenodd" clip-rule="evenodd" d="M16.5 6.74999H20.4C18.4029 3.70285 14.6434 2.32651 11.1509 3.36389C7.65841 4.40126 5.25989 7.6067 5.25 11.25H3.75C3.75209 7.14314 6.32741 3.4779 10.1904 2.08385C14.0534 0.689805 18.3758 1.86587 21 5.02499V2.24999H22.5V8.24999H16.5V6.74999ZM12 8.99999C13.2426 8.99999 14.25 10.0074 14.25 11.25C14.25 12.4926 13.2426 13.5 12 13.5C10.7574 13.5 9.75 12.4926 9.75 11.25C9.73974 10.6502 9.9735 10.0719 10.3977 9.6477C10.8219 9.2235 11.4002 8.98974 12 8.99999ZM12 7.49999C9.92893 7.49999 8.25 9.17892 8.25 11.25C8.25 13.3211 9.92893 15 12 15C14.0711 15 15.75 13.3211 15.75 11.25C15.75 9.17892 14.0711 7.49999 12 7.49999ZM17.25 22.5H15.75V20.25C15.75 19.0074 14.7426 18 13.5 18H10.5C9.25736 18 8.25 19.0074 8.25 20.25V22.5H6.75V20.25C6.75 18.1789 8.42893 16.5 10.5 16.5H13.5C14.4946 16.5 15.4484 16.8951 16.1517 17.5983C16.8549 18.3016 17.25 19.2554 17.25 20.25V22.5Z" fill="black"/>
</svg>
