<svg width="24" height="24" viewBox="0 0 24 24" fill="none" xmlns="http://www.w3.org/2000/svg">
<path fill-rule="evenodd" clip-rule="evenodd" d="M12 9.00378C13.6569 9.00378 15 10.3469 15 12.0038C15 13.6606 13.6569 15.0038 12 15.0038C10.3431 15.0038 9 13.6606 9 12.0038C9.00207 10.3478 10.344 9.00585 12 9.00378ZM12 7.50378C9.51472 7.50378 7.5 9.5185 7.5 12.0038C7.5 14.4891 9.51472 16.5038 12 16.5038C14.4853 16.5038 16.5 14.4891 16.5 12.0038C16.5 9.5185 14.4853 7.50378 12 7.50378ZM4.0455 5.10978L5.1075 4.04928L7.73625 6.67878L6.675 7.73928L4.0455 5.10978ZM1.5 11.2538H5.25V12.7538H1.5V11.2538ZM4.0455 18.8985L6.675 16.269L7.7355 17.3295L5.10675 19.959L4.0455 18.8985ZM11.25 18.7538H12.75V22.5038H11.25V18.7538ZM16.2653 17.3288L17.3258 16.2683L19.9552 18.8978L18.8948 19.9583L16.2653 17.3288ZM18.75 11.2538H22.5V12.7538H18.75V11.2538ZM16.2653 6.67803L18.8948 4.04853L19.9552 5.10903L17.3258 7.73853L16.2653 6.67803ZM11.25 1.50378H12.75V5.25378H11.25V1.50378Z" fill="black"/>
</svg>
