<svg width="24" height="24" viewBox="0 0 24 24" fill="none" xmlns="http://www.w3.org/2000/svg">
<path fill-rule="evenodd" clip-rule="evenodd" d="M1.5 19.5H22.4985V21H1.5V19.5ZM12 15C13.656 15.0021 14.9979 16.344 15 18H16.5C16.5 15.5147 14.4853 13.5 12 13.5C9.51472 13.5 7.5 15.5147 7.5 18H9C9.00207 16.344 10.344 15.0021 12 15ZM18.75 16.5H22.5V18H18.75V16.5ZM16.2653 12.675L18.8948 10.0448L19.9552 11.1053L17.3258 13.7348L16.2653 12.675ZM12 3L8.25 6.75L9.3075 7.8075L11.25 5.8725V11.25H12.75V5.8725L14.6925 7.8075L15.75 6.75L12 3ZM4.04475 11.1053L5.10525 10.0448L7.73475 12.6742L6.675 13.7348L4.04475 11.1053ZM1.5 16.5H5.25V18H1.5V16.5Z" fill="black"/>
</svg>
