<svg width="24" height="24" viewBox="0 0 24 24" fill="none" xmlns="http://www.w3.org/2000/svg">
<path fill-rule="evenodd" clip-rule="evenodd" d="M1.5 19.5038H22.4985V21.0038H1.5V19.5038ZM12 15.0038C13.656 15.0058 14.9979 16.3478 15 18.0038H16.5C16.5 15.5185 14.4853 13.5038 12 13.5038C9.51472 13.5038 7.5 15.5185 7.5 18.0038H9C9.00207 16.3478 10.344 15.0058 12 15.0038ZM18.75 16.5038H22.5V18.0038H18.75V16.5038ZM16.2653 12.678L18.8948 10.0485L19.9552 11.109L17.3258 13.7385L16.2653 12.678ZM14.6925 7.19628L12.75 9.13128V3.00378H11.25V9.13128L9.3075 7.19628L8.25 8.25378L12 12.0038L15.75 8.25378L14.6925 7.19628ZM4.0455 11.109L5.106 10.0485L7.7355 12.678L6.67425 13.7385L4.0455 11.109ZM1.5 16.5038H5.25V18.0038H1.5V16.5038Z" fill="black"/>
</svg>
