<svg width="24" height="24" viewBox="0 0 24 24" fill="none" xmlns="http://www.w3.org/2000/svg">
<path fill-rule="evenodd" clip-rule="evenodd" d="M7.5 12C8.32843 12 9 11.3284 9 10.5C9 9.67157 8.32843 9 7.5 9C6.67157 9 6 9.67157 6 10.5C6 11.3284 6.67157 12 7.5 12ZM12 22.5C11.8006 22.5012 11.609 22.4229 11.4675 22.2825L3.4425 14.25C3.16081 13.97 3.00167 13.5897 3 13.1925V7.5C3 6.67157 3.67157 6 4.5 6H10.1925C10.5897 6.00167 10.97 6.16081 11.25 6.4425L19.2825 14.4675C19.4245 14.6083 19.5043 14.8 19.5043 15C19.5043 15.2 19.4245 15.3917 19.2825 15.5325L12.5325 22.2825C12.391 22.4229 12.1994 22.5012 12 22.5ZM4.5 7.5V13.1925L12 20.6925L17.6925 15L10.1925 7.5H4.5ZM20.7825 9.9675L12.75 1.9425C12.47 1.66081 12.0897 1.50167 11.6925 1.5H6C5.17157 1.5 4.5 2.17157 4.5 3V4.5H6V3H11.6925L19.1925 10.5L18.2175 11.4675L19.2825 12.5325L20.7825 11.0325C20.9245 10.8917 21.0043 10.7 21.0043 10.5C21.0043 10.3 20.9245 10.1083 20.7825 9.9675Z" fill="black"/>
</svg>
