<svg width="24" height="24" viewBox="0 0 24 24" fill="none" xmlns="http://www.w3.org/2000/svg">
<path fill-rule="evenodd" clip-rule="evenodd" d="M13.89 22.5C13.2935 22.4995 12.7216 22.2621 12.3 21.84L2.16 11.7075C1.73792 11.2859 1.50053 10.714 1.5 10.1175V3.75C1.5 2.50736 2.50736 1.5 3.75 1.5H10.1175C10.714 1.50053 11.2859 1.73792 11.7075 2.16L21.84 12.2925C22.2636 12.7147 22.5018 13.2882 22.5018 13.8862C22.5018 14.4843 22.2636 15.0578 21.84 15.48L15.48 21.84C15.0584 22.2621 14.4865 22.4995 13.89 22.5ZM3.75 3C3.33579 3 3 3.33579 3 3.75V10.1175C3.00083 10.3179 3.08186 10.5097 3.225 10.65L13.3575 20.7825C13.65 21.0733 14.1225 21.0733 14.415 20.7825L20.7825 14.415C21.0733 14.1225 21.0733 13.65 20.7825 13.3575L10.65 3.225C10.5097 3.08186 10.3179 3.00083 10.1175 3H3.75ZM7.5 10.5C5.84315 10.5 4.5 9.15685 4.5 7.5C4.5 5.84315 5.84315 4.5 7.5 4.5C9.15685 4.5 10.5 5.84315 10.5 7.5C10.5 9.15685 9.15685 10.5 7.5 10.5ZM7.5 6C6.67157 6 6 6.67157 6 7.5C6 8.32843 6.67157 9 7.5 9C8.32843 9 9 8.32843 9 7.5C9 6.67157 8.32843 6 7.5 6Z" fill="black"/>
</svg>
