<svg width="24" height="24" viewBox="0 0 24 24" fill="none" xmlns="http://www.w3.org/2000/svg">
<path fill-rule="evenodd" clip-rule="evenodd" d="M22.0425 12.06L17.025 9.90751L15.12 6.65251L15.06 6.56251C14.7755 6.20721 14.3451 6.00029 13.89 6.00001H7.89C7.38699 5.99842 6.91667 6.24907 6.6375 6.66751L4.095 10.5H2.25C1.83579 10.5 1.5 10.8358 1.5 11.25V18C1.5 18.4142 1.83579 18.75 2.25 18.75H3.855C4.21005 20.0565 5.39614 20.9633 6.75 20.9633C8.10386 20.9633 9.28995 20.0565 9.645 18.75H14.355C14.71 20.0565 15.8961 20.9633 17.25 20.9633C18.6039 20.9633 19.79 20.0565 20.145 18.75H21.75C22.1642 18.75 22.5 18.4142 22.5 18V12.75C22.4998 12.449 22.3196 12.1774 22.0425 12.06ZM6.75 19.5C5.92157 19.5 5.25 18.8284 5.25 18C5.25 17.1716 5.92157 16.5 6.75 16.5C7.57843 16.5 8.25 17.1716 8.25 18C8.25 18.8284 7.57843 19.5 6.75 19.5ZM17.25 19.5C16.4216 19.5 15.75 18.8284 15.75 18C15.75 17.1716 16.4216 16.5 17.25 16.5C18.0784 16.5 18.75 17.1716 18.75 18C18.75 18.8284 18.0784 19.5 17.25 19.5ZM21 17.25H20.145C19.79 15.9435 18.6039 15.0368 17.25 15.0368C15.8961 15.0368 14.71 15.9435 14.355 17.25H9.645C9.28995 15.9435 8.10386 15.0368 6.75 15.0368C5.39614 15.0368 4.21005 15.9435 3.855 17.25H3V12H4.5C4.75089 11.9987 4.98451 11.872 5.1225 11.6625L7.905 7.50001H13.905L15.8775 10.875C15.958 11.0153 16.0816 11.1258 16.23 11.19L21 13.245V17.25Z" fill="black"/>
</svg>
