<svg width="24" height="24" viewBox="0 0 24 24" fill="none" xmlns="http://www.w3.org/2000/svg">
<path fill-rule="evenodd" clip-rule="evenodd" d="M9.7499 12.945V4.5C9.7499 2.84315 8.40675 1.5 6.7499 1.5C5.09304 1.5 3.7499 2.84315 3.7499 4.5V12.945C1.86743 14.2558 1.0539 16.637 1.74082 18.8256C2.42773 21.0142 4.45602 22.5034 6.7499 22.5034C9.04377 22.5034 11.0721 21.0142 11.759 18.8256C12.4459 16.637 11.6324 14.2558 9.7499 12.945ZM6.7499 3C7.57832 3 8.2499 3.67157 8.2499 4.5V9.75H5.2499V4.5C5.2499 3.67157 5.92147 3 6.7499 3ZM6.7499 21C5.05269 20.9999 3.56712 19.86 3.12784 18.2206C2.68857 16.5812 3.40512 14.8512 4.8749 14.0025L5.2499 13.7925V11.25H8.2499V13.7925L8.6249 14.0025C10.0947 14.8512 10.8112 16.5812 10.3719 18.2206C9.93267 19.86 8.4471 20.9999 6.7499 21ZM14.9999 3H22.4999V4.5H14.9999V3ZM14.9999 7.5H20.2499V9H14.9999V7.5ZM14.9999 12H22.4999V13.5H14.9999V12ZM14.9999 16.5H20.2499V18H14.9999V16.5Z" fill="black"/>
</svg>
