<svg width="24" height="24" viewBox="0 0 24 24" fill="none" xmlns="http://www.w3.org/2000/svg">
<path fill-rule="evenodd" clip-rule="evenodd" d="M21 19.5H18.75V18H21V6H18.75V4.5H21C21.8281 4.50083 22.4992 5.17192 22.5 6V18C22.4988 18.8279 21.8279 19.4988 21 19.5ZM17.25 13.5C18.0784 13.5 18.75 12.8284 18.75 12C18.75 11.1716 18.0784 10.5 17.25 10.5C16.4216 10.5 15.75 11.1716 15.75 12C15.75 12.8284 16.4216 13.5 17.25 13.5ZM12 13.5C12.8284 13.5 13.5 12.8284 13.5 12C13.5 11.1716 12.8284 10.5 12 10.5C11.1716 10.5 10.5 11.1716 10.5 12C10.5 12.8284 11.1716 13.5 12 13.5ZM6.75 13.5C7.57843 13.5 8.25 12.8284 8.25 12C8.25 11.1716 7.57843 10.5 6.75 10.5C5.92157 10.5 5.25 11.1716 5.25 12C5.25 12.8284 5.92157 13.5 6.75 13.5ZM5.25 19.5H3C2.17192 19.4992 1.50083 18.8281 1.5 18V6C1.50083 5.17192 2.17192 4.50083 3 4.5H5.25V6H3V18H5.25V19.5Z" fill="black"/>
</svg>
