<svg width="24" height="24" viewBox="0 0 24 24" fill="none" xmlns="http://www.w3.org/2000/svg">
<path fill-rule="evenodd" clip-rule="evenodd" d="M18.9675 14.4675L17.91 15.5325L19.6275 17.25H4.3725L6.09 15.5325L5.0325 14.4675L1.5 18L5.0325 21.5325L6.09 20.4675L4.3725 18.75H19.6275L17.91 20.4675L18.9675 21.5325L22.5 18L18.9675 14.4675ZM19.5 12.75H21L17.25 2.25H15.75L12 12.75H13.5L14.25 10.5H18.75L19.5 12.75ZM14.7525 9L16.5 3.75L18.2475 9H14.7525ZM10.5 2.25L7.5 11.25L4.5 2.25H3L6.75 12.75H8.25L12 2.25H10.5Z" fill="black"/>
</svg>
