<svg width="24" height="24" viewBox="0 0 24 24" fill="none" xmlns="http://www.w3.org/2000/svg">
<path fill-rule="evenodd" clip-rule="evenodd" d="M3.00003 19.5H21V22.5H3.00003V19.5ZM19.5 10.905C19.5054 10.715 19.4384 10.53 19.3125 10.3875L12.8775 3.2475C12.8383 3.2109 12.7956 3.17824 12.75 3.15V1.5H11.25V3.75L3.24003 11.055C2.93642 11.335 2.91631 11.8077 3.19503 12.1125L9.62253 19.2525C9.75542 19.4003 9.94155 19.4893 10.14 19.5H10.1775C10.366 19.5014 10.5481 19.4318 10.6875 19.305L18 12.6V15.75C18 16.1642 18.3358 16.5 18.75 16.5C19.1642 16.5 19.5 16.1642 19.5 15.75V10.905ZM10.2375 17.655L4.81503 11.655L11.25 5.7525V9H12.75V5.3475L17.6925 10.845L10.2375 17.655Z" fill="black"/>
</svg>
