<svg width="24" height="24" viewBox="0 0 24 24" fill="none" xmlns="http://www.w3.org/2000/svg">
<path fill-rule="evenodd" clip-rule="evenodd" d="M6 7.5H12V9H6V7.5ZM6 4.5H15V6H6V4.5ZM6 1.5H15V3H6V1.5ZM3.53325 21L7.7565 13.503L13.332 18.3705C13.6734 18.6743 14.1347 18.8059 14.5851 18.7279C15.0354 18.65 15.4256 18.3709 15.645 17.97L20.8725 10.1678L19.6268 9.33225L14.3767 17.1683L14.3243 17.2455L8.748 12.378C8.40672 12.0759 7.94677 11.9452 7.49762 12.0224C7.04847 12.0997 6.65869 12.3767 6.438 12.7755L3 18.8873V1.5H1.5V21C1.50083 21.8281 2.17192 22.4992 3 22.5H22.5V21H3.53325Z" fill="black"/>
</svg>
