<svg width="24" height="24" viewBox="0 0 24 24" fill="none" xmlns="http://www.w3.org/2000/svg">
<path fill-rule="evenodd" clip-rule="evenodd" d="M14.0295 20.6888C12.4326 20.6902 10.9922 19.729 10.3808 18.2537C9.76937 16.7785 10.1075 15.0801 11.2373 13.9515L12.2985 15.012C11.6801 15.6304 11.4385 16.5318 11.6649 17.3766C11.8913 18.2214 12.5511 18.8812 13.3959 19.1076C14.2407 19.334 15.1421 19.0924 15.7605 18.474L20.283 13.9515C20.9014 13.3331 21.143 12.4317 20.9166 11.5869C20.6902 10.7421 20.0304 10.0823 19.1856 9.85591C18.3408 9.62955 17.4394 9.87107 16.821 10.4895L15.7605 9.429C17.3069 7.91513 19.7838 7.92828 21.314 9.4585C22.8442 10.9887 22.8574 13.4656 21.3435 15.012L16.821 19.5345C16.0811 20.2753 15.0765 20.6908 14.0295 20.6888ZM7.698 22.4977C6.10156 22.4982 4.6621 21.5368 4.05101 20.0619C3.43992 18.587 3.77758 16.8893 4.9065 15.7605L9.429 11.238C10.4208 10.2144 11.8873 9.80481 13.2659 10.1664C14.6446 10.528 15.7213 11.6046 16.0831 12.9832C16.4449 14.3618 16.0355 15.8283 15.012 16.8202L13.9515 15.7598C14.5849 15.1444 14.8379 14.2356 14.6134 13.3815C14.3889 12.5274 13.7218 11.8604 12.8676 11.6361C12.0135 11.4118 11.1047 11.6649 10.4895 12.2985L5.967 16.821C5.011 17.777 5.011 19.327 5.967 20.283C6.92301 21.239 8.47299 21.239 9.429 20.283L10.4895 21.3435C9.74981 22.0847 8.74514 22.4996 7.698 22.4977ZM1.5 7.5H7.5V9H1.5V7.5ZM1.5 4.5H10.5V6H1.5V4.5ZM1.5 1.5H10.5V3H1.5V1.5Z" fill="black"/>
</svg>
