<svg width="24" height="24" viewBox="0 0 24 24" fill="none" xmlns="http://www.w3.org/2000/svg">
<path fill-rule="evenodd" clip-rule="evenodd" d="M9 11.25H3.75C2.50736 11.25 1.5 10.2426 1.5 9V7.5C1.5 6.25736 2.50736 5.25 3.75 5.25H7.5V3.75C7.5 3.33579 7.16421 3 6.75 3H2.25V1.5H6.75C7.99264 1.5 9 2.50736 9 3.75V11.25ZM3.75 6.75C3.33579 6.75 3 7.08579 3 7.5V9C3 9.41421 3.33579 9.75 3.75 9.75H7.5V6.75H3.75ZM15 17.25V18.75C15 19.1642 15.3358 19.5 15.75 19.5H19.5V16.5H15.75C15.3358 16.5 15 16.8358 15 17.25ZM1.5 22.5H22.5V1.5L1.5 22.5ZM21 21H15.75C14.5074 21 13.5 19.9926 13.5 18.75V17.25C13.5 16.0074 14.5074 15 15.75 15H19.5V13.5C19.5 13.0858 19.1642 12.75 18.75 12.75H14.25V11.25H18.75C19.9926 11.25 21 12.2574 21 13.5V21Z" fill="black"/>
</svg>
