<svg width="24" height="24" viewBox="0 0 24 24" fill="none" xmlns="http://www.w3.org/2000/svg">
<path fill-rule="evenodd" clip-rule="evenodd" d="M20.25 16.605V7.395C21.6713 7.03486 22.624 5.70018 22.5028 4.23902C22.3817 2.77786 21.2221 1.61833 19.761 1.49718C18.2998 1.37603 16.9652 2.32875 16.605 3.75H7.395C7.03486 2.32875 5.70018 1.37603 4.23902 1.49718C2.77786 1.61833 1.61833 2.77786 1.49718 4.23902C1.37603 5.70018 2.32875 7.03486 3.75 7.395V16.605C2.32875 16.9652 1.37603 18.2998 1.49718 19.761C1.61833 21.2221 2.77786 22.3817 4.23902 22.5028C5.70018 22.624 7.03486 21.6713 7.395 20.25H16.605C16.9652 21.6713 18.2998 22.624 19.761 22.5028C21.2221 22.3817 22.3817 21.2221 22.5028 19.761C22.624 18.2998 21.6713 16.9652 20.25 16.605ZM19.5 3C20.3284 3 21 3.67158 21 4.5C21 5.32843 20.3284 6 19.5 6C18.6716 6 18 5.32843 18 4.5C18 3.67158 18.6716 3 19.5 3ZM3 4.5C3 3.67158 3.67158 3 4.5 3C5.32843 3 6 3.67158 6 4.5C6 5.32843 5.32843 6 4.5 6C3.67158 6 3 5.32843 3 4.5ZM4.5 21C3.67158 21 3 20.3284 3 19.5C3 18.6716 3.67158 18 4.5 18C5.32843 18 6 18.6716 6 19.5C6 20.3284 5.32843 21 4.5 21ZM16.605 18.75H7.395C7.12079 17.6996 6.30045 16.8792 5.25 16.605V7.395C6.30045 7.12079 7.12079 6.30045 7.395 5.25H16.605C16.8792 6.30045 17.6996 7.12079 18.75 7.395V16.605C17.6996 16.8792 16.8792 17.6996 16.605 18.75ZM19.5 21C18.6716 21 18 20.3284 18 19.5C18 18.6716 18.6716 18 19.5 18C20.3284 18 21 18.6716 21 19.5C21 20.3284 20.3284 21 19.5 21ZM15.75 8.25H8.25V9.75H11.25V16.5H12.75V9.75H15.75V8.25Z" fill="black"/>
</svg>
