<svg width="24" height="24" viewBox="0 0 24 24" fill="none" xmlns="http://www.w3.org/2000/svg">
<path fill-rule="evenodd" clip-rule="evenodd" d="M10.5 9.75H22.5V11.25H10.5V9.75ZM11.25 21H22.5V22.5H11.25V21ZM19.3875 20.25H21L17.73 12.75H16.02L12.75 20.25H14.3625L14.9625 18.75H18.7875L19.3875 20.25ZM15.5625 17.25L16.875 13.9725L18.1875 17.25H15.5625ZM19.3875 9H21L17.73 1.5H16.02L12.75 9H14.3625L14.9625 7.5H18.7875L19.3875 9ZM15.5625 6L16.875 2.7225L18.1875 6H15.5625ZM4.5 11.8725L6.435 13.8075L7.5 12.75L4.5 9.75L1.5 12.75L2.5575 13.815L4.5 11.8725ZM4.5 20.3775L2.565 18.4425L1.5 19.5L4.5 22.5L7.5 19.5L6.4425 18.435L4.5 20.3775Z" fill="black"/>
</svg>
