<svg width="24" height="24" viewBox="0 0 24 24" fill="none" xmlns="http://www.w3.org/2000/svg">
<path fill-rule="evenodd" clip-rule="evenodd" d="M6 22.5H3C2.17157 22.5 1.5 21.8284 1.5 21V18C1.5 17.1716 2.17157 16.5 3 16.5H6C6.82843 16.5 7.5 17.1716 7.5 18V21C7.5 21.8284 6.82843 22.5 6 22.5ZM3 18V21H6V18H3ZM13.5 22.5H10.5C9.67157 22.5 9 21.8284 9 21V18C9 17.1716 9.67157 16.5 10.5 16.5H13.5C14.3284 16.5 15 17.1716 15 18V21C15 21.8284 14.3284 22.5 13.5 22.5ZM10.5 18V21H13.5V18H10.5ZM21 22.5H18C17.1716 22.5 16.5 21.8284 16.5 21V18C16.5 17.1716 17.1716 16.5 18 16.5H21C21.8284 16.5 22.5 17.1716 22.5 18V21C22.5 21.8284 21.8284 22.5 21 22.5ZM18 18V21H21V18H18ZM6 15H3C2.17157 15 1.5 14.3284 1.5 13.5V10.5C1.5 9.67157 2.17157 9 3 9H6C6.82843 9 7.5 9.67157 7.5 10.5V13.5C7.5 14.3284 6.82843 15 6 15ZM3 10.5V13.5H6V10.5H3ZM13.5 15H10.5C9.67157 15 9 14.3284 9 13.5V10.5C9 9.67157 9.67157 9 10.5 9H13.5C14.3284 9 15 9.67157 15 10.5V13.5C15 14.3284 14.3284 15 13.5 15ZM10.5 10.5V13.5H13.5V10.5H10.5ZM21 15H18C17.1716 15 16.5 14.3284 16.5 13.5V10.5C16.5 9.67157 17.1716 9 18 9H21C21.8284 9 22.5 9.67157 22.5 10.5V13.5C22.5 14.3284 21.8284 15 21 15ZM18 10.5V13.5H21V10.5H18ZM6 7.5H3C2.17157 7.5 1.5 6.82843 1.5 6V3C1.5 2.17157 2.17157 1.5 3 1.5H6C6.82843 1.5 7.5 2.17157 7.5 3V6C7.5 6.82843 6.82843 7.5 6 7.5ZM3 3V6H6V3H3ZM13.5 7.5H10.5C9.67157 7.5 9 6.82843 9 6V3C9 2.17157 9.67157 1.5 10.5 1.5H13.5C14.3284 1.5 15 2.17157 15 3V6C15 6.82843 14.3284 7.5 13.5 7.5ZM10.5 3V6H13.5V3H10.5ZM21 7.5H18C17.1716 7.5 16.5 6.82843 16.5 6V3C16.5 2.17157 17.1716 1.5 18 1.5H21C21.8284 1.5 22.5 2.17157 22.5 3V6C22.5 6.82843 21.8284 7.5 21 7.5ZM18 3V6H21V3H18Z" fill="black"/>
</svg>
