<svg width="24" height="24" viewBox="0 0 24 24" fill="none" xmlns="http://www.w3.org/2000/svg">
<path fill-rule="evenodd" clip-rule="evenodd" d="M11.25 8.25H12.75V15H11.25V8.25ZM9.74998 1.5H14.25V3H9.74998V1.5ZM21 6.75L19.935 5.6925L18.2475 7.38C15.378 4.06626 10.4107 3.59322 6.96733 6.30581C3.52399 9.01839 2.82095 13.9585 5.37083 17.524C7.9207 21.0895 12.8228 22.021 16.5028 19.6393C20.1828 17.2577 21.3408 12.404 19.1325 8.6175L21 6.75ZM12 19.5C8.27206 19.5 5.24998 16.4779 5.24998 12.75C5.24998 9.02208 8.27206 6 12 6C15.7279 6 18.75 9.02208 18.75 12.75C18.75 16.4779 15.7279 19.5 12 19.5Z" fill="black"/>
</svg>
