<svg width="24" height="24" viewBox="0 0 24 24" fill="none" xmlns="http://www.w3.org/2000/svg">
<path fill-rule="evenodd" clip-rule="evenodd" d="M9.07512 1.49992C7.63678 1.49503 6.22862 1.91226 5.02512 2.69992L9.82512 7.49992C10.1481 7.77547 10.3461 8.16972 10.3743 8.59331C10.4026 9.01689 10.2586 9.43394 9.97511 9.74992C9.65914 10.0334 9.24209 10.1774 8.8185 10.1492C8.39491 10.1209 8.00066 9.92287 7.72512 9.59992L2.77512 4.79992C1.91928 6.05927 1.47393 7.55251 1.50012 9.07492C1.51656 13.2516 4.89839 16.6335 9.07512 16.6499C9.73179 16.6535 10.3865 16.578 11.0251 16.4249L16.0501 21.4499C17.5206 22.9204 19.9047 22.9204 21.3751 21.4499C22.8456 19.9795 22.8456 17.5954 21.3751 16.1249L16.3501 11.0999C16.5032 10.4613 16.5787 9.8066 16.5751 9.14992C16.6154 7.13494 15.8431 5.18852 14.4322 3.74938C13.0212 2.31025 11.0905 1.49952 9.07512 1.49992Z" fill="black"/>
</svg>
