<svg width="24" height="24" viewBox="0 0 24 24" fill="none" xmlns="http://www.w3.org/2000/svg">
<path fill-rule="evenodd" clip-rule="evenodd" d="M9.07512 1.49992C7.63678 1.49503 6.22862 1.91226 5.02512 2.69992L9.82512 7.49992C10.1481 7.77547 10.3461 8.16972 10.3743 8.59331C10.4026 9.01689 10.2586 9.43394 9.97511 9.74992C9.65914 10.0334 9.24209 10.1774 8.8185 10.1492C8.39491 10.1209 8.00066 9.92287 7.72512 9.59992L2.77512 4.79992C1.91928 6.05927 1.47393 7.55251 1.50012 9.07492C1.51656 13.2516 4.89839 16.6335 9.07512 16.6499C9.73179 16.6535 10.3865 16.578 11.0251 16.4249L16.0501 21.4499C17.5206 22.9204 19.9047 22.9204 21.3751 21.4499C22.8456 19.9795 22.8456 17.5954 21.3751 16.1249L16.3501 11.0999C16.5032 10.4613 16.5787 9.8066 16.5751 9.14992C16.6154 7.13494 15.8431 5.18852 14.4322 3.74938C13.0212 2.31025 11.0905 1.49952 9.07512 1.49992ZM15.0751 9.07492C15.074 9.60785 14.9983 10.138 14.8501 10.6499L14.6251 11.4749L20.2501 17.0999C20.6826 17.5094 20.9269 18.0793 20.9251 18.6749C20.9422 19.2735 20.6954 19.8494 20.2501 20.2499C19.8396 20.681 19.2704 20.9249 18.6751 20.9249C18.0799 20.9249 17.5106 20.681 17.1001 20.2499L11.4751 14.6249L10.6501 14.8499C10.1382 14.9981 9.60804 15.0738 9.07512 15.0749C7.48142 15.0705 5.95058 14.4528 4.80012 13.3499C3.62359 12.2429 2.9698 10.6901 3.00012 9.07492C3.00115 8.51734 3.07682 7.96242 3.22512 7.42492L6.52512 10.7249C7.08839 11.3379 7.8742 11.699 8.70618 11.7272C9.53816 11.7554 10.3466 11.4483 10.9501 10.8749C11.5235 10.2714 11.8306 9.46297 11.8024 8.63099C11.7742 7.79901 11.4131 7.01319 10.8001 6.44992L7.50011 3.14992C7.98517 2.99651 8.49139 2.92058 9.00011 2.92492C10.5938 2.92935 12.1247 3.54705 13.2751 4.64992C14.4266 5.83543 15.0721 7.42222 15.0751 9.07492Z" fill="black"/>
</svg>
