<svg width="24" height="24" viewBox="0 0 24 24" fill="none" xmlns="http://www.w3.org/2000/svg">
<path fill-rule="evenodd" clip-rule="evenodd" d="M21.75 11.25H20.25C20.25 6.69365 16.5563 3 12 3C7.44365 3 3.75 6.69365 3.75 11.25H2.25C2.25 5.86522 6.61522 1.5 12 1.5C17.3848 1.5 21.75 5.86522 21.75 11.25ZM18.75 21H17.25V11.25C17.25 8.3505 14.8995 6 12 6C9.1005 6 6.75 8.3505 6.75 11.25V21H5.25V11.25C5.25 7.52208 8.27208 4.5 12 4.5C15.7279 4.5 18.75 7.52208 18.75 11.25V21ZM15.75 15H8.25V11.25C8.25 9.17893 9.92893 7.5 12 7.5C14.0711 7.5 15.75 9.17893 15.75 11.25V15ZM9.75 13.5H14.25V11.25C14.25 10.0074 13.2426 9 12 9C10.7574 9 9.75 10.0074 9.75 11.25V13.5Z" fill="black"/>
</svg>
