<svg width="24" height="24" viewBox="0 0 24 24" fill="none" xmlns="http://www.w3.org/2000/svg">
<path fill-rule="evenodd" clip-rule="evenodd" d="M15 6H13.5C13.5 3.92893 11.8211 2.25 9.75001 2.25C7.67894 2.25 6.00001 3.92893 6.00001 6H4.50001C4.50001 3.10051 6.85051 0.75 9.75001 0.75C12.6495 0.75 15 3.10051 15 6ZM18.75 11.25C18.3625 11.2514 17.9823 11.3549 17.6475 11.55C17.2365 10.8982 16.5206 10.502 15.75 10.5C15.3625 10.5014 14.9823 10.6049 14.6475 10.8C14.0856 9.91587 12.9879 9.53649 12 9.885V6C12 4.75736 10.9926 3.75 9.75001 3.75C8.50737 3.75 7.50001 4.75736 7.50001 6V14.325L5.82751 13.185C5.4441 12.8995 4.97804 12.7467 4.50001 12.75C3.58728 12.7477 2.76362 13.2971 2.41502 14.1407C2.06642 14.9842 2.26196 15.9548 2.91001 16.5975L8.91001 22.0725C9.75945 22.8328 10.86 23.2522 12 23.25H15.75C18.6495 23.25 21 20.8995 21 18V13.5C21 12.2574 19.9926 11.25 18.75 11.25ZM19.5 18C19.5 20.0711 17.8211 21.75 15.75 21.75H12C11.2419 21.7592 10.5063 21.4926 9.93001 21L3.96751 15.525C3.82895 15.3853 3.75083 15.1968 3.75001 15C3.75001 14.7159 3.91051 14.4562 4.1646 14.3292C4.41868 14.2021 4.72274 14.2296 4.95001 14.4L9.00001 17.175V6C9.00001 5.58579 9.33579 5.25 9.75001 5.25C10.1642 5.25 10.5 5.58579 10.5 6V14.25H12V12C12 11.5858 12.3358 11.25 12.75 11.25C13.1642 11.25 13.5 11.5858 13.5 12V14.25H15V12.75C15 12.3358 15.3358 12 15.75 12C16.1642 12 16.5 12.3358 16.5 12.75V14.25H18V13.5C18 13.0858 18.3358 12.75 18.75 12.75C19.1642 12.75 19.5 13.0858 19.5 13.5V18Z" fill="black"/>
</svg>
