<svg width="24" height="24" viewBox="0 0 24 24" fill="none" xmlns="http://www.w3.org/2000/svg">
<path fill-rule="evenodd" clip-rule="evenodd" d="M15.75 1.5H8.25C6.17893 1.5 4.5 3.17893 4.5 5.25V15C4.5071 16.8801 5.90534 18.4644 7.77 18.705L6.75 22.5H8.3025L9.3075 18.75H14.6925L15.6975 22.5H17.25L16.23 18.705C18.0947 18.4644 19.4929 16.8801 19.5 15V5.25C19.5 3.17893 17.8211 1.5 15.75 1.5ZM18 6V11.25H6V6H18ZM8.25 3H15.75C16.7012 3.00267 17.5479 3.6032 17.865 4.5H6.135C6.45206 3.6032 7.29881 3.00267 8.25 3ZM15.75 17.25H8.25C7.29881 17.2473 6.45206 16.6468 6.135 15.75H8.25V14.25H6V12.75H18V14.25H15.75V15.75H17.865C17.5479 16.6468 16.7012 17.2473 15.75 17.25Z" fill="black"/>
</svg>
