<svg width="24" height="24" viewBox="0 0 24 24" fill="none" xmlns="http://www.w3.org/2000/svg">
<path fill-rule="evenodd" clip-rule="evenodd" d="M17.25 6.75375H21.75C22.5784 6.75375 23.25 6.08218 23.25 5.25375V2.25375C23.25 1.42533 22.5784 0.753754 21.75 0.753754H17.25C16.4216 0.753754 15.75 1.42533 15.75 2.25375V3.00375H8.25V2.25375C8.25 1.42533 7.57843 0.753754 6.75 0.753754H2.25C1.42157 0.753754 0.75 1.42533 0.75 2.25375V5.25375C0.75 6.08218 1.42157 6.75375 2.25 6.75375H6.75C7.57843 6.75375 8.25 6.08218 8.25 5.25375V4.50375H11.25V19.5038C11.2508 20.3318 11.9219 21.0029 12.75 21.0038H15.75V21.7538C15.75 22.5822 16.4216 23.2538 17.25 23.2538H21.75C22.5784 23.2538 23.25 22.5822 23.25 21.7538V18.7538C23.25 17.9253 22.5784 17.2538 21.75 17.2538H17.25C16.4216 17.2538 15.75 17.9253 15.75 18.7538V19.5038H12.75V12.7538H15.75V13.5038C15.75 14.3322 16.4216 15.0038 17.25 15.0038H21.75C22.5784 15.0038 23.25 14.3322 23.25 13.5038V10.5038C23.25 9.67533 22.5784 9.00375 21.75 9.00375H17.25C16.4216 9.00375 15.75 9.67533 15.75 10.5038V11.2538H12.75V4.50375H15.75V5.25375C15.75 6.08218 16.4216 6.75375 17.25 6.75375ZM17.25 2.25375H21.75V5.25375H17.25V2.25375ZM6.75 5.25375H2.25V2.25375H6.75V5.25375ZM17.25 18.7538H21.75V21.7538H17.25V18.7538ZM17.25 10.5038H21.75V13.5038H17.25V10.5038Z" fill="black"/>
</svg>
