<svg width="24" height="24" viewBox="0 0 24 24" fill="none" xmlns="http://www.w3.org/2000/svg">
<path fill-rule="evenodd" clip-rule="evenodd" d="M21 6.75L19.5 16.5L18 6.75H16.5L18.387 17.25H20.613L22.5 6.75H21ZM13.5 17.25H9V15.75H13.5V12.75H10.5C9.67192 12.7492 9.00083 12.0781 9 11.25V8.25C9.00083 7.42192 9.67192 6.75083 10.5 6.75H15V8.25H10.5V11.25H13.5C14.3281 11.2508 14.9992 11.9219 15 12.75V15.75C14.9992 16.5781 14.3281 17.2492 13.5 17.25ZM1.5 8.25H3.75V17.25H5.25V8.25H7.5V6.75H1.5V8.25Z" fill="black"/>
</svg>
