<svg width="24" height="24" viewBox="0 0 24 24" fill="none" xmlns="http://www.w3.org/2000/svg">
<path fill-rule="evenodd" clip-rule="evenodd" d="M22.5 12L16.5 18L15.4395 16.9395L20.379 12L15.4395 7.0605L16.5 6L22.5 12ZM12 16.5C11.8011 16.5002 11.6102 16.4211 11.4698 16.2802L7.71975 12.5303C7.42696 12.2374 7.42696 11.7626 7.71975 11.4698L11.4698 7.71975C11.7626 7.42696 12.2374 7.42696 12.5303 7.71975L16.2802 11.4698C16.573 11.7626 16.573 12.2374 16.2802 12.5303L12.5303 16.2802C12.3898 16.4211 12.1989 16.5002 12 16.5ZM9.3105 12L12 14.6895L14.6895 12L12 9.3105L9.3105 12ZM1.5 12L7.5 6L8.5605 7.0605L3.621 12L8.5605 16.9395L7.5 18L1.5 12Z" fill="black"/>
</svg>
