<svg width="24" height="24" viewBox="0 0 24 24" fill="none" xmlns="http://www.w3.org/2000/svg">
<path fill-rule="evenodd" clip-rule="evenodd" d="M22.5 11.25H12.75V1.5H11.25V11.25H1.5V12.75H11.25V22.5H12.75V12.75H22.5V11.25ZM19.1895 15L20.25 16.0605L17.5605 18.75L20.25 21.4395L19.1895 22.5L15.4395 18.75L19.1895 15ZM8.25 22.5H2.25C1.99017 22.4999 1.74892 22.3652 1.61235 22.1442C1.47579 21.9232 1.46336 21.6472 1.5795 21.4147L4.5795 15.4148C4.72028 15.1783 4.97516 15.0334 5.25038 15.0334C5.52559 15.0334 5.78047 15.1783 5.92125 15.4148L8.92125 21.4147C9.03745 21.6473 9.02495 21.9234 8.8882 22.1445C8.75145 22.3656 8.50996 22.5001 8.25 22.5ZM3.4635 21H7.0365L5.25 17.427L3.4635 21ZM21 9H16.5C15.6719 8.99917 15.0008 8.32808 15 7.5V3C15.0008 2.17192 15.6719 1.50083 16.5 1.5H21C21.8281 1.50083 22.4992 2.17192 22.5 3V7.5C22.4992 8.32808 21.8281 8.99917 21 9ZM16.5 3V7.5H21.0007L21 3H16.5ZM5.25 9C3.17893 9 1.5 7.32107 1.5 5.25C1.5 3.17893 3.17893 1.5 5.25 1.5C7.32107 1.5 9 3.17893 9 5.25C8.99752 7.32004 7.32004 8.99752 5.25 9ZM5.25 3C4.00736 3 3 4.00736 3 5.25C3 6.49264 4.00736 7.5 5.25 7.5C6.49264 7.5 7.5 6.49264 7.5 5.25C7.49876 4.00787 6.49213 3.00124 5.25 3Z" fill="black"/>
</svg>
