<svg width="24" height="24" viewBox="0 0 24 24" fill="none" xmlns="http://www.w3.org/2000/svg">
<path fill-rule="evenodd" clip-rule="evenodd" d="M8.24997 10.5H15.75V13.5H8.24997V10.5ZM12 22.5C11.5855 22.5006 11.1879 22.336 10.8952 22.0425L1.95671 13.1055C1.34776 12.4949 1.34776 11.5066 1.95671 10.896L10.8952 1.95675C11.5058 1.34779 12.4941 1.34779 13.1047 1.95675L22.0432 10.8952C22.6522 11.5059 22.6522 12.4941 22.0432 13.1047L13.1047 22.0432C12.8119 22.3364 12.4143 22.5008 12 22.5ZM12 3C11.9832 2.99975 11.967 3.00623 11.955 3.018L3.01871 11.955C2.99451 11.9795 2.99451 12.019 3.01871 12.0435L11.955 20.982C11.9795 21.0062 12.0189 21.0062 12.0435 20.982L20.982 12.045C21.0062 12.0205 21.0062 11.981 20.982 11.9565L12.045 3.018C12.0331 3.00596 12.0169 2.99995 12 3Z" fill="black"/>
</svg>
