<svg width="24" height="24" viewBox="0 0 24 24" fill="none" xmlns="http://www.w3.org/2000/svg">
<path fill-rule="evenodd" clip-rule="evenodd" d="M22.062 10.9425L13.0575 1.93875C12.777 1.65827 12.3966 1.5007 12 1.5007C11.6033 1.5007 11.2229 1.65827 10.9425 1.93875L1.93871 10.9425C1.65828 11.2228 1.50073 11.6031 1.50073 11.9996C1.50073 12.3961 1.65828 12.7764 1.93871 13.0567L10.9425 22.062C11.5264 22.6456 12.4728 22.6456 13.0567 22.062L22.062 13.0575C22.3426 12.7771 22.5003 12.3967 22.5003 12C22.5003 11.6033 22.3426 11.2229 22.062 10.9425ZM15.75 13.5H8.24996V10.5H15.75V13.5Z" fill="black"/>
</svg>
