<svg width="24" height="24" viewBox="0 0 24 24" fill="none" xmlns="http://www.w3.org/2000/svg">
<path fill-rule="evenodd" clip-rule="evenodd" d="M12 18C12.6213 18 13.125 17.4963 13.125 16.875C13.125 16.2537 12.6213 15.75 12 15.75C11.3786 15.75 10.875 16.2537 10.875 16.875C10.875 17.4963 11.3786 18 12 18ZM12.75 14.25H11.25V11.25H12.75C13.5784 11.25 14.25 10.5784 14.25 9.75C14.25 8.92157 13.5784 8.25 12.75 8.25H11.25C10.4219 8.25082 9.75079 8.92191 9.74997 9.75V10.125H8.24997V9.75C8.25203 8.094 9.59397 6.75206 11.25 6.75H12.75C14.4068 6.75 15.75 8.09314 15.75 9.75C15.75 11.4069 14.4068 12.75 12.75 12.75V14.25ZM12 22.5C11.5855 22.5006 11.1879 22.336 10.8952 22.0425L1.95671 13.1055C1.34776 12.4949 1.34776 11.5066 1.95671 10.896L10.8952 1.95675C11.5058 1.34779 12.4941 1.34779 13.1047 1.95675L22.0432 10.8952C22.6522 11.5059 22.6522 12.4941 22.0432 13.1047L13.1047 22.0432C12.8119 22.3364 12.4143 22.5008 12 22.5ZM12 3C11.9832 2.99975 11.967 3.00623 11.955 3.018L3.01871 11.955C2.99451 11.9795 2.99451 12.019 3.01871 12.0435L11.955 20.982C11.9795 21.0062 12.0189 21.0062 12.0435 20.982L20.982 12.045C21.0062 12.0205 21.0062 11.981 20.982 11.9565L12.045 3.018C12.0331 3.00596 12.0169 2.99995 12 3Z" fill="black"/>
</svg>
