<svg width="24" height="24" viewBox="0 0 24 24" fill="none" xmlns="http://www.w3.org/2000/svg">
<path fill-rule="evenodd" clip-rule="evenodd" d="M22.0619 10.9425L13.0574 1.93875C12.7769 1.65827 12.3965 1.5007 11.9999 1.5007C11.6033 1.5007 11.2229 1.65827 10.9424 1.93875L1.93865 10.9432C1.35509 11.5272 1.35509 12.4735 1.93865 13.0575L10.9424 22.062C11.5263 22.6456 12.4727 22.6456 13.0566 22.062L22.0619 13.0575C22.3424 12.777 22.4999 12.3966 22.4999 12C22.4999 11.6034 22.3424 11.223 22.0619 10.9425ZM11.9999 18C11.3786 18 10.8749 17.4963 10.8749 16.875C10.8749 16.2537 11.3786 15.75 11.9999 15.75C12.6212 15.75 13.1249 16.2537 13.1249 16.875C13.1249 17.4963 12.6212 18 11.9999 18ZM12.8436 12.936V14.3437H11.1561V11.25H12.7499C13.5265 11.25 14.1561 10.6204 14.1561 9.84375C14.1561 9.0671 13.5265 8.4375 12.7499 8.4375H11.2499C10.4736 8.43832 9.84447 9.06744 9.84365 9.84375V10.2187H8.15615V9.84375C8.15821 8.13597 9.54212 6.75206 11.2499 6.75H12.7499C14.4393 6.75138 15.8151 8.1077 15.8407 9.79686C15.8663 11.486 14.5322 12.8834 12.8436 12.936Z" fill="black"/>
</svg>
