<svg width="24" height="24" viewBox="0 0 24 24" fill="none" xmlns="http://www.w3.org/2000/svg">
<path fill-rule="evenodd" clip-rule="evenodd" d="M2.688 3.7515L3.7485 2.691L6.3105 5.2515L5.25 6.31275L2.688 3.7515ZM17.6857 18.744L18.747 17.6835L21.3075 20.2455L20.247 21.306L17.6857 18.744ZM8.25 1.5H9.75V4.5H8.25V1.5ZM1.5 8.25H4.5V9.75H1.5V8.25ZM19.5 14.25H22.5V15.75H19.5V14.25ZM14.25 19.5H15.75V22.5H14.25V19.5ZM12.435 15.8025L9.6525 18.5925C8.8942 19.3508 7.78896 19.6469 6.75311 19.3694C5.71726 19.0918 4.90817 18.2827 4.63061 17.2469C4.35306 16.211 4.6492 15.1058 5.4075 14.3475L8.1975 11.5575L7.1325 10.5L4.35 13.29C3.48749 14.1295 2.99724 15.2795 2.98878 16.4831C2.98032 17.6867 3.45438 18.8435 4.305 19.695C5.15423 20.5373 6.30389 21.0069 7.5 21C8.71703 21.0012 9.88387 20.515 10.74 19.65L13.5 16.8675L12.435 15.8025ZM11.5575 8.1975L14.3475 5.4075C15.1058 4.6492 16.211 4.35306 17.2469 4.63061C18.2827 4.90817 19.0918 5.71726 19.3694 6.75311C19.6469 7.78896 19.3508 8.8942 18.5925 9.6525L15.8025 12.4425L16.8675 13.5L19.65 10.71C20.5125 9.87051 21.0028 8.72048 21.0112 7.51691C21.0197 6.31333 20.5456 5.15653 19.695 4.305C18.8458 3.46266 17.6961 2.99308 16.5 3C15.283 2.99883 14.1161 3.48501 13.26 4.35L10.5 7.1325L11.5575 8.1975Z" fill="black"/>
</svg>
