<svg width="24" height="24" viewBox="0 0 24 24" fill="none" xmlns="http://www.w3.org/2000/svg">
<path fill-rule="evenodd" clip-rule="evenodd" d="M12 1.5C6.20101 1.5 1.5 6.20101 1.5 12C1.5 17.799 6.20101 22.5 12 22.5C17.799 22.5 22.5 17.799 22.5 12C22.5 9.21523 21.3938 6.54451 19.4246 4.57538C17.4555 2.60625 14.7848 1.5 12 1.5ZM7.5 18.285C7.43147 16.9672 8.43338 15.8384 9.75 15.75H14.25C15.5697 15.8384 16.5728 16.9719 16.5 18.2925V19.7925C13.7187 21.4127 10.2813 21.4127 7.5 19.7925V18.285ZM18 18.69V18.2325C18.0425 16.1055 16.3757 14.3353 14.25 14.25H9.75C7.6225 14.3314 5.95341 16.104 6 18.2325V18.675C3.21867 16.1873 2.26095 12.2413 3.59245 8.7554C4.92395 5.26949 8.26846 2.9668 12 2.9668C15.7315 2.9668 19.0761 5.26949 20.4076 8.7554C21.739 12.2413 20.7813 16.1873 18 18.675V18.69ZM12 5.25C9.92893 5.25 8.25 6.92893 8.25 9C8.25 11.0711 9.92893 12.75 12 12.75C14.0711 12.75 15.75 11.0711 15.75 9C15.75 6.92893 14.0711 5.25 12 5.25ZM12 11.25C10.7574 11.25 9.75 10.2426 9.75 9C9.75 7.75736 10.7574 6.75 12 6.75C13.2426 6.75 14.25 7.75736 14.25 9C14.25 10.2426 13.2426 11.25 12 11.25Z" fill="black"/>
</svg>
