<svg width="24" height="24" viewBox="0 0 24 24" fill="none" xmlns="http://www.w3.org/2000/svg">
<path fill-rule="evenodd" clip-rule="evenodd" d="M18.75 17.25H18.7342C18.4054 17.2423 18.1198 17.0217 18.0293 16.7055L15.6525 8.3925L14.2013 12.2625C14.0919 12.5552 13.8125 12.7495 13.5 12.75H10.5V11.25H12.9802L15.048 5.73675C15.1616 5.43355 15.4569 5.23744 15.7804 5.2504C16.1039 5.26335 16.3826 5.48244 16.4715 5.79375L18.8048 13.9628L20.289 9.513C20.3908 9.20671 20.6772 9.00001 21 9H24V10.5H21.54L19.461 16.737C19.3594 17.0434 19.0728 17.2502 18.75 17.25ZM11.25 22.5H9.75V17.25C9.74876 16.0079 8.74213 15.0012 7.5 15H4.5C3.25787 15.0012 2.25124 16.0079 2.25 17.25V22.5H0.75V17.25C0.75248 15.18 2.42996 13.5025 4.5 13.5H7.5C9.57004 13.5025 11.2475 15.18 11.25 17.25V22.5ZM6 6C7.24264 6 8.25 7.00736 8.25 8.25C8.25 9.49264 7.24264 10.5 6 10.5C4.75736 10.5 3.75 9.49264 3.75 8.25C3.75 7.00736 4.75736 6 6 6ZM6 4.5C3.92893 4.5 2.25 6.17893 2.25 8.25C2.25 10.3211 3.92893 12 6 12C8.07107 12 9.75 10.3211 9.75 8.25C9.75 6.17893 8.07107 4.5 6 4.5Z" fill="black"/>
</svg>
