<svg width="24" height="24" viewBox="0 0 24 24" fill="none" xmlns="http://www.w3.org/2000/svg">
<path fill-rule="evenodd" clip-rule="evenodd" d="M21 6.75V5.25H18.75V3.75H17.25V5.25H15V6.75H17.25V9H15V10.5H17.25V12H18.75V10.5H21V9H18.75V6.75H21ZM23.25 2.25H12.75C12.3358 2.25 12 2.58579 12 3V12.75C12 13.1642 12.3358 13.5 12.75 13.5H23.25C23.6642 13.5 24 13.1642 24 12.75V3C24 2.58579 23.6642 2.25 23.25 2.25ZM21 6.75H18.75V9H21V10.5H18.75V12H17.25V10.5H15V9H17.25V6.75H15V5.25H17.25V3.75H18.75V5.25H21V6.75ZM11.25 22.5H9.75V19.5C9.7611 18.8999 9.52762 18.3212 9.10323 17.8968C8.67884 17.4724 8.10007 17.2389 7.5 17.25H4.5C3.89993 17.2389 3.32116 17.4724 2.89677 17.8968C2.47238 18.3212 2.2389 18.8999 2.25 19.5V22.5H0.750001V19.5C0.740078 18.5024 1.13198 17.5428 1.8374 16.8374C2.54283 16.132 3.50243 15.7401 4.5 15.75H7.5C8.49757 15.7401 9.45717 16.132 10.1626 16.8374C10.868 17.5428 11.2599 18.5024 11.25 19.5V22.5ZM6 8.25C7.24264 8.25 8.25 9.25736 8.25 10.5C8.25 11.7426 7.24264 12.75 6 12.75C4.75736 12.75 3.75 11.7426 3.75 10.5C3.75 9.25736 4.75736 8.25 6 8.25ZM6 6.75C3.92893 6.75 2.25 8.42893 2.25 10.5C2.25 12.5711 3.92893 14.25 6 14.25C8.07107 14.25 9.75 12.5711 9.75 10.5C9.75 8.42893 8.07107 6.75 6 6.75Z" fill="black"/>
</svg>
