<svg width="24" height="24" viewBox="0 0 24 24" fill="none" xmlns="http://www.w3.org/2000/svg">
<path fill-rule="evenodd" clip-rule="evenodd" d="M21.5745 3.19203C20.4038 2.00235 18.5095 1.92876 17.25 3.02403C15.9905 1.92876 14.0962 2.00235 12.9255 3.19203C11.6922 4.45135 11.6922 6.4657 12.9255 7.72503L17.2485 12.105L17.25 12.1035L17.2515 12.1043L21.5745 7.72503C22.8078 6.4657 22.8078 4.45135 21.5745 3.19203ZM20.5065 6.67128L17.2515 9.96903L17.25 9.96753L17.2485 9.96903L13.9935 6.67128C13.3324 5.99793 13.3324 4.91912 13.9935 4.24578C14.6525 3.60523 15.7015 3.60523 16.3605 4.24578L17.2463 5.15103L17.25 5.14728L17.2537 5.15103L18.1388 4.24578C18.7978 3.60475 19.8474 3.60475 20.5065 4.24578C21.1676 4.91912 21.1676 5.99793 20.5065 6.67128ZM12 22.5H10.5V18.75C10.4988 17.5079 9.49213 16.5013 8.25 16.5H5.25C4.00787 16.5013 3.00124 17.5079 3 18.75V22.5H1.5V18.75C1.50248 16.68 3.17996 15.0025 5.25 15H8.25C10.32 15.0025 11.9975 16.68 12 18.75V22.5ZM6.75 7.50003C7.99264 7.50003 9 8.50739 9 9.75003C9 10.9927 7.99264 12 6.75 12C5.50736 12 4.5 10.9927 4.5 9.75003C4.5 8.50739 5.50736 7.50003 6.75 7.50003ZM6.75 6.00003C4.67893 6.00003 3 7.67896 3 9.75003C3 11.8211 4.67893 13.5 6.75 13.5C8.82107 13.5 10.5 11.8211 10.5 9.75003C10.5 8.75547 10.1049 7.80164 9.40165 7.09838C8.69839 6.39512 7.74456 6.00003 6.75 6.00003Z" fill="black"/>
</svg>
