<svg width="24" height="24" viewBox="0 0 24 24" fill="none" xmlns="http://www.w3.org/2000/svg">
<path fill-rule="evenodd" clip-rule="evenodd" d="M12 1.5C6.20101 1.5 1.5 6.20101 1.5 12C1.5 17.799 6.20101 22.5 12 22.5C17.799 22.5 22.5 17.799 22.5 12C22.5 9.21523 21.3938 6.54451 19.4246 4.57538C17.4555 2.60625 14.7848 1.5 12 1.5ZM18 18.6892V18.2332C18.0434 16.1058 16.3762 14.3349 14.25 14.25H9.75C7.62546 14.3354 5.96081 16.1068 6.0075 18.2325C6.0075 18.2407 6 18.249 6 18.2572V18.696C3.21457 16.2096 2.25271 12.2621 3.58215 8.7731C4.91159 5.28409 8.25647 2.9776 11.9902 2.97527C15.7239 2.97294 19.0716 5.27524 20.4054 8.76259C21.7393 12.2499 20.7823 16.1994 18 18.6892ZM12 5.25C9.92893 5.25 8.25 6.92893 8.25 9C8.25 11.0711 9.92893 12.75 12 12.75C14.0711 12.75 15.75 11.0711 15.75 9C15.75 6.92893 14.0711 5.25 12 5.25Z" fill="black"/>
</svg>
