<svg width="24" height="24" viewBox="0 0 24 24" fill="none" xmlns="http://www.w3.org/2000/svg">
<path fill-rule="evenodd" clip-rule="evenodd" d="M20.4772 9C19.939 8.99972 19.4233 9.21595 19.0462 9.6L18.7515 9.9015L18.4538 9.59925C18.0764 9.21557 17.5609 8.99948 17.0227 8.99948C16.4846 8.99948 15.9691 9.21557 15.5918 9.59925C14.8022 10.4045 14.8022 11.6935 15.5918 12.4987L18.7515 15.6967L21.9083 12.4987C22.6978 11.6935 22.6978 10.4045 21.9083 9.59925C21.5311 9.21548 21.0154 8.99952 20.4772 9ZM1.5 22.5H3V18.75C3.00248 16.68 4.67996 15.0025 6.75 15H11.25C13.32 15.0025 14.9975 16.68 15 18.75V22.5H16.5V18.75C16.4967 15.8519 14.1481 13.5033 11.25 13.5H6.75C3.85188 13.5033 1.50331 15.8519 1.5 18.75V22.5ZM9 3C11.0711 3 12.75 4.67893 12.75 6.75C12.75 8.82107 11.0711 10.5 9 10.5C6.92893 10.5 5.25 8.82107 5.25 6.75C5.25 4.67893 6.92893 3 9 3ZM9 1.5C6.1005 1.5 3.75 3.85051 3.75 6.75C3.75 9.6495 6.1005 12 9 12C11.8995 12 14.25 9.6495 14.25 6.75C14.25 3.85051 11.8995 1.5 9 1.5Z" fill="black"/>
</svg>
