<svg width="24" height="24" viewBox="0 0 24 24" fill="none" xmlns="http://www.w3.org/2000/svg">
<path fill-rule="evenodd" clip-rule="evenodd" d="M16.5 8.25H19.5C19.9142 8.25 20.25 8.58579 20.25 9V10.5H15.75V9C15.75 8.58579 16.0858 8.25 16.5 8.25ZM18 7.5C18.8284 7.5 19.5 6.82843 19.5 6C19.5 5.17157 18.8284 4.5 18 4.5C17.1716 4.5 16.5 5.17157 16.5 6C16.5 6.82843 17.1716 7.5 18 7.5ZM22.5 13.5H13.5C12.6719 13.4992 12.0008 12.8281 12 12V3C12.0008 2.17192 12.6719 1.50083 13.5 1.5H22.5C23.3281 1.50083 23.9992 2.17192 24 3V12C23.9988 12.8279 23.3279 13.4988 22.5 13.5ZM13.5 3V12H22.5008L22.5 3H13.5ZM11.25 22.5H9.75V19.5C9.7611 18.8999 9.52762 18.3212 9.10323 17.8968C8.67884 17.4724 8.10007 17.2389 7.5 17.25H4.5C3.89993 17.2389 3.32116 17.4724 2.89677 17.8968C2.47238 18.3212 2.2389 18.8999 2.25 19.5V22.5H0.750001V19.5C0.740078 18.5024 1.13198 17.5428 1.8374 16.8374C2.54283 16.132 3.50243 15.7401 4.5 15.75H7.5C8.49757 15.7401 9.45717 16.132 10.1626 16.8374C10.868 17.5428 11.2599 18.5024 11.25 19.5V22.5ZM6 8.25C7.24264 8.25 8.25 9.25736 8.25 10.5C8.25 11.7426 7.24264 12.75 6 12.75C4.75736 12.75 3.75 11.7426 3.75 10.5C3.75 9.25736 4.75736 8.25 6 8.25ZM6 6.75C3.92893 6.75 2.25 8.42893 2.25 10.5C2.25 12.5711 3.92893 14.25 6 14.25C8.07107 14.25 9.75 12.5711 9.75 10.5C9.75 8.42893 8.07107 6.75 6 6.75Z" fill="black"/>
</svg>
