<svg width="24" height="24" viewBox="0 0 24 24" fill="none" xmlns="http://www.w3.org/2000/svg">
<path fill-rule="evenodd" clip-rule="evenodd" d="M15.75 19.5H3C2.17157 19.5 1.5 18.8284 1.5 18V6C1.5 5.17157 2.17157 4.5 3 4.5H15.75C16.5784 4.5 17.25 5.17157 17.25 6V9.045L21.315 6.1425C21.5432 5.98003 21.8429 5.95826 22.0922 6.08605C22.3414 6.21384 22.4987 6.46989 22.5 6.75V17.25C22.4987 17.5301 22.3414 17.7862 22.0922 17.9139C21.8429 18.0417 21.5432 18.02 21.315 17.8575L17.25 14.955V18C17.25 18.8284 16.5784 19.5 15.75 19.5Z" fill="black"/>
</svg>
