<svg width="24" height="24" viewBox="0 0 24 24" fill="none" xmlns="http://www.w3.org/2000/svg">
<path fill-rule="evenodd" clip-rule="evenodd" d="M15.2325 4.5H2.99999C2.17156 4.5 1.49999 5.17157 1.49999 6V18C1.4963 18.0725 1.4963 18.145 1.49999 18.2175L15.2325 4.5ZM22.095 6.0825C21.8523 5.96658 21.5662 5.98948 21.345 6.1425L17.25 9.045V7.83L22.5 2.58L21.42 1.5L1.49999 21.42L2.57999 22.5L5.57999 19.5H15.75C16.5784 19.5 17.25 18.8284 17.25 18V14.955L21.315 17.8575C21.5432 18.02 21.8429 18.0417 22.0921 17.9139C22.3414 17.7862 22.4987 17.5301 22.5 17.25V6.75C22.5006 6.46923 22.3443 6.21165 22.095 6.0825Z" fill="black"/>
</svg>
