<svg width="24" height="24" viewBox="0 0 24 24" fill="none" xmlns="http://www.w3.org/2000/svg">
<path fill-rule="evenodd" clip-rule="evenodd" d="M22.095 6.0825C21.8523 5.96658 21.5662 5.98948 21.345 6.1425L17.25 9.045V7.83L22.5 2.58L21.42 1.5L1.5 21.42L2.58 22.5L5.58 19.5H15.75C16.5784 19.5 17.25 18.8284 17.25 18V14.955L21.315 17.8575C21.5432 18.02 21.8429 18.0417 22.0922 17.9139C22.3414 17.7862 22.4987 17.5301 22.5 17.25V6.75C22.5006 6.46923 22.3443 6.21165 22.095 6.0825ZM21 15.795L16.935 12.8925C16.7068 12.73 16.4071 12.7083 16.1578 12.8361C15.9086 12.9638 15.7513 13.2199 15.75 13.5V18H7.08L15.75 9.33V10.5C15.7513 10.7801 15.9086 11.0362 16.1578 11.1639C16.4071 11.2917 16.7068 11.27 16.935 11.1075L21 8.205V15.795ZM3 18V6H15V4.5H3C2.17157 4.5 1.5 5.17157 1.5 6V18H3Z" fill="black"/>
</svg>
