<svg width="24" height="24" viewBox="0 0 24 24" fill="none" xmlns="http://www.w3.org/2000/svg">
<path fill-rule="evenodd" clip-rule="evenodd" d="M13.5 11.25H10.5V8.25H9V11.25H6V12.75H9V15.75H10.5V12.75H13.5V11.25ZM15.75 19.5H3C2.17192 19.4992 1.50083 18.8281 1.5 18V6C1.50083 5.17192 2.17192 4.50083 3 4.5H15.75C16.5781 4.50083 17.2492 5.17192 17.25 6V9.04275L21.3143 6.14025C21.5428 5.97712 21.8433 5.95529 22.093 6.0837C22.3427 6.2121 22.4997 6.46922 22.5 6.75V17.25C22.5 17.5309 22.3431 17.7883 22.0933 17.9169C21.8436 18.0455 21.5429 18.0237 21.3143 17.8605L17.25 14.958V18C17.2492 18.8281 16.5781 19.4992 15.75 19.5ZM3 6V18.0007L15.75 18V13.5C15.75 13.2191 15.9069 12.9617 16.1567 12.8331C16.4064 12.7045 16.7071 12.7263 16.9358 12.8895L21 15.792V8.208L16.9358 11.1105C16.7071 11.2737 16.4064 11.2955 16.1567 11.1669C15.9069 11.0383 15.75 10.7809 15.75 10.5V6H3Z" fill="black"/>
</svg>
