<svg width="24" height="24" viewBox="0 0 24 24" fill="none" xmlns="http://www.w3.org/2000/svg">
<path fill-rule="evenodd" clip-rule="evenodd" d="M23.205 11.745C21.402 7.08128 16.9966 3.9379 12 3.75C7.00341 3.9379 2.59796 7.08128 0.794986 11.745C0.735412 11.9098 0.735412 12.0902 0.794986 12.255C2.59796 16.9187 7.00341 20.0621 12 20.25C16.9966 20.0621 21.402 16.9187 23.205 12.255C23.2646 12.0902 23.2646 11.9098 23.205 11.745ZM12 18.75C8.02499 18.75 3.82499 15.8025 2.30249 12C3.82499 8.1975 8.02499 5.25 12 5.25C15.975 5.25 20.175 8.1975 21.6975 12C20.175 15.8025 15.975 18.75 12 18.75ZM12 7.5C9.51471 7.5 7.49999 9.51472 7.49999 12C7.49999 14.4853 9.51471 16.5 12 16.5C14.4853 16.5 16.5 14.4853 16.5 12C16.5 9.51472 14.4853 7.5 12 7.5ZM12 15C10.3431 15 8.99999 13.6569 8.99999 12C8.99999 10.3431 10.3431 9 12 9C13.6568 9 15 10.3431 15 12C15 12.7956 14.6839 13.5587 14.1213 14.1213C13.5587 14.6839 12.7956 15 12 15Z" fill="black"/>
</svg>
