<svg width="24" height="24" viewBox="0 0 24 24" fill="none" xmlns="http://www.w3.org/2000/svg">
<path fill-rule="evenodd" clip-rule="evenodd" d="M12 15C13.6568 15 15 13.6569 15 12C15 10.3431 13.6568 9 12 9C10.3431 9 8.99999 10.3431 8.99999 12C8.99999 13.6569 10.3431 15 12 15ZM23.205 11.745C21.402 7.08128 16.9966 3.9379 12 3.75C7.00341 3.9379 2.59796 7.08128 0.794986 11.745C0.735412 11.9098 0.735412 12.0902 0.794986 12.255C2.59796 16.9187 7.00341 20.0621 12 20.25C16.9966 20.0621 21.402 16.9187 23.205 12.255C23.2646 12.0902 23.2646 11.9098 23.205 11.745ZM12 16.875C9.3076 16.875 7.12499 14.6924 7.12499 12C7.12499 9.30761 9.3076 7.125 12 7.125C14.6924 7.125 16.875 9.30761 16.875 12C16.8709 14.6907 14.6907 16.8709 12 16.875Z" fill="black"/>
</svg>
