<svg width="24" height="24" viewBox="0 0 24 24" fill="none" xmlns="http://www.w3.org/2000/svg">
<path fill-rule="evenodd" clip-rule="evenodd" d="M3.92999 16.8825L5.00249 15.8175C3.82815 14.7631 2.90547 13.4585 2.30249 12C3.82499 8.1975 8.02499 5.25 12 5.25C13.0229 5.2635 14.0366 5.44596 15 5.79L16.1625 4.62C14.8445 4.06299 13.4308 3.76751 12 3.75C7.00341 3.9379 2.59796 7.08128 0.794986 11.745C0.735412 11.9098 0.735412 12.0902 0.794986 12.255C1.46117 14.0228 2.53531 15.6083 3.92999 16.8825ZM8.99999 11.7975C9.1078 10.3119 10.2893 9.13031 11.775 9.0225L13.1325 7.6575C11.5845 7.24991 9.93657 7.69531 8.80468 8.8272C7.6728 9.95908 7.2274 11.607 7.63499 13.155L8.99999 11.7975ZM23.205 11.745C22.345 9.5049 20.8485 7.56527 18.9 6.165L22.5 2.5575L21.4425 1.5L1.49999 21.4425L2.55749 22.5L6.38249 18.675C8.08789 19.6755 10.023 20.2181 12 20.25C16.9966 20.0621 21.402 16.9187 23.205 12.255C23.2646 12.0902 23.2646 11.9098 23.205 11.745ZM15 12C14.9936 13.0686 14.4192 14.0531 13.4922 14.5845C12.5652 15.116 11.4254 15.1143 10.5 14.58L14.58 10.5C14.8496 10.9543 14.9945 11.4717 15 12ZM12 18.75C10.4265 18.7225 8.88291 18.316 7.49999 17.565L9.40499 15.66C11.1932 16.9008 13.6132 16.6839 15.1523 15.1448C16.6914 13.6057 16.9083 11.1858 15.6675 9.3975L17.82 7.245C19.5409 8.42624 20.8867 10.0766 21.6975 12C20.175 15.8025 15.975 18.75 12 18.75Z" fill="black"/>
</svg>
