<svg width="24" height="24" viewBox="0 0 24 24" fill="none" xmlns="http://www.w3.org/2000/svg">
<path fill-rule="evenodd" clip-rule="evenodd" d="M3 19.5H21V21H3V19.5ZM3 14.25H21V15.75H3V14.25ZM9 4.5V9H4.5V4.5H9ZM9 3H4.5C3.67157 3 3 3.67157 3 4.5V9C3 9.82843 3.67157 10.5 4.5 10.5H9C9.82843 10.5 10.5 9.82843 10.5 9V4.5C10.5 3.67157 9.82843 3 9 3ZM19.5 4.5V9H15V4.5H19.5ZM19.5 3H15C14.1716 3 13.5 3.67157 13.5 4.5V9C13.5 9.82843 14.1716 10.5 15 10.5H19.5C20.3284 10.5 21 9.82843 21 9V4.5C21 3.67157 20.3284 3 19.5 3Z" fill="black"/>
</svg>
