<svg width="24" height="24" viewBox="0 0 24 24" fill="none" xmlns="http://www.w3.org/2000/svg">
<path fill-rule="evenodd" clip-rule="evenodd" d="M23.205 11.745C22.3483 9.50312 20.8544 7.56085 18.9075 6.1575L22.5 2.5575L21.4425 1.5L1.49999 21.4425L2.55749 22.5L6.38249 18.6825C8.0898 19.6776 10.0241 20.2173 12 20.25C16.9966 20.0621 21.402 16.9187 23.205 12.255C23.2646 12.0902 23.2646 11.9098 23.205 11.745ZM12 16.875C10.9662 16.8745 9.95965 16.5434 9.12749 15.93L10.5 14.5725C11.6689 15.213 13.1203 15.0054 14.0628 14.0629C15.0054 13.1203 15.213 11.669 14.5725 10.5L15.93 9.1425C17.0073 10.6222 17.1635 12.5812 16.3342 14.2129C15.5049 15.8446 13.8303 16.8731 12 16.875ZM3.39749 16.3575L7.14749 12.6075C7.12798 12.4056 7.12047 12.2028 7.12499 12C7.12912 9.30932 9.30931 7.12913 12 7.125C12.198 7.12605 12.3959 7.13857 12.5925 7.1625L15.4275 4.335C14.3241 3.95603 13.1666 3.75847 12 3.75C7.00341 3.9379 2.59796 7.08128 0.794986 11.745C0.735412 11.9098 0.735412 12.0902 0.794986 12.255C1.37101 13.787 2.25698 15.1836 3.39749 16.3575Z" fill="black"/>
</svg>
