<svg width="24" height="24" viewBox="0 0 24 24" fill="none" xmlns="http://www.w3.org/2000/svg">
<path fill-rule="evenodd" clip-rule="evenodd" d="M17.25 10.5C18.0784 10.5 18.75 9.82843 18.75 9C18.75 8.17157 18.0784 7.5 17.25 7.5C16.4216 7.5 15.75 8.17157 15.75 9C15.75 9.82843 16.4216 10.5 17.25 10.5ZM21 3.75H12.18C10.6759 1.85878 8.18417 1.05435 5.85819 1.70911C3.53221 2.36387 1.82598 4.35002 1.52937 6.74813C1.23275 9.14624 2.40364 11.4883 4.5 12.69V20.25C4.5 21.0784 5.17157 21.75 6 21.75H21C21.8284 21.75 22.5 21.0784 22.5 20.25V5.25C22.5 4.42157 21.8284 3.75 21 3.75ZM3 7.5C3.00359 5.46647 4.37053 3.68804 6.33471 3.16145C8.29888 2.63487 10.3721 3.49099 11.3925 5.25H6V6.75H11.9325C11.9739 6.99794 11.9965 7.24865 12 7.5C11.9965 7.75134 11.9739 8.00206 11.9325 8.25H7.5V9.75H11.3925C10.3721 11.509 8.29888 12.3651 6.33471 11.8385C4.37053 11.312 3.00359 9.53353 3 7.5ZM21 20.25H6L9.75 16.5L10.9425 17.6925C11.5276 18.2741 12.4724 18.2741 13.0575 17.6925L17.25 13.5L21 17.25V20.25ZM21 15.1275L18.3075 12.435C17.7224 11.8534 16.7776 11.8534 16.1925 12.435L12 16.6275L10.8075 15.435C10.2224 14.8534 9.27755 14.8534 8.6925 15.435L6 18.1275V13.305C6.49012 13.4312 6.9939 13.4967 7.5 13.5C10.8137 13.5 13.5 10.8137 13.5 7.5C13.5004 6.72834 13.3501 5.96403 13.0575 5.25H21V15.1275Z" fill="black"/>
</svg>
