<svg width="24" height="24" viewBox="0 0 24 24" fill="none" xmlns="http://www.w3.org/2000/svg">
<path fill-rule="evenodd" clip-rule="evenodd" d="M18 7.5C16.227 7.50359 14.6215 8.54784 13.8993 10.167C13.1771 11.7862 13.473 13.6785 14.655 15H9.34498C10.7611 13.4167 10.8772 11.0588 9.62352 9.3441C8.36983 7.62936 6.0878 7.0248 4.14959 7.89396C2.21138 8.76311 1.1449 10.8692 1.59141 12.9459C2.03793 15.0226 3.87582 16.5043 5.99998 16.5H18C20.4853 16.5 22.5 14.4853 22.5 12C22.5 9.51472 20.4853 7.5 18 7.5ZM2.99998 12C2.99998 10.3431 4.34312 9 5.99998 9C7.65683 9 8.99998 10.3431 8.99998 12C8.99998 13.6569 7.65683 15 5.99998 15C4.34312 15 2.99998 13.6569 2.99998 12ZM18 15C16.3431 15 15 13.6569 15 12C15 10.3431 16.3431 9 18 9C19.6568 9 21 10.3431 21 12C21 12.7957 20.6839 13.5587 20.1213 14.1213C19.5587 14.6839 18.7956 15 18 15Z" fill="black"/>
</svg>
