<svg width="24" height="24" viewBox="0 0 24 24" fill="none" xmlns="http://www.w3.org/2000/svg">
<path fill-rule="evenodd" clip-rule="evenodd" d="M20.37 6.06005L19.2225 7.02755C21.6617 9.91696 21.5685 14.1703 19.005 16.9501L20.1075 18.0001C23.1859 14.6643 23.2984 9.55821 20.37 6.09005V6.06005ZM16.185 9.00005C17.6482 10.7351 17.5903 13.2881 16.05 14.9551L17.1525 15.9751C19.2055 13.7502 19.2794 10.3445 17.325 8.03255L16.185 9.00005ZM13.5 22.5001C13.2996 22.4992 13.1078 22.4182 12.9675 22.2751L7.2525 16.5001H2.25C1.83579 16.5001 1.5 16.1643 1.5 15.7501V8.25005C1.5 7.83584 1.83579 7.50005 2.25 7.50005H7.2525L12.9675 1.72505C13.26 1.43426 13.7325 1.43426 14.025 1.72505C14.1663 1.86353 14.2472 2.05223 14.25 2.25005V21.7501C14.25 22.1643 13.9142 22.5001 13.5 22.5001Z" fill="black"/>
</svg>
