<svg width="24" height="24" viewBox="0 0 24 24" fill="none" xmlns="http://www.w3.org/2000/svg">
<path fill-rule="evenodd" clip-rule="evenodd" d="M23.25 9.30755L22.1925 8.25005L19.5 10.9426L16.8075 8.25005L15.75 9.30755L18.4425 12.0001L15.75 14.6926L16.8075 15.7501L19.5 13.0576L22.1925 15.7501L23.25 14.6926L20.5575 12.0001L23.25 9.30755ZM13.5 22.5001C13.2996 22.4992 13.1078 22.4182 12.9675 22.2751L7.2525 16.5001H2.25C1.83579 16.5001 1.5 16.1643 1.5 15.7501V8.25005C1.5 7.83584 1.83579 7.50005 2.25 7.50005H7.2525L12.9675 1.72505C13.26 1.43426 13.7325 1.43426 14.025 1.72505C14.1663 1.86353 14.2472 2.05223 14.25 2.25005V21.7501C14.25 22.1643 13.9142 22.5001 13.5 22.5001ZM3 15.0001H7.5C7.71863 14.9986 7.92993 15.0789 8.0925 15.2251L12.75 19.9276V4.07255L8.0925 8.77505C7.92993 8.92125 7.71863 9.00149 7.5 9.00005H3V15.0001Z" fill="black"/>
</svg>
