<svg width="24" height="24" viewBox="0 0 24 24" fill="none" xmlns="http://www.w3.org/2000/svg">
<path fill-rule="evenodd" clip-rule="evenodd" d="M18.825 7.99505L17.685 9.00005C19.1482 10.7351 19.0903 13.2881 17.55 14.9551L18.6525 15.9751C20.7055 13.7502 20.7794 10.3444 18.825 8.03255V7.99505ZM15 22.5001C14.7996 22.4992 14.6078 22.4182 14.4675 22.2751L8.7525 16.5001H3.75C3.33579 16.5001 3 16.1643 3 15.7501V8.25005C3 7.83584 3.33579 7.50005 3.75 7.50005H8.7525L14.4675 1.72505C14.76 1.43426 15.2325 1.43426 15.525 1.72505C15.6663 1.86353 15.7472 2.05223 15.75 2.25005V21.7501C15.75 22.1643 15.4142 22.5001 15 22.5001ZM4.5 15.0001H9C9.21863 14.9986 9.42993 15.0789 9.5925 15.2251L14.25 19.9276V4.07255L9.5925 8.77505C9.42993 8.92125 9.21863 9.00149 9 9.00005H4.5V15.0001Z" fill="black"/>
</svg>
