<svg width="24" height="24" viewBox="0 0 24 24" fill="none" xmlns="http://www.w3.org/2000/svg">
<path fill-rule="evenodd" clip-rule="evenodd" d="M22.395 1.8675C22.2599 1.63973 22.0148 1.50005 21.75 1.5H2.24997C1.98555 1.50045 1.74082 1.63984 1.60554 1.86704C1.47027 2.09424 1.46435 2.37582 1.58997 2.6085L11.34 21.3862C11.4829 21.6127 11.7319 21.75 11.9996 21.75C12.2673 21.75 12.5163 21.6127 12.6592 21.3862L22.4092 2.6085C22.535 2.37581 22.5293 2.09417 22.3942 1.86675L22.395 1.8675ZM11.1555 3.75H12.843V11.25H11.1555V3.75ZM12 15.75C11.3786 15.75 10.875 15.2463 10.875 14.625C10.875 14.0037 11.3786 13.5 12 13.5C12.6213 13.5 13.125 14.0037 13.125 14.625C13.125 15.2463 12.6213 15.75 12 15.75Z" fill="black"/>
</svg>
