<svg width="24" height="24" viewBox="0 0 24 24" fill="none" xmlns="http://www.w3.org/2000/svg">
<path fill-rule="evenodd" clip-rule="evenodd" d="M11.9999 12.75C11.3786 12.75 10.8749 13.2537 10.8749 13.875C10.8749 14.4963 11.3786 15 11.9999 15C12.6213 15 13.1249 14.4963 13.1249 13.875C13.1249 13.2537 12.6213 12.75 11.9999 12.75ZM11.2499 4.5H12.7499V11.25H11.2499V4.5ZM22.3912 1.8615C22.5269 2.08527 22.536 2.3636 22.4152 2.59575L12.6652 21.3458C12.5234 21.5773 12.2715 21.7185 11.9999 21.7185C11.7284 21.7185 11.4765 21.5773 11.3347 21.3458L1.58469 2.59575C1.46394 2.3633 1.47321 2.08469 1.60915 1.86078C1.74509 1.63687 1.988 1.5001 2.24994 1.5H21.7499C22.0122 1.5001 22.2553 1.63717 22.3912 1.8615ZM11.9999 19.374L20.5147 3H3.48519L11.9999 19.374Z" fill="black"/>
</svg>
