<svg width="24" height="24" viewBox="0 0 24 24" fill="none" xmlns="http://www.w3.org/2000/svg">
<path fill-rule="evenodd" clip-rule="evenodd" d="M19.5015 3H4.4985C3.6709 3 3 3.6709 3 4.4985V19.5015C3 20.3291 3.6709 21 4.4985 21H19.5015C19.8989 21 20.2801 20.8421 20.5611 20.5611C20.8421 20.2801 21 19.8989 21 19.5015V4.4985C21 4.10107 20.8421 3.71992 20.5611 3.4389C20.2801 3.15788 19.8989 3 19.5015 3ZM11.1562 6H12.8438V13.5H11.1562V6ZM12 18C11.3787 18 10.875 17.4963 10.875 16.875C10.875 16.2537 11.3787 15.75 12 15.75C12.6213 15.75 13.125 16.2537 13.125 16.875C13.125 17.4963 12.6213 18 12 18Z" fill="black"/>
</svg>
