<svg width="24" height="24" viewBox="0 0 24 24" fill="none" xmlns="http://www.w3.org/2000/svg">
<path fill-rule="evenodd" clip-rule="evenodd" d="M12.0001 16.5C11.3788 16.5 10.8751 17.0037 10.8751 17.625C10.8751 18.2463 11.3788 18.75 12.0001 18.75C12.6214 18.75 13.1251 18.2463 13.1251 17.625C13.1251 17.0037 12.6214 16.5 12.0001 16.5ZM11.2501 8.25001H12.7501V15H11.2501V8.25001ZM21.7501 21.75H2.2501C1.98797 21.7506 1.74458 21.6142 1.60814 21.3904C1.4717 21.1666 1.46202 20.8878 1.5826 20.655L11.3326 1.90501C11.4609 1.65453 11.7187 1.49698 12.0001 1.49698C12.2815 1.49698 12.5393 1.65453 12.6676 1.90501L22.4176 20.655C22.5382 20.8878 22.5285 21.1666 22.3921 21.3904C22.2556 21.6142 22.0122 21.7506 21.7501 21.75ZM3.4876 20.25H20.5126L12.0001 3.87751L3.4876 20.25Z" fill="black"/>
</svg>
