<svg width="24" height="24" viewBox="0 0 24 24" fill="none" xmlns="http://www.w3.org/2000/svg">
<path fill-rule="evenodd" clip-rule="evenodd" d="M12 15C11.3787 15 10.875 15.5037 10.875 16.125C10.875 16.7463 11.3787 17.25 12 17.25C12.6213 17.25 13.125 16.7463 13.125 16.125C13.125 15.5037 12.6213 15 12 15ZM11.25 6.75H12.75V13.5H11.25V6.75ZM19.5 21H4.5C3.67192 20.9992 3.00083 20.3281 3 19.5V4.5C3.00083 3.67192 3.67192 3.00083 4.5 3H19.5C20.3281 3.00083 20.9992 3.67192 21 4.5V19.5C20.9992 20.3281 20.3281 20.9992 19.5 21ZM4.5 4.5V19.5H19.5007L19.5 4.5H4.5Z" fill="black"/>
</svg>
