<svg width="24" height="24" viewBox="0 0 24 24" fill="none" xmlns="http://www.w3.org/2000/svg">
<path fill-rule="evenodd" clip-rule="evenodd" d="M22.41 20.64L12.66 1.88999C12.5291 1.64742 12.2756 1.49622 12 1.49622C11.7243 1.49622 11.4709 1.64742 11.34 1.88999L1.58998 20.64C1.45601 20.872 1.45601 21.1579 1.58998 21.39C1.72961 21.6195 1.98138 21.7569 2.24998 21.75H21.75C22.0148 21.7499 22.2599 21.6103 22.395 21.3825C22.5308 21.155 22.5365 20.8728 22.41 20.64ZM11.16 7.49999H12.8475V15H11.16V7.49999ZM12 19.5C11.3787 19.5 10.875 18.9963 10.875 18.375C10.875 17.7537 11.3787 17.25 12 17.25C12.6213 17.25 13.125 17.7537 13.125 18.375C13.125 18.9963 12.6213 19.5 12 19.5Z" fill="black"/>
</svg>
