<svg width="24" height="24" viewBox="0 0 24 24" fill="none" xmlns="http://www.w3.org/2000/svg">
<path fill-rule="evenodd" clip-rule="evenodd" d="M15.8399 19.5H14.3999V13.32L12.0743 16.23C11.9375 16.402 11.7343 16.5015 11.5199 16.5015C11.3055 16.5015 11.1023 16.402 10.9655 16.23L8.63992 13.32V19.5H7.19992V11.25C7.20005 10.9342 7.39004 10.6524 7.67512 10.545C7.96042 10.437 8.28009 10.527 8.47432 10.77L11.5199 14.58L14.5655 10.77C14.7598 10.527 15.0794 10.437 15.3647 10.545C15.6498 10.6524 15.8398 10.9342 15.8399 11.25V19.5ZM2.99512 10.9875L0.835119 9.675C0.665347 9.57318 0.456322 9.57344 0.286784 9.67568C0.117246 9.77793 0.0129498 9.96662 0.013184 10.1707C0.0134182 10.3747 0.118147 10.5632 0.287919 10.665L2.44792 12C2.61719 12.1235 2.83878 12.137 3.02079 12.0352C3.20281 11.9333 3.3142 11.7333 3.30877 11.5181C3.30334 11.3029 3.18202 11.1093 2.99512 11.0175V10.9875ZM5.96872 7.89C6.03808 8.01668 6.1531 8.1093 6.28827 8.14731C6.42343 8.18533 6.56757 8.1656 6.68872 8.0925C6.93807 7.93922 7.02701 7.60837 6.89032 7.3425L5.63752 5.0925C5.53977 4.91565 5.35888 4.80656 5.16297 4.80632C4.96707 4.80607 4.78593 4.91471 4.68777 5.09132C4.58962 5.26792 4.58937 5.48565 4.68712 5.6625L5.96872 7.89ZM11.5199 6.75C11.8221 6.75 12.0671 6.4948 12.0671 6.18V3.57C12.0671 3.2552 11.8221 3 11.5199 3C11.2177 3 10.9727 3.2552 10.9727 3.57V6.1875C10.9767 6.49937 11.2205 6.75003 11.5199 6.75ZM16.3295 8.0925C16.4099 8.14374 16.5017 8.17218 16.5959 8.175C16.7919 8.17549 16.9731 8.06678 17.0711 7.89L18.3311 5.64C18.4289 5.46315 18.4286 5.24542 18.3305 5.06882C18.2323 4.89221 18.0512 4.78357 17.8553 4.78382C17.6594 4.78406 17.4785 4.89315 17.3807 5.07L16.1279 7.32C16.0554 7.45006 16.0359 7.60498 16.0737 7.75013C16.1116 7.89529 16.2037 8.01859 16.3295 8.0925ZM22.9679 9.885C22.8184 9.62848 22.5036 9.53666 22.2479 9.675L20.0879 10.9875C19.8195 11.1325 19.7147 11.4767 19.8539 11.7563C19.9931 12.0358 20.3235 12.145 20.5919 12L22.7519 10.695C22.8871 10.6209 22.9869 10.4919 23.0278 10.3386C23.0687 10.1852 23.047 10.0211 22.9679 9.885Z" fill="black"/>
</svg>
