<svg width="24" height="24" viewBox="0 0 24 24" fill="none" xmlns="http://www.w3.org/2000/svg">
<path fill-rule="evenodd" clip-rule="evenodd" d="M16.3727 7.11749C15.1138 6.37207 13.688 5.98655 12.2399 5.99999C12.0308 5.97488 11.8263 6.07698 11.7142 6.26257C11.602 6.44816 11.602 6.68432 11.7142 6.86991C11.8263 7.0555 12.0308 7.1576 12.2399 7.13249C12.7021 7.13957 13.1625 7.19231 13.6151 7.28999C11.9879 8.09999 10.1879 9.97499 8.76953 12.54C8.17519 13.5924 7.69236 14.709 7.32953 15.87C6.58837 15.0289 6.05031 14.0159 5.75993 12.915C5.56519 12.249 5.63793 11.5292 5.96153 10.92C6.53033 9.89249 7.71833 9.30749 9.29513 9.26999C9.44027 9.26606 9.57797 9.20221 9.6779 9.09249C9.77783 8.98277 9.8318 8.83618 9.82793 8.68499C9.8261 8.53313 9.7654 8.38849 9.65963 8.28397C9.55386 8.17944 9.41201 8.1239 9.26633 8.12999C7.33673 8.15999 5.83193 8.93999 5.03993 10.305C4.56513 11.1673 4.45062 12.1948 4.72313 13.1475C5.15322 14.6381 5.94706 15.987 7.02713 17.0625C6.85737 17.8621 6.79917 18.6831 6.85433 19.5C6.20992 18.7403 5.72006 17.8524 5.41433 16.89C5.37602 16.7419 5.28134 16.6166 5.15222 16.543C5.02309 16.4693 4.8707 16.4538 4.73033 16.5C4.5847 16.5458 4.46393 16.6526 4.397 16.7949C4.33006 16.9372 4.32301 17.1021 4.37753 17.25C5.00947 19.2708 6.33833 20.9757 8.10713 22.035C9.36273 22.7932 10.7886 23.1917 12.2399 23.19C12.969 23.1899 13.6951 23.0916 14.3999 22.8975C17.6164 21.9883 19.9939 19.1558 20.4298 15.714C20.8656 12.2722 19.2744 8.89439 16.3943 7.14749L16.3727 7.11749ZM14.0975 21.795C12.2598 22.3121 10.2998 22.0421 8.65433 21.045C8.03513 20.6775 7.78313 19.545 7.97753 18.045C8.53867 18.524 9.13579 18.9554 9.76313 19.335C11.2709 20.283 12.9919 20.8003 14.7527 20.835C15.3392 20.8324 15.9236 20.762 16.4951 20.625C15.7741 21.1694 14.9606 21.5664 14.0975 21.795ZM18.4607 18.3C17.0207 19.8 13.6655 20.355 10.3103 18.3375C9.56592 17.8837 8.86861 17.3509 8.22953 16.7475C8.57707 15.4589 9.0803 14.2215 9.72713 13.065C11.8439 9.25499 14.6447 7.38749 15.8255 8.09999C19.2432 10.1698 20.4196 14.723 18.4607 18.3ZM3.71513 8.78999L1.54073 7.49999C1.37146 7.37654 1.14987 7.36294 0.967854 7.46483C0.78584 7.56672 0.674449 7.76673 0.679877 7.9819C0.685306 8.19706 0.806628 8.3907 0.993529 8.48249L3.16793 9.74999C3.25235 9.79665 3.34599 9.82232 3.44153 9.82499C3.6371 9.82395 3.81768 9.71565 3.91673 9.53999C4.04954 9.27369 3.96138 8.94573 3.71513 8.78999ZM6.68873 5.69249C6.7774 5.87795 6.95786 5.99652 7.15673 5.99999C7.25271 6.00076 7.34715 5.97487 7.43033 5.92499C7.67658 5.76925 7.76474 5.44129 7.63193 5.17499L6.37913 2.92499C6.22728 2.6712 5.91297 2.5828 5.65913 2.72249C5.40977 2.87577 5.32084 3.20662 5.45753 3.47249L6.68873 5.69249ZM12.2399 4.55999C12.5421 4.55999 12.7871 4.30479 12.7871 3.98999V1.37249C12.7871 1.05769 12.5421 0.80249 12.2399 0.80249C11.9377 0.80249 11.6927 1.05769 11.6927 1.37249V3.98999C11.6927 4.30479 11.9377 4.55999 12.2399 4.55999ZM17.0495 5.90249C17.3048 6.04487 17.6224 5.95224 17.7695 5.69249L19.0295 3.44249C19.1662 3.17662 19.0773 2.84577 18.8279 2.69249C18.5741 2.5528 18.2598 2.6412 18.1079 2.89499L16.8551 5.14499C16.7164 5.41119 16.8018 5.74389 17.0495 5.90249ZM23.6879 7.68749C23.5361 7.4337 23.2218 7.3453 22.9679 7.48499L20.8079 8.78999C20.5617 8.94573 20.4735 9.27369 20.6063 9.53999C20.7054 9.71565 20.886 9.82395 21.0815 9.82499C21.1771 9.82232 21.2707 9.79665 21.3551 9.74999L23.5151 8.43749C23.751 8.27221 23.8261 7.94629 23.6879 7.68749Z" fill="black"/>
</svg>
