<svg width="24" height="24" viewBox="0 0 24 24" fill="none" xmlns="http://www.w3.org/2000/svg">
<path fill-rule="evenodd" clip-rule="evenodd" d="M11.25 3H12.75V5.25H11.25V3ZM18.75 11.25H21V12.75H18.75V11.25ZM11.25 18.75H12.75V21H11.25V18.75ZM3 11.25H5.25V12.75H3V11.25ZM5.08275 6.14175L6.1425 5.08125L7.73325 6.67125L6.67275 7.7325L5.08275 6.14175ZM16.2653 6.675L17.856 5.085L18.9165 6.1455L17.3265 7.73625L16.2653 6.675ZM16.2645 17.3228L17.325 16.2615L18.9157 17.853L17.8552 18.9135L16.2645 17.3228ZM5.085 17.85L6.675 16.2585L7.7355 17.319L6.14475 18.9105L5.085 17.85ZM3 22.5H21V24H3V22.5ZM3 0H21V1.5H3V0ZM12 7.5C9.51472 7.5 7.5 9.51472 7.5 12C7.5 14.4853 9.51472 16.5 12 16.5C14.4853 16.5 16.5 14.4853 16.5 12C16.5 9.51472 14.4853 7.5 12 7.5ZM9 12C9 10.3431 10.3431 9 12 9V15C10.3431 15 9 13.6569 9 12Z" fill="black"/>
</svg>
