<svg width="24" height="24" viewBox="0 0 24 24" fill="none" xmlns="http://www.w3.org/2000/svg">
<path fill-rule="evenodd" clip-rule="evenodd" d="M11.25 4.5H12.75V6.75H11.25V4.5ZM18.75 12.75H21V14.25H18.75V12.75ZM11.25 20.25H12.75V22.5H11.25V20.25ZM3 12.75H5.25V14.25H3V12.75ZM5.0805 7.6395L6.141 6.579L7.7325 8.1705L6.67125 9.231L5.0805 7.6395ZM16.2705 8.1735L17.8612 6.582L18.9225 7.64325L17.331 9.234L16.2705 8.1735ZM16.2675 18.8153L17.328 17.754L18.9187 19.3455L17.8582 20.406L16.2675 18.8153ZM5.08275 19.3575L6.67275 17.7668L7.734 18.8272L6.14325 20.418L5.08275 19.3575ZM3 1.5H21V3H3V1.5ZM12 18C14.4853 18 16.5 15.9853 16.5 13.5C16.5 11.0147 14.4853 9 12 9C9.51472 9 7.5 11.0147 7.5 13.5C7.5 15.9853 9.51472 18 12 18ZM12 10.5V16.5C10.3431 16.5 9 15.1569 9 13.5C9 11.8431 10.3431 10.5 12 10.5Z" fill="black"/>
</svg>
