<svg width="24" height="24" viewBox="0 0 24 24" fill="none" xmlns="http://www.w3.org/2000/svg">
<path fill-rule="evenodd" clip-rule="evenodd" d="M11.25 1.5H12.75V3.75H11.25V1.5ZM18.75 9.75H21V11.25H18.75V9.75ZM11.25 17.25H12.75V19.5H11.25V17.25ZM3 9.75H5.25V11.25H3V9.75ZM5.08125 4.641L6.1425 3.57975L7.734 5.17125L6.6735 6.23175L5.08125 4.641ZM16.272 5.175L17.862 3.5835L18.9233 4.64475L17.3325 6.23475L16.272 5.175ZM16.2683 15.816L17.3295 14.7555L18.9195 16.347L17.8598 17.4075L16.2683 15.816ZM5.0835 16.3597L6.675 14.7675L7.7355 15.828L6.14475 17.4195L5.0835 16.3597ZM3 21H21V22.5H3V21ZM12 15C14.4853 15 16.5 12.9853 16.5 10.5C16.5 8.01472 14.4853 6 12 6C9.51472 6 7.5 8.01472 7.5 10.5C7.5 12.9853 9.51472 15 12 15ZM12 7.5V13.5C10.3431 13.5 9 12.1569 9 10.5C9 8.84315 10.3431 7.5 12 7.5Z" fill="black"/>
</svg>
