<svg width="24" height="24" viewBox="0 0 24 24" fill="none" xmlns="http://www.w3.org/2000/svg">
<path fill-rule="evenodd" clip-rule="evenodd" d="M13.5 21V19.5C15.4891 19.5 17.3967 18.7098 18.8033 17.3033C20.2098 15.8968 21 13.9891 21 12H22.5C22.5 16.9706 18.4705 21 13.5 21ZM13.5 17.25V15.75C14.4945 15.75 15.4483 15.3549 16.1516 14.6517C16.8549 13.9484 17.25 12.9946 17.25 12H18.75C18.75 14.8995 16.3994 17.25 13.5 17.25ZM20.25 8.25H15.75V5.25C15.75 4.00736 14.7426 3 13.5 3H8.99995C7.75731 3 6.74995 4.00736 6.74995 5.25V8.25H2.24995C2.02992 8.24751 1.8199 8.34177 1.67551 8.50782C1.53112 8.67387 1.46693 8.89495 1.49995 9.1125L2.90995 18.225C3.02211 18.9646 3.66199 19.5085 4.40995 19.5H11.25V18H4.39495L3.12745 9.75H20.25V8.25ZM8.24995 5.25C8.24995 4.83579 8.58574 4.5 8.99995 4.5H13.5C13.9142 4.5 14.25 4.83579 14.25 5.25V8.25H8.24995V5.25Z" fill="black"/>
</svg>
