<svg width="24" height="24" viewBox="0 0 24 24" fill="none" xmlns="http://www.w3.org/2000/svg">
<path fill-rule="evenodd" clip-rule="evenodd" d="M21 17.25H16.5V15.75H21V12.75H18C17.1719 12.7492 16.5008 12.0781 16.5 11.25V8.25C16.5008 7.42192 17.1719 6.75083 18 6.75H22.5V8.25H18V11.25H21C21.8281 11.2508 22.4992 11.9219 22.5 12.75V15.75C22.4992 16.5781 21.8281 17.2492 21 17.25ZM10.5 15.75V6.75H9V17.25H15V15.75H10.5ZM7.5 6.75H6L4.5 11.25L3 6.75H1.5L3.564 12L1.5 17.25H3L4.5 12.75L6 17.25H7.5L5.43375 12L7.5 6.75Z" fill="black"/>
</svg>
