<svg width="24" height="24" viewBox="0 0 24 24" fill="none" xmlns="http://www.w3.org/2000/svg">
<path fill-rule="evenodd" clip-rule="evenodd" d="M20.2575 9L19.2 10.0575L21.135 12L19.1925 13.9425L20.2575 15L23.2575 12L20.2575 9ZM4.8075 10.065L3.75 9L0.75 12L3.75 15L4.815 13.9425L2.8725 12L4.8075 10.065ZM12 21.1275L10.0575 19.185L9 20.25L12 23.25L15 20.25L13.9425 19.1925L12 21.1275ZM12 2.8725L13.935 4.8075L15 3.75L12 0.75L9 3.75L10.0575 4.815L12 2.8725ZM16.5 12C16.5017 9.92393 15.0828 8.11618 13.0659 7.62445C11.0489 7.13272 8.95725 8.08465 8.00325 9.92855C7.04925 11.7724 7.4805 14.0297 9.04706 15.392C10.6136 16.7543 12.9088 16.8682 14.6025 15.6675L17.4675 18.5325L18.5325 17.4675L15.6675 14.6025C16.208 13.8423 16.4989 12.9328 16.5 12ZM12 15C10.3431 15 9 13.6569 9 12C9 10.3431 10.3431 9 12 9C13.6569 9 15 10.3431 15 12C15 12.7956 14.6839 13.5587 14.1213 14.1213C13.5587 14.6839 12.7956 15 12 15Z" fill="black"/>
</svg>
