<svg width="24" height="24" viewBox="0 0 24 24" fill="none" xmlns="http://www.w3.org/2000/svg">
<path fill-rule="evenodd" clip-rule="evenodd" d="M6.75 9.75H14.25V11.25H6.75V9.75ZM16.8375 15.75C18.0735 14.2799 18.7508 12.4206 18.75 10.5C18.75 5.94365 15.0563 2.25 10.5 2.25C5.94365 2.25 2.25 5.94365 2.25 10.5C2.25 15.0563 5.94365 18.75 10.5 18.75C12.4206 18.7508 14.2799 18.0735 15.75 16.8375L21.4425 22.5L22.5 21.4425L16.8375 15.75ZM10.5 17.25C6.77208 17.25 3.75 14.2279 3.75 10.5C3.75 6.77208 6.77208 3.75 10.5 3.75C14.2279 3.75 17.25 6.77208 17.25 10.5C17.25 14.2279 14.2279 17.25 10.5 17.25Z" fill="black"/>
</svg>
